<?xml version='1.0' encoding='utf-8'?>
<svg xmlns="http://www.w3.org/2000/svg" width="1000" height="750" viewBox="0 0 1000 750"><rect x="0" y="0" width="1000" height="750" fill="#0f172a" /><text x="25" y="35" fill="#f8fafc" style="font: bold 20px sans-serif">TASK-080 | Önce: Dağınık / Sıralı Başlangıç Yerleşimi</text><defs><marker id="arr" markerWidth="8" markerHeight="8" refX="7" refY="4" orient="auto"><path d="M0,0 L8,4 L0,8" fill="#38bdf8" /></marker><marker id="arr_pwr" markerWidth="8" markerHeight="8" refX="7" refY="4" orient="auto"><path d="M0,0 L8,4 L0,8" fill="#ef4444" /></marker><marker id="arr_gnd" markerWidth="8" markerHeight="8" refX="7" refY="4" orient="auto"><path d="M0,0 L8,4 L0,8" fill="#10b981" /></marker></defs><rect x="253.76215600000006" y="85.24749999999997" width="674.8775" height="259.32500000000016" fill="#64748b" fill-opacity="0.4" stroke="#64748b" stroke-width="1.5" /><text x="591.200906" y="218.91000000000005" fill="white" text-anchor="middle" style="font: bold 11px sans-serif">J8</text><rect x="-353.03534399999995" y="354.51999999999987" width="47.7249999999999" height="41.6875" fill="#f59e0b" fill-opacity="0.4" stroke="#f59e0b" stroke-width="1.5" /><text x="-329.172844" y="379.36374999999987" fill="white" text-anchor="middle" style="font: bold 11px sans-serif">Q8</text><rect x="-222.71100750000002" y="356.53248850000006" width="21.96499999999996" height="11.385000000000105" fill="#a855f7" fill-opacity="0.4" stroke="#a855f7" stroke-width="1.5" /><text x="-211.72850750000003" y="366.2249885000001" fill="white" text-anchor="middle" style="font: bold 11px sans-serif">R17</text><rect x="-293.350344" y="356.5325" width="23.11500000000006" height="39.67499999999987" fill="#10b981" fill-opacity="0.4" stroke="#10b981" stroke-width="1.5" /><text x="-281.792844" y="380.36999999999995" fill="white" text-anchor="middle" style="font: bold 11px sans-serif">C10</text><rect x="-188.78600749999998" y="356.5325" width="21.505000000000052" height="11.154999999999987" fill="#10b981" fill-opacity="0.4" stroke="#10b981" stroke-width="1.5" /><text x="-178.03350749999996" y="366.11" fill="white" text-anchor="middle" style="font: bold 11px sans-serif">C20</text><rect x="-155.3210075" y="356.5325" width="21.505000000000052" height="11.154999999999987" fill="#a855f7" fill-opacity="0.4" stroke="#a855f7" stroke-width="1.5" /><text x="-144.56850749999998" y="366.11" fill="white" text-anchor="middle" style="font: bold 11px sans-serif">C21</text><rect x="-258.24598449999996" y="356.54713949999996" width="23.574999999999967" height="23.57500000000013" fill="#06b6d4" fill-opacity="0.4" stroke="#06b6d4" stroke-width="1.5" /><text x="-246.45848449999997" y="372.33463950000004" fill="white" text-anchor="middle" style="font: bold 11px sans-serif">TP14</text><circle cx="287.80050000000006" cy="317.14499999999987" r="4" fill="#64748b" stroke="#ffffff" stroke-width="0.75" /><circle cx="317.0105" cy="317.14499999999987" r="4" fill="#64748b" stroke="#ffffff" stroke-width="0.75" /><circle cx="287.80050000000006" cy="287.93499999999995" r="4" fill="#38bdf8" stroke="#ffffff" stroke-width="0.75" /><circle cx="317.0105" cy="287.93499999999995" r="4" fill="#38bdf8" stroke="#ffffff" stroke-width="0.75" /><circle cx="287.80050000000006" cy="258.7250000000001" r="4" fill="#38bdf8" stroke="#ffffff" stroke-width="0.75" /><circle cx="317.0105" cy="258.7250000000001" r="4" fill="#64748b" stroke="#ffffff" stroke-width="0.75" /><circle cx="287.80050000000006" cy="229.51500000000016" r="4" fill="#38bdf8" stroke="#ffffff" stroke-width="0.75" /><circle cx="317.0105" cy="229.51500000000016" r="4" fill="#64748b" stroke="#ffffff" stroke-width="0.75" /><circle cx="287.80050000000006" cy="200.30499999999992" r="4" fill="#64748b" stroke="#ffffff" stroke-width="0.75" /><circle cx="317.0105" cy="200.30499999999992" r="4" fill="#64748b" stroke="#ffffff" stroke-width="0.75" /><circle cx="287.80050000000006" cy="171.09500000000003" r="4" fill="#10b981" stroke="#ffffff" stroke-width="0.75" /><circle cx="317.0105" cy="171.09500000000003" r="4" fill="#10b981" stroke="#ffffff" stroke-width="0.75" /><circle cx="287.80050000000006" cy="141.8850000000001" r="4" fill="#ef4444" stroke="#ffffff" stroke-width="0.75" /><circle cx="317.0105" cy="141.8850000000001" r="4" fill="#ef4444" stroke="#ffffff" stroke-width="0.75" /><circle cx="287.80050000000006" cy="112.67499999999987" r="4" fill="#64748b" stroke="#ffffff" stroke-width="0.75" /><circle cx="317.0105" cy="112.67499999999987" r="4" fill="#64748b" stroke="#ffffff" stroke-width="0.75" /><circle cx="830.0255000000002" cy="325.8850000000001" r="4" fill="#64748b" stroke="#ffffff" stroke-width="0.75" /><circle cx="830.0255000000002" cy="103.93499999999997" r="4" fill="#64748b" stroke="#ffffff" stroke-width="0.75" /></svg>