ISO-10303-21;
HEADER;
FILE_DESCRIPTION(('KiCad electronic assembly'),'2;1');
FILE_NAME('C1.step','2026-09-28T08:13:18',('Pcbnew'),('Kicad'),
  'Open CASCADE STEP processor 7.9','KiCad to STEP converter','Unknown'
  );
FILE_SCHEMA(('AUTOMOTIVE_DESIGN { 1 0 10303 214 1 1 1 1 }'));
ENDSEC;
DATA;
#1 = APPLICATION_PROTOCOL_DEFINITION('international standard',
  'automotive_design',2000,#2);
#2 = APPLICATION_CONTEXT(
  'core data for automotive mechanical design processes');
#3 = SHAPE_DEFINITION_REPRESENTATION(#4,#10);
#4 = PRODUCT_DEFINITION_SHAPE('','',#5);
#5 = PRODUCT_DEFINITION('design','',#6,#9);
#6 = PRODUCT_DEFINITION_FORMATION('','',#7);
#7 = PRODUCT('C1 1','C1 1','',(#8));
#8 = PRODUCT_CONTEXT('',#2,'mechanical');
#9 = PRODUCT_DEFINITION_CONTEXT('part definition',#2,'design');
#10 = SHAPE_REPRESENTATION('',(#11,#15),#19);
#11 = AXIS2_PLACEMENT_3D('',#12,#13,#14);
#12 = CARTESIAN_POINT('',(0.,0.,0.));
#13 = DIRECTION('',(0.,0.,1.));
#14 = DIRECTION('',(1.,0.,-0.));
#15 = AXIS2_PLACEMENT_3D('',#16,#17,#18);
#16 = CARTESIAN_POINT('',(73.5,-125.5,-8.5E-02));
#17 = DIRECTION('',(0.,-1.224646799147E-16,-1.));
#18 = DIRECTION('',(1.,0.,0.));
#19 = ( GEOMETRIC_REPRESENTATION_CONTEXT(3) 
GLOBAL_UNCERTAINTY_ASSIGNED_CONTEXT((#23)) GLOBAL_UNIT_ASSIGNED_CONTEXT(
(#20,#21,#22)) REPRESENTATION_CONTEXT('Context #1',
  '3D Context with UNIT and UNCERTAINTY') );
#20 = ( LENGTH_UNIT() NAMED_UNIT(*) SI_UNIT(.MILLI.,.METRE.) );
#21 = ( NAMED_UNIT(*) PLANE_ANGLE_UNIT() SI_UNIT($,.RADIAN.) );
#22 = ( NAMED_UNIT(*) SI_UNIT($,.STERADIAN.) SOLID_ANGLE_UNIT() );
#23 = UNCERTAINTY_MEASURE_WITH_UNIT(LENGTH_MEASURE(1.E-07),#20,
  'distance_accuracy_value','confusion accuracy');
#24 = PRODUCT_RELATED_PRODUCT_CATEGORY('part',$,(#7));
#25 = SHAPE_DEFINITION_REPRESENTATION(#26,#32);
#26 = PRODUCT_DEFINITION_SHAPE('','',#27);
#27 = PRODUCT_DEFINITION('design','',#28,#31);
#28 = PRODUCT_DEFINITION_FORMATION('','',#29);
#29 = PRODUCT('C_0402_1005Metric','C_0402_1005Metric','',(#30));
#30 = PRODUCT_CONTEXT('',#2,'mechanical');
#31 = PRODUCT_DEFINITION_CONTEXT('part definition',#2,'design');
#32 = SHAPE_REPRESENTATION('',(#11,#33),#37);
#33 = AXIS2_PLACEMENT_3D('',#34,#35,#36);
#34 = CARTESIAN_POINT('',(0.,0.,0.));
#35 = DIRECTION('',(0.,0.,1.));
#36 = DIRECTION('',(1.,0.,-0.));
#37 = ( GEOMETRIC_REPRESENTATION_CONTEXT(3) 
GLOBAL_UNCERTAINTY_ASSIGNED_CONTEXT((#41)) GLOBAL_UNIT_ASSIGNED_CONTEXT(
(#38,#39,#40)) REPRESENTATION_CONTEXT('Context #1',
  '3D Context with UNIT and UNCERTAINTY') );
#38 = ( LENGTH_UNIT() NAMED_UNIT(*) SI_UNIT(.MILLI.,.METRE.) );
#39 = ( NAMED_UNIT(*) PLANE_ANGLE_UNIT() SI_UNIT($,.RADIAN.) );
#40 = ( NAMED_UNIT(*) SI_UNIT($,.STERADIAN.) SOLID_ANGLE_UNIT() );
#41 = UNCERTAINTY_MEASURE_WITH_UNIT(LENGTH_MEASURE(1.E-07),#38,
  'distance_accuracy_value','confusion accuracy');
#42 = CONTEXT_DEPENDENT_SHAPE_REPRESENTATION(#43,#45);
#43 = ( REPRESENTATION_RELATIONSHIP('','',#32,#10) 
REPRESENTATION_RELATIONSHIP_WITH_TRANSFORMATION(#44) 
SHAPE_REPRESENTATION_RELATIONSHIP() );
#44 = ITEM_DEFINED_TRANSFORMATION('','',#11,#15);
#45 = PRODUCT_DEFINITION_SHAPE('Placement','Placement of an item',#46);
#46 = NEXT_ASSEMBLY_USAGE_OCCURRENCE('2','C1','',#5,#27,$);
#47 = PRODUCT_RELATED_PRODUCT_CATEGORY('part',$,(#29));
#48 = SHAPE_DEFINITION_REPRESENTATION(#49,#55);
#49 = PRODUCT_DEFINITION_SHAPE('','',#50);
#50 = PRODUCT_DEFINITION('design','',#51,#54);
#51 = PRODUCT_DEFINITION_FORMATION('','',#52);
#52 = PRODUCT('C_0402_1005Metric','C_0402_1005Metric','',(#53));
#53 = PRODUCT_CONTEXT('',#2,'mechanical');
#54 = PRODUCT_DEFINITION_CONTEXT('part definition',#2,'design');
#55 = ADVANCED_BREP_SHAPE_REPRESENTATION('',(#11,#56),#910);
#56 = MANIFOLD_SOLID_BREP('',#57);
#57 = CLOSED_SHELL('',(#58,#134,#165,#190,#215,#239,#263,#288,#313,#330,
    #416,#448,#472,#497,#521,#546,#570,#595,#612,#698,#729,#754,#779,
    #803,#827,#852,#877,#894));
#58 = ADVANCED_FACE('',(#59),#129,.F.);
#59 = FACE_BOUND('',#60,.F.);
#60 = EDGE_LOOP('',(#61,#71,#80,#88,#97,#105,#114,#122));
#61 = ORIENTED_EDGE('',*,*,#62,.F.);
#62 = EDGE_CURVE('',#63,#65,#67,.T.);
#63 = VERTEX_POINT('',#64);
#64 = CARTESIAN_POINT('',(-0.5,-0.25,2.E-02));
#65 = VERTEX_POINT('',#66);
#66 = CARTESIAN_POINT('',(-0.5,-0.25,0.48));
#67 = LINE('',#68,#69);
#68 = CARTESIAN_POINT('',(-0.5,-0.25,0.));
#69 = VECTOR('',#70,1.);
#70 = DIRECTION('',(0.,0.,1.));
#71 = ORIENTED_EDGE('',*,*,#72,.T.);
#72 = EDGE_CURVE('',#63,#73,#75,.T.);
#73 = VERTEX_POINT('',#74);
#74 = CARTESIAN_POINT('',(-0.5,-0.23,0.));
#75 = CIRCLE('',#76,2.E-02);
#76 = AXIS2_PLACEMENT_3D('',#77,#78,#79);
#77 = CARTESIAN_POINT('',(-0.5,-0.23,2.E-02));
#78 = DIRECTION('',(1.,0.,-0.));
#79 = DIRECTION('',(0.,0.,1.));
#80 = ORIENTED_EDGE('',*,*,#81,.T.);
#81 = EDGE_CURVE('',#73,#82,#84,.T.);
#82 = VERTEX_POINT('',#83);
#83 = CARTESIAN_POINT('',(-0.5,0.23,0.));
#84 = LINE('',#85,#86);
#85 = CARTESIAN_POINT('',(-0.5,-0.25,0.));
#86 = VECTOR('',#87,1.);
#87 = DIRECTION('',(0.,1.,0.));
#88 = ORIENTED_EDGE('',*,*,#89,.F.);
#89 = EDGE_CURVE('',#90,#82,#92,.T.);
#90 = VERTEX_POINT('',#91);
#91 = CARTESIAN_POINT('',(-0.5,0.25,2.E-02));
#92 = CIRCLE('',#93,2.E-02);
#93 = AXIS2_PLACEMENT_3D('',#94,#95,#96);
#94 = CARTESIAN_POINT('',(-0.5,0.23,2.E-02));
#95 = DIRECTION('',(-1.,0.,0.));
#96 = DIRECTION('',(0.,0.,1.));
#97 = ORIENTED_EDGE('',*,*,#98,.T.);
#98 = EDGE_CURVE('',#90,#99,#101,.T.);
#99 = VERTEX_POINT('',#100);
#100 = CARTESIAN_POINT('',(-0.5,0.25,0.48));
#101 = LINE('',#102,#103);
#102 = CARTESIAN_POINT('',(-0.5,0.25,0.));
#103 = VECTOR('',#104,1.);
#104 = DIRECTION('',(0.,0.,1.));
#105 = ORIENTED_EDGE('',*,*,#106,.T.);
#106 = EDGE_CURVE('',#99,#107,#109,.T.);
#107 = VERTEX_POINT('',#108);
#108 = CARTESIAN_POINT('',(-0.5,0.23,0.5));
#109 = CIRCLE('',#110,2.E-02);
#110 = AXIS2_PLACEMENT_3D('',#111,#112,#113);
#111 = CARTESIAN_POINT('',(-0.5,0.23,0.48));
#112 = DIRECTION('',(1.,0.,-0.));
#113 = DIRECTION('',(0.,0.,1.));
#114 = ORIENTED_EDGE('',*,*,#115,.F.);
#115 = EDGE_CURVE('',#116,#107,#118,.T.);
#116 = VERTEX_POINT('',#117);
#117 = CARTESIAN_POINT('',(-0.5,-0.23,0.5));
#118 = LINE('',#119,#120);
#119 = CARTESIAN_POINT('',(-0.5,-0.25,0.5));
#120 = VECTOR('',#121,1.);
#121 = DIRECTION('',(0.,1.,0.));
#122 = ORIENTED_EDGE('',*,*,#123,.F.);
#123 = EDGE_CURVE('',#65,#116,#124,.T.);
#124 = CIRCLE('',#125,2.E-02);
#125 = AXIS2_PLACEMENT_3D('',#126,#127,#128);
#126 = CARTESIAN_POINT('',(-0.5,-0.23,0.48));
#127 = DIRECTION('',(-1.,0.,0.));
#128 = DIRECTION('',(0.,0.,1.));
#129 = PLANE('',#130);
#130 = AXIS2_PLACEMENT_3D('',#131,#132,#133);
#131 = CARTESIAN_POINT('',(-0.5,-0.25,0.));
#132 = DIRECTION('',(1.,0.,0.));
#133 = DIRECTION('',(0.,0.,1.));
#134 = ADVANCED_FACE('',(#135),#160,.F.);
#135 = FACE_BOUND('',#136,.F.);
#136 = EDGE_LOOP('',(#137,#147,#153,#154));
#137 = ORIENTED_EDGE('',*,*,#138,.F.);
#138 = EDGE_CURVE('',#139,#141,#143,.T.);
#139 = VERTEX_POINT('',#140);
#140 = CARTESIAN_POINT('',(-0.3,-0.25,2.E-02));
#141 = VERTEX_POINT('',#142);
#142 = CARTESIAN_POINT('',(-0.3,-0.25,0.48));
#143 = LINE('',#144,#145);
#144 = CARTESIAN_POINT('',(-0.3,-0.25,0.));
#145 = VECTOR('',#146,1.);
#146 = DIRECTION('',(0.,0.,1.));
#147 = ORIENTED_EDGE('',*,*,#148,.F.);
#148 = EDGE_CURVE('',#63,#139,#149,.T.);
#149 = LINE('',#150,#151);
#150 = CARTESIAN_POINT('',(-0.5,-0.25,2.E-02));
#151 = VECTOR('',#152,1.);
#152 = DIRECTION('',(1.,0.,0.));
#153 = ORIENTED_EDGE('',*,*,#62,.T.);
#154 = ORIENTED_EDGE('',*,*,#155,.T.);
#155 = EDGE_CURVE('',#65,#141,#156,.T.);
#156 = LINE('',#157,#158);
#157 = CARTESIAN_POINT('',(-0.5,-0.25,0.48));
#158 = VECTOR('',#159,1.);
#159 = DIRECTION('',(1.,0.,0.));
#160 = PLANE('',#161);
#161 = AXIS2_PLACEMENT_3D('',#162,#163,#164);
#162 = CARTESIAN_POINT('',(-0.5,-0.25,0.));
#163 = DIRECTION('',(0.,1.,0.));
#164 = DIRECTION('',(0.,-0.,1.));
#165 = ADVANCED_FACE('',(#166),#185,.T.);
#166 = FACE_BOUND('',#167,.T.);
#167 = EDGE_LOOP('',(#168,#169,#177,#184));
#168 = ORIENTED_EDGE('',*,*,#72,.T.);
#169 = ORIENTED_EDGE('',*,*,#170,.T.);
#170 = EDGE_CURVE('',#73,#171,#173,.T.);
#171 = VERTEX_POINT('',#172);
#172 = CARTESIAN_POINT('',(-0.3,-0.23,0.));
#173 = LINE('',#174,#175);
#174 = CARTESIAN_POINT('',(-0.5,-0.23,0.));
#175 = VECTOR('',#176,1.);
#176 = DIRECTION('',(1.,0.,0.));
#177 = ORIENTED_EDGE('',*,*,#178,.F.);
#178 = EDGE_CURVE('',#139,#171,#179,.T.);
#179 = CIRCLE('',#180,2.E-02);
#180 = AXIS2_PLACEMENT_3D('',#181,#182,#183);
#181 = CARTESIAN_POINT('',(-0.3,-0.23,2.E-02));
#182 = DIRECTION('',(1.,0.,-0.));
#183 = DIRECTION('',(0.,0.,1.));
#184 = ORIENTED_EDGE('',*,*,#148,.F.);
#185 = CYLINDRICAL_SURFACE('',#186,2.E-02);
#186 = AXIS2_PLACEMENT_3D('',#187,#188,#189);
#187 = CARTESIAN_POINT('',(-0.5,-0.23,2.E-02));
#188 = DIRECTION('',(1.,0.,0.));
#189 = DIRECTION('',(0.,-1.,0.));
#190 = ADVANCED_FACE('',(#191),#210,.T.);
#191 = FACE_BOUND('',#192,.T.);
#192 = EDGE_LOOP('',(#193,#194,#203,#209));
#193 = ORIENTED_EDGE('',*,*,#155,.T.);
#194 = ORIENTED_EDGE('',*,*,#195,.T.);
#195 = EDGE_CURVE('',#141,#196,#198,.T.);
#196 = VERTEX_POINT('',#197);
#197 = CARTESIAN_POINT('',(-0.3,-0.23,0.5));
#198 = CIRCLE('',#199,2.E-02);
#199 = AXIS2_PLACEMENT_3D('',#200,#201,#202);
#200 = CARTESIAN_POINT('',(-0.3,-0.23,0.48));
#201 = DIRECTION('',(-1.,0.,0.));
#202 = DIRECTION('',(0.,0.,1.));
#203 = ORIENTED_EDGE('',*,*,#204,.F.);
#204 = EDGE_CURVE('',#116,#196,#205,.T.);
#205 = LINE('',#206,#207);
#206 = CARTESIAN_POINT('',(-0.5,-0.23,0.5));
#207 = VECTOR('',#208,1.);
#208 = DIRECTION('',(1.,0.,0.));
#209 = ORIENTED_EDGE('',*,*,#123,.F.);
#210 = CYLINDRICAL_SURFACE('',#211,2.E-02);
#211 = AXIS2_PLACEMENT_3D('',#212,#213,#214);
#212 = CARTESIAN_POINT('',(-0.5,-0.23,0.48));
#213 = DIRECTION('',(1.,0.,0.));
#214 = DIRECTION('',(0.,-1.,0.));
#215 = ADVANCED_FACE('',(#216),#234,.F.);
#216 = FACE_BOUND('',#217,.F.);
#217 = EDGE_LOOP('',(#218,#219,#220,#228));
#218 = ORIENTED_EDGE('',*,*,#81,.F.);
#219 = ORIENTED_EDGE('',*,*,#170,.T.);
#220 = ORIENTED_EDGE('',*,*,#221,.T.);
#221 = EDGE_CURVE('',#171,#222,#224,.T.);
#222 = VERTEX_POINT('',#223);
#223 = CARTESIAN_POINT('',(-0.3,0.23,0.));
#224 = LINE('',#225,#226);
#225 = CARTESIAN_POINT('',(-0.3,-0.25,0.));
#226 = VECTOR('',#227,1.);
#227 = DIRECTION('',(0.,1.,0.));
#228 = ORIENTED_EDGE('',*,*,#229,.F.);
#229 = EDGE_CURVE('',#82,#222,#230,.T.);
#230 = LINE('',#231,#232);
#231 = CARTESIAN_POINT('',(-0.5,0.23,0.));
#232 = VECTOR('',#233,1.);
#233 = DIRECTION('',(1.,0.,0.));
#234 = PLANE('',#235);
#235 = AXIS2_PLACEMENT_3D('',#236,#237,#238);
#236 = CARTESIAN_POINT('',(-0.5,-0.25,0.));
#237 = DIRECTION('',(0.,0.,1.));
#238 = DIRECTION('',(1.,0.,-0.));
#239 = ADVANCED_FACE('',(#240),#258,.T.);
#240 = FACE_BOUND('',#241,.T.);
#241 = EDGE_LOOP('',(#242,#243,#244,#252));
#242 = ORIENTED_EDGE('',*,*,#115,.F.);
#243 = ORIENTED_EDGE('',*,*,#204,.T.);
#244 = ORIENTED_EDGE('',*,*,#245,.T.);
#245 = EDGE_CURVE('',#196,#246,#248,.T.);
#246 = VERTEX_POINT('',#247);
#247 = CARTESIAN_POINT('',(-0.3,0.23,0.5));
#248 = LINE('',#249,#250);
#249 = CARTESIAN_POINT('',(-0.3,-0.25,0.5));
#250 = VECTOR('',#251,1.);
#251 = DIRECTION('',(0.,1.,0.));
#252 = ORIENTED_EDGE('',*,*,#253,.F.);
#253 = EDGE_CURVE('',#107,#246,#254,.T.);
#254 = LINE('',#255,#256);
#255 = CARTESIAN_POINT('',(-0.5,0.23,0.5));
#256 = VECTOR('',#257,1.);
#257 = DIRECTION('',(1.,0.,0.));
#258 = PLANE('',#259);
#259 = AXIS2_PLACEMENT_3D('',#260,#261,#262);
#260 = CARTESIAN_POINT('',(-0.5,-0.25,0.5));
#261 = DIRECTION('',(0.,0.,1.));
#262 = DIRECTION('',(1.,0.,-0.));
#263 = ADVANCED_FACE('',(#264),#283,.T.);
#264 = FACE_BOUND('',#265,.T.);
#265 = EDGE_LOOP('',(#266,#274,#281,#282));
#266 = ORIENTED_EDGE('',*,*,#267,.T.);
#267 = EDGE_CURVE('',#90,#268,#270,.T.);
#268 = VERTEX_POINT('',#269);
#269 = CARTESIAN_POINT('',(-0.3,0.25,2.E-02));
#270 = LINE('',#271,#272);
#271 = CARTESIAN_POINT('',(-0.5,0.25,2.E-02));
#272 = VECTOR('',#273,1.);
#273 = DIRECTION('',(1.,0.,0.));
#274 = ORIENTED_EDGE('',*,*,#275,.T.);
#275 = EDGE_CURVE('',#268,#222,#276,.T.);
#276 = CIRCLE('',#277,2.E-02);
#277 = AXIS2_PLACEMENT_3D('',#278,#279,#280);
#278 = CARTESIAN_POINT('',(-0.3,0.23,2.E-02));
#279 = DIRECTION('',(-1.,0.,0.));
#280 = DIRECTION('',(0.,0.,1.));
#281 = ORIENTED_EDGE('',*,*,#229,.F.);
#282 = ORIENTED_EDGE('',*,*,#89,.F.);
#283 = CYLINDRICAL_SURFACE('',#284,2.E-02);
#284 = AXIS2_PLACEMENT_3D('',#285,#286,#287);
#285 = CARTESIAN_POINT('',(-0.5,0.23,2.E-02));
#286 = DIRECTION('',(1.,0.,0.));
#287 = DIRECTION('',(-0.,1.,0.));
#288 = ADVANCED_FACE('',(#289),#308,.T.);
#289 = FACE_BOUND('',#290,.T.);
#290 = EDGE_LOOP('',(#291,#292,#293,#302));
#291 = ORIENTED_EDGE('',*,*,#106,.T.);
#292 = ORIENTED_EDGE('',*,*,#253,.T.);
#293 = ORIENTED_EDGE('',*,*,#294,.F.);
#294 = EDGE_CURVE('',#295,#246,#297,.T.);
#295 = VERTEX_POINT('',#296);
#296 = CARTESIAN_POINT('',(-0.3,0.25,0.48));
#297 = CIRCLE('',#298,2.E-02);
#298 = AXIS2_PLACEMENT_3D('',#299,#300,#301);
#299 = CARTESIAN_POINT('',(-0.3,0.23,0.48));
#300 = DIRECTION('',(1.,0.,-0.));
#301 = DIRECTION('',(0.,0.,1.));
#302 = ORIENTED_EDGE('',*,*,#303,.F.);
#303 = EDGE_CURVE('',#99,#295,#304,.T.);
#304 = LINE('',#305,#306);
#305 = CARTESIAN_POINT('',(-0.5,0.25,0.48));
#306 = VECTOR('',#307,1.);
#307 = DIRECTION('',(1.,0.,0.));
#308 = CYLINDRICAL_SURFACE('',#309,2.E-02);
#309 = AXIS2_PLACEMENT_3D('',#310,#311,#312);
#310 = CARTESIAN_POINT('',(-0.5,0.23,0.48));
#311 = DIRECTION('',(1.,0.,0.));
#312 = DIRECTION('',(-0.,1.,0.));
#313 = ADVANCED_FACE('',(#314),#325,.T.);
#314 = FACE_BOUND('',#315,.T.);
#315 = EDGE_LOOP('',(#316,#322,#323,#324));
#316 = ORIENTED_EDGE('',*,*,#317,.F.);
#317 = EDGE_CURVE('',#268,#295,#318,.T.);
#318 = LINE('',#319,#320);
#319 = CARTESIAN_POINT('',(-0.3,0.25,0.));
#320 = VECTOR('',#321,1.);
#321 = DIRECTION('',(0.,0.,1.));
#322 = ORIENTED_EDGE('',*,*,#267,.F.);
#323 = ORIENTED_EDGE('',*,*,#98,.T.);
#324 = ORIENTED_EDGE('',*,*,#303,.T.);
#325 = PLANE('',#326);
#326 = AXIS2_PLACEMENT_3D('',#327,#328,#329);
#327 = CARTESIAN_POINT('',(-0.5,0.25,0.));
#328 = DIRECTION('',(0.,1.,0.));
#329 = DIRECTION('',(0.,-0.,1.));
#330 = ADVANCED_FACE('',(#331,#341),#411,.T.);
#331 = FACE_BOUND('',#332,.T.);
#332 = EDGE_LOOP('',(#333,#334,#335,#336,#337,#338,#339,#340));
#333 = ORIENTED_EDGE('',*,*,#138,.F.);
#334 = ORIENTED_EDGE('',*,*,#178,.T.);
#335 = ORIENTED_EDGE('',*,*,#221,.T.);
#336 = ORIENTED_EDGE('',*,*,#275,.F.);
#337 = ORIENTED_EDGE('',*,*,#317,.T.);
#338 = ORIENTED_EDGE('',*,*,#294,.T.);
#339 = ORIENTED_EDGE('',*,*,#245,.F.);
#340 = ORIENTED_EDGE('',*,*,#195,.F.);
#341 = FACE_BOUND('',#342,.T.);
#342 = EDGE_LOOP('',(#343,#354,#362,#371,#379,#388,#396,#405));
#343 = ORIENTED_EDGE('',*,*,#344,.F.);
#344 = EDGE_CURVE('',#345,#347,#349,.T.);
#345 = VERTEX_POINT('',#346);
#346 = CARTESIAN_POINT('',(-0.3,-0.23,4.E-02));
#347 = VERTEX_POINT('',#348);
#348 = CARTESIAN_POINT('',(-0.3,-0.21,2.E-02));
#349 = CIRCLE('',#350,2.E-02);
#350 = AXIS2_PLACEMENT_3D('',#351,#352,#353);
#351 = CARTESIAN_POINT('',(-0.3,-0.21,4.E-02));
#352 = DIRECTION('',(1.,0.,-0.));
#353 = DIRECTION('',(0.,0.,1.));
#354 = ORIENTED_EDGE('',*,*,#355,.T.);
#355 = EDGE_CURVE('',#345,#356,#358,.T.);
#356 = VERTEX_POINT('',#357);
#357 = CARTESIAN_POINT('',(-0.3,-0.23,0.46));
#358 = LINE('',#359,#360);
#359 = CARTESIAN_POINT('',(-0.3,-0.23,2.E-02));
#360 = VECTOR('',#361,1.);
#361 = DIRECTION('',(0.,0.,1.));
#362 = ORIENTED_EDGE('',*,*,#363,.T.);
#363 = EDGE_CURVE('',#356,#364,#366,.T.);
#364 = VERTEX_POINT('',#365);
#365 = CARTESIAN_POINT('',(-0.3,-0.21,0.48));
#366 = CIRCLE('',#367,2.E-02);
#367 = AXIS2_PLACEMENT_3D('',#368,#369,#370);
#368 = CARTESIAN_POINT('',(-0.3,-0.21,0.46));
#369 = DIRECTION('',(-1.,0.,0.));
#370 = DIRECTION('',(0.,0.,1.));
#371 = ORIENTED_EDGE('',*,*,#372,.T.);
#372 = EDGE_CURVE('',#364,#373,#375,.T.);
#373 = VERTEX_POINT('',#374);
#374 = CARTESIAN_POINT('',(-0.3,0.21,0.48));
#375 = LINE('',#376,#377);
#376 = CARTESIAN_POINT('',(-0.3,-0.23,0.48));
#377 = VECTOR('',#378,1.);
#378 = DIRECTION('',(0.,1.,0.));
#379 = ORIENTED_EDGE('',*,*,#380,.F.);
#380 = EDGE_CURVE('',#381,#373,#383,.T.);
#381 = VERTEX_POINT('',#382);
#382 = CARTESIAN_POINT('',(-0.3,0.23,0.46));
#383 = CIRCLE('',#384,2.E-02);
#384 = AXIS2_PLACEMENT_3D('',#385,#386,#387);
#385 = CARTESIAN_POINT('',(-0.3,0.21,0.46));
#386 = DIRECTION('',(1.,0.,-0.));
#387 = DIRECTION('',(0.,0.,1.));
#388 = ORIENTED_EDGE('',*,*,#389,.F.);
#389 = EDGE_CURVE('',#390,#381,#392,.T.);
#390 = VERTEX_POINT('',#391);
#391 = CARTESIAN_POINT('',(-0.3,0.23,4.E-02));
#392 = LINE('',#393,#394);
#393 = CARTESIAN_POINT('',(-0.3,0.23,2.E-02));
#394 = VECTOR('',#395,1.);
#395 = DIRECTION('',(0.,0.,1.));
#396 = ORIENTED_EDGE('',*,*,#397,.T.);
#397 = EDGE_CURVE('',#390,#398,#400,.T.);
#398 = VERTEX_POINT('',#399);
#399 = CARTESIAN_POINT('',(-0.3,0.21,2.E-02));
#400 = CIRCLE('',#401,2.E-02);
#401 = AXIS2_PLACEMENT_3D('',#402,#403,#404);
#402 = CARTESIAN_POINT('',(-0.3,0.21,4.E-02));
#403 = DIRECTION('',(-1.,0.,0.));
#404 = DIRECTION('',(0.,0.,1.));
#405 = ORIENTED_EDGE('',*,*,#406,.F.);
#406 = EDGE_CURVE('',#347,#398,#407,.T.);
#407 = LINE('',#408,#409);
#408 = CARTESIAN_POINT('',(-0.3,-0.23,2.E-02));
#409 = VECTOR('',#410,1.);
#410 = DIRECTION('',(0.,1.,0.));
#411 = PLANE('',#412);
#412 = AXIS2_PLACEMENT_3D('',#413,#414,#415);
#413 = CARTESIAN_POINT('',(-0.3,-0.25,0.));
#414 = DIRECTION('',(1.,0.,0.));
#415 = DIRECTION('',(0.,0.,1.));
#416 = ADVANCED_FACE('',(#417),#443,.T.);
#417 = FACE_BOUND('',#418,.T.);
#418 = EDGE_LOOP('',(#419,#420,#428,#437));
#419 = ORIENTED_EDGE('',*,*,#344,.T.);
#420 = ORIENTED_EDGE('',*,*,#421,.T.);
#421 = EDGE_CURVE('',#347,#422,#424,.T.);
#422 = VERTEX_POINT('',#423);
#423 = CARTESIAN_POINT('',(0.3,-0.21,2.E-02));
#424 = LINE('',#425,#426);
#425 = CARTESIAN_POINT('',(-0.3,-0.21,2.E-02));
#426 = VECTOR('',#427,1.);
#427 = DIRECTION('',(1.,0.,0.));
#428 = ORIENTED_EDGE('',*,*,#429,.F.);
#429 = EDGE_CURVE('',#430,#422,#432,.T.);
#430 = VERTEX_POINT('',#431);
#431 = CARTESIAN_POINT('',(0.3,-0.23,4.E-02));
#432 = CIRCLE('',#433,2.E-02);
#433 = AXIS2_PLACEMENT_3D('',#434,#435,#436);
#434 = CARTESIAN_POINT('',(0.3,-0.21,4.E-02));
#435 = DIRECTION('',(1.,0.,-0.));
#436 = DIRECTION('',(0.,0.,1.));
#437 = ORIENTED_EDGE('',*,*,#438,.F.);
#438 = EDGE_CURVE('',#345,#430,#439,.T.);
#439 = LINE('',#440,#441);
#440 = CARTESIAN_POINT('',(-0.3,-0.23,4.E-02));
#441 = VECTOR('',#442,1.);
#442 = DIRECTION('',(1.,0.,0.));
#443 = CYLINDRICAL_SURFACE('',#444,2.E-02);
#444 = AXIS2_PLACEMENT_3D('',#445,#446,#447);
#445 = CARTESIAN_POINT('',(-0.3,-0.21,4.E-02));
#446 = DIRECTION('',(1.,0.,0.));
#447 = DIRECTION('',(0.,-1.,0.));
#448 = ADVANCED_FACE('',(#449),#467,.F.);
#449 = FACE_BOUND('',#450,.F.);
#450 = EDGE_LOOP('',(#451,#452,#453,#461));
#451 = ORIENTED_EDGE('',*,*,#406,.F.);
#452 = ORIENTED_EDGE('',*,*,#421,.T.);
#453 = ORIENTED_EDGE('',*,*,#454,.T.);
#454 = EDGE_CURVE('',#422,#455,#457,.T.);
#455 = VERTEX_POINT('',#456);
#456 = CARTESIAN_POINT('',(0.3,0.21,2.E-02));
#457 = LINE('',#458,#459);
#458 = CARTESIAN_POINT('',(0.3,-0.23,2.E-02));
#459 = VECTOR('',#460,1.);
#460 = DIRECTION('',(0.,1.,0.));
#461 = ORIENTED_EDGE('',*,*,#462,.F.);
#462 = EDGE_CURVE('',#398,#455,#463,.T.);
#463 = LINE('',#464,#465);
#464 = CARTESIAN_POINT('',(-0.3,0.21,2.E-02));
#465 = VECTOR('',#466,1.);
#466 = DIRECTION('',(1.,0.,0.));
#467 = PLANE('',#468);
#468 = AXIS2_PLACEMENT_3D('',#469,#470,#471);
#469 = CARTESIAN_POINT('',(-0.3,-0.23,2.E-02));
#470 = DIRECTION('',(0.,0.,1.));
#471 = DIRECTION('',(1.,0.,-0.));
#472 = ADVANCED_FACE('',(#473),#492,.T.);
#473 = FACE_BOUND('',#474,.T.);
#474 = EDGE_LOOP('',(#475,#483,#490,#491));
#475 = ORIENTED_EDGE('',*,*,#476,.T.);
#476 = EDGE_CURVE('',#390,#477,#479,.T.);
#477 = VERTEX_POINT('',#478);
#478 = CARTESIAN_POINT('',(0.3,0.23,4.E-02));
#479 = LINE('',#480,#481);
#480 = CARTESIAN_POINT('',(-0.3,0.23,4.E-02));
#481 = VECTOR('',#482,1.);
#482 = DIRECTION('',(1.,0.,0.));
#483 = ORIENTED_EDGE('',*,*,#484,.T.);
#484 = EDGE_CURVE('',#477,#455,#485,.T.);
#485 = CIRCLE('',#486,2.E-02);
#486 = AXIS2_PLACEMENT_3D('',#487,#488,#489);
#487 = CARTESIAN_POINT('',(0.3,0.21,4.E-02));
#488 = DIRECTION('',(-1.,0.,0.));
#489 = DIRECTION('',(0.,0.,1.));
#490 = ORIENTED_EDGE('',*,*,#462,.F.);
#491 = ORIENTED_EDGE('',*,*,#397,.F.);
#492 = CYLINDRICAL_SURFACE('',#493,2.E-02);
#493 = AXIS2_PLACEMENT_3D('',#494,#495,#496);
#494 = CARTESIAN_POINT('',(-0.3,0.21,4.E-02));
#495 = DIRECTION('',(1.,0.,0.));
#496 = DIRECTION('',(-0.,1.,0.));
#497 = ADVANCED_FACE('',(#498),#516,.T.);
#498 = FACE_BOUND('',#499,.T.);
#499 = EDGE_LOOP('',(#500,#508,#509,#510));
#500 = ORIENTED_EDGE('',*,*,#501,.F.);
#501 = EDGE_CURVE('',#477,#502,#504,.T.);
#502 = VERTEX_POINT('',#503);
#503 = CARTESIAN_POINT('',(0.3,0.23,0.46));
#504 = LINE('',#505,#506);
#505 = CARTESIAN_POINT('',(0.3,0.23,2.E-02));
#506 = VECTOR('',#507,1.);
#507 = DIRECTION('',(0.,0.,1.));
#508 = ORIENTED_EDGE('',*,*,#476,.F.);
#509 = ORIENTED_EDGE('',*,*,#389,.T.);
#510 = ORIENTED_EDGE('',*,*,#511,.T.);
#511 = EDGE_CURVE('',#381,#502,#512,.T.);
#512 = LINE('',#513,#514);
#513 = CARTESIAN_POINT('',(-0.3,0.23,0.46));
#514 = VECTOR('',#515,1.);
#515 = DIRECTION('',(1.,0.,0.));
#516 = PLANE('',#517);
#517 = AXIS2_PLACEMENT_3D('',#518,#519,#520);
#518 = CARTESIAN_POINT('',(-0.3,0.23,2.E-02));
#519 = DIRECTION('',(0.,1.,0.));
#520 = DIRECTION('',(0.,-0.,1.));
#521 = ADVANCED_FACE('',(#522),#541,.T.);
#522 = FACE_BOUND('',#523,.T.);
#523 = EDGE_LOOP('',(#524,#525,#533,#540));
#524 = ORIENTED_EDGE('',*,*,#380,.T.);
#525 = ORIENTED_EDGE('',*,*,#526,.T.);
#526 = EDGE_CURVE('',#373,#527,#529,.T.);
#527 = VERTEX_POINT('',#528);
#528 = CARTESIAN_POINT('',(0.3,0.21,0.48));
#529 = LINE('',#530,#531);
#530 = CARTESIAN_POINT('',(-0.3,0.21,0.48));
#531 = VECTOR('',#532,1.);
#532 = DIRECTION('',(1.,0.,0.));
#533 = ORIENTED_EDGE('',*,*,#534,.F.);
#534 = EDGE_CURVE('',#502,#527,#535,.T.);
#535 = CIRCLE('',#536,2.E-02);
#536 = AXIS2_PLACEMENT_3D('',#537,#538,#539);
#537 = CARTESIAN_POINT('',(0.3,0.21,0.46));
#538 = DIRECTION('',(1.,0.,-0.));
#539 = DIRECTION('',(0.,0.,1.));
#540 = ORIENTED_EDGE('',*,*,#511,.F.);
#541 = CYLINDRICAL_SURFACE('',#542,2.E-02);
#542 = AXIS2_PLACEMENT_3D('',#543,#544,#545);
#543 = CARTESIAN_POINT('',(-0.3,0.21,0.46));
#544 = DIRECTION('',(1.,0.,0.));
#545 = DIRECTION('',(-0.,1.,0.));
#546 = ADVANCED_FACE('',(#547),#565,.T.);
#547 = FACE_BOUND('',#548,.T.);
#548 = EDGE_LOOP('',(#549,#550,#558,#564));
#549 = ORIENTED_EDGE('',*,*,#372,.F.);
#550 = ORIENTED_EDGE('',*,*,#551,.T.);
#551 = EDGE_CURVE('',#364,#552,#554,.T.);
#552 = VERTEX_POINT('',#553);
#553 = CARTESIAN_POINT('',(0.3,-0.21,0.48));
#554 = LINE('',#555,#556);
#555 = CARTESIAN_POINT('',(-0.3,-0.21,0.48));
#556 = VECTOR('',#557,1.);
#557 = DIRECTION('',(1.,0.,0.));
#558 = ORIENTED_EDGE('',*,*,#559,.T.);
#559 = EDGE_CURVE('',#552,#527,#560,.T.);
#560 = LINE('',#561,#562);
#561 = CARTESIAN_POINT('',(0.3,-0.23,0.48));
#562 = VECTOR('',#563,1.);
#563 = DIRECTION('',(0.,1.,0.));
#564 = ORIENTED_EDGE('',*,*,#526,.F.);
#565 = PLANE('',#566);
#566 = AXIS2_PLACEMENT_3D('',#567,#568,#569);
#567 = CARTESIAN_POINT('',(-0.3,-0.23,0.48));
#568 = DIRECTION('',(0.,0.,1.));
#569 = DIRECTION('',(1.,0.,-0.));
#570 = ADVANCED_FACE('',(#571),#590,.T.);
#571 = FACE_BOUND('',#572,.T.);
#572 = EDGE_LOOP('',(#573,#581,#588,#589));
#573 = ORIENTED_EDGE('',*,*,#574,.T.);
#574 = EDGE_CURVE('',#356,#575,#577,.T.);
#575 = VERTEX_POINT('',#576);
#576 = CARTESIAN_POINT('',(0.3,-0.23,0.46));
#577 = LINE('',#578,#579);
#578 = CARTESIAN_POINT('',(-0.3,-0.23,0.46));
#579 = VECTOR('',#580,1.);
#580 = DIRECTION('',(1.,0.,0.));
#581 = ORIENTED_EDGE('',*,*,#582,.T.);
#582 = EDGE_CURVE('',#575,#552,#583,.T.);
#583 = CIRCLE('',#584,2.E-02);
#584 = AXIS2_PLACEMENT_3D('',#585,#586,#587);
#585 = CARTESIAN_POINT('',(0.3,-0.21,0.46));
#586 = DIRECTION('',(-1.,0.,0.));
#587 = DIRECTION('',(0.,0.,1.));
#588 = ORIENTED_EDGE('',*,*,#551,.F.);
#589 = ORIENTED_EDGE('',*,*,#363,.F.);
#590 = CYLINDRICAL_SURFACE('',#591,2.E-02);
#591 = AXIS2_PLACEMENT_3D('',#592,#593,#594);
#592 = CARTESIAN_POINT('',(-0.3,-0.21,0.46));
#593 = DIRECTION('',(1.,0.,0.));
#594 = DIRECTION('',(0.,-1.,0.));
#595 = ADVANCED_FACE('',(#596),#607,.F.);
#596 = FACE_BOUND('',#597,.F.);
#597 = EDGE_LOOP('',(#598,#604,#605,#606));
#598 = ORIENTED_EDGE('',*,*,#599,.F.);
#599 = EDGE_CURVE('',#430,#575,#600,.T.);
#600 = LINE('',#601,#602);
#601 = CARTESIAN_POINT('',(0.3,-0.23,2.E-02));
#602 = VECTOR('',#603,1.);
#603 = DIRECTION('',(0.,0.,1.));
#604 = ORIENTED_EDGE('',*,*,#438,.F.);
#605 = ORIENTED_EDGE('',*,*,#355,.T.);
#606 = ORIENTED_EDGE('',*,*,#574,.T.);
#607 = PLANE('',#608);
#608 = AXIS2_PLACEMENT_3D('',#609,#610,#611);
#609 = CARTESIAN_POINT('',(-0.3,-0.23,2.E-02));
#610 = DIRECTION('',(0.,1.,0.));
#611 = DIRECTION('',(0.,-0.,1.));
#612 = ADVANCED_FACE('',(#613,#683),#693,.F.);
#613 = FACE_BOUND('',#614,.F.);
#614 = EDGE_LOOP('',(#615,#625,#634,#642,#651,#659,#668,#676));
#615 = ORIENTED_EDGE('',*,*,#616,.F.);
#616 = EDGE_CURVE('',#617,#619,#621,.T.);
#617 = VERTEX_POINT('',#618);
#618 = CARTESIAN_POINT('',(0.3,-0.25,2.E-02));
#619 = VERTEX_POINT('',#620);
#620 = CARTESIAN_POINT('',(0.3,-0.25,0.48));
#621 = LINE('',#622,#623);
#622 = CARTESIAN_POINT('',(0.3,-0.25,0.));
#623 = VECTOR('',#624,1.);
#624 = DIRECTION('',(0.,0.,1.));
#625 = ORIENTED_EDGE('',*,*,#626,.T.);
#626 = EDGE_CURVE('',#617,#627,#629,.T.);
#627 = VERTEX_POINT('',#628);
#628 = CARTESIAN_POINT('',(0.3,-0.23,0.));
#629 = CIRCLE('',#630,2.E-02);
#630 = AXIS2_PLACEMENT_3D('',#631,#632,#633);
#631 = CARTESIAN_POINT('',(0.3,-0.23,2.E-02));
#632 = DIRECTION('',(1.,0.,-0.));
#633 = DIRECTION('',(0.,0.,1.));
#634 = ORIENTED_EDGE('',*,*,#635,.T.);
#635 = EDGE_CURVE('',#627,#636,#638,.T.);
#636 = VERTEX_POINT('',#637);
#637 = CARTESIAN_POINT('',(0.3,0.23,0.));
#638 = LINE('',#639,#640);
#639 = CARTESIAN_POINT('',(0.3,-0.25,0.));
#640 = VECTOR('',#641,1.);
#641 = DIRECTION('',(0.,1.,0.));
#642 = ORIENTED_EDGE('',*,*,#643,.F.);
#643 = EDGE_CURVE('',#644,#636,#646,.T.);
#644 = VERTEX_POINT('',#645);
#645 = CARTESIAN_POINT('',(0.3,0.25,2.E-02));
#646 = CIRCLE('',#647,2.E-02);
#647 = AXIS2_PLACEMENT_3D('',#648,#649,#650);
#648 = CARTESIAN_POINT('',(0.3,0.23,2.E-02));
#649 = DIRECTION('',(-1.,0.,0.));
#650 = DIRECTION('',(0.,0.,1.));
#651 = ORIENTED_EDGE('',*,*,#652,.T.);
#652 = EDGE_CURVE('',#644,#653,#655,.T.);
#653 = VERTEX_POINT('',#654);
#654 = CARTESIAN_POINT('',(0.3,0.25,0.48));
#655 = LINE('',#656,#657);
#656 = CARTESIAN_POINT('',(0.3,0.25,0.));
#657 = VECTOR('',#658,1.);
#658 = DIRECTION('',(0.,0.,1.));
#659 = ORIENTED_EDGE('',*,*,#660,.T.);
#660 = EDGE_CURVE('',#653,#661,#663,.T.);
#661 = VERTEX_POINT('',#662);
#662 = CARTESIAN_POINT('',(0.3,0.23,0.5));
#663 = CIRCLE('',#664,2.E-02);
#664 = AXIS2_PLACEMENT_3D('',#665,#666,#667);
#665 = CARTESIAN_POINT('',(0.3,0.23,0.48));
#666 = DIRECTION('',(1.,0.,-0.));
#667 = DIRECTION('',(0.,0.,1.));
#668 = ORIENTED_EDGE('',*,*,#669,.F.);
#669 = EDGE_CURVE('',#670,#661,#672,.T.);
#670 = VERTEX_POINT('',#671);
#671 = CARTESIAN_POINT('',(0.3,-0.23,0.5));
#672 = LINE('',#673,#674);
#673 = CARTESIAN_POINT('',(0.3,-0.25,0.5));
#674 = VECTOR('',#675,1.);
#675 = DIRECTION('',(0.,1.,0.));
#676 = ORIENTED_EDGE('',*,*,#677,.F.);
#677 = EDGE_CURVE('',#619,#670,#678,.T.);
#678 = CIRCLE('',#679,2.E-02);
#679 = AXIS2_PLACEMENT_3D('',#680,#681,#682);
#680 = CARTESIAN_POINT('',(0.3,-0.23,0.48));
#681 = DIRECTION('',(-1.,0.,0.));
#682 = DIRECTION('',(0.,0.,1.));
#683 = FACE_BOUND('',#684,.F.);
#684 = EDGE_LOOP('',(#685,#686,#687,#688,#689,#690,#691,#692));
#685 = ORIENTED_EDGE('',*,*,#429,.F.);
#686 = ORIENTED_EDGE('',*,*,#599,.T.);
#687 = ORIENTED_EDGE('',*,*,#582,.T.);
#688 = ORIENTED_EDGE('',*,*,#559,.T.);
#689 = ORIENTED_EDGE('',*,*,#534,.F.);
#690 = ORIENTED_EDGE('',*,*,#501,.F.);
#691 = ORIENTED_EDGE('',*,*,#484,.T.);
#692 = ORIENTED_EDGE('',*,*,#454,.F.);
#693 = PLANE('',#694);
#694 = AXIS2_PLACEMENT_3D('',#695,#696,#697);
#695 = CARTESIAN_POINT('',(0.3,-0.25,0.));
#696 = DIRECTION('',(1.,0.,0.));
#697 = DIRECTION('',(0.,0.,1.));
#698 = ADVANCED_FACE('',(#699),#724,.F.);
#699 = FACE_BOUND('',#700,.F.);
#700 = EDGE_LOOP('',(#701,#711,#717,#718));
#701 = ORIENTED_EDGE('',*,*,#702,.F.);
#702 = EDGE_CURVE('',#703,#705,#707,.T.);
#703 = VERTEX_POINT('',#704);
#704 = CARTESIAN_POINT('',(0.5,-0.25,2.E-02));
#705 = VERTEX_POINT('',#706);
#706 = CARTESIAN_POINT('',(0.5,-0.25,0.48));
#707 = LINE('',#708,#709);
#708 = CARTESIAN_POINT('',(0.5,-0.25,0.));
#709 = VECTOR('',#710,1.);
#710 = DIRECTION('',(0.,0.,1.));
#711 = ORIENTED_EDGE('',*,*,#712,.F.);
#712 = EDGE_CURVE('',#617,#703,#713,.T.);
#713 = LINE('',#714,#715);
#714 = CARTESIAN_POINT('',(0.3,-0.25,2.E-02));
#715 = VECTOR('',#716,1.);
#716 = DIRECTION('',(1.,0.,0.));
#717 = ORIENTED_EDGE('',*,*,#616,.T.);
#718 = ORIENTED_EDGE('',*,*,#719,.T.);
#719 = EDGE_CURVE('',#619,#705,#720,.T.);
#720 = LINE('',#721,#722);
#721 = CARTESIAN_POINT('',(0.3,-0.25,0.48));
#722 = VECTOR('',#723,1.);
#723 = DIRECTION('',(1.,0.,0.));
#724 = PLANE('',#725);
#725 = AXIS2_PLACEMENT_3D('',#726,#727,#728);
#726 = CARTESIAN_POINT('',(0.3,-0.25,0.));
#727 = DIRECTION('',(0.,1.,0.));
#728 = DIRECTION('',(0.,-0.,1.));
#729 = ADVANCED_FACE('',(#730),#749,.T.);
#730 = FACE_BOUND('',#731,.T.);
#731 = EDGE_LOOP('',(#732,#733,#741,#748));
#732 = ORIENTED_EDGE('',*,*,#626,.T.);
#733 = ORIENTED_EDGE('',*,*,#734,.T.);
#734 = EDGE_CURVE('',#627,#735,#737,.T.);
#735 = VERTEX_POINT('',#736);
#736 = CARTESIAN_POINT('',(0.5,-0.23,0.));
#737 = LINE('',#738,#739);
#738 = CARTESIAN_POINT('',(0.3,-0.23,0.));
#739 = VECTOR('',#740,1.);
#740 = DIRECTION('',(1.,0.,0.));
#741 = ORIENTED_EDGE('',*,*,#742,.F.);
#742 = EDGE_CURVE('',#703,#735,#743,.T.);
#743 = CIRCLE('',#744,2.E-02);
#744 = AXIS2_PLACEMENT_3D('',#745,#746,#747);
#745 = CARTESIAN_POINT('',(0.5,-0.23,2.E-02));
#746 = DIRECTION('',(1.,0.,-0.));
#747 = DIRECTION('',(0.,0.,1.));
#748 = ORIENTED_EDGE('',*,*,#712,.F.);
#749 = CYLINDRICAL_SURFACE('',#750,2.E-02);
#750 = AXIS2_PLACEMENT_3D('',#751,#752,#753);
#751 = CARTESIAN_POINT('',(0.3,-0.23,2.E-02));
#752 = DIRECTION('',(1.,0.,0.));
#753 = DIRECTION('',(0.,-1.,0.));
#754 = ADVANCED_FACE('',(#755),#774,.T.);
#755 = FACE_BOUND('',#756,.T.);
#756 = EDGE_LOOP('',(#757,#758,#767,#773));
#757 = ORIENTED_EDGE('',*,*,#719,.T.);
#758 = ORIENTED_EDGE('',*,*,#759,.T.);
#759 = EDGE_CURVE('',#705,#760,#762,.T.);
#760 = VERTEX_POINT('',#761);
#761 = CARTESIAN_POINT('',(0.5,-0.23,0.5));
#762 = CIRCLE('',#763,2.E-02);
#763 = AXIS2_PLACEMENT_3D('',#764,#765,#766);
#764 = CARTESIAN_POINT('',(0.5,-0.23,0.48));
#765 = DIRECTION('',(-1.,0.,0.));
#766 = DIRECTION('',(0.,0.,1.));
#767 = ORIENTED_EDGE('',*,*,#768,.F.);
#768 = EDGE_CURVE('',#670,#760,#769,.T.);
#769 = LINE('',#770,#771);
#770 = CARTESIAN_POINT('',(0.3,-0.23,0.5));
#771 = VECTOR('',#772,1.);
#772 = DIRECTION('',(1.,0.,0.));
#773 = ORIENTED_EDGE('',*,*,#677,.F.);
#774 = CYLINDRICAL_SURFACE('',#775,2.E-02);
#775 = AXIS2_PLACEMENT_3D('',#776,#777,#778);
#776 = CARTESIAN_POINT('',(0.3,-0.23,0.48));
#777 = DIRECTION('',(1.,0.,0.));
#778 = DIRECTION('',(0.,-1.,0.));
#779 = ADVANCED_FACE('',(#780),#798,.F.);
#780 = FACE_BOUND('',#781,.F.);
#781 = EDGE_LOOP('',(#782,#783,#784,#792));
#782 = ORIENTED_EDGE('',*,*,#635,.F.);
#783 = ORIENTED_EDGE('',*,*,#734,.T.);
#784 = ORIENTED_EDGE('',*,*,#785,.T.);
#785 = EDGE_CURVE('',#735,#786,#788,.T.);
#786 = VERTEX_POINT('',#787);
#787 = CARTESIAN_POINT('',(0.5,0.23,0.));
#788 = LINE('',#789,#790);
#789 = CARTESIAN_POINT('',(0.5,-0.25,0.));
#790 = VECTOR('',#791,1.);
#791 = DIRECTION('',(0.,1.,0.));
#792 = ORIENTED_EDGE('',*,*,#793,.F.);
#793 = EDGE_CURVE('',#636,#786,#794,.T.);
#794 = LINE('',#795,#796);
#795 = CARTESIAN_POINT('',(0.3,0.23,0.));
#796 = VECTOR('',#797,1.);
#797 = DIRECTION('',(1.,0.,0.));
#798 = PLANE('',#799);
#799 = AXIS2_PLACEMENT_3D('',#800,#801,#802);
#800 = CARTESIAN_POINT('',(0.3,-0.25,0.));
#801 = DIRECTION('',(0.,0.,1.));
#802 = DIRECTION('',(1.,0.,-0.));
#803 = ADVANCED_FACE('',(#804),#822,.T.);
#804 = FACE_BOUND('',#805,.T.);
#805 = EDGE_LOOP('',(#806,#807,#808,#816));
#806 = ORIENTED_EDGE('',*,*,#669,.F.);
#807 = ORIENTED_EDGE('',*,*,#768,.T.);
#808 = ORIENTED_EDGE('',*,*,#809,.T.);
#809 = EDGE_CURVE('',#760,#810,#812,.T.);
#810 = VERTEX_POINT('',#811);
#811 = CARTESIAN_POINT('',(0.5,0.23,0.5));
#812 = LINE('',#813,#814);
#813 = CARTESIAN_POINT('',(0.5,-0.25,0.5));
#814 = VECTOR('',#815,1.);
#815 = DIRECTION('',(0.,1.,0.));
#816 = ORIENTED_EDGE('',*,*,#817,.F.);
#817 = EDGE_CURVE('',#661,#810,#818,.T.);
#818 = LINE('',#819,#820);
#819 = CARTESIAN_POINT('',(0.3,0.23,0.5));
#820 = VECTOR('',#821,1.);
#821 = DIRECTION('',(1.,0.,0.));
#822 = PLANE('',#823);
#823 = AXIS2_PLACEMENT_3D('',#824,#825,#826);
#824 = CARTESIAN_POINT('',(0.3,-0.25,0.5));
#825 = DIRECTION('',(0.,0.,1.));
#826 = DIRECTION('',(1.,0.,-0.));
#827 = ADVANCED_FACE('',(#828),#847,.T.);
#828 = FACE_BOUND('',#829,.T.);
#829 = EDGE_LOOP('',(#830,#838,#845,#846));
#830 = ORIENTED_EDGE('',*,*,#831,.T.);
#831 = EDGE_CURVE('',#644,#832,#834,.T.);
#832 = VERTEX_POINT('',#833);
#833 = CARTESIAN_POINT('',(0.5,0.25,2.E-02));
#834 = LINE('',#835,#836);
#835 = CARTESIAN_POINT('',(0.3,0.25,2.E-02));
#836 = VECTOR('',#837,1.);
#837 = DIRECTION('',(1.,0.,0.));
#838 = ORIENTED_EDGE('',*,*,#839,.T.);
#839 = EDGE_CURVE('',#832,#786,#840,.T.);
#840 = CIRCLE('',#841,2.E-02);
#841 = AXIS2_PLACEMENT_3D('',#842,#843,#844);
#842 = CARTESIAN_POINT('',(0.5,0.23,2.E-02));
#843 = DIRECTION('',(-1.,0.,0.));
#844 = DIRECTION('',(0.,0.,1.));
#845 = ORIENTED_EDGE('',*,*,#793,.F.);
#846 = ORIENTED_EDGE('',*,*,#643,.F.);
#847 = CYLINDRICAL_SURFACE('',#848,2.E-02);
#848 = AXIS2_PLACEMENT_3D('',#849,#850,#851);
#849 = CARTESIAN_POINT('',(0.3,0.23,2.E-02));
#850 = DIRECTION('',(1.,0.,0.));
#851 = DIRECTION('',(-0.,1.,0.));
#852 = ADVANCED_FACE('',(#853),#872,.T.);
#853 = FACE_BOUND('',#854,.T.);
#854 = EDGE_LOOP('',(#855,#856,#857,#866));
#855 = ORIENTED_EDGE('',*,*,#660,.T.);
#856 = ORIENTED_EDGE('',*,*,#817,.T.);
#857 = ORIENTED_EDGE('',*,*,#858,.F.);
#858 = EDGE_CURVE('',#859,#810,#861,.T.);
#859 = VERTEX_POINT('',#860);
#860 = CARTESIAN_POINT('',(0.5,0.25,0.48));
#861 = CIRCLE('',#862,2.E-02);
#862 = AXIS2_PLACEMENT_3D('',#863,#864,#865);
#863 = CARTESIAN_POINT('',(0.5,0.23,0.48));
#864 = DIRECTION('',(1.,0.,-0.));
#865 = DIRECTION('',(0.,0.,1.));
#866 = ORIENTED_EDGE('',*,*,#867,.F.);
#867 = EDGE_CURVE('',#653,#859,#868,.T.);
#868 = LINE('',#869,#870);
#869 = CARTESIAN_POINT('',(0.3,0.25,0.48));
#870 = VECTOR('',#871,1.);
#871 = DIRECTION('',(1.,0.,0.));
#872 = CYLINDRICAL_SURFACE('',#873,2.E-02);
#873 = AXIS2_PLACEMENT_3D('',#874,#875,#876);
#874 = CARTESIAN_POINT('',(0.3,0.23,0.48));
#875 = DIRECTION('',(1.,0.,0.));
#876 = DIRECTION('',(-0.,1.,0.));
#877 = ADVANCED_FACE('',(#878),#889,.T.);
#878 = FACE_BOUND('',#879,.T.);
#879 = EDGE_LOOP('',(#880,#886,#887,#888));
#880 = ORIENTED_EDGE('',*,*,#881,.F.);
#881 = EDGE_CURVE('',#832,#859,#882,.T.);
#882 = LINE('',#883,#884);
#883 = CARTESIAN_POINT('',(0.5,0.25,0.));
#884 = VECTOR('',#885,1.);
#885 = DIRECTION('',(0.,0.,1.));
#886 = ORIENTED_EDGE('',*,*,#831,.F.);
#887 = ORIENTED_EDGE('',*,*,#652,.T.);
#888 = ORIENTED_EDGE('',*,*,#867,.T.);
#889 = PLANE('',#890);
#890 = AXIS2_PLACEMENT_3D('',#891,#892,#893);
#891 = CARTESIAN_POINT('',(0.3,0.25,0.));
#892 = DIRECTION('',(0.,1.,0.));
#893 = DIRECTION('',(0.,-0.,1.));
#894 = ADVANCED_FACE('',(#895),#905,.T.);
#895 = FACE_BOUND('',#896,.T.);
#896 = EDGE_LOOP('',(#897,#898,#899,#900,#901,#902,#903,#904));
#897 = ORIENTED_EDGE('',*,*,#702,.F.);
#898 = ORIENTED_EDGE('',*,*,#742,.T.);
#899 = ORIENTED_EDGE('',*,*,#785,.T.);
#900 = ORIENTED_EDGE('',*,*,#839,.F.);
#901 = ORIENTED_EDGE('',*,*,#881,.T.);
#902 = ORIENTED_EDGE('',*,*,#858,.T.);
#903 = ORIENTED_EDGE('',*,*,#809,.F.);
#904 = ORIENTED_EDGE('',*,*,#759,.F.);
#905 = PLANE('',#906);
#906 = AXIS2_PLACEMENT_3D('',#907,#908,#909);
#907 = CARTESIAN_POINT('',(0.5,-0.25,0.));
#908 = DIRECTION('',(1.,0.,0.));
#909 = DIRECTION('',(0.,0.,1.));
#910 = ( GEOMETRIC_REPRESENTATION_CONTEXT(3) 
GLOBAL_UNCERTAINTY_ASSIGNED_CONTEXT((#914)) GLOBAL_UNIT_ASSIGNED_CONTEXT
((#911,#912,#913)) REPRESENTATION_CONTEXT('Context #1',
  '3D Context with UNIT and UNCERTAINTY') );
#911 = ( LENGTH_UNIT() NAMED_UNIT(*) SI_UNIT(.MILLI.,.METRE.) );
#912 = ( NAMED_UNIT(*) PLANE_ANGLE_UNIT() SI_UNIT($,.RADIAN.) );
#913 = ( NAMED_UNIT(*) SI_UNIT($,.STERADIAN.) SOLID_ANGLE_UNIT() );
#914 = UNCERTAINTY_MEASURE_WITH_UNIT(LENGTH_MEASURE(1.E-07),#911,
  'distance_accuracy_value','confusion accuracy');
#915 = CONTEXT_DEPENDENT_SHAPE_REPRESENTATION(#916,#918);
#916 = ( REPRESENTATION_RELATIONSHIP('','',#55,#32) 
REPRESENTATION_RELATIONSHIP_WITH_TRANSFORMATION(#917) 
SHAPE_REPRESENTATION_RELATIONSHIP() );
#917 = ITEM_DEFINED_TRANSFORMATION('','',#11,#33);
#918 = PRODUCT_DEFINITION_SHAPE('Placement','Placement of an item',#919
  );
#919 = NEXT_ASSEMBLY_USAGE_OCCURRENCE('1','=>[0:1:1:3]','',#27,#50,$);
#920 = PRODUCT_RELATED_PRODUCT_CATEGORY('part',$,(#52));
#921 = MECHANICAL_DESIGN_GEOMETRIC_PRESENTATION_REPRESENTATION('',(#922,
    #930,#937,#944,#951,#958,#965,#972,#979,#986,#993,#1001,#1008,#1015,
    #1022,#1029,#1036,#1043,#1050,#1057,#1064,#1071,#1078,#1085,#1092,
    #1099,#1106,#1113),#910);
#922 = STYLED_ITEM('color',(#923),#58);
#923 = PRESENTATION_STYLE_ASSIGNMENT((#924));
#924 = SURFACE_STYLE_USAGE(.BOTH.,#925);
#925 = SURFACE_SIDE_STYLE('',(#926));
#926 = SURFACE_STYLE_FILL_AREA(#927);
#927 = FILL_AREA_STYLE('',(#928));
#928 = FILL_AREA_STYLE_COLOUR('',#929);
#929 = COLOUR_RGB('',0.823999987314,0.819999987296,0.781000009244);
#930 = STYLED_ITEM('color',(#931),#134);
#931 = PRESENTATION_STYLE_ASSIGNMENT((#932));
#932 = SURFACE_STYLE_USAGE(.BOTH.,#933);
#933 = SURFACE_SIDE_STYLE('',(#934));
#934 = SURFACE_STYLE_FILL_AREA(#935);
#935 = FILL_AREA_STYLE('',(#936));
#936 = FILL_AREA_STYLE_COLOUR('',#929);
#937 = STYLED_ITEM('color',(#938),#165);
#938 = PRESENTATION_STYLE_ASSIGNMENT((#939));
#939 = SURFACE_STYLE_USAGE(.BOTH.,#940);
#940 = SURFACE_SIDE_STYLE('',(#941));
#941 = SURFACE_STYLE_FILL_AREA(#942);
#942 = FILL_AREA_STYLE('',(#943));
#943 = FILL_AREA_STYLE_COLOUR('',#929);
#944 = STYLED_ITEM('color',(#945),#190);
#945 = PRESENTATION_STYLE_ASSIGNMENT((#946));
#946 = SURFACE_STYLE_USAGE(.BOTH.,#947);
#947 = SURFACE_SIDE_STYLE('',(#948));
#948 = SURFACE_STYLE_FILL_AREA(#949);
#949 = FILL_AREA_STYLE('',(#950));
#950 = FILL_AREA_STYLE_COLOUR('',#929);
#951 = STYLED_ITEM('color',(#952),#215);
#952 = PRESENTATION_STYLE_ASSIGNMENT((#953));
#953 = SURFACE_STYLE_USAGE(.BOTH.,#954);
#954 = SURFACE_SIDE_STYLE('',(#955));
#955 = SURFACE_STYLE_FILL_AREA(#956);
#956 = FILL_AREA_STYLE('',(#957));
#957 = FILL_AREA_STYLE_COLOUR('',#929);
#958 = STYLED_ITEM('color',(#959),#239);
#959 = PRESENTATION_STYLE_ASSIGNMENT((#960));
#960 = SURFACE_STYLE_USAGE(.BOTH.,#961);
#961 = SURFACE_SIDE_STYLE('',(#962));
#962 = SURFACE_STYLE_FILL_AREA(#963);
#963 = FILL_AREA_STYLE('',(#964));
#964 = FILL_AREA_STYLE_COLOUR('',#929);
#965 = STYLED_ITEM('color',(#966),#263);
#966 = PRESENTATION_STYLE_ASSIGNMENT((#967));
#967 = SURFACE_STYLE_USAGE(.BOTH.,#968);
#968 = SURFACE_SIDE_STYLE('',(#969));
#969 = SURFACE_STYLE_FILL_AREA(#970);
#970 = FILL_AREA_STYLE('',(#971));
#971 = FILL_AREA_STYLE_COLOUR('',#929);
#972 = STYLED_ITEM('color',(#973),#288);
#973 = PRESENTATION_STYLE_ASSIGNMENT((#974));
#974 = SURFACE_STYLE_USAGE(.BOTH.,#975);
#975 = SURFACE_SIDE_STYLE('',(#976));
#976 = SURFACE_STYLE_FILL_AREA(#977);
#977 = FILL_AREA_STYLE('',(#978));
#978 = FILL_AREA_STYLE_COLOUR('',#929);
#979 = STYLED_ITEM('color',(#980),#313);
#980 = PRESENTATION_STYLE_ASSIGNMENT((#981));
#981 = SURFACE_STYLE_USAGE(.BOTH.,#982);
#982 = SURFACE_SIDE_STYLE('',(#983));
#983 = SURFACE_STYLE_FILL_AREA(#984);
#984 = FILL_AREA_STYLE('',(#985));
#985 = FILL_AREA_STYLE_COLOUR('',#929);
#986 = STYLED_ITEM('color',(#987),#330);
#987 = PRESENTATION_STYLE_ASSIGNMENT((#988));
#988 = SURFACE_STYLE_USAGE(.BOTH.,#989);
#989 = SURFACE_SIDE_STYLE('',(#990));
#990 = SURFACE_STYLE_FILL_AREA(#991);
#991 = FILL_AREA_STYLE('',(#992));
#992 = FILL_AREA_STYLE_COLOUR('',#929);
#993 = STYLED_ITEM('color',(#994),#416);
#994 = PRESENTATION_STYLE_ASSIGNMENT((#995));
#995 = SURFACE_STYLE_USAGE(.BOTH.,#996);
#996 = SURFACE_SIDE_STYLE('',(#997));
#997 = SURFACE_STYLE_FILL_AREA(#998);
#998 = FILL_AREA_STYLE('',(#999));
#999 = FILL_AREA_STYLE_COLOUR('',#1000);
#1000 = COLOUR_RGB('',0.379000005575,0.270000008848,0.214999999939);
#1001 = STYLED_ITEM('color',(#1002),#448);
#1002 = PRESENTATION_STYLE_ASSIGNMENT((#1003));
#1003 = SURFACE_STYLE_USAGE(.BOTH.,#1004);
#1004 = SURFACE_SIDE_STYLE('',(#1005));
#1005 = SURFACE_STYLE_FILL_AREA(#1006);
#1006 = FILL_AREA_STYLE('',(#1007));
#1007 = FILL_AREA_STYLE_COLOUR('',#1000);
#1008 = STYLED_ITEM('color',(#1009),#472);
#1009 = PRESENTATION_STYLE_ASSIGNMENT((#1010));
#1010 = SURFACE_STYLE_USAGE(.BOTH.,#1011);
#1011 = SURFACE_SIDE_STYLE('',(#1012));
#1012 = SURFACE_STYLE_FILL_AREA(#1013);
#1013 = FILL_AREA_STYLE('',(#1014));
#1014 = FILL_AREA_STYLE_COLOUR('',#1000);
#1015 = STYLED_ITEM('color',(#1016),#497);
#1016 = PRESENTATION_STYLE_ASSIGNMENT((#1017));
#1017 = SURFACE_STYLE_USAGE(.BOTH.,#1018);
#1018 = SURFACE_SIDE_STYLE('',(#1019));
#1019 = SURFACE_STYLE_FILL_AREA(#1020);
#1020 = FILL_AREA_STYLE('',(#1021));
#1021 = FILL_AREA_STYLE_COLOUR('',#1000);
#1022 = STYLED_ITEM('color',(#1023),#521);
#1023 = PRESENTATION_STYLE_ASSIGNMENT((#1024));
#1024 = SURFACE_STYLE_USAGE(.BOTH.,#1025);
#1025 = SURFACE_SIDE_STYLE('',(#1026));
#1026 = SURFACE_STYLE_FILL_AREA(#1027);
#1027 = FILL_AREA_STYLE('',(#1028));
#1028 = FILL_AREA_STYLE_COLOUR('',#1000);
#1029 = STYLED_ITEM('color',(#1030),#546);
#1030 = PRESENTATION_STYLE_ASSIGNMENT((#1031));
#1031 = SURFACE_STYLE_USAGE(.BOTH.,#1032);
#1032 = SURFACE_SIDE_STYLE('',(#1033));
#1033 = SURFACE_STYLE_FILL_AREA(#1034);
#1034 = FILL_AREA_STYLE('',(#1035));
#1035 = FILL_AREA_STYLE_COLOUR('',#1000);
#1036 = STYLED_ITEM('color',(#1037),#570);
#1037 = PRESENTATION_STYLE_ASSIGNMENT((#1038));
#1038 = SURFACE_STYLE_USAGE(.BOTH.,#1039);
#1039 = SURFACE_SIDE_STYLE('',(#1040));
#1040 = SURFACE_STYLE_FILL_AREA(#1041);
#1041 = FILL_AREA_STYLE('',(#1042));
#1042 = FILL_AREA_STYLE_COLOUR('',#1000);
#1043 = STYLED_ITEM('color',(#1044),#595);
#1044 = PRESENTATION_STYLE_ASSIGNMENT((#1045));
#1045 = SURFACE_STYLE_USAGE(.BOTH.,#1046);
#1046 = SURFACE_SIDE_STYLE('',(#1047));
#1047 = SURFACE_STYLE_FILL_AREA(#1048);
#1048 = FILL_AREA_STYLE('',(#1049));
#1049 = FILL_AREA_STYLE_COLOUR('',#1000);
#1050 = STYLED_ITEM('color',(#1051),#612);
#1051 = PRESENTATION_STYLE_ASSIGNMENT((#1052));
#1052 = SURFACE_STYLE_USAGE(.BOTH.,#1053);
#1053 = SURFACE_SIDE_STYLE('',(#1054));
#1054 = SURFACE_STYLE_FILL_AREA(#1055);
#1055 = FILL_AREA_STYLE('',(#1056));
#1056 = FILL_AREA_STYLE_COLOUR('',#929);
#1057 = STYLED_ITEM('color',(#1058),#698);
#1058 = PRESENTATION_STYLE_ASSIGNMENT((#1059));
#1059 = SURFACE_STYLE_USAGE(.BOTH.,#1060);
#1060 = SURFACE_SIDE_STYLE('',(#1061));
#1061 = SURFACE_STYLE_FILL_AREA(#1062);
#1062 = FILL_AREA_STYLE('',(#1063));
#1063 = FILL_AREA_STYLE_COLOUR('',#929);
#1064 = STYLED_ITEM('color',(#1065),#729);
#1065 = PRESENTATION_STYLE_ASSIGNMENT((#1066));
#1066 = SURFACE_STYLE_USAGE(.BOTH.,#1067);
#1067 = SURFACE_SIDE_STYLE('',(#1068));
#1068 = SURFACE_STYLE_FILL_AREA(#1069);
#1069 = FILL_AREA_STYLE('',(#1070));
#1070 = FILL_AREA_STYLE_COLOUR('',#929);
#1071 = STYLED_ITEM('color',(#1072),#754);
#1072 = PRESENTATION_STYLE_ASSIGNMENT((#1073));
#1073 = SURFACE_STYLE_USAGE(.BOTH.,#1074);
#1074 = SURFACE_SIDE_STYLE('',(#1075));
#1075 = SURFACE_STYLE_FILL_AREA(#1076);
#1076 = FILL_AREA_STYLE('',(#1077));
#1077 = FILL_AREA_STYLE_COLOUR('',#929);
#1078 = STYLED_ITEM('color',(#1079),#779);
#1079 = PRESENTATION_STYLE_ASSIGNMENT((#1080));
#1080 = SURFACE_STYLE_USAGE(.BOTH.,#1081);
#1081 = SURFACE_SIDE_STYLE('',(#1082));
#1082 = SURFACE_STYLE_FILL_AREA(#1083);
#1083 = FILL_AREA_STYLE('',(#1084));
#1084 = FILL_AREA_STYLE_COLOUR('',#929);
#1085 = STYLED_ITEM('color',(#1086),#803);
#1086 = PRESENTATION_STYLE_ASSIGNMENT((#1087));
#1087 = SURFACE_STYLE_USAGE(.BOTH.,#1088);
#1088 = SURFACE_SIDE_STYLE('',(#1089));
#1089 = SURFACE_STYLE_FILL_AREA(#1090);
#1090 = FILL_AREA_STYLE('',(#1091));
#1091 = FILL_AREA_STYLE_COLOUR('',#929);
#1092 = STYLED_ITEM('color',(#1093),#827);
#1093 = PRESENTATION_STYLE_ASSIGNMENT((#1094));
#1094 = SURFACE_STYLE_USAGE(.BOTH.,#1095);
#1095 = SURFACE_SIDE_STYLE('',(#1096));
#1096 = SURFACE_STYLE_FILL_AREA(#1097);
#1097 = FILL_AREA_STYLE('',(#1098));
#1098 = FILL_AREA_STYLE_COLOUR('',#929);
#1099 = STYLED_ITEM('color',(#1100),#852);
#1100 = PRESENTATION_STYLE_ASSIGNMENT((#1101));
#1101 = SURFACE_STYLE_USAGE(.BOTH.,#1102);
#1102 = SURFACE_SIDE_STYLE('',(#1103));
#1103 = SURFACE_STYLE_FILL_AREA(#1104);
#1104 = FILL_AREA_STYLE('',(#1105));
#1105 = FILL_AREA_STYLE_COLOUR('',#929);
#1106 = STYLED_ITEM('color',(#1107),#877);
#1107 = PRESENTATION_STYLE_ASSIGNMENT((#1108));
#1108 = SURFACE_STYLE_USAGE(.BOTH.,#1109);
#1109 = SURFACE_SIDE_STYLE('',(#1110));
#1110 = SURFACE_STYLE_FILL_AREA(#1111);
#1111 = FILL_AREA_STYLE('',(#1112));
#1112 = FILL_AREA_STYLE_COLOUR('',#929);
#1113 = STYLED_ITEM('color',(#1114),#894);
#1114 = PRESENTATION_STYLE_ASSIGNMENT((#1115));
#1115 = SURFACE_STYLE_USAGE(.BOTH.,#1116);
#1116 = SURFACE_SIDE_STYLE('',(#1117));
#1117 = SURFACE_STYLE_FILL_AREA(#1118);
#1118 = FILL_AREA_STYLE('',(#1119));
#1119 = FILL_AREA_STYLE_COLOUR('',#929);
ENDSEC;
END-ISO-10303-21;
