ISO-10303-21;
HEADER;
FILE_DESCRIPTION(('KiCad electronic assembly'),'2;1');
FILE_NAME('D1.step','2026-09-28T08:13:20',('Pcbnew'),('Kicad'),
  'Open CASCADE STEP processor 7.9','KiCad to STEP converter','Unknown'
  );
FILE_SCHEMA(('AUTOMOTIVE_DESIGN { 1 0 10303 214 1 1 1 1 }'));
ENDSEC;
DATA;
#1 = APPLICATION_PROTOCOL_DEFINITION('international standard',
  'automotive_design',2000,#2);
#2 = APPLICATION_CONTEXT(
  'core data for automotive mechanical design processes');
#3 = SHAPE_DEFINITION_REPRESENTATION(#4,#10);
#4 = PRODUCT_DEFINITION_SHAPE('','',#5);
#5 = PRODUCT_DEFINITION('design','',#6,#9);
#6 = PRODUCT_DEFINITION_FORMATION('','',#7);
#7 = PRODUCT('D1 1','D1 1','',(#8));
#8 = PRODUCT_CONTEXT('',#2,'mechanical');
#9 = PRODUCT_DEFINITION_CONTEXT('part definition',#2,'design');
#10 = SHAPE_REPRESENTATION('',(#11,#15),#19);
#11 = AXIS2_PLACEMENT_3D('',#12,#13,#14);
#12 = CARTESIAN_POINT('',(0.,0.,0.));
#13 = DIRECTION('',(0.,0.,1.));
#14 = DIRECTION('',(1.,0.,-0.));
#15 = AXIS2_PLACEMENT_3D('',#16,#17,#18);
#16 = CARTESIAN_POINT('',(83.5,-120.5,-8.5E-02));
#17 = DIRECTION('',(1.499759782662E-32,1.224646799147E-16,-1.));
#18 = DIRECTION('',(-1.,1.224646799147E-16,0.));
#19 = ( GEOMETRIC_REPRESENTATION_CONTEXT(3) 
GLOBAL_UNCERTAINTY_ASSIGNED_CONTEXT((#23)) GLOBAL_UNIT_ASSIGNED_CONTEXT(
(#20,#21,#22)) REPRESENTATION_CONTEXT('Context #1',
  '3D Context with UNIT and UNCERTAINTY') );
#20 = ( LENGTH_UNIT() NAMED_UNIT(*) SI_UNIT(.MILLI.,.METRE.) );
#21 = ( NAMED_UNIT(*) PLANE_ANGLE_UNIT() SI_UNIT($,.RADIAN.) );
#22 = ( NAMED_UNIT(*) SI_UNIT($,.STERADIAN.) SOLID_ANGLE_UNIT() );
#23 = UNCERTAINTY_MEASURE_WITH_UNIT(LENGTH_MEASURE(1.E-07),#20,
  'distance_accuracy_value','confusion accuracy');
#24 = PRODUCT_RELATED_PRODUCT_CATEGORY('part',$,(#7));
#25 = SHAPE_DEFINITION_REPRESENTATION(#26,#32);
#26 = PRODUCT_DEFINITION_SHAPE('','',#27);
#27 = PRODUCT_DEFINITION('design','',#28,#31);
#28 = PRODUCT_DEFINITION_FORMATION('','',#29);
#29 = PRODUCT('LED_0402_1005Metric','LED_0402_1005Metric','',(#30));
#30 = PRODUCT_CONTEXT('',#2,'mechanical');
#31 = PRODUCT_DEFINITION_CONTEXT('part definition',#2,'design');
#32 = SHAPE_REPRESENTATION('',(#11,#33),#37);
#33 = AXIS2_PLACEMENT_3D('',#34,#35,#36);
#34 = CARTESIAN_POINT('',(0.,0.,0.));
#35 = DIRECTION('',(0.,0.,1.));
#36 = DIRECTION('',(1.,0.,-0.));
#37 = ( GEOMETRIC_REPRESENTATION_CONTEXT(3) 
GLOBAL_UNCERTAINTY_ASSIGNED_CONTEXT((#41)) GLOBAL_UNIT_ASSIGNED_CONTEXT(
(#38,#39,#40)) REPRESENTATION_CONTEXT('Context #1',
  '3D Context with UNIT and UNCERTAINTY') );
#38 = ( LENGTH_UNIT() NAMED_UNIT(*) SI_UNIT(.MILLI.,.METRE.) );
#39 = ( NAMED_UNIT(*) PLANE_ANGLE_UNIT() SI_UNIT($,.RADIAN.) );
#40 = ( NAMED_UNIT(*) SI_UNIT($,.STERADIAN.) SOLID_ANGLE_UNIT() );
#41 = UNCERTAINTY_MEASURE_WITH_UNIT(LENGTH_MEASURE(1.E-07),#38,
  'distance_accuracy_value','confusion accuracy');
#42 = CONTEXT_DEPENDENT_SHAPE_REPRESENTATION(#43,#45);
#43 = ( REPRESENTATION_RELATIONSHIP('','',#32,#10) 
REPRESENTATION_RELATIONSHIP_WITH_TRANSFORMATION(#44) 
SHAPE_REPRESENTATION_RELATIONSHIP() );
#44 = ITEM_DEFINED_TRANSFORMATION('','',#11,#15);
#45 = PRODUCT_DEFINITION_SHAPE('Placement','Placement of an item',#46);
#46 = NEXT_ASSEMBLY_USAGE_OCCURRENCE('2','D1','',#5,#27,$);
#47 = PRODUCT_RELATED_PRODUCT_CATEGORY('part',$,(#29));
#48 = SHAPE_DEFINITION_REPRESENTATION(#49,#55);
#49 = PRODUCT_DEFINITION_SHAPE('','',#50);
#50 = PRODUCT_DEFINITION('design','',#51,#54);
#51 = PRODUCT_DEFINITION_FORMATION('','',#52);
#52 = PRODUCT('LED_0402_1005Metric','LED_0402_1005Metric','',(#53));
#53 = PRODUCT_CONTEXT('',#2,'mechanical');
#54 = PRODUCT_DEFINITION_CONTEXT('part definition',#2,'design');
#55 = ADVANCED_BREP_SHAPE_REPRESENTATION('',(#11,#56),#1579);
#56 = MANIFOLD_SOLID_BREP('',#57);
#57 = CLOSED_SHELL('',(#58,#98,#145,#224,#248,#288,#319,#336,#369,#393,
    #460,#581,#648,#672,#703,#736,#792,#816,#840,#864,#897,#909,#972,
    #997,#1014,#1038,#1056,#1074,#1092,#1109,#1126,#1157,#1182,#1207,
    #1231,#1248,#1279,#1303,#1320,#1348,#1373,#1397,#1422,#1469,#1486,
    #1498,#1520,#1532,#1550,#1568));
#58 = ADVANCED_FACE('',(#59),#93,.F.);
#59 = FACE_BOUND('',#60,.F.);
#60 = EDGE_LOOP('',(#61,#71,#79,#87));
#61 = ORIENTED_EDGE('',*,*,#62,.T.);
#62 = EDGE_CURVE('',#63,#65,#67,.T.);
#63 = VERTEX_POINT('',#64);
#64 = CARTESIAN_POINT('',(-0.35,-0.25,0.185));
#65 = VERTEX_POINT('',#66);
#66 = CARTESIAN_POINT('',(-0.315,-0.25,0.5));
#67 = LINE('',#68,#69);
#68 = CARTESIAN_POINT('',(-0.35,-0.25,0.185));
#69 = VECTOR('',#70,1.);
#70 = DIRECTION('',(0.110431526075,0.,0.993883734674));
#71 = ORIENTED_EDGE('',*,*,#72,.T.);
#72 = EDGE_CURVE('',#65,#73,#75,.T.);
#73 = VERTEX_POINT('',#74);
#74 = CARTESIAN_POINT('',(0.315,-0.25,0.5));
#75 = LINE('',#76,#77);
#76 = CARTESIAN_POINT('',(-0.315,-0.25,0.5));
#77 = VECTOR('',#78,1.);
#78 = DIRECTION('',(1.,0.,0.));
#79 = ORIENTED_EDGE('',*,*,#80,.T.);
#80 = EDGE_CURVE('',#73,#81,#83,.T.);
#81 = VERTEX_POINT('',#82);
#82 = CARTESIAN_POINT('',(0.35,-0.25,0.185));
#83 = LINE('',#84,#85);
#84 = CARTESIAN_POINT('',(0.315,-0.25,0.5));
#85 = VECTOR('',#86,1.);
#86 = DIRECTION('',(0.110431526075,0.,-0.993883734674));
#87 = ORIENTED_EDGE('',*,*,#88,.T.);
#88 = EDGE_CURVE('',#81,#63,#89,.T.);
#89 = LINE('',#90,#91);
#90 = CARTESIAN_POINT('',(0.35,-0.25,0.185));
#91 = VECTOR('',#92,1.);
#92 = DIRECTION('',(-1.,0.,0.));
#93 = PLANE('',#94);
#94 = AXIS2_PLACEMENT_3D('',#95,#96,#97);
#95 = CARTESIAN_POINT('',(0.,-0.25,0.336886104513));
#96 = DIRECTION('',(0.,1.,0.));
#97 = DIRECTION('',(0.,-0.,1.));
#98 = ADVANCED_FACE('',(#99),#140,.T.);
#99 = FACE_BOUND('',#100,.T.);
#100 = EDGE_LOOP('',(#101,#111,#119,#125,#126,#134));
#101 = ORIENTED_EDGE('',*,*,#102,.T.);
#102 = EDGE_CURVE('',#103,#105,#107,.T.);
#103 = VERTEX_POINT('',#104);
#104 = CARTESIAN_POINT('',(-0.35,0.25,0.185));
#105 = VERTEX_POINT('',#106);
#106 = CARTESIAN_POINT('',(-0.35,0.1875,0.185));
#107 = LINE('',#108,#109);
#108 = CARTESIAN_POINT('',(-0.35,0.25,0.185));
#109 = VECTOR('',#110,1.);
#110 = DIRECTION('',(0.,-1.,0.));
#111 = ORIENTED_EDGE('',*,*,#112,.F.);
#112 = EDGE_CURVE('',#113,#105,#115,.T.);
#113 = VERTEX_POINT('',#114);
#114 = CARTESIAN_POINT('',(-0.35,-0.1875,0.185));
#115 = LINE('',#116,#117);
#116 = CARTESIAN_POINT('',(-0.35,-0.25,0.185));
#117 = VECTOR('',#118,1.);
#118 = DIRECTION('',(0.,1.,0.));
#119 = ORIENTED_EDGE('',*,*,#120,.T.);
#120 = EDGE_CURVE('',#113,#63,#121,.T.);
#121 = LINE('',#122,#123);
#122 = CARTESIAN_POINT('',(-0.35,0.25,0.185));
#123 = VECTOR('',#124,1.);
#124 = DIRECTION('',(0.,-1.,0.));
#125 = ORIENTED_EDGE('',*,*,#62,.T.);
#126 = ORIENTED_EDGE('',*,*,#127,.F.);
#127 = EDGE_CURVE('',#128,#65,#130,.T.);
#128 = VERTEX_POINT('',#129);
#129 = CARTESIAN_POINT('',(-0.315,0.25,0.5));
#130 = LINE('',#131,#132);
#131 = CARTESIAN_POINT('',(-0.315,0.25,0.5));
#132 = VECTOR('',#133,1.);
#133 = DIRECTION('',(0.,-1.,0.));
#134 = ORIENTED_EDGE('',*,*,#135,.F.);
#135 = EDGE_CURVE('',#103,#128,#136,.T.);
#136 = LINE('',#137,#138);
#137 = CARTESIAN_POINT('',(-0.35,0.25,0.185));
#138 = VECTOR('',#139,1.);
#139 = DIRECTION('',(0.110431526075,0.,0.993883734674));
#140 = PLANE('',#141);
#141 = AXIS2_PLACEMENT_3D('',#142,#143,#144);
#142 = CARTESIAN_POINT('',(-0.35,0.25,0.185));
#143 = DIRECTION('',(-0.993883734674,0.,0.110431526075));
#144 = DIRECTION('',(0.110431526075,0.,0.993883734674));
#145 = ADVANCED_FACE('',(#146),#219,.F.);
#146 = FACE_BOUND('',#147,.F.);
#147 = EDGE_LOOP('',(#148,#158,#166,#174,#180,#181,#189,#197,#205,#213)
  );
#148 = ORIENTED_EDGE('',*,*,#149,.F.);
#149 = EDGE_CURVE('',#150,#152,#154,.T.);
#150 = VERTEX_POINT('',#151);
#151 = CARTESIAN_POINT('',(-0.485,-0.25,1.5E-02));
#152 = VERTEX_POINT('',#153);
#153 = CARTESIAN_POINT('',(-0.4625,-0.25,1.5E-02));
#154 = LINE('',#155,#156);
#155 = CARTESIAN_POINT('',(-0.485,-0.25,1.5E-02));
#156 = VECTOR('',#157,1.);
#157 = DIRECTION('',(1.,0.,0.));
#158 = ORIENTED_EDGE('',*,*,#159,.T.);
#159 = EDGE_CURVE('',#150,#160,#162,.T.);
#160 = VERTEX_POINT('',#161);
#161 = CARTESIAN_POINT('',(-0.485,-0.25,0.185));
#162 = LINE('',#163,#164);
#163 = CARTESIAN_POINT('',(-0.485,-0.25,1.5E-02));
#164 = VECTOR('',#165,1.);
#165 = DIRECTION('',(0.,0.,1.));
#166 = ORIENTED_EDGE('',*,*,#167,.T.);
#167 = EDGE_CURVE('',#160,#168,#170,.T.);
#168 = VERTEX_POINT('',#169);
#169 = CARTESIAN_POINT('',(-0.4625,-0.25,0.185));
#170 = LINE('',#171,#172);
#171 = CARTESIAN_POINT('',(-0.485,-0.25,0.185));
#172 = VECTOR('',#173,1.);
#173 = DIRECTION('',(1.,0.,0.));
#174 = ORIENTED_EDGE('',*,*,#175,.T.);
#175 = EDGE_CURVE('',#168,#63,#176,.T.);
#176 = LINE('',#177,#178);
#177 = CARTESIAN_POINT('',(-0.485,-0.25,0.185));
#178 = VECTOR('',#179,1.);
#179 = DIRECTION('',(1.,0.,0.));
#180 = ORIENTED_EDGE('',*,*,#88,.F.);
#181 = ORIENTED_EDGE('',*,*,#182,.T.);
#182 = EDGE_CURVE('',#81,#183,#185,.T.);
#183 = VERTEX_POINT('',#184);
#184 = CARTESIAN_POINT('',(0.4625,-0.25,0.185));
#185 = LINE('',#186,#187);
#186 = CARTESIAN_POINT('',(-0.485,-0.25,0.185));
#187 = VECTOR('',#188,1.);
#188 = DIRECTION('',(1.,0.,0.));
#189 = ORIENTED_EDGE('',*,*,#190,.T.);
#190 = EDGE_CURVE('',#183,#191,#193,.T.);
#191 = VERTEX_POINT('',#192);
#192 = CARTESIAN_POINT('',(0.485,-0.25,0.185));
#193 = LINE('',#194,#195);
#194 = CARTESIAN_POINT('',(-0.485,-0.25,0.185));
#195 = VECTOR('',#196,1.);
#196 = DIRECTION('',(1.,0.,0.));
#197 = ORIENTED_EDGE('',*,*,#198,.F.);
#198 = EDGE_CURVE('',#199,#191,#201,.T.);
#199 = VERTEX_POINT('',#200);
#200 = CARTESIAN_POINT('',(0.485,-0.25,1.5E-02));
#201 = LINE('',#202,#203);
#202 = CARTESIAN_POINT('',(0.485,-0.25,1.5E-02));
#203 = VECTOR('',#204,1.);
#204 = DIRECTION('',(0.,0.,1.));
#205 = ORIENTED_EDGE('',*,*,#206,.F.);
#206 = EDGE_CURVE('',#207,#199,#209,.T.);
#207 = VERTEX_POINT('',#208);
#208 = CARTESIAN_POINT('',(0.4625,-0.25,1.5E-02));
#209 = LINE('',#210,#211);
#210 = CARTESIAN_POINT('',(-0.485,-0.25,1.5E-02));
#211 = VECTOR('',#212,1.);
#212 = DIRECTION('',(1.,0.,0.));
#213 = ORIENTED_EDGE('',*,*,#214,.F.);
#214 = EDGE_CURVE('',#152,#207,#215,.T.);
#215 = LINE('',#216,#217);
#216 = CARTESIAN_POINT('',(-0.485,-0.25,1.5E-02));
#217 = VECTOR('',#218,1.);
#218 = DIRECTION('',(1.,0.,0.));
#219 = PLANE('',#220);
#220 = AXIS2_PLACEMENT_3D('',#221,#222,#223);
#221 = CARTESIAN_POINT('',(-0.485,-0.25,1.5E-02));
#222 = DIRECTION('',(0.,1.,0.));
#223 = DIRECTION('',(0.,-0.,1.));
#224 = ADVANCED_FACE('',(#225),#243,.T.);
#225 = FACE_BOUND('',#226,.T.);
#226 = EDGE_LOOP('',(#227,#228,#229,#237));
#227 = ORIENTED_EDGE('',*,*,#127,.T.);
#228 = ORIENTED_EDGE('',*,*,#72,.T.);
#229 = ORIENTED_EDGE('',*,*,#230,.F.);
#230 = EDGE_CURVE('',#231,#73,#233,.T.);
#231 = VERTEX_POINT('',#232);
#232 = CARTESIAN_POINT('',(0.315,0.25,0.5));
#233 = LINE('',#234,#235);
#234 = CARTESIAN_POINT('',(0.315,0.25,0.5));
#235 = VECTOR('',#236,1.);
#236 = DIRECTION('',(0.,-1.,0.));
#237 = ORIENTED_EDGE('',*,*,#238,.F.);
#238 = EDGE_CURVE('',#128,#231,#239,.T.);
#239 = LINE('',#240,#241);
#240 = CARTESIAN_POINT('',(-0.315,0.25,0.5));
#241 = VECTOR('',#242,1.);
#242 = DIRECTION('',(1.,0.,0.));
#243 = PLANE('',#244);
#244 = AXIS2_PLACEMENT_3D('',#245,#246,#247);
#245 = CARTESIAN_POINT('',(-0.315,0.25,0.5));
#246 = DIRECTION('',(0.,0.,1.));
#247 = DIRECTION('',(1.,0.,-0.));
#248 = ADVANCED_FACE('',(#249),#283,.T.);
#249 = FACE_BOUND('',#250,.T.);
#250 = EDGE_LOOP('',(#251,#252,#253,#261,#269,#277));
#251 = ORIENTED_EDGE('',*,*,#230,.T.);
#252 = ORIENTED_EDGE('',*,*,#80,.T.);
#253 = ORIENTED_EDGE('',*,*,#254,.F.);
#254 = EDGE_CURVE('',#255,#81,#257,.T.);
#255 = VERTEX_POINT('',#256);
#256 = CARTESIAN_POINT('',(0.35,-0.1875,0.185));
#257 = LINE('',#258,#259);
#258 = CARTESIAN_POINT('',(0.35,0.25,0.185));
#259 = VECTOR('',#260,1.);
#260 = DIRECTION('',(0.,-1.,0.));
#261 = ORIENTED_EDGE('',*,*,#262,.T.);
#262 = EDGE_CURVE('',#255,#263,#265,.T.);
#263 = VERTEX_POINT('',#264);
#264 = CARTESIAN_POINT('',(0.35,0.1875,0.185));
#265 = LINE('',#266,#267);
#266 = CARTESIAN_POINT('',(0.35,-0.25,0.185));
#267 = VECTOR('',#268,1.);
#268 = DIRECTION('',(0.,1.,0.));
#269 = ORIENTED_EDGE('',*,*,#270,.F.);
#270 = EDGE_CURVE('',#271,#263,#273,.T.);
#271 = VERTEX_POINT('',#272);
#272 = CARTESIAN_POINT('',(0.35,0.25,0.185));
#273 = LINE('',#274,#275);
#274 = CARTESIAN_POINT('',(0.35,0.25,0.185));
#275 = VECTOR('',#276,1.);
#276 = DIRECTION('',(0.,-1.,0.));
#277 = ORIENTED_EDGE('',*,*,#278,.F.);
#278 = EDGE_CURVE('',#231,#271,#279,.T.);
#279 = LINE('',#280,#281);
#280 = CARTESIAN_POINT('',(0.315,0.25,0.5));
#281 = VECTOR('',#282,1.);
#282 = DIRECTION('',(0.110431526075,0.,-0.993883734674));
#283 = PLANE('',#284);
#284 = AXIS2_PLACEMENT_3D('',#285,#286,#287);
#285 = CARTESIAN_POINT('',(0.315,0.25,0.5));
#286 = DIRECTION('',(0.993883734674,0.,0.110431526075));
#287 = DIRECTION('',(0.110431526075,0.,-0.993883734674));
#288 = ADVANCED_FACE('',(#289),#314,.T.);
#289 = FACE_BOUND('',#290,.T.);
#290 = EDGE_LOOP('',(#291,#299,#307,#313));
#291 = ORIENTED_EDGE('',*,*,#292,.F.);
#292 = EDGE_CURVE('',#293,#103,#295,.T.);
#293 = VERTEX_POINT('',#294);
#294 = CARTESIAN_POINT('',(-0.4625,0.25,0.185));
#295 = LINE('',#296,#297);
#296 = CARTESIAN_POINT('',(-0.485,0.25,0.185));
#297 = VECTOR('',#298,1.);
#298 = DIRECTION('',(1.,0.,0.));
#299 = ORIENTED_EDGE('',*,*,#300,.F.);
#300 = EDGE_CURVE('',#301,#293,#303,.T.);
#301 = VERTEX_POINT('',#302);
#302 = CARTESIAN_POINT('',(-0.4625,0.1875,0.185));
#303 = LINE('',#304,#305);
#304 = CARTESIAN_POINT('',(-0.4625,3.125E-02,0.185));
#305 = VECTOR('',#306,1.);
#306 = DIRECTION('',(0.,1.,0.));
#307 = ORIENTED_EDGE('',*,*,#308,.F.);
#308 = EDGE_CURVE('',#105,#301,#309,.T.);
#309 = LINE('',#310,#311);
#310 = CARTESIAN_POINT('',(-0.47375,0.1875,0.185));
#311 = VECTOR('',#312,1.);
#312 = DIRECTION('',(-1.,0.,0.));
#313 = ORIENTED_EDGE('',*,*,#102,.F.);
#314 = PLANE('',#315);
#315 = AXIS2_PLACEMENT_3D('',#316,#317,#318);
#316 = CARTESIAN_POINT('',(-0.485,-0.25,0.185));
#317 = DIRECTION('',(0.,0.,1.));
#318 = DIRECTION('',(1.,0.,-0.));
#319 = ADVANCED_FACE('',(#320),#331,.T.);
#320 = FACE_BOUND('',#321,.T.);
#321 = EDGE_LOOP('',(#322,#323,#324,#325));
#322 = ORIENTED_EDGE('',*,*,#135,.T.);
#323 = ORIENTED_EDGE('',*,*,#238,.T.);
#324 = ORIENTED_EDGE('',*,*,#278,.T.);
#325 = ORIENTED_EDGE('',*,*,#326,.T.);
#326 = EDGE_CURVE('',#271,#103,#327,.T.);
#327 = LINE('',#328,#329);
#328 = CARTESIAN_POINT('',(0.35,0.25,0.185));
#329 = VECTOR('',#330,1.);
#330 = DIRECTION('',(-1.,0.,0.));
#331 = PLANE('',#332);
#332 = AXIS2_PLACEMENT_3D('',#333,#334,#335);
#333 = CARTESIAN_POINT('',(0.,0.25,0.336886104513));
#334 = DIRECTION('',(0.,1.,0.));
#335 = DIRECTION('',(0.,-0.,1.));
#336 = ADVANCED_FACE('',(#337),#364,.T.);
#337 = FACE_BOUND('',#338,.T.);
#338 = EDGE_LOOP('',(#339,#348,#356,#363));
#339 = ORIENTED_EDGE('',*,*,#340,.F.);
#340 = EDGE_CURVE('',#341,#105,#343,.T.);
#341 = VERTEX_POINT('',#342);
#342 = CARTESIAN_POINT('',(-0.365,0.1875,0.2));
#343 = CIRCLE('',#344,1.5E-02);
#344 = AXIS2_PLACEMENT_3D('',#345,#346,#347);
#345 = CARTESIAN_POINT('',(-0.365,0.1875,0.185));
#346 = DIRECTION('',(-0.,1.,0.));
#347 = DIRECTION('',(1.,0.,0.));
#348 = ORIENTED_EDGE('',*,*,#349,.F.);
#349 = EDGE_CURVE('',#350,#341,#352,.T.);
#350 = VERTEX_POINT('',#351);
#351 = CARTESIAN_POINT('',(-0.365,-0.1875,0.2));
#352 = LINE('',#353,#354);
#353 = CARTESIAN_POINT('',(-0.365,-0.25,0.2));
#354 = VECTOR('',#355,1.);
#355 = DIRECTION('',(0.,1.,0.));
#356 = ORIENTED_EDGE('',*,*,#357,.T.);
#357 = EDGE_CURVE('',#350,#113,#358,.T.);
#358 = CIRCLE('',#359,1.5E-02);
#359 = AXIS2_PLACEMENT_3D('',#360,#361,#362);
#360 = CARTESIAN_POINT('',(-0.365,-0.1875,0.185));
#361 = DIRECTION('',(-0.,1.,0.));
#362 = DIRECTION('',(1.,0.,0.));
#363 = ORIENTED_EDGE('',*,*,#112,.T.);
#364 = CYLINDRICAL_SURFACE('',#365,1.5E-02);
#365 = AXIS2_PLACEMENT_3D('',#366,#367,#368);
#366 = CARTESIAN_POINT('',(-0.365,-0.25,0.185));
#367 = DIRECTION('',(0.,1.,0.));
#368 = DIRECTION('',(1.,0.,0.));
#369 = ADVANCED_FACE('',(#370),#388,.T.);
#370 = FACE_BOUND('',#371,.T.);
#371 = EDGE_LOOP('',(#372,#380,#381,#382));
#372 = ORIENTED_EDGE('',*,*,#373,.F.);
#373 = EDGE_CURVE('',#168,#374,#376,.T.);
#374 = VERTEX_POINT('',#375);
#375 = CARTESIAN_POINT('',(-0.4625,-0.1875,0.185));
#376 = LINE('',#377,#378);
#377 = CARTESIAN_POINT('',(-0.4625,-0.21875,0.185));
#378 = VECTOR('',#379,1.);
#379 = DIRECTION('',(0.,1.,0.));
#380 = ORIENTED_EDGE('',*,*,#175,.T.);
#381 = ORIENTED_EDGE('',*,*,#120,.F.);
#382 = ORIENTED_EDGE('',*,*,#383,.F.);
#383 = EDGE_CURVE('',#374,#113,#384,.T.);
#384 = LINE('',#385,#386);
#385 = CARTESIAN_POINT('',(-1.125E-02,-0.1875,0.185));
#386 = VECTOR('',#387,1.);
#387 = DIRECTION('',(1.,0.,0.));
#388 = PLANE('',#389);
#389 = AXIS2_PLACEMENT_3D('',#390,#391,#392);
#390 = CARTESIAN_POINT('',(-0.485,-0.25,0.185));
#391 = DIRECTION('',(0.,0.,1.));
#392 = DIRECTION('',(1.,0.,-0.));
#393 = ADVANCED_FACE('',(#394),#455,.F.);
#394 = FACE_BOUND('',#395,.F.);
#395 = EDGE_LOOP('',(#396,#406,#415,#423,#432,#440,#446,#447,#448,#449)
  );
#396 = ORIENTED_EDGE('',*,*,#397,.F.);
#397 = EDGE_CURVE('',#398,#400,#402,.T.);
#398 = VERTEX_POINT('',#399);
#399 = CARTESIAN_POINT('',(-0.485,-0.25,-1.734723475977E-18));
#400 = VERTEX_POINT('',#401);
#401 = CARTESIAN_POINT('',(-0.4625,-0.25,0.));
#402 = LINE('',#403,#404);
#403 = CARTESIAN_POINT('',(-0.5,-0.25,0.));
#404 = VECTOR('',#405,1.);
#405 = DIRECTION('',(1.,0.,0.));
#406 = ORIENTED_EDGE('',*,*,#407,.F.);
#407 = EDGE_CURVE('',#408,#398,#410,.T.);
#408 = VERTEX_POINT('',#409);
#409 = CARTESIAN_POINT('',(-0.5,-0.25,1.5E-02));
#410 = CIRCLE('',#411,1.5E-02);
#411 = AXIS2_PLACEMENT_3D('',#412,#413,#414);
#412 = CARTESIAN_POINT('',(-0.485,-0.25,1.5E-02));
#413 = DIRECTION('',(0.,-1.,0.));
#414 = DIRECTION('',(0.,0.,1.));
#415 = ORIENTED_EDGE('',*,*,#416,.T.);
#416 = EDGE_CURVE('',#408,#417,#419,.T.);
#417 = VERTEX_POINT('',#418);
#418 = CARTESIAN_POINT('',(-0.5,-0.25,0.185));
#419 = LINE('',#420,#421);
#420 = CARTESIAN_POINT('',(-0.5,-0.25,0.));
#421 = VECTOR('',#422,1.);
#422 = DIRECTION('',(0.,0.,1.));
#423 = ORIENTED_EDGE('',*,*,#424,.T.);
#424 = EDGE_CURVE('',#417,#425,#427,.T.);
#425 = VERTEX_POINT('',#426);
#426 = CARTESIAN_POINT('',(-0.485,-0.25,0.2));
#427 = CIRCLE('',#428,1.5E-02);
#428 = AXIS2_PLACEMENT_3D('',#429,#430,#431);
#429 = CARTESIAN_POINT('',(-0.485,-0.25,0.185));
#430 = DIRECTION('',(0.,1.,0.));
#431 = DIRECTION('',(0.,-0.,1.));
#432 = ORIENTED_EDGE('',*,*,#433,.T.);
#433 = EDGE_CURVE('',#425,#434,#436,.T.);
#434 = VERTEX_POINT('',#435);
#435 = CARTESIAN_POINT('',(-0.4625,-0.25,0.2));
#436 = LINE('',#437,#438);
#437 = CARTESIAN_POINT('',(-0.5,-0.25,0.2));
#438 = VECTOR('',#439,1.);
#439 = DIRECTION('',(1.,0.,0.));
#440 = ORIENTED_EDGE('',*,*,#441,.F.);
#441 = EDGE_CURVE('',#168,#434,#442,.T.);
#442 = LINE('',#443,#444);
#443 = CARTESIAN_POINT('',(-0.4625,-0.25,0.15));
#444 = VECTOR('',#445,1.);
#445 = DIRECTION('',(0.,0.,1.));
#446 = ORIENTED_EDGE('',*,*,#167,.F.);
#447 = ORIENTED_EDGE('',*,*,#159,.F.);
#448 = ORIENTED_EDGE('',*,*,#149,.T.);
#449 = ORIENTED_EDGE('',*,*,#450,.F.);
#450 = EDGE_CURVE('',#400,#152,#451,.T.);
#451 = LINE('',#452,#453);
#452 = CARTESIAN_POINT('',(-0.4625,-0.25,0.15));
#453 = VECTOR('',#454,1.);
#454 = DIRECTION('',(0.,0.,1.));
#455 = PLANE('',#456);
#456 = AXIS2_PLACEMENT_3D('',#457,#458,#459);
#457 = CARTESIAN_POINT('',(-0.5,-0.25,0.));
#458 = DIRECTION('',(0.,1.,0.));
#459 = DIRECTION('',(0.,-0.,1.));
#460 = ADVANCED_FACE('',(#461,#550),#576,.F.);
#461 = FACE_BOUND('',#462,.F.);
#462 = EDGE_LOOP('',(#463,#471,#472,#480,#488,#496,#504,#512,#520,#528,
    #536,#544));
#463 = ORIENTED_EDGE('',*,*,#464,.F.);
#464 = EDGE_CURVE('',#152,#465,#467,.T.);
#465 = VERTEX_POINT('',#466);
#466 = CARTESIAN_POINT('',(-0.4625,-0.1875,1.5E-02));
#467 = LINE('',#468,#469);
#468 = CARTESIAN_POINT('',(-0.4625,-0.21875,1.5E-02));
#469 = VECTOR('',#470,1.);
#470 = DIRECTION('',(0.,1.,0.));
#471 = ORIENTED_EDGE('',*,*,#214,.T.);
#472 = ORIENTED_EDGE('',*,*,#473,.F.);
#473 = EDGE_CURVE('',#474,#207,#476,.T.);
#474 = VERTEX_POINT('',#475);
#475 = CARTESIAN_POINT('',(0.4625,-0.1875,1.5E-02));
#476 = LINE('',#477,#478);
#477 = CARTESIAN_POINT('',(0.4625,-0.28125,1.5E-02));
#478 = VECTOR('',#479,1.);
#479 = DIRECTION('',(0.,-1.,0.));
#480 = ORIENTED_EDGE('',*,*,#481,.F.);
#481 = EDGE_CURVE('',#482,#474,#484,.T.);
#482 = VERTEX_POINT('',#483);
#483 = CARTESIAN_POINT('',(0.35,-0.1875,1.5E-02));
#484 = LINE('',#485,#486);
#485 = CARTESIAN_POINT('',(-1.125E-02,-0.1875,1.5E-02));
#486 = VECTOR('',#487,1.);
#487 = DIRECTION('',(1.,0.,0.));
#488 = ORIENTED_EDGE('',*,*,#489,.T.);
#489 = EDGE_CURVE('',#482,#490,#492,.T.);
#490 = VERTEX_POINT('',#491);
#491 = CARTESIAN_POINT('',(0.35,0.1875,1.5E-02));
#492 = LINE('',#493,#494);
#493 = CARTESIAN_POINT('',(0.35,-0.25,1.5E-02));
#494 = VECTOR('',#495,1.);
#495 = DIRECTION('',(0.,1.,0.));
#496 = ORIENTED_EDGE('',*,*,#497,.F.);
#497 = EDGE_CURVE('',#498,#490,#500,.T.);
#498 = VERTEX_POINT('',#499);
#499 = CARTESIAN_POINT('',(0.4625,0.1875,1.5E-02));
#500 = LINE('',#501,#502);
#501 = CARTESIAN_POINT('',(-0.47375,0.1875,1.5E-02));
#502 = VECTOR('',#503,1.);
#503 = DIRECTION('',(-1.,0.,0.));
#504 = ORIENTED_EDGE('',*,*,#505,.F.);
#505 = EDGE_CURVE('',#506,#498,#508,.T.);
#506 = VERTEX_POINT('',#507);
#507 = CARTESIAN_POINT('',(0.4625,0.25,1.5E-02));
#508 = LINE('',#509,#510);
#509 = CARTESIAN_POINT('',(0.4625,-3.125E-02,1.5E-02));
#510 = VECTOR('',#511,1.);
#511 = DIRECTION('',(0.,-1.,0.));
#512 = ORIENTED_EDGE('',*,*,#513,.F.);
#513 = EDGE_CURVE('',#514,#506,#516,.T.);
#514 = VERTEX_POINT('',#515);
#515 = CARTESIAN_POINT('',(-0.4625,0.25,1.5E-02));
#516 = LINE('',#517,#518);
#517 = CARTESIAN_POINT('',(-0.485,0.25,1.5E-02));
#518 = VECTOR('',#519,1.);
#519 = DIRECTION('',(1.,0.,0.));
#520 = ORIENTED_EDGE('',*,*,#521,.F.);
#521 = EDGE_CURVE('',#522,#514,#524,.T.);
#522 = VERTEX_POINT('',#523);
#523 = CARTESIAN_POINT('',(-0.4625,0.1875,1.5E-02));
#524 = LINE('',#525,#526);
#525 = CARTESIAN_POINT('',(-0.4625,3.125E-02,1.5E-02));
#526 = VECTOR('',#527,1.);
#527 = DIRECTION('',(0.,1.,0.));
#528 = ORIENTED_EDGE('',*,*,#529,.F.);
#529 = EDGE_CURVE('',#530,#522,#532,.T.);
#530 = VERTEX_POINT('',#531);
#531 = CARTESIAN_POINT('',(-0.35,0.1875,1.5E-02));
#532 = LINE('',#533,#534);
#533 = CARTESIAN_POINT('',(-0.47375,0.1875,1.5E-02));
#534 = VECTOR('',#535,1.);
#535 = DIRECTION('',(-1.,0.,0.));
#536 = ORIENTED_EDGE('',*,*,#537,.F.);
#537 = EDGE_CURVE('',#538,#530,#540,.T.);
#538 = VERTEX_POINT('',#539);
#539 = CARTESIAN_POINT('',(-0.35,-0.1875,1.5E-02));
#540 = LINE('',#541,#542);
#541 = CARTESIAN_POINT('',(-0.35,-0.25,1.5E-02));
#542 = VECTOR('',#543,1.);
#543 = DIRECTION('',(0.,1.,0.));
#544 = ORIENTED_EDGE('',*,*,#545,.F.);
#545 = EDGE_CURVE('',#465,#538,#546,.T.);
#546 = LINE('',#547,#548);
#547 = CARTESIAN_POINT('',(-1.125E-02,-0.1875,1.5E-02));
#548 = VECTOR('',#549,1.);
#549 = DIRECTION('',(1.,0.,0.));
#550 = FACE_BOUND('',#551,.F.);
#551 = EDGE_LOOP('',(#552,#562,#570));
#552 = ORIENTED_EDGE('',*,*,#553,.T.);
#553 = EDGE_CURVE('',#554,#556,#558,.T.);
#554 = VERTEX_POINT('',#555);
#555 = CARTESIAN_POINT('',(0.173205080757,0.2,1.5E-02));
#556 = VERTEX_POINT('',#557);
#557 = CARTESIAN_POINT('',(0.173205080757,-0.2,1.5E-02));
#558 = LINE('',#559,#560);
#559 = CARTESIAN_POINT('',(0.173205080757,0.2,1.5E-02));
#560 = VECTOR('',#561,1.);
#561 = DIRECTION('',(0.,-1.,0.));
#562 = ORIENTED_EDGE('',*,*,#563,.T.);
#563 = EDGE_CURVE('',#556,#564,#566,.T.);
#564 = VERTEX_POINT('',#565);
#565 = CARTESIAN_POINT('',(-0.173205080757,0.,1.5E-02));
#566 = LINE('',#567,#568);
#567 = CARTESIAN_POINT('',(0.173205080757,-0.2,1.5E-02));
#568 = VECTOR('',#569,1.);
#569 = DIRECTION('',(-0.866025403784,0.5,0.));
#570 = ORIENTED_EDGE('',*,*,#571,.T.);
#571 = EDGE_CURVE('',#564,#554,#572,.T.);
#572 = LINE('',#573,#574);
#573 = CARTESIAN_POINT('',(-0.173205080757,0.,1.5E-02));
#574 = VECTOR('',#575,1.);
#575 = DIRECTION('',(0.866025403784,0.5,0.));
#576 = PLANE('',#577);
#577 = AXIS2_PLACEMENT_3D('',#578,#579,#580);
#578 = CARTESIAN_POINT('',(-0.485,-0.25,1.5E-02));
#579 = DIRECTION('',(0.,0.,1.));
#580 = DIRECTION('',(1.,0.,-0.));
#581 = ADVANCED_FACE('',(#582),#643,.F.);
#582 = FACE_BOUND('',#583,.F.);
#583 = EDGE_LOOP('',(#584,#594,#600,#601,#602,#603,#611,#619,#628,#636)
  );
#584 = ORIENTED_EDGE('',*,*,#585,.F.);
#585 = EDGE_CURVE('',#586,#588,#590,.T.);
#586 = VERTEX_POINT('',#587);
#587 = CARTESIAN_POINT('',(0.4625,-0.25,0.));
#588 = VERTEX_POINT('',#589);
#589 = CARTESIAN_POINT('',(0.485,-0.25,-1.734723475977E-18));
#590 = LINE('',#591,#592);
#591 = CARTESIAN_POINT('',(0.35,-0.25,0.));
#592 = VECTOR('',#593,1.);
#593 = DIRECTION('',(1.,0.,0.));
#594 = ORIENTED_EDGE('',*,*,#595,.F.);
#595 = EDGE_CURVE('',#207,#586,#596,.T.);
#596 = LINE('',#597,#598);
#597 = CARTESIAN_POINT('',(0.4625,-0.25,0.15));
#598 = VECTOR('',#599,1.);
#599 = DIRECTION('',(0.,0.,-1.));
#600 = ORIENTED_EDGE('',*,*,#206,.T.);
#601 = ORIENTED_EDGE('',*,*,#198,.T.);
#602 = ORIENTED_EDGE('',*,*,#190,.F.);
#603 = ORIENTED_EDGE('',*,*,#604,.F.);
#604 = EDGE_CURVE('',#605,#183,#607,.T.);
#605 = VERTEX_POINT('',#606);
#606 = CARTESIAN_POINT('',(0.4625,-0.25,0.2));
#607 = LINE('',#608,#609);
#608 = CARTESIAN_POINT('',(0.4625,-0.25,0.15));
#609 = VECTOR('',#610,1.);
#610 = DIRECTION('',(0.,0.,-1.));
#611 = ORIENTED_EDGE('',*,*,#612,.T.);
#612 = EDGE_CURVE('',#605,#613,#615,.T.);
#613 = VERTEX_POINT('',#614);
#614 = CARTESIAN_POINT('',(0.485,-0.25,0.2));
#615 = LINE('',#616,#617);
#616 = CARTESIAN_POINT('',(0.35,-0.25,0.2));
#617 = VECTOR('',#618,1.);
#618 = DIRECTION('',(1.,0.,0.));
#619 = ORIENTED_EDGE('',*,*,#620,.F.);
#620 = EDGE_CURVE('',#621,#613,#623,.T.);
#621 = VERTEX_POINT('',#622);
#622 = CARTESIAN_POINT('',(0.5,-0.25,0.185));
#623 = CIRCLE('',#624,1.5E-02);
#624 = AXIS2_PLACEMENT_3D('',#625,#626,#627);
#625 = CARTESIAN_POINT('',(0.485,-0.25,0.185));
#626 = DIRECTION('',(0.,-1.,0.));
#627 = DIRECTION('',(0.,0.,1.));
#628 = ORIENTED_EDGE('',*,*,#629,.F.);
#629 = EDGE_CURVE('',#630,#621,#632,.T.);
#630 = VERTEX_POINT('',#631);
#631 = CARTESIAN_POINT('',(0.5,-0.25,1.5E-02));
#632 = LINE('',#633,#634);
#633 = CARTESIAN_POINT('',(0.5,-0.25,0.));
#634 = VECTOR('',#635,1.);
#635 = DIRECTION('',(0.,0.,1.));
#636 = ORIENTED_EDGE('',*,*,#637,.T.);
#637 = EDGE_CURVE('',#630,#588,#638,.T.);
#638 = CIRCLE('',#639,1.5E-02);
#639 = AXIS2_PLACEMENT_3D('',#640,#641,#642);
#640 = CARTESIAN_POINT('',(0.485,-0.25,1.5E-02));
#641 = DIRECTION('',(0.,1.,0.));
#642 = DIRECTION('',(0.,-0.,1.));
#643 = PLANE('',#644);
#644 = AXIS2_PLACEMENT_3D('',#645,#646,#647);
#645 = CARTESIAN_POINT('',(0.35,-0.25,0.));
#646 = DIRECTION('',(0.,1.,0.));
#647 = DIRECTION('',(0.,-0.,1.));
#648 = ADVANCED_FACE('',(#649),#667,.T.);
#649 = FACE_BOUND('',#650,.T.);
#650 = EDGE_LOOP('',(#651,#659,#660,#661));
#651 = ORIENTED_EDGE('',*,*,#652,.F.);
#652 = EDGE_CURVE('',#255,#653,#655,.T.);
#653 = VERTEX_POINT('',#654);
#654 = CARTESIAN_POINT('',(0.4625,-0.1875,0.185));
#655 = LINE('',#656,#657);
#656 = CARTESIAN_POINT('',(-1.125E-02,-0.1875,0.185));
#657 = VECTOR('',#658,1.);
#658 = DIRECTION('',(1.,0.,0.));
#659 = ORIENTED_EDGE('',*,*,#254,.T.);
#660 = ORIENTED_EDGE('',*,*,#182,.T.);
#661 = ORIENTED_EDGE('',*,*,#662,.F.);
#662 = EDGE_CURVE('',#653,#183,#663,.T.);
#663 = LINE('',#664,#665);
#664 = CARTESIAN_POINT('',(0.4625,-0.28125,0.185));
#665 = VECTOR('',#666,1.);
#666 = DIRECTION('',(0.,-1.,0.));
#667 = PLANE('',#668);
#668 = AXIS2_PLACEMENT_3D('',#669,#670,#671);
#669 = CARTESIAN_POINT('',(-0.485,-0.25,0.185));
#670 = DIRECTION('',(0.,0.,1.));
#671 = DIRECTION('',(1.,0.,-0.));
#672 = ADVANCED_FACE('',(#673),#698,.T.);
#673 = FACE_BOUND('',#674,.T.);
#674 = EDGE_LOOP('',(#675,#683,#684,#692));
#675 = ORIENTED_EDGE('',*,*,#676,.F.);
#676 = EDGE_CURVE('',#271,#677,#679,.T.);
#677 = VERTEX_POINT('',#678);
#678 = CARTESIAN_POINT('',(0.4625,0.25,0.185));
#679 = LINE('',#680,#681);
#680 = CARTESIAN_POINT('',(-0.485,0.25,0.185));
#681 = VECTOR('',#682,1.);
#682 = DIRECTION('',(1.,0.,0.));
#683 = ORIENTED_EDGE('',*,*,#270,.T.);
#684 = ORIENTED_EDGE('',*,*,#685,.F.);
#685 = EDGE_CURVE('',#686,#263,#688,.T.);
#686 = VERTEX_POINT('',#687);
#687 = CARTESIAN_POINT('',(0.4625,0.1875,0.185));
#688 = LINE('',#689,#690);
#689 = CARTESIAN_POINT('',(-0.47375,0.1875,0.185));
#690 = VECTOR('',#691,1.);
#691 = DIRECTION('',(-1.,0.,0.));
#692 = ORIENTED_EDGE('',*,*,#693,.F.);
#693 = EDGE_CURVE('',#677,#686,#694,.T.);
#694 = LINE('',#695,#696);
#695 = CARTESIAN_POINT('',(0.4625,-3.125E-02,0.185));
#696 = VECTOR('',#697,1.);
#697 = DIRECTION('',(0.,-1.,0.));
#698 = PLANE('',#699);
#699 = AXIS2_PLACEMENT_3D('',#700,#701,#702);
#700 = CARTESIAN_POINT('',(-0.485,-0.25,0.185));
#701 = DIRECTION('',(0.,0.,1.));
#702 = DIRECTION('',(1.,0.,-0.));
#703 = ADVANCED_FACE('',(#704),#731,.T.);
#704 = FACE_BOUND('',#705,.T.);
#705 = EDGE_LOOP('',(#706,#707,#716,#724));
#706 = ORIENTED_EDGE('',*,*,#262,.F.);
#707 = ORIENTED_EDGE('',*,*,#708,.T.);
#708 = EDGE_CURVE('',#255,#709,#711,.T.);
#709 = VERTEX_POINT('',#710);
#710 = CARTESIAN_POINT('',(0.365,-0.1875,0.2));
#711 = CIRCLE('',#712,1.5E-02);
#712 = AXIS2_PLACEMENT_3D('',#713,#714,#715);
#713 = CARTESIAN_POINT('',(0.365,-0.1875,0.185));
#714 = DIRECTION('',(0.,1.,-0.));
#715 = DIRECTION('',(-1.,0.,0.));
#716 = ORIENTED_EDGE('',*,*,#717,.T.);
#717 = EDGE_CURVE('',#709,#718,#720,.T.);
#718 = VERTEX_POINT('',#719);
#719 = CARTESIAN_POINT('',(0.365,0.1875,0.2));
#720 = LINE('',#721,#722);
#721 = CARTESIAN_POINT('',(0.365,-0.25,0.2));
#722 = VECTOR('',#723,1.);
#723 = DIRECTION('',(0.,1.,0.));
#724 = ORIENTED_EDGE('',*,*,#725,.F.);
#725 = EDGE_CURVE('',#263,#718,#726,.T.);
#726 = CIRCLE('',#727,1.5E-02);
#727 = AXIS2_PLACEMENT_3D('',#728,#729,#730);
#728 = CARTESIAN_POINT('',(0.365,0.1875,0.185));
#729 = DIRECTION('',(0.,1.,-0.));
#730 = DIRECTION('',(-1.,0.,0.));
#731 = CYLINDRICAL_SURFACE('',#732,1.5E-02);
#732 = AXIS2_PLACEMENT_3D('',#733,#734,#735);
#733 = CARTESIAN_POINT('',(0.365,-0.25,0.185));
#734 = DIRECTION('',(0.,1.,0.));
#735 = DIRECTION('',(-1.,0.,0.));
#736 = ADVANCED_FACE('',(#737),#787,.T.);
#737 = FACE_BOUND('',#738,.T.);
#738 = EDGE_LOOP('',(#739,#747,#755,#761,#762,#763,#764,#772,#780,#786)
  );
#739 = ORIENTED_EDGE('',*,*,#740,.F.);
#740 = EDGE_CURVE('',#741,#514,#743,.T.);
#741 = VERTEX_POINT('',#742);
#742 = CARTESIAN_POINT('',(-0.485,0.25,1.5E-02));
#743 = LINE('',#744,#745);
#744 = CARTESIAN_POINT('',(-0.485,0.25,1.5E-02));
#745 = VECTOR('',#746,1.);
#746 = DIRECTION('',(1.,0.,0.));
#747 = ORIENTED_EDGE('',*,*,#748,.T.);
#748 = EDGE_CURVE('',#741,#749,#751,.T.);
#749 = VERTEX_POINT('',#750);
#750 = CARTESIAN_POINT('',(-0.485,0.25,0.185));
#751 = LINE('',#752,#753);
#752 = CARTESIAN_POINT('',(-0.485,0.25,1.5E-02));
#753 = VECTOR('',#754,1.);
#754 = DIRECTION('',(0.,0.,1.));
#755 = ORIENTED_EDGE('',*,*,#756,.T.);
#756 = EDGE_CURVE('',#749,#293,#757,.T.);
#757 = LINE('',#758,#759);
#758 = CARTESIAN_POINT('',(-0.485,0.25,0.185));
#759 = VECTOR('',#760,1.);
#760 = DIRECTION('',(1.,0.,0.));
#761 = ORIENTED_EDGE('',*,*,#292,.T.);
#762 = ORIENTED_EDGE('',*,*,#326,.F.);
#763 = ORIENTED_EDGE('',*,*,#676,.T.);
#764 = ORIENTED_EDGE('',*,*,#765,.T.);
#765 = EDGE_CURVE('',#677,#766,#768,.T.);
#766 = VERTEX_POINT('',#767);
#767 = CARTESIAN_POINT('',(0.485,0.25,0.185));
#768 = LINE('',#769,#770);
#769 = CARTESIAN_POINT('',(-0.485,0.25,0.185));
#770 = VECTOR('',#771,1.);
#771 = DIRECTION('',(1.,0.,0.));
#772 = ORIENTED_EDGE('',*,*,#773,.F.);
#773 = EDGE_CURVE('',#774,#766,#776,.T.);
#774 = VERTEX_POINT('',#775);
#775 = CARTESIAN_POINT('',(0.485,0.25,1.5E-02));
#776 = LINE('',#777,#778);
#777 = CARTESIAN_POINT('',(0.485,0.25,1.5E-02));
#778 = VECTOR('',#779,1.);
#779 = DIRECTION('',(0.,0.,1.));
#780 = ORIENTED_EDGE('',*,*,#781,.F.);
#781 = EDGE_CURVE('',#506,#774,#782,.T.);
#782 = LINE('',#783,#784);
#783 = CARTESIAN_POINT('',(-0.485,0.25,1.5E-02));
#784 = VECTOR('',#785,1.);
#785 = DIRECTION('',(1.,0.,0.));
#786 = ORIENTED_EDGE('',*,*,#513,.F.);
#787 = PLANE('',#788);
#788 = AXIS2_PLACEMENT_3D('',#789,#790,#791);
#789 = CARTESIAN_POINT('',(-0.485,0.25,1.5E-02));
#790 = DIRECTION('',(0.,1.,0.));
#791 = DIRECTION('',(0.,-0.,1.));
#792 = ADVANCED_FACE('',(#793),#811,.F.);
#793 = FACE_BOUND('',#794,.F.);
#794 = EDGE_LOOP('',(#795,#803,#809,#810));
#795 = ORIENTED_EDGE('',*,*,#796,.F.);
#796 = EDGE_CURVE('',#797,#341,#799,.T.);
#797 = VERTEX_POINT('',#798);
#798 = CARTESIAN_POINT('',(-0.4625,0.1875,0.2));
#799 = LINE('',#800,#801);
#800 = CARTESIAN_POINT('',(-0.48125,0.1875,0.2));
#801 = VECTOR('',#802,1.);
#802 = DIRECTION('',(1.,0.,0.));
#803 = ORIENTED_EDGE('',*,*,#804,.T.);
#804 = EDGE_CURVE('',#797,#301,#805,.T.);
#805 = LINE('',#806,#807);
#806 = CARTESIAN_POINT('',(-0.4625,0.1875,0.3));
#807 = VECTOR('',#808,1.);
#808 = DIRECTION('',(-0.,-0.,-1.));
#809 = ORIENTED_EDGE('',*,*,#308,.F.);
#810 = ORIENTED_EDGE('',*,*,#340,.F.);
#811 = PLANE('',#812);
#812 = AXIS2_PLACEMENT_3D('',#813,#814,#815);
#813 = CARTESIAN_POINT('',(-0.4625,0.1875,0.3));
#814 = DIRECTION('',(0.,-1.,0.));
#815 = DIRECTION('',(1.,0.,0.));
#816 = ADVANCED_FACE('',(#817),#835,.F.);
#817 = FACE_BOUND('',#818,.F.);
#818 = EDGE_LOOP('',(#819,#820,#828,#834));
#819 = ORIENTED_EDGE('',*,*,#804,.F.);
#820 = ORIENTED_EDGE('',*,*,#821,.F.);
#821 = EDGE_CURVE('',#822,#797,#824,.T.);
#822 = VERTEX_POINT('',#823);
#823 = CARTESIAN_POINT('',(-0.4625,0.25,0.2));
#824 = LINE('',#825,#826);
#825 = CARTESIAN_POINT('',(-0.4625,3.125E-02,0.2));
#826 = VECTOR('',#827,1.);
#827 = DIRECTION('',(0.,-1.,0.));
#828 = ORIENTED_EDGE('',*,*,#829,.F.);
#829 = EDGE_CURVE('',#293,#822,#830,.T.);
#830 = LINE('',#831,#832);
#831 = CARTESIAN_POINT('',(-0.4625,0.25,0.15));
#832 = VECTOR('',#833,1.);
#833 = DIRECTION('',(0.,0.,1.));
#834 = ORIENTED_EDGE('',*,*,#300,.F.);
#835 = PLANE('',#836);
#836 = AXIS2_PLACEMENT_3D('',#837,#838,#839);
#837 = CARTESIAN_POINT('',(-0.4625,0.3125,0.3));
#838 = DIRECTION('',(-1.,0.,0.));
#839 = DIRECTION('',(0.,-1.,0.));
#840 = ADVANCED_FACE('',(#841),#859,.F.);
#841 = FACE_BOUND('',#842,.F.);
#842 = EDGE_LOOP('',(#843,#851,#857,#858));
#843 = ORIENTED_EDGE('',*,*,#844,.F.);
#844 = EDGE_CURVE('',#845,#374,#847,.T.);
#845 = VERTEX_POINT('',#846);
#846 = CARTESIAN_POINT('',(-0.4625,-0.1875,0.2));
#847 = LINE('',#848,#849);
#848 = CARTESIAN_POINT('',(-0.4625,-0.1875,0.3));
#849 = VECTOR('',#850,1.);
#850 = DIRECTION('',(-0.,-0.,-1.));
#851 = ORIENTED_EDGE('',*,*,#852,.F.);
#852 = EDGE_CURVE('',#350,#845,#853,.T.);
#853 = LINE('',#854,#855);
#854 = CARTESIAN_POINT('',(-1.875E-02,-0.1875,0.2));
#855 = VECTOR('',#856,1.);
#856 = DIRECTION('',(-1.,0.,0.));
#857 = ORIENTED_EDGE('',*,*,#357,.T.);
#858 = ORIENTED_EDGE('',*,*,#383,.F.);
#859 = PLANE('',#860);
#860 = AXIS2_PLACEMENT_3D('',#861,#862,#863);
#861 = CARTESIAN_POINT('',(0.4625,-0.1875,0.3));
#862 = DIRECTION('',(0.,1.,0.));
#863 = DIRECTION('',(-1.,0.,0.));
#864 = ADVANCED_FACE('',(#865),#892,.T.);
#865 = FACE_BOUND('',#866,.T.);
#866 = EDGE_LOOP('',(#867,#875,#881,#882,#888,#889,#890,#891));
#867 = ORIENTED_EDGE('',*,*,#868,.F.);
#868 = EDGE_CURVE('',#869,#822,#871,.T.);
#869 = VERTEX_POINT('',#870);
#870 = CARTESIAN_POINT('',(-0.485,0.25,0.2));
#871 = LINE('',#872,#873);
#872 = CARTESIAN_POINT('',(-0.5,0.25,0.2));
#873 = VECTOR('',#874,1.);
#874 = DIRECTION('',(1.,0.,0.));
#875 = ORIENTED_EDGE('',*,*,#876,.F.);
#876 = EDGE_CURVE('',#425,#869,#877,.T.);
#877 = LINE('',#878,#879);
#878 = CARTESIAN_POINT('',(-0.485,-0.25,0.2));
#879 = VECTOR('',#880,1.);
#880 = DIRECTION('',(0.,1.,0.));
#881 = ORIENTED_EDGE('',*,*,#433,.T.);
#882 = ORIENTED_EDGE('',*,*,#883,.F.);
#883 = EDGE_CURVE('',#845,#434,#884,.T.);
#884 = LINE('',#885,#886);
#885 = CARTESIAN_POINT('',(-0.4625,-0.21875,0.2));
#886 = VECTOR('',#887,1.);
#887 = DIRECTION('',(0.,-1.,0.));
#888 = ORIENTED_EDGE('',*,*,#852,.F.);
#889 = ORIENTED_EDGE('',*,*,#349,.T.);
#890 = ORIENTED_EDGE('',*,*,#796,.F.);
#891 = ORIENTED_EDGE('',*,*,#821,.F.);
#892 = PLANE('',#893);
#893 = AXIS2_PLACEMENT_3D('',#894,#895,#896);
#894 = CARTESIAN_POINT('',(-0.5,-0.25,0.2));
#895 = DIRECTION('',(0.,0.,1.));
#896 = DIRECTION('',(1.,0.,-0.));
#897 = ADVANCED_FACE('',(#898),#904,.F.);
#898 = FACE_BOUND('',#899,.F.);
#899 = EDGE_LOOP('',(#900,#901,#902,#903));
#900 = ORIENTED_EDGE('',*,*,#883,.F.);
#901 = ORIENTED_EDGE('',*,*,#844,.T.);
#902 = ORIENTED_EDGE('',*,*,#373,.F.);
#903 = ORIENTED_EDGE('',*,*,#441,.T.);
#904 = PLANE('',#905);
#905 = AXIS2_PLACEMENT_3D('',#906,#907,#908);
#906 = CARTESIAN_POINT('',(-0.4625,-0.1875,0.3));
#907 = DIRECTION('',(-1.,0.,0.));
#908 = DIRECTION('',(0.,-1.,0.));
#909 = ADVANCED_FACE('',(#910),#967,.F.);
#910 = FACE_BOUND('',#911,.F.);
#911 = EDGE_LOOP('',(#912,#922,#928,#929,#937,#945,#953,#961));
#912 = ORIENTED_EDGE('',*,*,#913,.F.);
#913 = EDGE_CURVE('',#914,#916,#918,.T.);
#914 = VERTEX_POINT('',#915);
#915 = CARTESIAN_POINT('',(-0.485,0.25,-1.734723475977E-18));
#916 = VERTEX_POINT('',#917);
#917 = CARTESIAN_POINT('',(-0.4625,0.25,0.));
#918 = LINE('',#919,#920);
#919 = CARTESIAN_POINT('',(-0.5,0.25,0.));
#920 = VECTOR('',#921,1.);
#921 = DIRECTION('',(1.,0.,0.));
#922 = ORIENTED_EDGE('',*,*,#923,.F.);
#923 = EDGE_CURVE('',#398,#914,#924,.T.);
#924 = LINE('',#925,#926);
#925 = CARTESIAN_POINT('',(-0.485,-0.25,-1.734723475977E-18));
#926 = VECTOR('',#927,1.);
#927 = DIRECTION('',(0.,1.,0.));
#928 = ORIENTED_EDGE('',*,*,#397,.T.);
#929 = ORIENTED_EDGE('',*,*,#930,.F.);
#930 = EDGE_CURVE('',#931,#400,#933,.T.);
#931 = VERTEX_POINT('',#932);
#932 = CARTESIAN_POINT('',(-0.4625,-0.1875,0.));
#933 = LINE('',#934,#935);
#934 = CARTESIAN_POINT('',(-0.4625,-0.21875,0.));
#935 = VECTOR('',#936,1.);
#936 = DIRECTION('',(0.,-1.,0.));
#937 = ORIENTED_EDGE('',*,*,#938,.F.);
#938 = EDGE_CURVE('',#939,#931,#941,.T.);
#939 = VERTEX_POINT('',#940);
#940 = CARTESIAN_POINT('',(-0.365,-0.1875,-1.734723475977E-18));
#941 = LINE('',#942,#943);
#942 = CARTESIAN_POINT('',(-1.875E-02,-0.1875,0.));
#943 = VECTOR('',#944,1.);
#944 = DIRECTION('',(-1.,0.,0.));
#945 = ORIENTED_EDGE('',*,*,#946,.T.);
#946 = EDGE_CURVE('',#939,#947,#949,.T.);
#947 = VERTEX_POINT('',#948);
#948 = CARTESIAN_POINT('',(-0.365,0.1875,-1.734723475977E-18));
#949 = LINE('',#950,#951);
#950 = CARTESIAN_POINT('',(-0.365,-0.25,-1.734723475977E-18));
#951 = VECTOR('',#952,1.);
#952 = DIRECTION('',(0.,1.,0.));
#953 = ORIENTED_EDGE('',*,*,#954,.F.);
#954 = EDGE_CURVE('',#955,#947,#957,.T.);
#955 = VERTEX_POINT('',#956);
#956 = CARTESIAN_POINT('',(-0.4625,0.1875,0.));
#957 = LINE('',#958,#959);
#958 = CARTESIAN_POINT('',(-0.48125,0.1875,0.));
#959 = VECTOR('',#960,1.);
#960 = DIRECTION('',(1.,0.,0.));
#961 = ORIENTED_EDGE('',*,*,#962,.F.);
#962 = EDGE_CURVE('',#916,#955,#963,.T.);
#963 = LINE('',#964,#965);
#964 = CARTESIAN_POINT('',(-0.4625,3.125E-02,0.));
#965 = VECTOR('',#966,1.);
#966 = DIRECTION('',(0.,-1.,0.));
#967 = PLANE('',#968);
#968 = AXIS2_PLACEMENT_3D('',#969,#970,#971);
#969 = CARTESIAN_POINT('',(-0.5,-0.25,0.));
#970 = DIRECTION('',(0.,0.,1.));
#971 = DIRECTION('',(1.,0.,-0.));
#972 = ADVANCED_FACE('',(#973),#992,.T.);
#973 = FACE_BOUND('',#974,.T.);
#974 = EDGE_LOOP('',(#975,#983,#990,#991));
#975 = ORIENTED_EDGE('',*,*,#976,.T.);
#976 = EDGE_CURVE('',#408,#977,#979,.T.);
#977 = VERTEX_POINT('',#978);
#978 = CARTESIAN_POINT('',(-0.5,0.25,1.5E-02));
#979 = LINE('',#980,#981);
#980 = CARTESIAN_POINT('',(-0.5,-0.25,1.5E-02));
#981 = VECTOR('',#982,1.);
#982 = DIRECTION('',(0.,1.,0.));
#983 = ORIENTED_EDGE('',*,*,#984,.T.);
#984 = EDGE_CURVE('',#977,#914,#985,.T.);
#985 = CIRCLE('',#986,1.5E-02);
#986 = AXIS2_PLACEMENT_3D('',#987,#988,#989);
#987 = CARTESIAN_POINT('',(-0.485,0.25,1.5E-02));
#988 = DIRECTION('',(0.,-1.,0.));
#989 = DIRECTION('',(0.,0.,1.));
#990 = ORIENTED_EDGE('',*,*,#923,.F.);
#991 = ORIENTED_EDGE('',*,*,#407,.F.);
#992 = CYLINDRICAL_SURFACE('',#993,1.5E-02);
#993 = AXIS2_PLACEMENT_3D('',#994,#995,#996);
#994 = CARTESIAN_POINT('',(-0.485,-0.25,1.5E-02));
#995 = DIRECTION('',(0.,1.,0.));
#996 = DIRECTION('',(-1.,0.,0.));
#997 = ADVANCED_FACE('',(#998),#1009,.F.);
#998 = FACE_BOUND('',#999,.F.);
#999 = EDGE_LOOP('',(#1000,#1001,#1007,#1008));
#1000 = ORIENTED_EDGE('',*,*,#464,.T.);
#1001 = ORIENTED_EDGE('',*,*,#1002,.T.);
#1002 = EDGE_CURVE('',#465,#931,#1003,.T.);
#1003 = LINE('',#1004,#1005);
#1004 = CARTESIAN_POINT('',(-0.4625,-0.1875,0.3));
#1005 = VECTOR('',#1006,1.);
#1006 = DIRECTION('',(-0.,-0.,-1.));
#1007 = ORIENTED_EDGE('',*,*,#930,.T.);
#1008 = ORIENTED_EDGE('',*,*,#450,.T.);
#1009 = PLANE('',#1010);
#1010 = AXIS2_PLACEMENT_3D('',#1011,#1012,#1013);
#1011 = CARTESIAN_POINT('',(-0.4625,-0.1875,0.3));
#1012 = DIRECTION('',(-1.,0.,0.));
#1013 = DIRECTION('',(0.,-1.,0.));
#1014 = ADVANCED_FACE('',(#1015),#1033,.F.);
#1015 = FACE_BOUND('',#1016,.F.);
#1016 = EDGE_LOOP('',(#1017,#1018,#1019,#1027));
#1017 = ORIENTED_EDGE('',*,*,#416,.F.);
#1018 = ORIENTED_EDGE('',*,*,#976,.T.);
#1019 = ORIENTED_EDGE('',*,*,#1020,.T.);
#1020 = EDGE_CURVE('',#977,#1021,#1023,.T.);
#1021 = VERTEX_POINT('',#1022);
#1022 = CARTESIAN_POINT('',(-0.5,0.25,0.185));
#1023 = LINE('',#1024,#1025);
#1024 = CARTESIAN_POINT('',(-0.5,0.25,0.));
#1025 = VECTOR('',#1026,1.);
#1026 = DIRECTION('',(0.,0.,1.));
#1027 = ORIENTED_EDGE('',*,*,#1028,.F.);
#1028 = EDGE_CURVE('',#417,#1021,#1029,.T.);
#1029 = LINE('',#1030,#1031);
#1030 = CARTESIAN_POINT('',(-0.5,-0.25,0.185));
#1031 = VECTOR('',#1032,1.);
#1032 = DIRECTION('',(0.,1.,0.));
#1033 = PLANE('',#1034);
#1034 = AXIS2_PLACEMENT_3D('',#1035,#1036,#1037);
#1035 = CARTESIAN_POINT('',(-0.5,-0.25,0.));
#1036 = DIRECTION('',(1.,0.,0.));
#1037 = DIRECTION('',(0.,0.,1.));
#1038 = ADVANCED_FACE('',(#1039),#1051,.T.);
#1039 = FACE_BOUND('',#1040,.T.);
#1040 = EDGE_LOOP('',(#1041,#1042,#1043,#1050));
#1041 = ORIENTED_EDGE('',*,*,#424,.T.);
#1042 = ORIENTED_EDGE('',*,*,#876,.T.);
#1043 = ORIENTED_EDGE('',*,*,#1044,.F.);
#1044 = EDGE_CURVE('',#1021,#869,#1045,.T.);
#1045 = CIRCLE('',#1046,1.5E-02);
#1046 = AXIS2_PLACEMENT_3D('',#1047,#1048,#1049);
#1047 = CARTESIAN_POINT('',(-0.485,0.25,0.185));
#1048 = DIRECTION('',(0.,1.,0.));
#1049 = DIRECTION('',(0.,-0.,1.));
#1050 = ORIENTED_EDGE('',*,*,#1028,.F.);
#1051 = CYLINDRICAL_SURFACE('',#1052,1.5E-02);
#1052 = AXIS2_PLACEMENT_3D('',#1053,#1054,#1055);
#1053 = CARTESIAN_POINT('',(-0.485,-0.25,0.185));
#1054 = DIRECTION('',(0.,1.,0.));
#1055 = DIRECTION('',(-1.,0.,0.));
#1056 = ADVANCED_FACE('',(#1057),#1069,.F.);
#1057 = FACE_BOUND('',#1058,.F.);
#1058 = EDGE_LOOP('',(#1059,#1060,#1061,#1068));
#1059 = ORIENTED_EDGE('',*,*,#1002,.F.);
#1060 = ORIENTED_EDGE('',*,*,#545,.T.);
#1061 = ORIENTED_EDGE('',*,*,#1062,.T.);
#1062 = EDGE_CURVE('',#538,#939,#1063,.T.);
#1063 = CIRCLE('',#1064,1.5E-02);
#1064 = AXIS2_PLACEMENT_3D('',#1065,#1066,#1067);
#1065 = CARTESIAN_POINT('',(-0.365,-0.1875,1.5E-02));
#1066 = DIRECTION('',(-0.,1.,0.));
#1067 = DIRECTION('',(1.,0.,0.));
#1068 = ORIENTED_EDGE('',*,*,#938,.T.);
#1069 = PLANE('',#1070);
#1070 = AXIS2_PLACEMENT_3D('',#1071,#1072,#1073);
#1071 = CARTESIAN_POINT('',(0.4625,-0.1875,0.3));
#1072 = DIRECTION('',(0.,1.,0.));
#1073 = DIRECTION('',(-1.,0.,0.));
#1074 = ADVANCED_FACE('',(#1075),#1087,.T.);
#1075 = FACE_BOUND('',#1076,.T.);
#1076 = EDGE_LOOP('',(#1077,#1078,#1079,#1080));
#1077 = ORIENTED_EDGE('',*,*,#537,.F.);
#1078 = ORIENTED_EDGE('',*,*,#1062,.T.);
#1079 = ORIENTED_EDGE('',*,*,#946,.T.);
#1080 = ORIENTED_EDGE('',*,*,#1081,.F.);
#1081 = EDGE_CURVE('',#530,#947,#1082,.T.);
#1082 = CIRCLE('',#1083,1.5E-02);
#1083 = AXIS2_PLACEMENT_3D('',#1084,#1085,#1086);
#1084 = CARTESIAN_POINT('',(-0.365,0.1875,1.5E-02));
#1085 = DIRECTION('',(-0.,1.,0.));
#1086 = DIRECTION('',(1.,0.,0.));
#1087 = CYLINDRICAL_SURFACE('',#1088,1.5E-02);
#1088 = AXIS2_PLACEMENT_3D('',#1089,#1090,#1091);
#1089 = CARTESIAN_POINT('',(-0.365,-0.25,1.5E-02));
#1090 = DIRECTION('',(0.,1.,0.));
#1091 = DIRECTION('',(1.,0.,0.));
#1092 = ADVANCED_FACE('',(#1093),#1104,.F.);
#1093 = FACE_BOUND('',#1094,.F.);
#1094 = EDGE_LOOP('',(#1095,#1096,#1102,#1103));
#1095 = ORIENTED_EDGE('',*,*,#529,.T.);
#1096 = ORIENTED_EDGE('',*,*,#1097,.T.);
#1097 = EDGE_CURVE('',#522,#955,#1098,.T.);
#1098 = LINE('',#1099,#1100);
#1099 = CARTESIAN_POINT('',(-0.4625,0.1875,0.3));
#1100 = VECTOR('',#1101,1.);
#1101 = DIRECTION('',(-0.,-0.,-1.));
#1102 = ORIENTED_EDGE('',*,*,#954,.T.);
#1103 = ORIENTED_EDGE('',*,*,#1081,.F.);
#1104 = PLANE('',#1105);
#1105 = AXIS2_PLACEMENT_3D('',#1106,#1107,#1108);
#1106 = CARTESIAN_POINT('',(-0.4625,0.1875,0.3));
#1107 = DIRECTION('',(0.,-1.,0.));
#1108 = DIRECTION('',(1.,0.,0.));
#1109 = ADVANCED_FACE('',(#1110),#1121,.F.);
#1110 = FACE_BOUND('',#1111,.F.);
#1111 = EDGE_LOOP('',(#1112,#1113,#1114,#1120));
#1112 = ORIENTED_EDGE('',*,*,#1097,.F.);
#1113 = ORIENTED_EDGE('',*,*,#521,.T.);
#1114 = ORIENTED_EDGE('',*,*,#1115,.F.);
#1115 = EDGE_CURVE('',#916,#514,#1116,.T.);
#1116 = LINE('',#1117,#1118);
#1117 = CARTESIAN_POINT('',(-0.4625,0.25,0.15));
#1118 = VECTOR('',#1119,1.);
#1119 = DIRECTION('',(0.,0.,1.));
#1120 = ORIENTED_EDGE('',*,*,#962,.T.);
#1121 = PLANE('',#1122);
#1122 = AXIS2_PLACEMENT_3D('',#1123,#1124,#1125);
#1123 = CARTESIAN_POINT('',(-0.4625,0.3125,0.3));
#1124 = DIRECTION('',(-1.,0.,0.));
#1125 = DIRECTION('',(0.,-1.,0.));
#1126 = ADVANCED_FACE('',(#1127),#1152,.F.);
#1127 = FACE_BOUND('',#1128,.F.);
#1128 = EDGE_LOOP('',(#1129,#1130,#1138,#1146));
#1129 = ORIENTED_EDGE('',*,*,#505,.T.);
#1130 = ORIENTED_EDGE('',*,*,#1131,.T.);
#1131 = EDGE_CURVE('',#498,#1132,#1134,.T.);
#1132 = VERTEX_POINT('',#1133);
#1133 = CARTESIAN_POINT('',(0.4625,0.1875,0.));
#1134 = LINE('',#1135,#1136);
#1135 = CARTESIAN_POINT('',(0.4625,0.1875,0.3));
#1136 = VECTOR('',#1137,1.);
#1137 = DIRECTION('',(-0.,-0.,-1.));
#1138 = ORIENTED_EDGE('',*,*,#1139,.T.);
#1139 = EDGE_CURVE('',#1132,#1140,#1142,.T.);
#1140 = VERTEX_POINT('',#1141);
#1141 = CARTESIAN_POINT('',(0.4625,0.25,0.));
#1142 = LINE('',#1143,#1144);
#1143 = CARTESIAN_POINT('',(0.4625,-3.125E-02,0.));
#1144 = VECTOR('',#1145,1.);
#1145 = DIRECTION('',(0.,1.,0.));
#1146 = ORIENTED_EDGE('',*,*,#1147,.F.);
#1147 = EDGE_CURVE('',#506,#1140,#1148,.T.);
#1148 = LINE('',#1149,#1150);
#1149 = CARTESIAN_POINT('',(0.4625,0.25,0.15));
#1150 = VECTOR('',#1151,1.);
#1151 = DIRECTION('',(0.,0.,-1.));
#1152 = PLANE('',#1153);
#1153 = AXIS2_PLACEMENT_3D('',#1154,#1155,#1156);
#1154 = CARTESIAN_POINT('',(0.4625,0.1875,0.3));
#1155 = DIRECTION('',(1.,0.,0.));
#1156 = DIRECTION('',(-0.,1.,0.));
#1157 = ADVANCED_FACE('',(#1158),#1177,.F.);
#1158 = FACE_BOUND('',#1159,.F.);
#1159 = EDGE_LOOP('',(#1160,#1161,#1162,#1171));
#1160 = ORIENTED_EDGE('',*,*,#1131,.F.);
#1161 = ORIENTED_EDGE('',*,*,#497,.T.);
#1162 = ORIENTED_EDGE('',*,*,#1163,.F.);
#1163 = EDGE_CURVE('',#1164,#490,#1166,.T.);
#1164 = VERTEX_POINT('',#1165);
#1165 = CARTESIAN_POINT('',(0.365,0.1875,-1.734723475977E-18));
#1166 = CIRCLE('',#1167,1.5E-02);
#1167 = AXIS2_PLACEMENT_3D('',#1168,#1169,#1170);
#1168 = CARTESIAN_POINT('',(0.365,0.1875,1.5E-02));
#1169 = DIRECTION('',(0.,1.,-0.));
#1170 = DIRECTION('',(-1.,0.,0.));
#1171 = ORIENTED_EDGE('',*,*,#1172,.T.);
#1172 = EDGE_CURVE('',#1164,#1132,#1173,.T.);
#1173 = LINE('',#1174,#1175);
#1174 = CARTESIAN_POINT('',(-5.625E-02,0.1875,0.));
#1175 = VECTOR('',#1176,1.);
#1176 = DIRECTION('',(1.,0.,0.));
#1177 = PLANE('',#1178);
#1178 = AXIS2_PLACEMENT_3D('',#1179,#1180,#1181);
#1179 = CARTESIAN_POINT('',(-0.4625,0.1875,0.3));
#1180 = DIRECTION('',(0.,-1.,0.));
#1181 = DIRECTION('',(1.,0.,0.));
#1182 = ADVANCED_FACE('',(#1183),#1202,.T.);
#1183 = FACE_BOUND('',#1184,.T.);
#1184 = EDGE_LOOP('',(#1185,#1186,#1194,#1201));
#1185 = ORIENTED_EDGE('',*,*,#1163,.F.);
#1186 = ORIENTED_EDGE('',*,*,#1187,.F.);
#1187 = EDGE_CURVE('',#1188,#1164,#1190,.T.);
#1188 = VERTEX_POINT('',#1189);
#1189 = CARTESIAN_POINT('',(0.365,-0.1875,-1.734723475977E-18));
#1190 = LINE('',#1191,#1192);
#1191 = CARTESIAN_POINT('',(0.365,-0.25,-1.734723475977E-18));
#1192 = VECTOR('',#1193,1.);
#1193 = DIRECTION('',(0.,1.,0.));
#1194 = ORIENTED_EDGE('',*,*,#1195,.T.);
#1195 = EDGE_CURVE('',#1188,#482,#1196,.T.);
#1196 = CIRCLE('',#1197,1.5E-02);
#1197 = AXIS2_PLACEMENT_3D('',#1198,#1199,#1200);
#1198 = CARTESIAN_POINT('',(0.365,-0.1875,1.5E-02));
#1199 = DIRECTION('',(0.,1.,-0.));
#1200 = DIRECTION('',(-1.,0.,0.));
#1201 = ORIENTED_EDGE('',*,*,#489,.T.);
#1202 = CYLINDRICAL_SURFACE('',#1203,1.5E-02);
#1203 = AXIS2_PLACEMENT_3D('',#1204,#1205,#1206);
#1204 = CARTESIAN_POINT('',(0.365,-0.25,1.5E-02));
#1205 = DIRECTION('',(0.,1.,0.));
#1206 = DIRECTION('',(-1.,0.,0.));
#1207 = ADVANCED_FACE('',(#1208),#1226,.F.);
#1208 = FACE_BOUND('',#1209,.F.);
#1209 = EDGE_LOOP('',(#1210,#1211,#1219,#1225));
#1210 = ORIENTED_EDGE('',*,*,#481,.T.);
#1211 = ORIENTED_EDGE('',*,*,#1212,.T.);
#1212 = EDGE_CURVE('',#474,#1213,#1215,.T.);
#1213 = VERTEX_POINT('',#1214);
#1214 = CARTESIAN_POINT('',(0.4625,-0.1875,0.));
#1215 = LINE('',#1216,#1217);
#1216 = CARTESIAN_POINT('',(0.4625,-0.1875,0.3));
#1217 = VECTOR('',#1218,1.);
#1218 = DIRECTION('',(-0.,-0.,-1.));
#1219 = ORIENTED_EDGE('',*,*,#1220,.T.);
#1220 = EDGE_CURVE('',#1213,#1188,#1221,.T.);
#1221 = LINE('',#1222,#1223);
#1222 = CARTESIAN_POINT('',(0.40625,-0.1875,0.));
#1223 = VECTOR('',#1224,1.);
#1224 = DIRECTION('',(-1.,0.,0.));
#1225 = ORIENTED_EDGE('',*,*,#1195,.T.);
#1226 = PLANE('',#1227);
#1227 = AXIS2_PLACEMENT_3D('',#1228,#1229,#1230);
#1228 = CARTESIAN_POINT('',(0.4625,-0.1875,0.3));
#1229 = DIRECTION('',(0.,1.,0.));
#1230 = DIRECTION('',(-1.,0.,0.));
#1231 = ADVANCED_FACE('',(#1232),#1243,.F.);
#1232 = FACE_BOUND('',#1233,.F.);
#1233 = EDGE_LOOP('',(#1234,#1235,#1236,#1237));
#1234 = ORIENTED_EDGE('',*,*,#1212,.F.);
#1235 = ORIENTED_EDGE('',*,*,#473,.T.);
#1236 = ORIENTED_EDGE('',*,*,#595,.T.);
#1237 = ORIENTED_EDGE('',*,*,#1238,.T.);
#1238 = EDGE_CURVE('',#586,#1213,#1239,.T.);
#1239 = LINE('',#1240,#1241);
#1240 = CARTESIAN_POINT('',(0.4625,-0.28125,0.));
#1241 = VECTOR('',#1242,1.);
#1242 = DIRECTION('',(0.,1.,0.));
#1243 = PLANE('',#1244);
#1244 = AXIS2_PLACEMENT_3D('',#1245,#1246,#1247);
#1245 = CARTESIAN_POINT('',(0.4625,-0.3125,0.3));
#1246 = DIRECTION('',(1.,0.,0.));
#1247 = DIRECTION('',(-0.,1.,0.));
#1248 = ADVANCED_FACE('',(#1249),#1274,.T.);
#1249 = FACE_BOUND('',#1250,.T.);
#1250 = EDGE_LOOP('',(#1251,#1259,#1260,#1268));
#1251 = ORIENTED_EDGE('',*,*,#1252,.T.);
#1252 = EDGE_CURVE('',#1253,#554,#1255,.T.);
#1253 = VERTEX_POINT('',#1254);
#1254 = CARTESIAN_POINT('',(0.173205080757,0.2,7.5E-03));
#1255 = LINE('',#1256,#1257);
#1256 = CARTESIAN_POINT('',(0.173205080757,0.2,7.5E-03));
#1257 = VECTOR('',#1258,1.);
#1258 = DIRECTION('',(0.,0.,1.));
#1259 = ORIENTED_EDGE('',*,*,#553,.T.);
#1260 = ORIENTED_EDGE('',*,*,#1261,.F.);
#1261 = EDGE_CURVE('',#1262,#556,#1264,.T.);
#1262 = VERTEX_POINT('',#1263);
#1263 = CARTESIAN_POINT('',(0.173205080757,-0.2,7.5E-03));
#1264 = LINE('',#1265,#1266);
#1265 = CARTESIAN_POINT('',(0.173205080757,-0.2,7.5E-03));
#1266 = VECTOR('',#1267,1.);
#1267 = DIRECTION('',(0.,0.,1.));
#1268 = ORIENTED_EDGE('',*,*,#1269,.F.);
#1269 = EDGE_CURVE('',#1253,#1262,#1270,.T.);
#1270 = LINE('',#1271,#1272);
#1271 = CARTESIAN_POINT('',(0.173205080757,0.2,7.5E-03));
#1272 = VECTOR('',#1273,1.);
#1273 = DIRECTION('',(0.,-1.,0.));
#1274 = PLANE('',#1275);
#1275 = AXIS2_PLACEMENT_3D('',#1276,#1277,#1278);
#1276 = CARTESIAN_POINT('',(0.173205080757,0.2,7.5E-03));
#1277 = DIRECTION('',(1.,0.,0.));
#1278 = DIRECTION('',(0.,-1.,0.));
#1279 = ADVANCED_FACE('',(#1280),#1298,.T.);
#1280 = FACE_BOUND('',#1281,.T.);
#1281 = EDGE_LOOP('',(#1282,#1290,#1291,#1292));
#1282 = ORIENTED_EDGE('',*,*,#1283,.T.);
#1283 = EDGE_CURVE('',#1284,#564,#1286,.T.);
#1284 = VERTEX_POINT('',#1285);
#1285 = CARTESIAN_POINT('',(-0.173205080757,0.,7.5E-03));
#1286 = LINE('',#1287,#1288);
#1287 = CARTESIAN_POINT('',(-0.173205080757,0.,7.5E-03));
#1288 = VECTOR('',#1289,1.);
#1289 = DIRECTION('',(0.,0.,1.));
#1290 = ORIENTED_EDGE('',*,*,#571,.T.);
#1291 = ORIENTED_EDGE('',*,*,#1252,.F.);
#1292 = ORIENTED_EDGE('',*,*,#1293,.F.);
#1293 = EDGE_CURVE('',#1284,#1253,#1294,.T.);
#1294 = LINE('',#1295,#1296);
#1295 = CARTESIAN_POINT('',(-0.173205080757,0.,7.5E-03));
#1296 = VECTOR('',#1297,1.);
#1297 = DIRECTION('',(0.866025403784,0.5,0.));
#1298 = PLANE('',#1299);
#1299 = AXIS2_PLACEMENT_3D('',#1300,#1301,#1302);
#1300 = CARTESIAN_POINT('',(-0.173205080757,0.,7.5E-03));
#1301 = DIRECTION('',(-0.5,0.866025403784,0.));
#1302 = DIRECTION('',(0.866025403784,0.5,0.));
#1303 = ADVANCED_FACE('',(#1304),#1315,.T.);
#1304 = FACE_BOUND('',#1305,.T.);
#1305 = EDGE_LOOP('',(#1306,#1307,#1308,#1309));
#1306 = ORIENTED_EDGE('',*,*,#1261,.T.);
#1307 = ORIENTED_EDGE('',*,*,#563,.T.);
#1308 = ORIENTED_EDGE('',*,*,#1283,.F.);
#1309 = ORIENTED_EDGE('',*,*,#1310,.F.);
#1310 = EDGE_CURVE('',#1262,#1284,#1311,.T.);
#1311 = LINE('',#1312,#1313);
#1312 = CARTESIAN_POINT('',(0.173205080757,-0.2,7.5E-03));
#1313 = VECTOR('',#1314,1.);
#1314 = DIRECTION('',(-0.866025403784,0.5,0.));
#1315 = PLANE('',#1316);
#1316 = AXIS2_PLACEMENT_3D('',#1317,#1318,#1319);
#1317 = CARTESIAN_POINT('',(0.173205080757,-0.2,7.5E-03));
#1318 = DIRECTION('',(-0.5,-0.866025403784,0.));
#1319 = DIRECTION('',(-0.866025403784,0.5,0.));
#1320 = ADVANCED_FACE('',(#1321),#1343,.F.);
#1321 = FACE_BOUND('',#1322,.F.);
#1322 = EDGE_LOOP('',(#1323,#1331,#1332,#1333,#1334,#1335,#1336,#1337));
#1323 = ORIENTED_EDGE('',*,*,#1324,.F.);
#1324 = EDGE_CURVE('',#1140,#1325,#1327,.T.);
#1325 = VERTEX_POINT('',#1326);
#1326 = CARTESIAN_POINT('',(0.485,0.25,-1.734723475977E-18));
#1327 = LINE('',#1328,#1329);
#1328 = CARTESIAN_POINT('',(0.35,0.25,0.));
#1329 = VECTOR('',#1330,1.);
#1330 = DIRECTION('',(1.,0.,0.));
#1331 = ORIENTED_EDGE('',*,*,#1139,.F.);
#1332 = ORIENTED_EDGE('',*,*,#1172,.F.);
#1333 = ORIENTED_EDGE('',*,*,#1187,.F.);
#1334 = ORIENTED_EDGE('',*,*,#1220,.F.);
#1335 = ORIENTED_EDGE('',*,*,#1238,.F.);
#1336 = ORIENTED_EDGE('',*,*,#585,.T.);
#1337 = ORIENTED_EDGE('',*,*,#1338,.T.);
#1338 = EDGE_CURVE('',#588,#1325,#1339,.T.);
#1339 = LINE('',#1340,#1341);
#1340 = CARTESIAN_POINT('',(0.485,-0.25,-1.734723475977E-18));
#1341 = VECTOR('',#1342,1.);
#1342 = DIRECTION('',(0.,1.,0.));
#1343 = PLANE('',#1344);
#1344 = AXIS2_PLACEMENT_3D('',#1345,#1346,#1347);
#1345 = CARTESIAN_POINT('',(0.35,-0.25,0.));
#1346 = DIRECTION('',(0.,0.,1.));
#1347 = DIRECTION('',(1.,0.,-0.));
#1348 = ADVANCED_FACE('',(#1349),#1368,.T.);
#1349 = FACE_BOUND('',#1350,.T.);
#1350 = EDGE_LOOP('',(#1351,#1352,#1353,#1362));
#1351 = ORIENTED_EDGE('',*,*,#637,.T.);
#1352 = ORIENTED_EDGE('',*,*,#1338,.T.);
#1353 = ORIENTED_EDGE('',*,*,#1354,.F.);
#1354 = EDGE_CURVE('',#1355,#1325,#1357,.T.);
#1355 = VERTEX_POINT('',#1356);
#1356 = CARTESIAN_POINT('',(0.5,0.25,1.5E-02));
#1357 = CIRCLE('',#1358,1.5E-02);
#1358 = AXIS2_PLACEMENT_3D('',#1359,#1360,#1361);
#1359 = CARTESIAN_POINT('',(0.485,0.25,1.5E-02));
#1360 = DIRECTION('',(0.,1.,0.));
#1361 = DIRECTION('',(0.,-0.,1.));
#1362 = ORIENTED_EDGE('',*,*,#1363,.F.);
#1363 = EDGE_CURVE('',#630,#1355,#1364,.T.);
#1364 = LINE('',#1365,#1366);
#1365 = CARTESIAN_POINT('',(0.5,-0.25,1.5E-02));
#1366 = VECTOR('',#1367,1.);
#1367 = DIRECTION('',(0.,1.,0.));
#1368 = CYLINDRICAL_SURFACE('',#1369,1.5E-02);
#1369 = AXIS2_PLACEMENT_3D('',#1370,#1371,#1372);
#1370 = CARTESIAN_POINT('',(0.485,-0.25,1.5E-02));
#1371 = DIRECTION('',(0.,1.,0.));
#1372 = DIRECTION('',(1.,0.,0.));
#1373 = ADVANCED_FACE('',(#1374),#1392,.T.);
#1374 = FACE_BOUND('',#1375,.T.);
#1375 = EDGE_LOOP('',(#1376,#1377,#1378,#1386));
#1376 = ORIENTED_EDGE('',*,*,#629,.F.);
#1377 = ORIENTED_EDGE('',*,*,#1363,.T.);
#1378 = ORIENTED_EDGE('',*,*,#1379,.T.);
#1379 = EDGE_CURVE('',#1355,#1380,#1382,.T.);
#1380 = VERTEX_POINT('',#1381);
#1381 = CARTESIAN_POINT('',(0.5,0.25,0.185));
#1382 = LINE('',#1383,#1384);
#1383 = CARTESIAN_POINT('',(0.5,0.25,0.));
#1384 = VECTOR('',#1385,1.);
#1385 = DIRECTION('',(0.,0.,1.));
#1386 = ORIENTED_EDGE('',*,*,#1387,.F.);
#1387 = EDGE_CURVE('',#621,#1380,#1388,.T.);
#1388 = LINE('',#1389,#1390);
#1389 = CARTESIAN_POINT('',(0.5,-0.25,0.185));
#1390 = VECTOR('',#1391,1.);
#1391 = DIRECTION('',(0.,1.,0.));
#1392 = PLANE('',#1393);
#1393 = AXIS2_PLACEMENT_3D('',#1394,#1395,#1396);
#1394 = CARTESIAN_POINT('',(0.5,-0.25,0.));
#1395 = DIRECTION('',(1.,0.,0.));
#1396 = DIRECTION('',(0.,0.,1.));
#1397 = ADVANCED_FACE('',(#1398),#1417,.T.);
#1398 = FACE_BOUND('',#1399,.T.);
#1399 = EDGE_LOOP('',(#1400,#1401,#1410,#1416));
#1400 = ORIENTED_EDGE('',*,*,#1387,.T.);
#1401 = ORIENTED_EDGE('',*,*,#1402,.T.);
#1402 = EDGE_CURVE('',#1380,#1403,#1405,.T.);
#1403 = VERTEX_POINT('',#1404);
#1404 = CARTESIAN_POINT('',(0.485,0.25,0.2));
#1405 = CIRCLE('',#1406,1.5E-02);
#1406 = AXIS2_PLACEMENT_3D('',#1407,#1408,#1409);
#1407 = CARTESIAN_POINT('',(0.485,0.25,0.185));
#1408 = DIRECTION('',(0.,-1.,0.));
#1409 = DIRECTION('',(0.,0.,1.));
#1410 = ORIENTED_EDGE('',*,*,#1411,.F.);
#1411 = EDGE_CURVE('',#613,#1403,#1412,.T.);
#1412 = LINE('',#1413,#1414);
#1413 = CARTESIAN_POINT('',(0.485,-0.25,0.2));
#1414 = VECTOR('',#1415,1.);
#1415 = DIRECTION('',(0.,1.,0.));
#1416 = ORIENTED_EDGE('',*,*,#620,.F.);
#1417 = CYLINDRICAL_SURFACE('',#1418,1.5E-02);
#1418 = AXIS2_PLACEMENT_3D('',#1419,#1420,#1421);
#1419 = CARTESIAN_POINT('',(0.485,-0.25,0.185));
#1420 = DIRECTION('',(0.,1.,0.));
#1421 = DIRECTION('',(1.,0.,0.));
#1422 = ADVANCED_FACE('',(#1423),#1464,.T.);
#1423 = FACE_BOUND('',#1424,.T.);
#1424 = EDGE_LOOP('',(#1425,#1433,#1441,#1447,#1448,#1456,#1462,#1463));
#1425 = ORIENTED_EDGE('',*,*,#1426,.F.);
#1426 = EDGE_CURVE('',#1427,#1403,#1429,.T.);
#1427 = VERTEX_POINT('',#1428);
#1428 = CARTESIAN_POINT('',(0.4625,0.25,0.2));
#1429 = LINE('',#1430,#1431);
#1430 = CARTESIAN_POINT('',(0.35,0.25,0.2));
#1431 = VECTOR('',#1432,1.);
#1432 = DIRECTION('',(1.,0.,0.));
#1433 = ORIENTED_EDGE('',*,*,#1434,.F.);
#1434 = EDGE_CURVE('',#1435,#1427,#1437,.T.);
#1435 = VERTEX_POINT('',#1436);
#1436 = CARTESIAN_POINT('',(0.4625,0.1875,0.2));
#1437 = LINE('',#1438,#1439);
#1438 = CARTESIAN_POINT('',(0.4625,-3.125E-02,0.2));
#1439 = VECTOR('',#1440,1.);
#1440 = DIRECTION('',(0.,1.,0.));
#1441 = ORIENTED_EDGE('',*,*,#1442,.F.);
#1442 = EDGE_CURVE('',#718,#1435,#1443,.T.);
#1443 = LINE('',#1444,#1445);
#1444 = CARTESIAN_POINT('',(-5.625E-02,0.1875,0.2));
#1445 = VECTOR('',#1446,1.);
#1446 = DIRECTION('',(1.,0.,0.));
#1447 = ORIENTED_EDGE('',*,*,#717,.F.);
#1448 = ORIENTED_EDGE('',*,*,#1449,.F.);
#1449 = EDGE_CURVE('',#1450,#709,#1452,.T.);
#1450 = VERTEX_POINT('',#1451);
#1451 = CARTESIAN_POINT('',(0.4625,-0.1875,0.2));
#1452 = LINE('',#1453,#1454);
#1453 = CARTESIAN_POINT('',(0.40625,-0.1875,0.2));
#1454 = VECTOR('',#1455,1.);
#1455 = DIRECTION('',(-1.,0.,0.));
#1456 = ORIENTED_EDGE('',*,*,#1457,.F.);
#1457 = EDGE_CURVE('',#605,#1450,#1458,.T.);
#1458 = LINE('',#1459,#1460);
#1459 = CARTESIAN_POINT('',(0.4625,-0.28125,0.2));
#1460 = VECTOR('',#1461,1.);
#1461 = DIRECTION('',(0.,1.,0.));
#1462 = ORIENTED_EDGE('',*,*,#612,.T.);
#1463 = ORIENTED_EDGE('',*,*,#1411,.T.);
#1464 = PLANE('',#1465);
#1465 = AXIS2_PLACEMENT_3D('',#1466,#1467,#1468);
#1466 = CARTESIAN_POINT('',(0.35,-0.25,0.2));
#1467 = DIRECTION('',(0.,0.,1.));
#1468 = DIRECTION('',(1.,0.,-0.));
#1469 = ADVANCED_FACE('',(#1470),#1481,.F.);
#1470 = FACE_BOUND('',#1471,.F.);
#1471 = EDGE_LOOP('',(#1472,#1478,#1479,#1480));
#1472 = ORIENTED_EDGE('',*,*,#1473,.F.);
#1473 = EDGE_CURVE('',#1450,#653,#1474,.T.);
#1474 = LINE('',#1475,#1476);
#1475 = CARTESIAN_POINT('',(0.4625,-0.1875,0.3));
#1476 = VECTOR('',#1477,1.);
#1477 = DIRECTION('',(-0.,-0.,-1.));
#1478 = ORIENTED_EDGE('',*,*,#1457,.F.);
#1479 = ORIENTED_EDGE('',*,*,#604,.T.);
#1480 = ORIENTED_EDGE('',*,*,#662,.F.);
#1481 = PLANE('',#1482);
#1482 = AXIS2_PLACEMENT_3D('',#1483,#1484,#1485);
#1483 = CARTESIAN_POINT('',(0.4625,-0.3125,0.3));
#1484 = DIRECTION('',(1.,0.,0.));
#1485 = DIRECTION('',(-0.,1.,0.));
#1486 = ADVANCED_FACE('',(#1487),#1493,.F.);
#1487 = FACE_BOUND('',#1488,.F.);
#1488 = EDGE_LOOP('',(#1489,#1490,#1491,#1492));
#1489 = ORIENTED_EDGE('',*,*,#1449,.F.);
#1490 = ORIENTED_EDGE('',*,*,#1473,.T.);
#1491 = ORIENTED_EDGE('',*,*,#652,.F.);
#1492 = ORIENTED_EDGE('',*,*,#708,.T.);
#1493 = PLANE('',#1494);
#1494 = AXIS2_PLACEMENT_3D('',#1495,#1496,#1497);
#1495 = CARTESIAN_POINT('',(0.4625,-0.1875,0.3));
#1496 = DIRECTION('',(0.,1.,0.));
#1497 = DIRECTION('',(-1.,0.,0.));
#1498 = ADVANCED_FACE('',(#1499),#1515,.F.);
#1499 = FACE_BOUND('',#1500,.F.);
#1500 = EDGE_LOOP('',(#1501,#1502,#1508,#1509));
#1501 = ORIENTED_EDGE('',*,*,#1434,.F.);
#1502 = ORIENTED_EDGE('',*,*,#1503,.T.);
#1503 = EDGE_CURVE('',#1435,#686,#1504,.T.);
#1504 = LINE('',#1505,#1506);
#1505 = CARTESIAN_POINT('',(0.4625,0.1875,0.3));
#1506 = VECTOR('',#1507,1.);
#1507 = DIRECTION('',(-0.,-0.,-1.));
#1508 = ORIENTED_EDGE('',*,*,#693,.F.);
#1509 = ORIENTED_EDGE('',*,*,#1510,.F.);
#1510 = EDGE_CURVE('',#1427,#677,#1511,.T.);
#1511 = LINE('',#1512,#1513);
#1512 = CARTESIAN_POINT('',(0.4625,0.25,0.15));
#1513 = VECTOR('',#1514,1.);
#1514 = DIRECTION('',(0.,0.,-1.));
#1515 = PLANE('',#1516);
#1516 = AXIS2_PLACEMENT_3D('',#1517,#1518,#1519);
#1517 = CARTESIAN_POINT('',(0.4625,0.1875,0.3));
#1518 = DIRECTION('',(1.,0.,0.));
#1519 = DIRECTION('',(-0.,1.,0.));
#1520 = ADVANCED_FACE('',(#1521),#1527,.F.);
#1521 = FACE_BOUND('',#1522,.F.);
#1522 = EDGE_LOOP('',(#1523,#1524,#1525,#1526));
#1523 = ORIENTED_EDGE('',*,*,#1503,.F.);
#1524 = ORIENTED_EDGE('',*,*,#1442,.F.);
#1525 = ORIENTED_EDGE('',*,*,#725,.F.);
#1526 = ORIENTED_EDGE('',*,*,#685,.F.);
#1527 = PLANE('',#1528);
#1528 = AXIS2_PLACEMENT_3D('',#1529,#1530,#1531);
#1529 = CARTESIAN_POINT('',(-0.4625,0.1875,0.3));
#1530 = DIRECTION('',(0.,-1.,0.));
#1531 = DIRECTION('',(1.,0.,0.));
#1532 = ADVANCED_FACE('',(#1533),#1545,.T.);
#1533 = FACE_BOUND('',#1534,.T.);
#1534 = EDGE_LOOP('',(#1535,#1536,#1537,#1538,#1539,#1540,#1541,#1542,
    #1543,#1544));
#1535 = ORIENTED_EDGE('',*,*,#913,.F.);
#1536 = ORIENTED_EDGE('',*,*,#984,.F.);
#1537 = ORIENTED_EDGE('',*,*,#1020,.T.);
#1538 = ORIENTED_EDGE('',*,*,#1044,.T.);
#1539 = ORIENTED_EDGE('',*,*,#868,.T.);
#1540 = ORIENTED_EDGE('',*,*,#829,.F.);
#1541 = ORIENTED_EDGE('',*,*,#756,.F.);
#1542 = ORIENTED_EDGE('',*,*,#748,.F.);
#1543 = ORIENTED_EDGE('',*,*,#740,.T.);
#1544 = ORIENTED_EDGE('',*,*,#1115,.F.);
#1545 = PLANE('',#1546);
#1546 = AXIS2_PLACEMENT_3D('',#1547,#1548,#1549);
#1547 = CARTESIAN_POINT('',(-0.5,0.25,0.));
#1548 = DIRECTION('',(0.,1.,0.));
#1549 = DIRECTION('',(0.,-0.,1.));
#1550 = ADVANCED_FACE('',(#1551),#1563,.T.);
#1551 = FACE_BOUND('',#1552,.T.);
#1552 = EDGE_LOOP('',(#1553,#1554,#1555,#1556,#1557,#1558,#1559,#1560,
    #1561,#1562));
#1553 = ORIENTED_EDGE('',*,*,#1324,.F.);
#1554 = ORIENTED_EDGE('',*,*,#1147,.F.);
#1555 = ORIENTED_EDGE('',*,*,#781,.T.);
#1556 = ORIENTED_EDGE('',*,*,#773,.T.);
#1557 = ORIENTED_EDGE('',*,*,#765,.F.);
#1558 = ORIENTED_EDGE('',*,*,#1510,.F.);
#1559 = ORIENTED_EDGE('',*,*,#1426,.T.);
#1560 = ORIENTED_EDGE('',*,*,#1402,.F.);
#1561 = ORIENTED_EDGE('',*,*,#1379,.F.);
#1562 = ORIENTED_EDGE('',*,*,#1354,.T.);
#1563 = PLANE('',#1564);
#1564 = AXIS2_PLACEMENT_3D('',#1565,#1566,#1567);
#1565 = CARTESIAN_POINT('',(0.35,0.25,0.));
#1566 = DIRECTION('',(0.,1.,0.));
#1567 = DIRECTION('',(0.,-0.,1.));
#1568 = ADVANCED_FACE('',(#1569),#1574,.T.);
#1569 = FACE_BOUND('',#1570,.T.);
#1570 = EDGE_LOOP('',(#1571,#1572,#1573));
#1571 = ORIENTED_EDGE('',*,*,#1293,.T.);
#1572 = ORIENTED_EDGE('',*,*,#1269,.T.);
#1573 = ORIENTED_EDGE('',*,*,#1310,.T.);
#1574 = PLANE('',#1575);
#1575 = AXIS2_PLACEMENT_3D('',#1576,#1577,#1578);
#1576 = CARTESIAN_POINT('',(5.773502691896E-02,0.,7.5E-03));
#1577 = DIRECTION('',(-0.,-0.,-1.));
#1578 = DIRECTION('',(-1.,0.,0.));
#1579 = ( GEOMETRIC_REPRESENTATION_CONTEXT(3) 
GLOBAL_UNCERTAINTY_ASSIGNED_CONTEXT((#1583)) 
GLOBAL_UNIT_ASSIGNED_CONTEXT((#1580,#1581,#1582)) REPRESENTATION_CONTEXT
('Context #1','3D Context with UNIT and UNCERTAINTY') );
#1580 = ( LENGTH_UNIT() NAMED_UNIT(*) SI_UNIT(.MILLI.,.METRE.) );
#1581 = ( NAMED_UNIT(*) PLANE_ANGLE_UNIT() SI_UNIT($,.RADIAN.) );
#1582 = ( NAMED_UNIT(*) SI_UNIT($,.STERADIAN.) SOLID_ANGLE_UNIT() );
#1583 = UNCERTAINTY_MEASURE_WITH_UNIT(LENGTH_MEASURE(1.E-07),#1580,
  'distance_accuracy_value','confusion accuracy');
#1584 = CONTEXT_DEPENDENT_SHAPE_REPRESENTATION(#1585,#1587);
#1585 = ( REPRESENTATION_RELATIONSHIP('','',#55,#32) 
REPRESENTATION_RELATIONSHIP_WITH_TRANSFORMATION(#1586) 
SHAPE_REPRESENTATION_RELATIONSHIP() );
#1586 = ITEM_DEFINED_TRANSFORMATION('','',#11,#33);
#1587 = PRODUCT_DEFINITION_SHAPE('Placement','Placement of an item',
  #1588);
#1588 = NEXT_ASSEMBLY_USAGE_OCCURRENCE('1','=>[0:1:1:3]','',#27,#50,$);
#1589 = PRODUCT_RELATED_PRODUCT_CATEGORY('part',$,(#52));
#1590 = MECHANICAL_DESIGN_GEOMETRIC_PRESENTATION_REPRESENTATION('',(
    #1591,#1599,#1606,#1613,#1620,#1627,#1634,#1641,#1649,#1656,#1663,
    #1670,#1677,#1684,#1691,#1698,#1705,#1712,#1719,#1726,#1733,#1740,
    #1747,#1754,#1761,#1768,#1775,#1782,#1789,#1796,#1803,#1810,#1817,
    #1824,#1831,#1838,#1846,#1853,#1860,#1867,#1874,#1881,#1888,#1895,
    #1902,#1909,#1916,#1923,#1930,#1937),#1579);
#1591 = STYLED_ITEM('color',(#1592),#58);
#1592 = PRESENTATION_STYLE_ASSIGNMENT((#1593));
#1593 = SURFACE_STYLE_USAGE(.BOTH.,#1594);
#1594 = SURFACE_SIDE_STYLE('',(#1595));
#1595 = SURFACE_STYLE_FILL_AREA(#1596);
#1596 = FILL_AREA_STYLE('',(#1597));
#1597 = FILL_AREA_STYLE_COLOUR('',#1598);
#1598 = COLOUR_RGB('',0.894999966383,0.890999961016,0.813000030345);
#1599 = STYLED_ITEM('color',(#1600),#98);
#1600 = PRESENTATION_STYLE_ASSIGNMENT((#1601));
#1601 = SURFACE_STYLE_USAGE(.BOTH.,#1602);
#1602 = SURFACE_SIDE_STYLE('',(#1603));
#1603 = SURFACE_STYLE_FILL_AREA(#1604);
#1604 = FILL_AREA_STYLE('',(#1605));
#1605 = FILL_AREA_STYLE_COLOUR('',#1598);
#1606 = STYLED_ITEM('color',(#1607),#145);
#1607 = PRESENTATION_STYLE_ASSIGNMENT((#1608));
#1608 = SURFACE_STYLE_USAGE(.BOTH.,#1609);
#1609 = SURFACE_SIDE_STYLE('',(#1610));
#1610 = SURFACE_STYLE_FILL_AREA(#1611);
#1611 = FILL_AREA_STYLE('',(#1612));
#1612 = FILL_AREA_STYLE_COLOUR('',#1598);
#1613 = STYLED_ITEM('color',(#1614),#224);
#1614 = PRESENTATION_STYLE_ASSIGNMENT((#1615));
#1615 = SURFACE_STYLE_USAGE(.BOTH.,#1616);
#1616 = SURFACE_SIDE_STYLE('',(#1617));
#1617 = SURFACE_STYLE_FILL_AREA(#1618);
#1618 = FILL_AREA_STYLE('',(#1619));
#1619 = FILL_AREA_STYLE_COLOUR('',#1598);
#1620 = STYLED_ITEM('color',(#1621),#248);
#1621 = PRESENTATION_STYLE_ASSIGNMENT((#1622));
#1622 = SURFACE_STYLE_USAGE(.BOTH.,#1623);
#1623 = SURFACE_SIDE_STYLE('',(#1624));
#1624 = SURFACE_STYLE_FILL_AREA(#1625);
#1625 = FILL_AREA_STYLE('',(#1626));
#1626 = FILL_AREA_STYLE_COLOUR('',#1598);
#1627 = STYLED_ITEM('color',(#1628),#288);
#1628 = PRESENTATION_STYLE_ASSIGNMENT((#1629));
#1629 = SURFACE_STYLE_USAGE(.BOTH.,#1630);
#1630 = SURFACE_SIDE_STYLE('',(#1631));
#1631 = SURFACE_STYLE_FILL_AREA(#1632);
#1632 = FILL_AREA_STYLE('',(#1633));
#1633 = FILL_AREA_STYLE_COLOUR('',#1598);
#1634 = STYLED_ITEM('color',(#1635),#319);
#1635 = PRESENTATION_STYLE_ASSIGNMENT((#1636));
#1636 = SURFACE_STYLE_USAGE(.BOTH.,#1637);
#1637 = SURFACE_SIDE_STYLE('',(#1638));
#1638 = SURFACE_STYLE_FILL_AREA(#1639);
#1639 = FILL_AREA_STYLE('',(#1640));
#1640 = FILL_AREA_STYLE_COLOUR('',#1598);
#1641 = STYLED_ITEM('color',(#1642),#336);
#1642 = PRESENTATION_STYLE_ASSIGNMENT((#1643));
#1643 = SURFACE_STYLE_USAGE(.BOTH.,#1644);
#1644 = SURFACE_SIDE_STYLE('',(#1645));
#1645 = SURFACE_STYLE_FILL_AREA(#1646);
#1646 = FILL_AREA_STYLE('',(#1647));
#1647 = FILL_AREA_STYLE_COLOUR('',#1648);
#1648 = COLOUR_RGB('',0.859000020776,0.737999965183,0.495999988746);
#1649 = STYLED_ITEM('color',(#1650),#369);
#1650 = PRESENTATION_STYLE_ASSIGNMENT((#1651));
#1651 = SURFACE_STYLE_USAGE(.BOTH.,#1652);
#1652 = SURFACE_SIDE_STYLE('',(#1653));
#1653 = SURFACE_STYLE_FILL_AREA(#1654);
#1654 = FILL_AREA_STYLE('',(#1655));
#1655 = FILL_AREA_STYLE_COLOUR('',#1598);
#1656 = STYLED_ITEM('color',(#1657),#393);
#1657 = PRESENTATION_STYLE_ASSIGNMENT((#1658));
#1658 = SURFACE_STYLE_USAGE(.BOTH.,#1659);
#1659 = SURFACE_SIDE_STYLE('',(#1660));
#1660 = SURFACE_STYLE_FILL_AREA(#1661);
#1661 = FILL_AREA_STYLE('',(#1662));
#1662 = FILL_AREA_STYLE_COLOUR('',#1648);
#1663 = STYLED_ITEM('color',(#1664),#460);
#1664 = PRESENTATION_STYLE_ASSIGNMENT((#1665));
#1665 = SURFACE_STYLE_USAGE(.BOTH.,#1666);
#1666 = SURFACE_SIDE_STYLE('',(#1667));
#1667 = SURFACE_STYLE_FILL_AREA(#1668);
#1668 = FILL_AREA_STYLE('',(#1669));
#1669 = FILL_AREA_STYLE_COLOUR('',#1598);
#1670 = STYLED_ITEM('color',(#1671),#581);
#1671 = PRESENTATION_STYLE_ASSIGNMENT((#1672));
#1672 = SURFACE_STYLE_USAGE(.BOTH.,#1673);
#1673 = SURFACE_SIDE_STYLE('',(#1674));
#1674 = SURFACE_STYLE_FILL_AREA(#1675);
#1675 = FILL_AREA_STYLE('',(#1676));
#1676 = FILL_AREA_STYLE_COLOUR('',#1648);
#1677 = STYLED_ITEM('color',(#1678),#648);
#1678 = PRESENTATION_STYLE_ASSIGNMENT((#1679));
#1679 = SURFACE_STYLE_USAGE(.BOTH.,#1680);
#1680 = SURFACE_SIDE_STYLE('',(#1681));
#1681 = SURFACE_STYLE_FILL_AREA(#1682);
#1682 = FILL_AREA_STYLE('',(#1683));
#1683 = FILL_AREA_STYLE_COLOUR('',#1598);
#1684 = STYLED_ITEM('color',(#1685),#672);
#1685 = PRESENTATION_STYLE_ASSIGNMENT((#1686));
#1686 = SURFACE_STYLE_USAGE(.BOTH.,#1687);
#1687 = SURFACE_SIDE_STYLE('',(#1688));
#1688 = SURFACE_STYLE_FILL_AREA(#1689);
#1689 = FILL_AREA_STYLE('',(#1690));
#1690 = FILL_AREA_STYLE_COLOUR('',#1598);
#1691 = STYLED_ITEM('color',(#1692),#703);
#1692 = PRESENTATION_STYLE_ASSIGNMENT((#1693));
#1693 = SURFACE_STYLE_USAGE(.BOTH.,#1694);
#1694 = SURFACE_SIDE_STYLE('',(#1695));
#1695 = SURFACE_STYLE_FILL_AREA(#1696);
#1696 = FILL_AREA_STYLE('',(#1697));
#1697 = FILL_AREA_STYLE_COLOUR('',#1648);
#1698 = STYLED_ITEM('color',(#1699),#736);
#1699 = PRESENTATION_STYLE_ASSIGNMENT((#1700));
#1700 = SURFACE_STYLE_USAGE(.BOTH.,#1701);
#1701 = SURFACE_SIDE_STYLE('',(#1702));
#1702 = SURFACE_STYLE_FILL_AREA(#1703);
#1703 = FILL_AREA_STYLE('',(#1704));
#1704 = FILL_AREA_STYLE_COLOUR('',#1598);
#1705 = STYLED_ITEM('color',(#1706),#792);
#1706 = PRESENTATION_STYLE_ASSIGNMENT((#1707));
#1707 = SURFACE_STYLE_USAGE(.BOTH.,#1708);
#1708 = SURFACE_SIDE_STYLE('',(#1709));
#1709 = SURFACE_STYLE_FILL_AREA(#1710);
#1710 = FILL_AREA_STYLE('',(#1711));
#1711 = FILL_AREA_STYLE_COLOUR('',#1648);
#1712 = STYLED_ITEM('color',(#1713),#816);
#1713 = PRESENTATION_STYLE_ASSIGNMENT((#1714));
#1714 = SURFACE_STYLE_USAGE(.BOTH.,#1715);
#1715 = SURFACE_SIDE_STYLE('',(#1716));
#1716 = SURFACE_STYLE_FILL_AREA(#1717);
#1717 = FILL_AREA_STYLE('',(#1718));
#1718 = FILL_AREA_STYLE_COLOUR('',#1648);
#1719 = STYLED_ITEM('color',(#1720),#840);
#1720 = PRESENTATION_STYLE_ASSIGNMENT((#1721));
#1721 = SURFACE_STYLE_USAGE(.BOTH.,#1722);
#1722 = SURFACE_SIDE_STYLE('',(#1723));
#1723 = SURFACE_STYLE_FILL_AREA(#1724);
#1724 = FILL_AREA_STYLE('',(#1725));
#1725 = FILL_AREA_STYLE_COLOUR('',#1648);
#1726 = STYLED_ITEM('color',(#1727),#864);
#1727 = PRESENTATION_STYLE_ASSIGNMENT((#1728));
#1728 = SURFACE_STYLE_USAGE(.BOTH.,#1729);
#1729 = SURFACE_SIDE_STYLE('',(#1730));
#1730 = SURFACE_STYLE_FILL_AREA(#1731);
#1731 = FILL_AREA_STYLE('',(#1732));
#1732 = FILL_AREA_STYLE_COLOUR('',#1648);
#1733 = STYLED_ITEM('color',(#1734),#897);
#1734 = PRESENTATION_STYLE_ASSIGNMENT((#1735));
#1735 = SURFACE_STYLE_USAGE(.BOTH.,#1736);
#1736 = SURFACE_SIDE_STYLE('',(#1737));
#1737 = SURFACE_STYLE_FILL_AREA(#1738);
#1738 = FILL_AREA_STYLE('',(#1739));
#1739 = FILL_AREA_STYLE_COLOUR('',#1648);
#1740 = STYLED_ITEM('color',(#1741),#909);
#1741 = PRESENTATION_STYLE_ASSIGNMENT((#1742));
#1742 = SURFACE_STYLE_USAGE(.BOTH.,#1743);
#1743 = SURFACE_SIDE_STYLE('',(#1744));
#1744 = SURFACE_STYLE_FILL_AREA(#1745);
#1745 = FILL_AREA_STYLE('',(#1746));
#1746 = FILL_AREA_STYLE_COLOUR('',#1648);
#1747 = STYLED_ITEM('color',(#1748),#972);
#1748 = PRESENTATION_STYLE_ASSIGNMENT((#1749));
#1749 = SURFACE_STYLE_USAGE(.BOTH.,#1750);
#1750 = SURFACE_SIDE_STYLE('',(#1751));
#1751 = SURFACE_STYLE_FILL_AREA(#1752);
#1752 = FILL_AREA_STYLE('',(#1753));
#1753 = FILL_AREA_STYLE_COLOUR('',#1648);
#1754 = STYLED_ITEM('color',(#1755),#997);
#1755 = PRESENTATION_STYLE_ASSIGNMENT((#1756));
#1756 = SURFACE_STYLE_USAGE(.BOTH.,#1757);
#1757 = SURFACE_SIDE_STYLE('',(#1758));
#1758 = SURFACE_STYLE_FILL_AREA(#1759);
#1759 = FILL_AREA_STYLE('',(#1760));
#1760 = FILL_AREA_STYLE_COLOUR('',#1648);
#1761 = STYLED_ITEM('color',(#1762),#1014);
#1762 = PRESENTATION_STYLE_ASSIGNMENT((#1763));
#1763 = SURFACE_STYLE_USAGE(.BOTH.,#1764);
#1764 = SURFACE_SIDE_STYLE('',(#1765));
#1765 = SURFACE_STYLE_FILL_AREA(#1766);
#1766 = FILL_AREA_STYLE('',(#1767));
#1767 = FILL_AREA_STYLE_COLOUR('',#1648);
#1768 = STYLED_ITEM('color',(#1769),#1038);
#1769 = PRESENTATION_STYLE_ASSIGNMENT((#1770));
#1770 = SURFACE_STYLE_USAGE(.BOTH.,#1771);
#1771 = SURFACE_SIDE_STYLE('',(#1772));
#1772 = SURFACE_STYLE_FILL_AREA(#1773);
#1773 = FILL_AREA_STYLE('',(#1774));
#1774 = FILL_AREA_STYLE_COLOUR('',#1648);
#1775 = STYLED_ITEM('color',(#1776),#1056);
#1776 = PRESENTATION_STYLE_ASSIGNMENT((#1777));
#1777 = SURFACE_STYLE_USAGE(.BOTH.,#1778);
#1778 = SURFACE_SIDE_STYLE('',(#1779));
#1779 = SURFACE_STYLE_FILL_AREA(#1780);
#1780 = FILL_AREA_STYLE('',(#1781));
#1781 = FILL_AREA_STYLE_COLOUR('',#1648);
#1782 = STYLED_ITEM('color',(#1783),#1074);
#1783 = PRESENTATION_STYLE_ASSIGNMENT((#1784));
#1784 = SURFACE_STYLE_USAGE(.BOTH.,#1785);
#1785 = SURFACE_SIDE_STYLE('',(#1786));
#1786 = SURFACE_STYLE_FILL_AREA(#1787);
#1787 = FILL_AREA_STYLE('',(#1788));
#1788 = FILL_AREA_STYLE_COLOUR('',#1648);
#1789 = STYLED_ITEM('color',(#1790),#1092);
#1790 = PRESENTATION_STYLE_ASSIGNMENT((#1791));
#1791 = SURFACE_STYLE_USAGE(.BOTH.,#1792);
#1792 = SURFACE_SIDE_STYLE('',(#1793));
#1793 = SURFACE_STYLE_FILL_AREA(#1794);
#1794 = FILL_AREA_STYLE('',(#1795));
#1795 = FILL_AREA_STYLE_COLOUR('',#1648);
#1796 = STYLED_ITEM('color',(#1797),#1109);
#1797 = PRESENTATION_STYLE_ASSIGNMENT((#1798));
#1798 = SURFACE_STYLE_USAGE(.BOTH.,#1799);
#1799 = SURFACE_SIDE_STYLE('',(#1800));
#1800 = SURFACE_STYLE_FILL_AREA(#1801);
#1801 = FILL_AREA_STYLE('',(#1802));
#1802 = FILL_AREA_STYLE_COLOUR('',#1648);
#1803 = STYLED_ITEM('color',(#1804),#1126);
#1804 = PRESENTATION_STYLE_ASSIGNMENT((#1805));
#1805 = SURFACE_STYLE_USAGE(.BOTH.,#1806);
#1806 = SURFACE_SIDE_STYLE('',(#1807));
#1807 = SURFACE_STYLE_FILL_AREA(#1808);
#1808 = FILL_AREA_STYLE('',(#1809));
#1809 = FILL_AREA_STYLE_COLOUR('',#1648);
#1810 = STYLED_ITEM('color',(#1811),#1157);
#1811 = PRESENTATION_STYLE_ASSIGNMENT((#1812));
#1812 = SURFACE_STYLE_USAGE(.BOTH.,#1813);
#1813 = SURFACE_SIDE_STYLE('',(#1814));
#1814 = SURFACE_STYLE_FILL_AREA(#1815);
#1815 = FILL_AREA_STYLE('',(#1816));
#1816 = FILL_AREA_STYLE_COLOUR('',#1648);
#1817 = STYLED_ITEM('color',(#1818),#1182);
#1818 = PRESENTATION_STYLE_ASSIGNMENT((#1819));
#1819 = SURFACE_STYLE_USAGE(.BOTH.,#1820);
#1820 = SURFACE_SIDE_STYLE('',(#1821));
#1821 = SURFACE_STYLE_FILL_AREA(#1822);
#1822 = FILL_AREA_STYLE('',(#1823));
#1823 = FILL_AREA_STYLE_COLOUR('',#1648);
#1824 = STYLED_ITEM('color',(#1825),#1207);
#1825 = PRESENTATION_STYLE_ASSIGNMENT((#1826));
#1826 = SURFACE_STYLE_USAGE(.BOTH.,#1827);
#1827 = SURFACE_SIDE_STYLE('',(#1828));
#1828 = SURFACE_STYLE_FILL_AREA(#1829);
#1829 = FILL_AREA_STYLE('',(#1830));
#1830 = FILL_AREA_STYLE_COLOUR('',#1648);
#1831 = STYLED_ITEM('color',(#1832),#1231);
#1832 = PRESENTATION_STYLE_ASSIGNMENT((#1833));
#1833 = SURFACE_STYLE_USAGE(.BOTH.,#1834);
#1834 = SURFACE_SIDE_STYLE('',(#1835));
#1835 = SURFACE_STYLE_FILL_AREA(#1836);
#1836 = FILL_AREA_STYLE('',(#1837));
#1837 = FILL_AREA_STYLE_COLOUR('',#1648);
#1838 = STYLED_ITEM('color',(#1839),#1248);
#1839 = PRESENTATION_STYLE_ASSIGNMENT((#1840));
#1840 = SURFACE_STYLE_USAGE(.BOTH.,#1841);
#1841 = SURFACE_SIDE_STYLE('',(#1842));
#1842 = SURFACE_STYLE_FILL_AREA(#1843);
#1843 = FILL_AREA_STYLE('',(#1844));
#1844 = FILL_AREA_STYLE_COLOUR('',#1845);
#1845 = COLOUR_RGB('',0.340000006699,0.68000001254,0.444999988852);
#1846 = STYLED_ITEM('color',(#1847),#1279);
#1847 = PRESENTATION_STYLE_ASSIGNMENT((#1848));
#1848 = SURFACE_STYLE_USAGE(.BOTH.,#1849);
#1849 = SURFACE_SIDE_STYLE('',(#1850));
#1850 = SURFACE_STYLE_FILL_AREA(#1851);
#1851 = FILL_AREA_STYLE('',(#1852));
#1852 = FILL_AREA_STYLE_COLOUR('',#1845);
#1853 = STYLED_ITEM('color',(#1854),#1303);
#1854 = PRESENTATION_STYLE_ASSIGNMENT((#1855));
#1855 = SURFACE_STYLE_USAGE(.BOTH.,#1856);
#1856 = SURFACE_SIDE_STYLE('',(#1857));
#1857 = SURFACE_STYLE_FILL_AREA(#1858);
#1858 = FILL_AREA_STYLE('',(#1859));
#1859 = FILL_AREA_STYLE_COLOUR('',#1845);
#1860 = STYLED_ITEM('color',(#1861),#1320);
#1861 = PRESENTATION_STYLE_ASSIGNMENT((#1862));
#1862 = SURFACE_STYLE_USAGE(.BOTH.,#1863);
#1863 = SURFACE_SIDE_STYLE('',(#1864));
#1864 = SURFACE_STYLE_FILL_AREA(#1865);
#1865 = FILL_AREA_STYLE('',(#1866));
#1866 = FILL_AREA_STYLE_COLOUR('',#1648);
#1867 = STYLED_ITEM('color',(#1868),#1348);
#1868 = PRESENTATION_STYLE_ASSIGNMENT((#1869));
#1869 = SURFACE_STYLE_USAGE(.BOTH.,#1870);
#1870 = SURFACE_SIDE_STYLE('',(#1871));
#1871 = SURFACE_STYLE_FILL_AREA(#1872);
#1872 = FILL_AREA_STYLE('',(#1873));
#1873 = FILL_AREA_STYLE_COLOUR('',#1648);
#1874 = STYLED_ITEM('color',(#1875),#1373);
#1875 = PRESENTATION_STYLE_ASSIGNMENT((#1876));
#1876 = SURFACE_STYLE_USAGE(.BOTH.,#1877);
#1877 = SURFACE_SIDE_STYLE('',(#1878));
#1878 = SURFACE_STYLE_FILL_AREA(#1879);
#1879 = FILL_AREA_STYLE('',(#1880));
#1880 = FILL_AREA_STYLE_COLOUR('',#1648);
#1881 = STYLED_ITEM('color',(#1882),#1397);
#1882 = PRESENTATION_STYLE_ASSIGNMENT((#1883));
#1883 = SURFACE_STYLE_USAGE(.BOTH.,#1884);
#1884 = SURFACE_SIDE_STYLE('',(#1885));
#1885 = SURFACE_STYLE_FILL_AREA(#1886);
#1886 = FILL_AREA_STYLE('',(#1887));
#1887 = FILL_AREA_STYLE_COLOUR('',#1648);
#1888 = STYLED_ITEM('color',(#1889),#1422);
#1889 = PRESENTATION_STYLE_ASSIGNMENT((#1890));
#1890 = SURFACE_STYLE_USAGE(.BOTH.,#1891);
#1891 = SURFACE_SIDE_STYLE('',(#1892));
#1892 = SURFACE_STYLE_FILL_AREA(#1893);
#1893 = FILL_AREA_STYLE('',(#1894));
#1894 = FILL_AREA_STYLE_COLOUR('',#1648);
#1895 = STYLED_ITEM('color',(#1896),#1469);
#1896 = PRESENTATION_STYLE_ASSIGNMENT((#1897));
#1897 = SURFACE_STYLE_USAGE(.BOTH.,#1898);
#1898 = SURFACE_SIDE_STYLE('',(#1899));
#1899 = SURFACE_STYLE_FILL_AREA(#1900);
#1900 = FILL_AREA_STYLE('',(#1901));
#1901 = FILL_AREA_STYLE_COLOUR('',#1648);
#1902 = STYLED_ITEM('color',(#1903),#1486);
#1903 = PRESENTATION_STYLE_ASSIGNMENT((#1904));
#1904 = SURFACE_STYLE_USAGE(.BOTH.,#1905);
#1905 = SURFACE_SIDE_STYLE('',(#1906));
#1906 = SURFACE_STYLE_FILL_AREA(#1907);
#1907 = FILL_AREA_STYLE('',(#1908));
#1908 = FILL_AREA_STYLE_COLOUR('',#1648);
#1909 = STYLED_ITEM('color',(#1910),#1498);
#1910 = PRESENTATION_STYLE_ASSIGNMENT((#1911));
#1911 = SURFACE_STYLE_USAGE(.BOTH.,#1912);
#1912 = SURFACE_SIDE_STYLE('',(#1913));
#1913 = SURFACE_STYLE_FILL_AREA(#1914);
#1914 = FILL_AREA_STYLE('',(#1915));
#1915 = FILL_AREA_STYLE_COLOUR('',#1648);
#1916 = STYLED_ITEM('color',(#1917),#1520);
#1917 = PRESENTATION_STYLE_ASSIGNMENT((#1918));
#1918 = SURFACE_STYLE_USAGE(.BOTH.,#1919);
#1919 = SURFACE_SIDE_STYLE('',(#1920));
#1920 = SURFACE_STYLE_FILL_AREA(#1921);
#1921 = FILL_AREA_STYLE('',(#1922));
#1922 = FILL_AREA_STYLE_COLOUR('',#1648);
#1923 = STYLED_ITEM('color',(#1924),#1532);
#1924 = PRESENTATION_STYLE_ASSIGNMENT((#1925));
#1925 = SURFACE_STYLE_USAGE(.BOTH.,#1926);
#1926 = SURFACE_SIDE_STYLE('',(#1927));
#1927 = SURFACE_STYLE_FILL_AREA(#1928);
#1928 = FILL_AREA_STYLE('',(#1929));
#1929 = FILL_AREA_STYLE_COLOUR('',#1648);
#1930 = STYLED_ITEM('color',(#1931),#1550);
#1931 = PRESENTATION_STYLE_ASSIGNMENT((#1932));
#1932 = SURFACE_STYLE_USAGE(.BOTH.,#1933);
#1933 = SURFACE_SIDE_STYLE('',(#1934));
#1934 = SURFACE_STYLE_FILL_AREA(#1935);
#1935 = FILL_AREA_STYLE('',(#1936));
#1936 = FILL_AREA_STYLE_COLOUR('',#1648);
#1937 = STYLED_ITEM('color',(#1938),#1568);
#1938 = PRESENTATION_STYLE_ASSIGNMENT((#1939));
#1939 = SURFACE_STYLE_USAGE(.BOTH.,#1940);
#1940 = SURFACE_SIDE_STYLE('',(#1941));
#1941 = SURFACE_STYLE_FILL_AREA(#1942);
#1942 = FILL_AREA_STYLE('',(#1943));
#1943 = FILL_AREA_STYLE_COLOUR('',#1845);
ENDSEC;
END-ISO-10303-21;
