ISO-10303-21;
HEADER;
FILE_DESCRIPTION(('ESP32-C6-MINI-1 simplified model'),'2;1');
FILE_NAME('ESP32-C6-MINI-1.step','2026-09-23T00:00:00',('gopo'),(''),'step_boxes.py','','');
FILE_SCHEMA(('AUTOMOTIVE_DESIGN { 1 0 10303 214 1 1 1 1 }'));
ENDSEC;
DATA;
#1=APPLICATION_CONTEXT('core data for automotive mechanical design processes');
#2=APPLICATION_PROTOCOL_DEFINITION('international standard','automotive_design',2000,#1);
#3=PRODUCT_CONTEXT('',#1,'mechanical');
#4=PRODUCT('ESP32-C6-MINI-1','ESP32-C6-MINI-1','',(#3));
#5=PRODUCT_DEFINITION_FORMATION('','',#4);
#6=PRODUCT_DEFINITION_CONTEXT('part definition',#1,'design');
#7=PRODUCT_DEFINITION('design','',#5,#6);
#8=PRODUCT_DEFINITION_SHAPE('','',#7);
#9=( LENGTH_UNIT() NAMED_UNIT(*) SI_UNIT(.MILLI.,.METRE.) );
#10=( NAMED_UNIT(*) PLANE_ANGLE_UNIT() SI_UNIT($,.RADIAN.) );
#11=( NAMED_UNIT(*) SI_UNIT($,.STERADIAN.) SOLID_ANGLE_UNIT() );
#12=UNCERTAINTY_MEASURE_WITH_UNIT(LENGTH_MEASURE(1.E-07),#9,'distance_accuracy_value','confusion accuracy');
#13=( GEOMETRIC_REPRESENTATION_CONTEXT(3) GLOBAL_UNCERTAINTY_ASSIGNED_CONTEXT((#12)) GLOBAL_UNIT_ASSIGNED_CONTEXT((#9,#10,#11)) REPRESENTATION_CONTEXT('Context #1','3D Context with UNIT and UNCERTAINTY') );
#14=CARTESIAN_POINT('',(0.,0.,0.));
#15=DIRECTION('',(0.,0.,1.));
#16=DIRECTION('',(1.,0.,0.));
#17=AXIS2_PLACEMENT_3D('',#14,#15,#16);
#18=CARTESIAN_POINT('',(-6.6,-5.6,0.));
#19=VERTEX_POINT('',#18);
#20=CARTESIAN_POINT('',(6.6,-5.6,0.));
#21=VERTEX_POINT('',#20);
#22=CARTESIAN_POINT('',(-6.6,11.,0.));
#23=VERTEX_POINT('',#22);
#24=CARTESIAN_POINT('',(6.6,11.,0.));
#25=VERTEX_POINT('',#24);
#26=CARTESIAN_POINT('',(-6.6,-5.6,0.8));
#27=VERTEX_POINT('',#26);
#28=CARTESIAN_POINT('',(6.6,-5.6,0.8));
#29=VERTEX_POINT('',#28);
#30=CARTESIAN_POINT('',(-6.6,11.,0.8));
#31=VERTEX_POINT('',#30);
#32=CARTESIAN_POINT('',(6.6,11.,0.8));
#33=VERTEX_POINT('',#32);
#34=DIRECTION('',(0.,1.,0.));
#35=VECTOR('',#34,16.6);
#36=CARTESIAN_POINT('',(-6.6,-5.6,0.));
#37=LINE('',#36,#35);
#38=EDGE_CURVE('',#19,#23,#37,.T.);
#39=ORIENTED_EDGE('',*,*,#38,.T.);
#40=VECTOR('',#16,13.2);
#41=CARTESIAN_POINT('',(-6.6,11.,0.));
#42=LINE('',#41,#40);
#43=EDGE_CURVE('',#23,#25,#42,.T.);
#44=ORIENTED_EDGE('',*,*,#43,.T.);
#45=VECTOR('',#34,16.6);
#46=CARTESIAN_POINT('',(6.6,-5.6,0.));
#47=LINE('',#46,#45);
#48=EDGE_CURVE('',#21,#25,#47,.T.);
#49=ORIENTED_EDGE('',*,*,#48,.F.);
#50=VECTOR('',#16,13.2);
#51=CARTESIAN_POINT('',(-6.6,-5.6,0.));
#52=LINE('',#51,#50);
#53=EDGE_CURVE('',#19,#21,#52,.T.);
#54=ORIENTED_EDGE('',*,*,#53,.F.);
#55=EDGE_LOOP('',(#39,#44,#49,#54));
#56=FACE_OUTER_BOUND('',#55,.T.);
#57=CARTESIAN_POINT('',(-6.6,-5.6,0.));
#58=DIRECTION('',(0.,0.,-1.));
#59=AXIS2_PLACEMENT_3D('',#57,#58,#16);
#60=PLANE('',#59);
#61=ADVANCED_FACE('',(#56),#60,.T.);
#62=VECTOR('',#16,13.2);
#63=CARTESIAN_POINT('',(-6.6,-5.6,0.8));
#64=LINE('',#63,#62);
#65=EDGE_CURVE('',#27,#29,#64,.T.);
#66=ORIENTED_EDGE('',*,*,#65,.T.);
#67=VECTOR('',#34,16.6);
#68=CARTESIAN_POINT('',(6.6,-5.6,0.8));
#69=LINE('',#68,#67);
#70=EDGE_CURVE('',#29,#33,#69,.T.);
#71=ORIENTED_EDGE('',*,*,#70,.T.);
#72=VECTOR('',#16,13.2);
#73=CARTESIAN_POINT('',(-6.6,11.,0.8));
#74=LINE('',#73,#72);
#75=EDGE_CURVE('',#31,#33,#74,.T.);
#76=ORIENTED_EDGE('',*,*,#75,.F.);
#77=VECTOR('',#34,16.6);
#78=CARTESIAN_POINT('',(-6.6,-5.6,0.8));
#79=LINE('',#78,#77);
#80=EDGE_CURVE('',#27,#31,#79,.T.);
#81=ORIENTED_EDGE('',*,*,#80,.F.);
#82=EDGE_LOOP('',(#66,#71,#76,#81));
#83=FACE_OUTER_BOUND('',#82,.T.);
#84=CARTESIAN_POINT('',(-6.6,-5.6,0.8));
#85=AXIS2_PLACEMENT_3D('',#84,#15,#16);
#86=PLANE('',#85);
#87=ADVANCED_FACE('',(#83),#86,.T.);
#88=ORIENTED_EDGE('',*,*,#53,.T.);
#89=VECTOR('',#15,0.8);
#90=CARTESIAN_POINT('',(6.6,-5.6,0.));
#91=LINE('',#90,#89);
#92=EDGE_CURVE('',#21,#29,#91,.T.);
#93=ORIENTED_EDGE('',*,*,#92,.T.);
#94=ORIENTED_EDGE('',*,*,#65,.F.);
#95=VECTOR('',#15,0.8);
#96=CARTESIAN_POINT('',(-6.6,-5.6,0.));
#97=LINE('',#96,#95);
#98=EDGE_CURVE('',#19,#27,#97,.T.);
#99=ORIENTED_EDGE('',*,*,#98,.F.);
#100=EDGE_LOOP('',(#88,#93,#94,#99));
#101=FACE_OUTER_BOUND('',#100,.T.);
#102=CARTESIAN_POINT('',(-6.6,-5.6,0.));
#103=DIRECTION('',(0.,-1.,0.));
#104=AXIS2_PLACEMENT_3D('',#102,#103,#16);
#105=PLANE('',#104);
#106=ADVANCED_FACE('',(#101),#105,.T.);
#107=VECTOR('',#15,0.8);
#108=CARTESIAN_POINT('',(-6.6,11.,0.));
#109=LINE('',#108,#107);
#110=EDGE_CURVE('',#23,#31,#109,.T.);
#111=ORIENTED_EDGE('',*,*,#110,.T.);
#112=ORIENTED_EDGE('',*,*,#75,.T.);
#113=VECTOR('',#15,0.8);
#114=CARTESIAN_POINT('',(6.6,11.,0.));
#115=LINE('',#114,#113);
#116=EDGE_CURVE('',#25,#33,#115,.T.);
#117=ORIENTED_EDGE('',*,*,#116,.F.);
#118=ORIENTED_EDGE('',*,*,#43,.F.);
#119=EDGE_LOOP('',(#111,#112,#117,#118));
#120=FACE_OUTER_BOUND('',#119,.T.);
#121=CARTESIAN_POINT('',(-6.6,11.,0.));
#122=AXIS2_PLACEMENT_3D('',#121,#34,#16);
#123=PLANE('',#122);
#124=ADVANCED_FACE('',(#120),#123,.T.);
#125=ORIENTED_EDGE('',*,*,#98,.T.);
#126=ORIENTED_EDGE('',*,*,#80,.T.);
#127=ORIENTED_EDGE('',*,*,#110,.F.);
#128=ORIENTED_EDGE('',*,*,#38,.F.);
#129=EDGE_LOOP('',(#125,#126,#127,#128));
#130=FACE_OUTER_BOUND('',#129,.T.);
#131=CARTESIAN_POINT('',(-6.6,-5.6,0.));
#132=DIRECTION('',(-1.,0.,0.));
#133=AXIS2_PLACEMENT_3D('',#131,#132,#34);
#134=PLANE('',#133);
#135=ADVANCED_FACE('',(#130),#134,.T.);
#136=ORIENTED_EDGE('',*,*,#48,.T.);
#137=ORIENTED_EDGE('',*,*,#116,.T.);
#138=ORIENTED_EDGE('',*,*,#70,.F.);
#139=ORIENTED_EDGE('',*,*,#92,.F.);
#140=EDGE_LOOP('',(#136,#137,#138,#139));
#141=FACE_OUTER_BOUND('',#140,.T.);
#142=CARTESIAN_POINT('',(6.6,-5.6,0.));
#143=AXIS2_PLACEMENT_3D('',#142,#16,#34);
#144=PLANE('',#143);
#145=ADVANCED_FACE('',(#141),#144,.T.);
#146=CLOSED_SHELL('',(#61,#87,#106,#124,#135,#145));
#147=MANIFOLD_SOLID_BREP('Module_PCB',#146);
#148=COLOUR_RGB('',0.05,0.35,0.15);
#149=FILL_AREA_STYLE_COLOUR('',#148);
#150=FILL_AREA_STYLE('',(#149));
#151=SURFACE_STYLE_FILL_AREA(#150);
#152=SURFACE_SIDE_STYLE('',(#151));
#153=SURFACE_STYLE_USAGE(.BOTH.,#152);
#154=PRESENTATION_STYLE_ASSIGNMENT((#153));
#155=STYLED_ITEM('color',(#154),#147);
#156=CARTESIAN_POINT('',(-6.4,-5.4,0.8));
#157=VERTEX_POINT('',#156);
#158=CARTESIAN_POINT('',(6.4,-5.4,0.8));
#159=VERTEX_POINT('',#158);
#160=CARTESIAN_POINT('',(-6.4,5.5,0.8));
#161=VERTEX_POINT('',#160);
#162=CARTESIAN_POINT('',(6.4,5.5,0.8));
#163=VERTEX_POINT('',#162);
#164=CARTESIAN_POINT('',(-6.4,-5.4,2.4));
#165=VERTEX_POINT('',#164);
#166=CARTESIAN_POINT('',(6.4,-5.4,2.4));
#167=VERTEX_POINT('',#166);
#168=CARTESIAN_POINT('',(-6.4,5.5,2.4));
#169=VERTEX_POINT('',#168);
#170=CARTESIAN_POINT('',(6.4,5.5,2.4));
#171=VERTEX_POINT('',#170);
#172=VECTOR('',#34,10.9);
#173=CARTESIAN_POINT('',(-6.4,-5.4,0.8));
#174=LINE('',#173,#172);
#175=EDGE_CURVE('',#157,#161,#174,.T.);
#176=ORIENTED_EDGE('',*,*,#175,.T.);
#177=VECTOR('',#16,12.8);
#178=CARTESIAN_POINT('',(-6.4,5.5,0.8));
#179=LINE('',#178,#177);
#180=EDGE_CURVE('',#161,#163,#179,.T.);
#181=ORIENTED_EDGE('',*,*,#180,.T.);
#182=VECTOR('',#34,10.9);
#183=CARTESIAN_POINT('',(6.4,-5.4,0.8));
#184=LINE('',#183,#182);
#185=EDGE_CURVE('',#159,#163,#184,.T.);
#186=ORIENTED_EDGE('',*,*,#185,.F.);
#187=VECTOR('',#16,12.8);
#188=CARTESIAN_POINT('',(-6.4,-5.4,0.8));
#189=LINE('',#188,#187);
#190=EDGE_CURVE('',#157,#159,#189,.T.);
#191=ORIENTED_EDGE('',*,*,#190,.F.);
#192=EDGE_LOOP('',(#176,#181,#186,#191));
#193=FACE_OUTER_BOUND('',#192,.T.);
#194=CARTESIAN_POINT('',(-6.4,-5.4,0.8));
#195=AXIS2_PLACEMENT_3D('',#194,#58,#16);
#196=PLANE('',#195);
#197=ADVANCED_FACE('',(#193),#196,.T.);
#198=VECTOR('',#16,12.8);
#199=CARTESIAN_POINT('',(-6.4,-5.4,2.4));
#200=LINE('',#199,#198);
#201=EDGE_CURVE('',#165,#167,#200,.T.);
#202=ORIENTED_EDGE('',*,*,#201,.T.);
#203=VECTOR('',#34,10.9);
#204=CARTESIAN_POINT('',(6.4,-5.4,2.4));
#205=LINE('',#204,#203);
#206=EDGE_CURVE('',#167,#171,#205,.T.);
#207=ORIENTED_EDGE('',*,*,#206,.T.);
#208=VECTOR('',#16,12.8);
#209=CARTESIAN_POINT('',(-6.4,5.5,2.4));
#210=LINE('',#209,#208);
#211=EDGE_CURVE('',#169,#171,#210,.T.);
#212=ORIENTED_EDGE('',*,*,#211,.F.);
#213=VECTOR('',#34,10.9);
#214=CARTESIAN_POINT('',(-6.4,-5.4,2.4));
#215=LINE('',#214,#213);
#216=EDGE_CURVE('',#165,#169,#215,.T.);
#217=ORIENTED_EDGE('',*,*,#216,.F.);
#218=EDGE_LOOP('',(#202,#207,#212,#217));
#219=FACE_OUTER_BOUND('',#218,.T.);
#220=CARTESIAN_POINT('',(-6.4,-5.4,2.4));
#221=AXIS2_PLACEMENT_3D('',#220,#15,#16);
#222=PLANE('',#221);
#223=ADVANCED_FACE('',(#219),#222,.T.);
#224=ORIENTED_EDGE('',*,*,#190,.T.);
#225=VECTOR('',#15,1.6);
#226=CARTESIAN_POINT('',(6.4,-5.4,0.8));
#227=LINE('',#226,#225);
#228=EDGE_CURVE('',#159,#167,#227,.T.);
#229=ORIENTED_EDGE('',*,*,#228,.T.);
#230=ORIENTED_EDGE('',*,*,#201,.F.);
#231=VECTOR('',#15,1.6);
#232=CARTESIAN_POINT('',(-6.4,-5.4,0.8));
#233=LINE('',#232,#231);
#234=EDGE_CURVE('',#157,#165,#233,.T.);
#235=ORIENTED_EDGE('',*,*,#234,.F.);
#236=EDGE_LOOP('',(#224,#229,#230,#235));
#237=FACE_OUTER_BOUND('',#236,.T.);
#238=CARTESIAN_POINT('',(-6.4,-5.4,0.8));
#239=AXIS2_PLACEMENT_3D('',#238,#103,#16);
#240=PLANE('',#239);
#241=ADVANCED_FACE('',(#237),#240,.T.);
#242=VECTOR('',#15,1.6);
#243=CARTESIAN_POINT('',(-6.4,5.5,0.8));
#244=LINE('',#243,#242);
#245=EDGE_CURVE('',#161,#169,#244,.T.);
#246=ORIENTED_EDGE('',*,*,#245,.T.);
#247=ORIENTED_EDGE('',*,*,#211,.T.);
#248=VECTOR('',#15,1.6);
#249=CARTESIAN_POINT('',(6.4,5.5,0.8));
#250=LINE('',#249,#248);
#251=EDGE_CURVE('',#163,#171,#250,.T.);
#252=ORIENTED_EDGE('',*,*,#251,.F.);
#253=ORIENTED_EDGE('',*,*,#180,.F.);
#254=EDGE_LOOP('',(#246,#247,#252,#253));
#255=FACE_OUTER_BOUND('',#254,.T.);
#256=CARTESIAN_POINT('',(-6.4,5.5,0.8));
#257=AXIS2_PLACEMENT_3D('',#256,#34,#16);
#258=PLANE('',#257);
#259=ADVANCED_FACE('',(#255),#258,.T.);
#260=ORIENTED_EDGE('',*,*,#234,.T.);
#261=ORIENTED_EDGE('',*,*,#216,.T.);
#262=ORIENTED_EDGE('',*,*,#245,.F.);
#263=ORIENTED_EDGE('',*,*,#175,.F.);
#264=EDGE_LOOP('',(#260,#261,#262,#263));
#265=FACE_OUTER_BOUND('',#264,.T.);
#266=CARTESIAN_POINT('',(-6.4,-5.4,0.8));
#267=AXIS2_PLACEMENT_3D('',#266,#132,#34);
#268=PLANE('',#267);
#269=ADVANCED_FACE('',(#265),#268,.T.);
#270=ORIENTED_EDGE('',*,*,#185,.T.);
#271=ORIENTED_EDGE('',*,*,#251,.T.);
#272=ORIENTED_EDGE('',*,*,#206,.F.);
#273=ORIENTED_EDGE('',*,*,#228,.F.);
#274=EDGE_LOOP('',(#270,#271,#272,#273));
#275=FACE_OUTER_BOUND('',#274,.T.);
#276=CARTESIAN_POINT('',(6.4,-5.4,0.8));
#277=AXIS2_PLACEMENT_3D('',#276,#16,#34);
#278=PLANE('',#277);
#279=ADVANCED_FACE('',(#275),#278,.T.);
#280=CLOSED_SHELL('',(#197,#223,#241,#259,#269,#279));
#281=MANIFOLD_SOLID_BREP('Shield',#280);
#282=COLOUR_RGB('',0.78,0.78,0.8);
#283=FILL_AREA_STYLE_COLOUR('',#282);
#284=FILL_AREA_STYLE('',(#283));
#285=SURFACE_STYLE_FILL_AREA(#284);
#286=SURFACE_SIDE_STYLE('',(#285));
#287=SURFACE_STYLE_USAGE(.BOTH.,#286);
#288=PRESENTATION_STYLE_ASSIGNMENT((#287));
#289=STYLED_ITEM('color',(#288),#281);
#290=CARTESIAN_POINT('',(-6.,9.6,0.8));
#291=VERTEX_POINT('',#290);
#292=CARTESIAN_POINT('',(6.,9.6,0.8));
#293=VERTEX_POINT('',#292);
#294=CARTESIAN_POINT('',(-6.,10.6,0.8));
#295=VERTEX_POINT('',#294);
#296=CARTESIAN_POINT('',(6.,10.6,0.8));
#297=VERTEX_POINT('',#296);
#298=CARTESIAN_POINT('',(-6.,9.6,0.85));
#299=VERTEX_POINT('',#298);
#300=CARTESIAN_POINT('',(6.,9.6,0.85));
#301=VERTEX_POINT('',#300);
#302=CARTESIAN_POINT('',(-6.,10.6,0.85));
#303=VERTEX_POINT('',#302);
#304=CARTESIAN_POINT('',(6.,10.6,0.85));
#305=VERTEX_POINT('',#304);
#306=VECTOR('',#34,1.);
#307=CARTESIAN_POINT('',(-6.,9.6,0.8));
#308=LINE('',#307,#306);
#309=EDGE_CURVE('',#291,#295,#308,.T.);
#310=ORIENTED_EDGE('',*,*,#309,.T.);
#311=VECTOR('',#16,12.);
#312=CARTESIAN_POINT('',(-6.,10.6,0.8));
#313=LINE('',#312,#311);
#314=EDGE_CURVE('',#295,#297,#313,.T.);
#315=ORIENTED_EDGE('',*,*,#314,.T.);
#316=VECTOR('',#34,1.);
#317=CARTESIAN_POINT('',(6.,9.6,0.8));
#318=LINE('',#317,#316);
#319=EDGE_CURVE('',#293,#297,#318,.T.);
#320=ORIENTED_EDGE('',*,*,#319,.F.);
#321=VECTOR('',#16,12.);
#322=CARTESIAN_POINT('',(-6.,9.6,0.8));
#323=LINE('',#322,#321);
#324=EDGE_CURVE('',#291,#293,#323,.T.);
#325=ORIENTED_EDGE('',*,*,#324,.F.);
#326=EDGE_LOOP('',(#310,#315,#320,#325));
#327=FACE_OUTER_BOUND('',#326,.T.);
#328=CARTESIAN_POINT('',(-6.,9.6,0.8));
#329=AXIS2_PLACEMENT_3D('',#328,#58,#16);
#330=PLANE('',#329);
#331=ADVANCED_FACE('',(#327),#330,.T.);
#332=VECTOR('',#16,12.);
#333=CARTESIAN_POINT('',(-6.,9.6,0.85));
#334=LINE('',#333,#332);
#335=EDGE_CURVE('',#299,#301,#334,.T.);
#336=ORIENTED_EDGE('',*,*,#335,.T.);
#337=VECTOR('',#34,1.);
#338=CARTESIAN_POINT('',(6.,9.6,0.85));
#339=LINE('',#338,#337);
#340=EDGE_CURVE('',#301,#305,#339,.T.);
#341=ORIENTED_EDGE('',*,*,#340,.T.);
#342=VECTOR('',#16,12.);
#343=CARTESIAN_POINT('',(-6.,10.6,0.85));
#344=LINE('',#343,#342);
#345=EDGE_CURVE('',#303,#305,#344,.T.);
#346=ORIENTED_EDGE('',*,*,#345,.F.);
#347=VECTOR('',#34,1.);
#348=CARTESIAN_POINT('',(-6.,9.6,0.85));
#349=LINE('',#348,#347);
#350=EDGE_CURVE('',#299,#303,#349,.T.);
#351=ORIENTED_EDGE('',*,*,#350,.F.);
#352=EDGE_LOOP('',(#336,#341,#346,#351));
#353=FACE_OUTER_BOUND('',#352,.T.);
#354=CARTESIAN_POINT('',(-6.,9.6,0.85));
#355=AXIS2_PLACEMENT_3D('',#354,#15,#16);
#356=PLANE('',#355);
#357=ADVANCED_FACE('',(#353),#356,.T.);
#358=ORIENTED_EDGE('',*,*,#324,.T.);
#359=VECTOR('',#15,0.05);
#360=CARTESIAN_POINT('',(6.,9.6,0.8));
#361=LINE('',#360,#359);
#362=EDGE_CURVE('',#293,#301,#361,.T.);
#363=ORIENTED_EDGE('',*,*,#362,.T.);
#364=ORIENTED_EDGE('',*,*,#335,.F.);
#365=VECTOR('',#15,0.05);
#366=CARTESIAN_POINT('',(-6.,9.6,0.8));
#367=LINE('',#366,#365);
#368=EDGE_CURVE('',#291,#299,#367,.T.);
#369=ORIENTED_EDGE('',*,*,#368,.F.);
#370=EDGE_LOOP('',(#358,#363,#364,#369));
#371=FACE_OUTER_BOUND('',#370,.T.);
#372=CARTESIAN_POINT('',(-6.,9.6,0.8));
#373=AXIS2_PLACEMENT_3D('',#372,#103,#16);
#374=PLANE('',#373);
#375=ADVANCED_FACE('',(#371),#374,.T.);
#376=VECTOR('',#15,0.05);
#377=CARTESIAN_POINT('',(-6.,10.6,0.8));
#378=LINE('',#377,#376);
#379=EDGE_CURVE('',#295,#303,#378,.T.);
#380=ORIENTED_EDGE('',*,*,#379,.T.);
#381=ORIENTED_EDGE('',*,*,#345,.T.);
#382=VECTOR('',#15,0.05);
#383=CARTESIAN_POINT('',(6.,10.6,0.8));
#384=LINE('',#383,#382);
#385=EDGE_CURVE('',#297,#305,#384,.T.);
#386=ORIENTED_EDGE('',*,*,#385,.F.);
#387=ORIENTED_EDGE('',*,*,#314,.F.);
#388=EDGE_LOOP('',(#380,#381,#386,#387));
#389=FACE_OUTER_BOUND('',#388,.T.);
#390=CARTESIAN_POINT('',(-6.,10.6,0.8));
#391=AXIS2_PLACEMENT_3D('',#390,#34,#16);
#392=PLANE('',#391);
#393=ADVANCED_FACE('',(#389),#392,.T.);
#394=ORIENTED_EDGE('',*,*,#368,.T.);
#395=ORIENTED_EDGE('',*,*,#350,.T.);
#396=ORIENTED_EDGE('',*,*,#379,.F.);
#397=ORIENTED_EDGE('',*,*,#309,.F.);
#398=EDGE_LOOP('',(#394,#395,#396,#397));
#399=FACE_OUTER_BOUND('',#398,.T.);
#400=CARTESIAN_POINT('',(-6.,9.6,0.8));
#401=AXIS2_PLACEMENT_3D('',#400,#132,#34);
#402=PLANE('',#401);
#403=ADVANCED_FACE('',(#399),#402,.T.);
#404=ORIENTED_EDGE('',*,*,#319,.T.);
#405=ORIENTED_EDGE('',*,*,#385,.T.);
#406=ORIENTED_EDGE('',*,*,#340,.F.);
#407=ORIENTED_EDGE('',*,*,#362,.F.);
#408=EDGE_LOOP('',(#404,#405,#406,#407));
#409=FACE_OUTER_BOUND('',#408,.T.);
#410=CARTESIAN_POINT('',(6.,9.6,0.8));
#411=AXIS2_PLACEMENT_3D('',#410,#16,#34);
#412=PLANE('',#411);
#413=ADVANCED_FACE('',(#409),#412,.T.);
#414=CLOSED_SHELL('',(#331,#357,#375,#393,#403,#413));
#415=MANIFOLD_SOLID_BREP('Antenna',#414);
#416=COLOUR_RGB('',0.85,0.68,0.2);
#417=FILL_AREA_STYLE_COLOUR('',#416);
#418=FILL_AREA_STYLE('',(#417));
#419=SURFACE_STYLE_FILL_AREA(#418);
#420=SURFACE_SIDE_STYLE('',(#419));
#421=SURFACE_STYLE_USAGE(.BOTH.,#420);
#422=PRESENTATION_STYLE_ASSIGNMENT((#421));
#423=STYLED_ITEM('color',(#422),#415);
#424=ADVANCED_BREP_SHAPE_REPRESENTATION('',(#17,#147,#281,#415),#13);
#425=SHAPE_DEFINITION_REPRESENTATION(#8,#424);
#426=MECHANICAL_DESIGN_GEOMETRIC_PRESENTATION_REPRESENTATION('',(#155,#289,#423),#13);
ENDSEC;
END-ISO-10303-21;
