ISO-10303-21;
HEADER;
FILE_DESCRIPTION(('L_7.3x7.3_H4.5 simplified model'),'2;1');
FILE_NAME('L_7.3x7.3_H4.5.step','2026-09-23T00:00:00',('gopo'),(''),'step_boxes.py','','');
FILE_SCHEMA(('AUTOMOTIVE_DESIGN { 1 0 10303 214 1 1 1 1 }'));
ENDSEC;
DATA;
#1=APPLICATION_CONTEXT('core data for automotive mechanical design processes');
#2=APPLICATION_PROTOCOL_DEFINITION('international standard','automotive_design',2000,#1);
#3=PRODUCT_CONTEXT('',#1,'mechanical');
#4=PRODUCT('L_7.3x7.3_H4.5','L_7.3x7.3_H4.5','',(#3));
#5=PRODUCT_DEFINITION_FORMATION('','',#4);
#6=PRODUCT_DEFINITION_CONTEXT('part definition',#1,'design');
#7=PRODUCT_DEFINITION('design','',#5,#6);
#8=PRODUCT_DEFINITION_SHAPE('','',#7);
#9=( LENGTH_UNIT() NAMED_UNIT(*) SI_UNIT(.MILLI.,.METRE.) );
#10=( NAMED_UNIT(*) PLANE_ANGLE_UNIT() SI_UNIT($,.RADIAN.) );
#11=( NAMED_UNIT(*) SI_UNIT($,.STERADIAN.) SOLID_ANGLE_UNIT() );
#12=UNCERTAINTY_MEASURE_WITH_UNIT(LENGTH_MEASURE(1.E-07),#9,'distance_accuracy_value','confusion accuracy');
#13=( GEOMETRIC_REPRESENTATION_CONTEXT(3) GLOBAL_UNCERTAINTY_ASSIGNED_CONTEXT((#12)) GLOBAL_UNIT_ASSIGNED_CONTEXT((#9,#10,#11)) REPRESENTATION_CONTEXT('Context #1','3D Context with UNIT and UNCERTAINTY') );
#14=CARTESIAN_POINT('',(0.,0.,0.));
#15=DIRECTION('',(0.,0.,1.));
#16=DIRECTION('',(1.,0.,0.));
#17=AXIS2_PLACEMENT_3D('',#14,#15,#16);
#18=CARTESIAN_POINT('',(-3.65,-3.65,0.3));
#19=VERTEX_POINT('',#18);
#20=CARTESIAN_POINT('',(3.65,-3.65,0.3));
#21=VERTEX_POINT('',#20);
#22=CARTESIAN_POINT('',(-3.65,3.65,0.3));
#23=VERTEX_POINT('',#22);
#24=CARTESIAN_POINT('',(3.65,3.65,0.3));
#25=VERTEX_POINT('',#24);
#26=CARTESIAN_POINT('',(-3.65,-3.65,4.5));
#27=VERTEX_POINT('',#26);
#28=CARTESIAN_POINT('',(3.65,-3.65,4.5));
#29=VERTEX_POINT('',#28);
#30=CARTESIAN_POINT('',(-3.65,3.65,4.5));
#31=VERTEX_POINT('',#30);
#32=CARTESIAN_POINT('',(3.65,3.65,4.5));
#33=VERTEX_POINT('',#32);
#34=DIRECTION('',(0.,1.,0.));
#35=VECTOR('',#34,7.3);
#36=CARTESIAN_POINT('',(-3.65,-3.65,0.3));
#37=LINE('',#36,#35);
#38=EDGE_CURVE('',#19,#23,#37,.T.);
#39=ORIENTED_EDGE('',*,*,#38,.T.);
#40=VECTOR('',#16,7.3);
#41=CARTESIAN_POINT('',(-3.65,3.65,0.3));
#42=LINE('',#41,#40);
#43=EDGE_CURVE('',#23,#25,#42,.T.);
#44=ORIENTED_EDGE('',*,*,#43,.T.);
#45=VECTOR('',#34,7.3);
#46=CARTESIAN_POINT('',(3.65,-3.65,0.3));
#47=LINE('',#46,#45);
#48=EDGE_CURVE('',#21,#25,#47,.T.);
#49=ORIENTED_EDGE('',*,*,#48,.F.);
#50=VECTOR('',#16,7.3);
#51=CARTESIAN_POINT('',(-3.65,-3.65,0.3));
#52=LINE('',#51,#50);
#53=EDGE_CURVE('',#19,#21,#52,.T.);
#54=ORIENTED_EDGE('',*,*,#53,.F.);
#55=EDGE_LOOP('',(#39,#44,#49,#54));
#56=FACE_OUTER_BOUND('',#55,.T.);
#57=CARTESIAN_POINT('',(-3.65,-3.65,0.3));
#58=DIRECTION('',(0.,0.,-1.));
#59=AXIS2_PLACEMENT_3D('',#57,#58,#16);
#60=PLANE('',#59);
#61=ADVANCED_FACE('',(#56),#60,.T.);
#62=VECTOR('',#16,7.3);
#63=CARTESIAN_POINT('',(-3.65,-3.65,4.5));
#64=LINE('',#63,#62);
#65=EDGE_CURVE('',#27,#29,#64,.T.);
#66=ORIENTED_EDGE('',*,*,#65,.T.);
#67=VECTOR('',#34,7.3);
#68=CARTESIAN_POINT('',(3.65,-3.65,4.5));
#69=LINE('',#68,#67);
#70=EDGE_CURVE('',#29,#33,#69,.T.);
#71=ORIENTED_EDGE('',*,*,#70,.T.);
#72=VECTOR('',#16,7.3);
#73=CARTESIAN_POINT('',(-3.65,3.65,4.5));
#74=LINE('',#73,#72);
#75=EDGE_CURVE('',#31,#33,#74,.T.);
#76=ORIENTED_EDGE('',*,*,#75,.F.);
#77=VECTOR('',#34,7.3);
#78=CARTESIAN_POINT('',(-3.65,-3.65,4.5));
#79=LINE('',#78,#77);
#80=EDGE_CURVE('',#27,#31,#79,.T.);
#81=ORIENTED_EDGE('',*,*,#80,.F.);
#82=EDGE_LOOP('',(#66,#71,#76,#81));
#83=FACE_OUTER_BOUND('',#82,.T.);
#84=CARTESIAN_POINT('',(-3.65,-3.65,4.5));
#85=AXIS2_PLACEMENT_3D('',#84,#15,#16);
#86=PLANE('',#85);
#87=ADVANCED_FACE('',(#83),#86,.T.);
#88=ORIENTED_EDGE('',*,*,#53,.T.);
#89=VECTOR('',#15,4.2);
#90=CARTESIAN_POINT('',(3.65,-3.65,0.3));
#91=LINE('',#90,#89);
#92=EDGE_CURVE('',#21,#29,#91,.T.);
#93=ORIENTED_EDGE('',*,*,#92,.T.);
#94=ORIENTED_EDGE('',*,*,#65,.F.);
#95=VECTOR('',#15,4.2);
#96=CARTESIAN_POINT('',(-3.65,-3.65,0.3));
#97=LINE('',#96,#95);
#98=EDGE_CURVE('',#19,#27,#97,.T.);
#99=ORIENTED_EDGE('',*,*,#98,.F.);
#100=EDGE_LOOP('',(#88,#93,#94,#99));
#101=FACE_OUTER_BOUND('',#100,.T.);
#102=CARTESIAN_POINT('',(-3.65,-3.65,0.3));
#103=DIRECTION('',(0.,-1.,0.));
#104=AXIS2_PLACEMENT_3D('',#102,#103,#16);
#105=PLANE('',#104);
#106=ADVANCED_FACE('',(#101),#105,.T.);
#107=VECTOR('',#15,4.2);
#108=CARTESIAN_POINT('',(-3.65,3.65,0.3));
#109=LINE('',#108,#107);
#110=EDGE_CURVE('',#23,#31,#109,.T.);
#111=ORIENTED_EDGE('',*,*,#110,.T.);
#112=ORIENTED_EDGE('',*,*,#75,.T.);
#113=VECTOR('',#15,4.2);
#114=CARTESIAN_POINT('',(3.65,3.65,0.3));
#115=LINE('',#114,#113);
#116=EDGE_CURVE('',#25,#33,#115,.T.);
#117=ORIENTED_EDGE('',*,*,#116,.F.);
#118=ORIENTED_EDGE('',*,*,#43,.F.);
#119=EDGE_LOOP('',(#111,#112,#117,#118));
#120=FACE_OUTER_BOUND('',#119,.T.);
#121=CARTESIAN_POINT('',(-3.65,3.65,0.3));
#122=AXIS2_PLACEMENT_3D('',#121,#34,#16);
#123=PLANE('',#122);
#124=ADVANCED_FACE('',(#120),#123,.T.);
#125=ORIENTED_EDGE('',*,*,#98,.T.);
#126=ORIENTED_EDGE('',*,*,#80,.T.);
#127=ORIENTED_EDGE('',*,*,#110,.F.);
#128=ORIENTED_EDGE('',*,*,#38,.F.);
#129=EDGE_LOOP('',(#125,#126,#127,#128));
#130=FACE_OUTER_BOUND('',#129,.T.);
#131=CARTESIAN_POINT('',(-3.65,-3.65,0.3));
#132=DIRECTION('',(-1.,0.,0.));
#133=AXIS2_PLACEMENT_3D('',#131,#132,#34);
#134=PLANE('',#133);
#135=ADVANCED_FACE('',(#130),#134,.T.);
#136=ORIENTED_EDGE('',*,*,#48,.T.);
#137=ORIENTED_EDGE('',*,*,#116,.T.);
#138=ORIENTED_EDGE('',*,*,#70,.F.);
#139=ORIENTED_EDGE('',*,*,#92,.F.);
#140=EDGE_LOOP('',(#136,#137,#138,#139));
#141=FACE_OUTER_BOUND('',#140,.T.);
#142=CARTESIAN_POINT('',(3.65,-3.65,0.3));
#143=AXIS2_PLACEMENT_3D('',#142,#16,#34);
#144=PLANE('',#143);
#145=ADVANCED_FACE('',(#141),#144,.T.);
#146=CLOSED_SHELL('',(#61,#87,#106,#124,#135,#145));
#147=MANIFOLD_SOLID_BREP('Body',#146);
#148=COLOUR_RGB('',0.08,0.08,0.08);
#149=FILL_AREA_STYLE_COLOUR('',#148);
#150=FILL_AREA_STYLE('',(#149));
#151=SURFACE_STYLE_FILL_AREA(#150);
#152=SURFACE_SIDE_STYLE('',(#151));
#153=SURFACE_STYLE_USAGE(.BOTH.,#152);
#154=PRESENTATION_STYLE_ASSIGNMENT((#153));
#155=STYLED_ITEM('color',(#154),#147);
#156=CARTESIAN_POINT('',(-3.7,-1.,0.));
#157=VERTEX_POINT('',#156);
#158=CARTESIAN_POINT('',(-2.4,-1.,0.));
#159=VERTEX_POINT('',#158);
#160=CARTESIAN_POINT('',(-3.7,1.,0.));
#161=VERTEX_POINT('',#160);
#162=CARTESIAN_POINT('',(-2.4,1.,0.));
#163=VERTEX_POINT('',#162);
#164=CARTESIAN_POINT('',(-3.7,-1.,0.3));
#165=VERTEX_POINT('',#164);
#166=CARTESIAN_POINT('',(-2.4,-1.,0.3));
#167=VERTEX_POINT('',#166);
#168=CARTESIAN_POINT('',(-3.7,1.,0.3));
#169=VERTEX_POINT('',#168);
#170=CARTESIAN_POINT('',(-2.4,1.,0.3));
#171=VERTEX_POINT('',#170);
#172=VECTOR('',#34,2.);
#173=CARTESIAN_POINT('',(-3.7,-1.,0.));
#174=LINE('',#173,#172);
#175=EDGE_CURVE('',#157,#161,#174,.T.);
#176=ORIENTED_EDGE('',*,*,#175,.T.);
#177=VECTOR('',#16,1.3);
#178=CARTESIAN_POINT('',(-3.7,1.,0.));
#179=LINE('',#178,#177);
#180=EDGE_CURVE('',#161,#163,#179,.T.);
#181=ORIENTED_EDGE('',*,*,#180,.T.);
#182=VECTOR('',#34,2.);
#183=CARTESIAN_POINT('',(-2.4,-1.,0.));
#184=LINE('',#183,#182);
#185=EDGE_CURVE('',#159,#163,#184,.T.);
#186=ORIENTED_EDGE('',*,*,#185,.F.);
#187=VECTOR('',#16,1.3);
#188=CARTESIAN_POINT('',(-3.7,-1.,0.));
#189=LINE('',#188,#187);
#190=EDGE_CURVE('',#157,#159,#189,.T.);
#191=ORIENTED_EDGE('',*,*,#190,.F.);
#192=EDGE_LOOP('',(#176,#181,#186,#191));
#193=FACE_OUTER_BOUND('',#192,.T.);
#194=CARTESIAN_POINT('',(-3.7,-1.,0.));
#195=AXIS2_PLACEMENT_3D('',#194,#58,#16);
#196=PLANE('',#195);
#197=ADVANCED_FACE('',(#193),#196,.T.);
#198=VECTOR('',#16,1.3);
#199=CARTESIAN_POINT('',(-3.7,-1.,0.3));
#200=LINE('',#199,#198);
#201=EDGE_CURVE('',#165,#167,#200,.T.);
#202=ORIENTED_EDGE('',*,*,#201,.T.);
#203=VECTOR('',#34,2.);
#204=CARTESIAN_POINT('',(-2.4,-1.,0.3));
#205=LINE('',#204,#203);
#206=EDGE_CURVE('',#167,#171,#205,.T.);
#207=ORIENTED_EDGE('',*,*,#206,.T.);
#208=VECTOR('',#16,1.3);
#209=CARTESIAN_POINT('',(-3.7,1.,0.3));
#210=LINE('',#209,#208);
#211=EDGE_CURVE('',#169,#171,#210,.T.);
#212=ORIENTED_EDGE('',*,*,#211,.F.);
#213=VECTOR('',#34,2.);
#214=CARTESIAN_POINT('',(-3.7,-1.,0.3));
#215=LINE('',#214,#213);
#216=EDGE_CURVE('',#165,#169,#215,.T.);
#217=ORIENTED_EDGE('',*,*,#216,.F.);
#218=EDGE_LOOP('',(#202,#207,#212,#217));
#219=FACE_OUTER_BOUND('',#218,.T.);
#220=CARTESIAN_POINT('',(-3.7,-1.,0.3));
#221=AXIS2_PLACEMENT_3D('',#220,#15,#16);
#222=PLANE('',#221);
#223=ADVANCED_FACE('',(#219),#222,.T.);
#224=ORIENTED_EDGE('',*,*,#190,.T.);
#225=VECTOR('',#15,0.3);
#226=CARTESIAN_POINT('',(-2.4,-1.,0.));
#227=LINE('',#226,#225);
#228=EDGE_CURVE('',#159,#167,#227,.T.);
#229=ORIENTED_EDGE('',*,*,#228,.T.);
#230=ORIENTED_EDGE('',*,*,#201,.F.);
#231=VECTOR('',#15,0.3);
#232=CARTESIAN_POINT('',(-3.7,-1.,0.));
#233=LINE('',#232,#231);
#234=EDGE_CURVE('',#157,#165,#233,.T.);
#235=ORIENTED_EDGE('',*,*,#234,.F.);
#236=EDGE_LOOP('',(#224,#229,#230,#235));
#237=FACE_OUTER_BOUND('',#236,.T.);
#238=CARTESIAN_POINT('',(-3.7,-1.,0.));
#239=AXIS2_PLACEMENT_3D('',#238,#103,#16);
#240=PLANE('',#239);
#241=ADVANCED_FACE('',(#237),#240,.T.);
#242=VECTOR('',#15,0.3);
#243=CARTESIAN_POINT('',(-3.7,1.,0.));
#244=LINE('',#243,#242);
#245=EDGE_CURVE('',#161,#169,#244,.T.);
#246=ORIENTED_EDGE('',*,*,#245,.T.);
#247=ORIENTED_EDGE('',*,*,#211,.T.);
#248=VECTOR('',#15,0.3);
#249=CARTESIAN_POINT('',(-2.4,1.,0.));
#250=LINE('',#249,#248);
#251=EDGE_CURVE('',#163,#171,#250,.T.);
#252=ORIENTED_EDGE('',*,*,#251,.F.);
#253=ORIENTED_EDGE('',*,*,#180,.F.);
#254=EDGE_LOOP('',(#246,#247,#252,#253));
#255=FACE_OUTER_BOUND('',#254,.T.);
#256=CARTESIAN_POINT('',(-3.7,1.,0.));
#257=AXIS2_PLACEMENT_3D('',#256,#34,#16);
#258=PLANE('',#257);
#259=ADVANCED_FACE('',(#255),#258,.T.);
#260=ORIENTED_EDGE('',*,*,#234,.T.);
#261=ORIENTED_EDGE('',*,*,#216,.T.);
#262=ORIENTED_EDGE('',*,*,#245,.F.);
#263=ORIENTED_EDGE('',*,*,#175,.F.);
#264=EDGE_LOOP('',(#260,#261,#262,#263));
#265=FACE_OUTER_BOUND('',#264,.T.);
#266=CARTESIAN_POINT('',(-3.7,-1.,0.));
#267=AXIS2_PLACEMENT_3D('',#266,#132,#34);
#268=PLANE('',#267);
#269=ADVANCED_FACE('',(#265),#268,.T.);
#270=ORIENTED_EDGE('',*,*,#185,.T.);
#271=ORIENTED_EDGE('',*,*,#251,.T.);
#272=ORIENTED_EDGE('',*,*,#206,.F.);
#273=ORIENTED_EDGE('',*,*,#228,.F.);
#274=EDGE_LOOP('',(#270,#271,#272,#273));
#275=FACE_OUTER_BOUND('',#274,.T.);
#276=CARTESIAN_POINT('',(-2.4,-1.,0.));
#277=AXIS2_PLACEMENT_3D('',#276,#16,#34);
#278=PLANE('',#277);
#279=ADVANCED_FACE('',(#275),#278,.T.);
#280=CLOSED_SHELL('',(#197,#223,#241,#259,#269,#279));
#281=MANIFOLD_SOLID_BREP('Term_-1',#280);
#282=COLOUR_RGB('',0.78,0.78,0.8);
#283=FILL_AREA_STYLE_COLOUR('',#282);
#284=FILL_AREA_STYLE('',(#283));
#285=SURFACE_STYLE_FILL_AREA(#284);
#286=SURFACE_SIDE_STYLE('',(#285));
#287=SURFACE_STYLE_USAGE(.BOTH.,#286);
#288=PRESENTATION_STYLE_ASSIGNMENT((#287));
#289=STYLED_ITEM('color',(#288),#281);
#290=CARTESIAN_POINT('',(2.4,-1.,0.));
#291=VERTEX_POINT('',#290);
#292=CARTESIAN_POINT('',(3.7,-1.,0.));
#293=VERTEX_POINT('',#292);
#294=CARTESIAN_POINT('',(2.4,1.,0.));
#295=VERTEX_POINT('',#294);
#296=CARTESIAN_POINT('',(3.7,1.,0.));
#297=VERTEX_POINT('',#296);
#298=CARTESIAN_POINT('',(2.4,-1.,0.3));
#299=VERTEX_POINT('',#298);
#300=CARTESIAN_POINT('',(3.7,-1.,0.3));
#301=VERTEX_POINT('',#300);
#302=CARTESIAN_POINT('',(2.4,1.,0.3));
#303=VERTEX_POINT('',#302);
#304=CARTESIAN_POINT('',(3.7,1.,0.3));
#305=VERTEX_POINT('',#304);
#306=VECTOR('',#34,2.);
#307=CARTESIAN_POINT('',(2.4,-1.,0.));
#308=LINE('',#307,#306);
#309=EDGE_CURVE('',#291,#295,#308,.T.);
#310=ORIENTED_EDGE('',*,*,#309,.T.);
#311=VECTOR('',#16,1.3);
#312=CARTESIAN_POINT('',(2.4,1.,0.));
#313=LINE('',#312,#311);
#314=EDGE_CURVE('',#295,#297,#313,.T.);
#315=ORIENTED_EDGE('',*,*,#314,.T.);
#316=VECTOR('',#34,2.);
#317=CARTESIAN_POINT('',(3.7,-1.,0.));
#318=LINE('',#317,#316);
#319=EDGE_CURVE('',#293,#297,#318,.T.);
#320=ORIENTED_EDGE('',*,*,#319,.F.);
#321=VECTOR('',#16,1.3);
#322=CARTESIAN_POINT('',(2.4,-1.,0.));
#323=LINE('',#322,#321);
#324=EDGE_CURVE('',#291,#293,#323,.T.);
#325=ORIENTED_EDGE('',*,*,#324,.F.);
#326=EDGE_LOOP('',(#310,#315,#320,#325));
#327=FACE_OUTER_BOUND('',#326,.T.);
#328=CARTESIAN_POINT('',(2.4,-1.,0.));
#329=AXIS2_PLACEMENT_3D('',#328,#58,#16);
#330=PLANE('',#329);
#331=ADVANCED_FACE('',(#327),#330,.T.);
#332=VECTOR('',#16,1.3);
#333=CARTESIAN_POINT('',(2.4,-1.,0.3));
#334=LINE('',#333,#332);
#335=EDGE_CURVE('',#299,#301,#334,.T.);
#336=ORIENTED_EDGE('',*,*,#335,.T.);
#337=VECTOR('',#34,2.);
#338=CARTESIAN_POINT('',(3.7,-1.,0.3));
#339=LINE('',#338,#337);
#340=EDGE_CURVE('',#301,#305,#339,.T.);
#341=ORIENTED_EDGE('',*,*,#340,.T.);
#342=VECTOR('',#16,1.3);
#343=CARTESIAN_POINT('',(2.4,1.,0.3));
#344=LINE('',#343,#342);
#345=EDGE_CURVE('',#303,#305,#344,.T.);
#346=ORIENTED_EDGE('',*,*,#345,.F.);
#347=VECTOR('',#34,2.);
#348=CARTESIAN_POINT('',(2.4,-1.,0.3));
#349=LINE('',#348,#347);
#350=EDGE_CURVE('',#299,#303,#349,.T.);
#351=ORIENTED_EDGE('',*,*,#350,.F.);
#352=EDGE_LOOP('',(#336,#341,#346,#351));
#353=FACE_OUTER_BOUND('',#352,.T.);
#354=CARTESIAN_POINT('',(2.4,-1.,0.3));
#355=AXIS2_PLACEMENT_3D('',#354,#15,#16);
#356=PLANE('',#355);
#357=ADVANCED_FACE('',(#353),#356,.T.);
#358=ORIENTED_EDGE('',*,*,#324,.T.);
#359=VECTOR('',#15,0.3);
#360=CARTESIAN_POINT('',(3.7,-1.,0.));
#361=LINE('',#360,#359);
#362=EDGE_CURVE('',#293,#301,#361,.T.);
#363=ORIENTED_EDGE('',*,*,#362,.T.);
#364=ORIENTED_EDGE('',*,*,#335,.F.);
#365=VECTOR('',#15,0.3);
#366=CARTESIAN_POINT('',(2.4,-1.,0.));
#367=LINE('',#366,#365);
#368=EDGE_CURVE('',#291,#299,#367,.T.);
#369=ORIENTED_EDGE('',*,*,#368,.F.);
#370=EDGE_LOOP('',(#358,#363,#364,#369));
#371=FACE_OUTER_BOUND('',#370,.T.);
#372=CARTESIAN_POINT('',(2.4,-1.,0.));
#373=AXIS2_PLACEMENT_3D('',#372,#103,#16);
#374=PLANE('',#373);
#375=ADVANCED_FACE('',(#371),#374,.T.);
#376=VECTOR('',#15,0.3);
#377=CARTESIAN_POINT('',(2.4,1.,0.));
#378=LINE('',#377,#376);
#379=EDGE_CURVE('',#295,#303,#378,.T.);
#380=ORIENTED_EDGE('',*,*,#379,.T.);
#381=ORIENTED_EDGE('',*,*,#345,.T.);
#382=VECTOR('',#15,0.3);
#383=CARTESIAN_POINT('',(3.7,1.,0.));
#384=LINE('',#383,#382);
#385=EDGE_CURVE('',#297,#305,#384,.T.);
#386=ORIENTED_EDGE('',*,*,#385,.F.);
#387=ORIENTED_EDGE('',*,*,#314,.F.);
#388=EDGE_LOOP('',(#380,#381,#386,#387));
#389=FACE_OUTER_BOUND('',#388,.T.);
#390=CARTESIAN_POINT('',(2.4,1.,0.));
#391=AXIS2_PLACEMENT_3D('',#390,#34,#16);
#392=PLANE('',#391);
#393=ADVANCED_FACE('',(#389),#392,.T.);
#394=ORIENTED_EDGE('',*,*,#368,.T.);
#395=ORIENTED_EDGE('',*,*,#350,.T.);
#396=ORIENTED_EDGE('',*,*,#379,.F.);
#397=ORIENTED_EDGE('',*,*,#309,.F.);
#398=EDGE_LOOP('',(#394,#395,#396,#397));
#399=FACE_OUTER_BOUND('',#398,.T.);
#400=CARTESIAN_POINT('',(2.4,-1.,0.));
#401=AXIS2_PLACEMENT_3D('',#400,#132,#34);
#402=PLANE('',#401);
#403=ADVANCED_FACE('',(#399),#402,.T.);
#404=ORIENTED_EDGE('',*,*,#319,.T.);
#405=ORIENTED_EDGE('',*,*,#385,.T.);
#406=ORIENTED_EDGE('',*,*,#340,.F.);
#407=ORIENTED_EDGE('',*,*,#362,.F.);
#408=EDGE_LOOP('',(#404,#405,#406,#407));
#409=FACE_OUTER_BOUND('',#408,.T.);
#410=CARTESIAN_POINT('',(3.7,-1.,0.));
#411=AXIS2_PLACEMENT_3D('',#410,#16,#34);
#412=PLANE('',#411);
#413=ADVANCED_FACE('',(#409),#412,.T.);
#414=CLOSED_SHELL('',(#331,#357,#375,#393,#403,#413));
#415=MANIFOLD_SOLID_BREP('Term_1',#414);
#416=STYLED_ITEM('color',(#288),#415);
#417=CARTESIAN_POINT('',(-2.4,-3.65,0.));
#418=VERTEX_POINT('',#417);
#419=CARTESIAN_POINT('',(2.4,-3.65,0.));
#420=VERTEX_POINT('',#419);
#421=CARTESIAN_POINT('',(-2.4,3.65,0.));
#422=VERTEX_POINT('',#421);
#423=CARTESIAN_POINT('',(2.4,3.65,0.));
#424=VERTEX_POINT('',#423);
#425=CARTESIAN_POINT('',(-2.4,-3.65,0.3));
#426=VERTEX_POINT('',#425);
#427=CARTESIAN_POINT('',(2.4,-3.65,0.3));
#428=VERTEX_POINT('',#427);
#429=CARTESIAN_POINT('',(-2.4,3.65,0.3));
#430=VERTEX_POINT('',#429);
#431=CARTESIAN_POINT('',(2.4,3.65,0.3));
#432=VERTEX_POINT('',#431);
#433=VECTOR('',#34,7.3);
#434=CARTESIAN_POINT('',(-2.4,-3.65,0.));
#435=LINE('',#434,#433);
#436=EDGE_CURVE('',#418,#422,#435,.T.);
#437=ORIENTED_EDGE('',*,*,#436,.T.);
#438=VECTOR('',#16,4.8);
#439=CARTESIAN_POINT('',(-2.4,3.65,0.));
#440=LINE('',#439,#438);
#441=EDGE_CURVE('',#422,#424,#440,.T.);
#442=ORIENTED_EDGE('',*,*,#441,.T.);
#443=VECTOR('',#34,7.3);
#444=CARTESIAN_POINT('',(2.4,-3.65,0.));
#445=LINE('',#444,#443);
#446=EDGE_CURVE('',#420,#424,#445,.T.);
#447=ORIENTED_EDGE('',*,*,#446,.F.);
#448=VECTOR('',#16,4.8);
#449=CARTESIAN_POINT('',(-2.4,-3.65,0.));
#450=LINE('',#449,#448);
#451=EDGE_CURVE('',#418,#420,#450,.T.);
#452=ORIENTED_EDGE('',*,*,#451,.F.);
#453=EDGE_LOOP('',(#437,#442,#447,#452));
#454=FACE_OUTER_BOUND('',#453,.T.);
#455=CARTESIAN_POINT('',(-2.4,-3.65,0.));
#456=AXIS2_PLACEMENT_3D('',#455,#58,#16);
#457=PLANE('',#456);
#458=ADVANCED_FACE('',(#454),#457,.T.);
#459=VECTOR('',#16,4.8);
#460=CARTESIAN_POINT('',(-2.4,-3.65,0.3));
#461=LINE('',#460,#459);
#462=EDGE_CURVE('',#426,#428,#461,.T.);
#463=ORIENTED_EDGE('',*,*,#462,.T.);
#464=VECTOR('',#34,7.3);
#465=CARTESIAN_POINT('',(2.4,-3.65,0.3));
#466=LINE('',#465,#464);
#467=EDGE_CURVE('',#428,#432,#466,.T.);
#468=ORIENTED_EDGE('',*,*,#467,.T.);
#469=VECTOR('',#16,4.8);
#470=CARTESIAN_POINT('',(-2.4,3.65,0.3));
#471=LINE('',#470,#469);
#472=EDGE_CURVE('',#430,#432,#471,.T.);
#473=ORIENTED_EDGE('',*,*,#472,.F.);
#474=VECTOR('',#34,7.3);
#475=CARTESIAN_POINT('',(-2.4,-3.65,0.3));
#476=LINE('',#475,#474);
#477=EDGE_CURVE('',#426,#430,#476,.T.);
#478=ORIENTED_EDGE('',*,*,#477,.F.);
#479=EDGE_LOOP('',(#463,#468,#473,#478));
#480=FACE_OUTER_BOUND('',#479,.T.);
#481=CARTESIAN_POINT('',(-2.4,-3.65,0.3));
#482=AXIS2_PLACEMENT_3D('',#481,#15,#16);
#483=PLANE('',#482);
#484=ADVANCED_FACE('',(#480),#483,.T.);
#485=ORIENTED_EDGE('',*,*,#451,.T.);
#486=VECTOR('',#15,0.3);
#487=CARTESIAN_POINT('',(2.4,-3.65,0.));
#488=LINE('',#487,#486);
#489=EDGE_CURVE('',#420,#428,#488,.T.);
#490=ORIENTED_EDGE('',*,*,#489,.T.);
#491=ORIENTED_EDGE('',*,*,#462,.F.);
#492=VECTOR('',#15,0.3);
#493=CARTESIAN_POINT('',(-2.4,-3.65,0.));
#494=LINE('',#493,#492);
#495=EDGE_CURVE('',#418,#426,#494,.T.);
#496=ORIENTED_EDGE('',*,*,#495,.F.);
#497=EDGE_LOOP('',(#485,#490,#491,#496));
#498=FACE_OUTER_BOUND('',#497,.T.);
#499=CARTESIAN_POINT('',(-2.4,-3.65,0.));
#500=AXIS2_PLACEMENT_3D('',#499,#103,#16);
#501=PLANE('',#500);
#502=ADVANCED_FACE('',(#498),#501,.T.);
#503=VECTOR('',#15,0.3);
#504=CARTESIAN_POINT('',(-2.4,3.65,0.));
#505=LINE('',#504,#503);
#506=EDGE_CURVE('',#422,#430,#505,.T.);
#507=ORIENTED_EDGE('',*,*,#506,.T.);
#508=ORIENTED_EDGE('',*,*,#472,.T.);
#509=VECTOR('',#15,0.3);
#510=CARTESIAN_POINT('',(2.4,3.65,0.));
#511=LINE('',#510,#509);
#512=EDGE_CURVE('',#424,#432,#511,.T.);
#513=ORIENTED_EDGE('',*,*,#512,.F.);
#514=ORIENTED_EDGE('',*,*,#441,.F.);
#515=EDGE_LOOP('',(#507,#508,#513,#514));
#516=FACE_OUTER_BOUND('',#515,.T.);
#517=CARTESIAN_POINT('',(-2.4,3.65,0.));
#518=AXIS2_PLACEMENT_3D('',#517,#34,#16);
#519=PLANE('',#518);
#520=ADVANCED_FACE('',(#516),#519,.T.);
#521=ORIENTED_EDGE('',*,*,#495,.T.);
#522=ORIENTED_EDGE('',*,*,#477,.T.);
#523=ORIENTED_EDGE('',*,*,#506,.F.);
#524=ORIENTED_EDGE('',*,*,#436,.F.);
#525=EDGE_LOOP('',(#521,#522,#523,#524));
#526=FACE_OUTER_BOUND('',#525,.T.);
#527=CARTESIAN_POINT('',(-2.4,-3.65,0.));
#528=AXIS2_PLACEMENT_3D('',#527,#132,#34);
#529=PLANE('',#528);
#530=ADVANCED_FACE('',(#526),#529,.T.);
#531=ORIENTED_EDGE('',*,*,#446,.T.);
#532=ORIENTED_EDGE('',*,*,#512,.T.);
#533=ORIENTED_EDGE('',*,*,#467,.F.);
#534=ORIENTED_EDGE('',*,*,#489,.F.);
#535=EDGE_LOOP('',(#531,#532,#533,#534));
#536=FACE_OUTER_BOUND('',#535,.T.);
#537=CARTESIAN_POINT('',(2.4,-3.65,0.));
#538=AXIS2_PLACEMENT_3D('',#537,#16,#34);
#539=PLANE('',#538);
#540=ADVANCED_FACE('',(#536),#539,.T.);
#541=CLOSED_SHELL('',(#458,#484,#502,#520,#530,#540));
#542=MANIFOLD_SOLID_BREP('Base',#541);
#543=STYLED_ITEM('color',(#154),#542);
#544=ADVANCED_BREP_SHAPE_REPRESENTATION('',(#17,#147,#281,#415,#542),#13);
#545=SHAPE_DEFINITION_REPRESENTATION(#8,#544);
#546=MECHANICAL_DESIGN_GEOMETRIC_PRESENTATION_REPRESENTATION('',(#155,#289,#416,#543),#13);
ENDSEC;
END-ISO-10303-21;
