ISO-10303-21;
HEADER;
FILE_DESCRIPTION(('SolderWire-1.5sqmm_1x02 simplified model'),'2;1');
FILE_NAME('SolderWire-1.5sqmm_1x02.step','2026-09-23T00:00:00',('gopo'),(''),'step_boxes.py','','');
FILE_SCHEMA(('AUTOMOTIVE_DESIGN { 1 0 10303 214 1 1 1 1 }'));
ENDSEC;
DATA;
#1=APPLICATION_CONTEXT('core data for automotive mechanical design processes');
#2=APPLICATION_PROTOCOL_DEFINITION('international standard','automotive_design',2000,#1);
#3=PRODUCT_CONTEXT('',#1,'mechanical');
#4=PRODUCT('SolderWire-1.5sqmm_1x02','SolderWire-1.5sqmm_1x02','',(#3));
#5=PRODUCT_DEFINITION_FORMATION('','',#4);
#6=PRODUCT_DEFINITION_CONTEXT('part definition',#1,'design');
#7=PRODUCT_DEFINITION('design','',#5,#6);
#8=PRODUCT_DEFINITION_SHAPE('','',#7);
#9=( LENGTH_UNIT() NAMED_UNIT(*) SI_UNIT(.MILLI.,.METRE.) );
#10=( NAMED_UNIT(*) PLANE_ANGLE_UNIT() SI_UNIT($,.RADIAN.) );
#11=( NAMED_UNIT(*) SI_UNIT($,.STERADIAN.) SOLID_ANGLE_UNIT() );
#12=UNCERTAINTY_MEASURE_WITH_UNIT(LENGTH_MEASURE(1.E-07),#9,'distance_accuracy_value','confusion accuracy');
#13=( GEOMETRIC_REPRESENTATION_CONTEXT(3) GLOBAL_UNCERTAINTY_ASSIGNED_CONTEXT((#12)) GLOBAL_UNIT_ASSIGNED_CONTEXT((#9,#10,#11)) REPRESENTATION_CONTEXT('Context #1','3D Context with UNIT and UNCERTAINTY') );
#14=CARTESIAN_POINT('',(0.,0.,0.));
#15=DIRECTION('',(0.,0.,1.));
#16=DIRECTION('',(1.,0.,0.));
#17=AXIS2_PLACEMENT_3D('',#14,#15,#16);
#18=CARTESIAN_POINT('',(-0.7361,0.425,-1.8));
#19=VERTEX_POINT('',#18);
#20=CARTESIAN_POINT('',(0.7361,0.425,-1.8));
#21=VERTEX_POINT('',#20);
#22=CARTESIAN_POINT('',(-0.7361,0.85,-1.8));
#23=VERTEX_POINT('',#22);
#24=CARTESIAN_POINT('',(0.7361,0.85,-1.8));
#25=VERTEX_POINT('',#24);
#26=CARTESIAN_POINT('',(-0.7361,0.425,1.));
#27=VERTEX_POINT('',#26);
#28=CARTESIAN_POINT('',(0.7361,0.425,1.));
#29=VERTEX_POINT('',#28);
#30=CARTESIAN_POINT('',(-0.7361,0.85,1.));
#31=VERTEX_POINT('',#30);
#32=CARTESIAN_POINT('',(0.7361,0.85,1.));
#33=VERTEX_POINT('',#32);
#34=DIRECTION('',(0.,1.,0.));
#35=VECTOR('',#34,0.425);
#36=CARTESIAN_POINT('',(-0.7361,0.425,-1.8));
#37=LINE('',#36,#35);
#38=EDGE_CURVE('',#19,#23,#37,.T.);
#39=ORIENTED_EDGE('',*,*,#38,.T.);
#40=VECTOR('',#16,1.4722);
#41=CARTESIAN_POINT('',(-0.7361,0.85,-1.8));
#42=LINE('',#41,#40);
#43=EDGE_CURVE('',#23,#25,#42,.T.);
#44=ORIENTED_EDGE('',*,*,#43,.T.);
#45=VECTOR('',#34,0.425);
#46=CARTESIAN_POINT('',(0.7361,0.425,-1.8));
#47=LINE('',#46,#45);
#48=EDGE_CURVE('',#21,#25,#47,.T.);
#49=ORIENTED_EDGE('',*,*,#48,.F.);
#50=VECTOR('',#16,1.4722);
#51=CARTESIAN_POINT('',(-0.7361,0.425,-1.8));
#52=LINE('',#51,#50);
#53=EDGE_CURVE('',#19,#21,#52,.T.);
#54=ORIENTED_EDGE('',*,*,#53,.F.);
#55=EDGE_LOOP('',(#39,#44,#49,#54));
#56=FACE_OUTER_BOUND('',#55,.T.);
#57=CARTESIAN_POINT('',(-0.7361,0.425,-1.8));
#58=DIRECTION('',(0.,0.,-1.));
#59=AXIS2_PLACEMENT_3D('',#57,#58,#16);
#60=PLANE('',#59);
#61=ADVANCED_FACE('',(#56),#60,.T.);
#62=VECTOR('',#16,1.4722);
#63=CARTESIAN_POINT('',(-0.7361,0.425,1.));
#64=LINE('',#63,#62);
#65=EDGE_CURVE('',#27,#29,#64,.T.);
#66=ORIENTED_EDGE('',*,*,#65,.T.);
#67=VECTOR('',#34,0.425);
#68=CARTESIAN_POINT('',(0.7361,0.425,1.));
#69=LINE('',#68,#67);
#70=EDGE_CURVE('',#29,#33,#69,.T.);
#71=ORIENTED_EDGE('',*,*,#70,.T.);
#72=VECTOR('',#16,1.4722);
#73=CARTESIAN_POINT('',(-0.7361,0.85,1.));
#74=LINE('',#73,#72);
#75=EDGE_CURVE('',#31,#33,#74,.T.);
#76=ORIENTED_EDGE('',*,*,#75,.F.);
#77=VECTOR('',#34,0.425);
#78=CARTESIAN_POINT('',(-0.7361,0.425,1.));
#79=LINE('',#78,#77);
#80=EDGE_CURVE('',#27,#31,#79,.T.);
#81=ORIENTED_EDGE('',*,*,#80,.F.);
#82=EDGE_LOOP('',(#66,#71,#76,#81));
#83=FACE_OUTER_BOUND('',#82,.T.);
#84=CARTESIAN_POINT('',(-0.7361,0.425,1.));
#85=AXIS2_PLACEMENT_3D('',#84,#15,#16);
#86=PLANE('',#85);
#87=ADVANCED_FACE('',(#83),#86,.T.);
#88=ORIENTED_EDGE('',*,*,#53,.T.);
#89=VECTOR('',#15,2.8);
#90=CARTESIAN_POINT('',(0.7361,0.425,-1.8));
#91=LINE('',#90,#89);
#92=EDGE_CURVE('',#21,#29,#91,.T.);
#93=ORIENTED_EDGE('',*,*,#92,.T.);
#94=ORIENTED_EDGE('',*,*,#65,.F.);
#95=VECTOR('',#15,2.8);
#96=CARTESIAN_POINT('',(-0.7361,0.425,-1.8));
#97=LINE('',#96,#95);
#98=EDGE_CURVE('',#19,#27,#97,.T.);
#99=ORIENTED_EDGE('',*,*,#98,.F.);
#100=EDGE_LOOP('',(#88,#93,#94,#99));
#101=FACE_OUTER_BOUND('',#100,.T.);
#102=CARTESIAN_POINT('',(-0.7361,0.425,-1.8));
#103=DIRECTION('',(0.,-1.,0.));
#104=AXIS2_PLACEMENT_3D('',#102,#103,#16);
#105=PLANE('',#104);
#106=ADVANCED_FACE('',(#101),#105,.T.);
#107=VECTOR('',#15,2.8);
#108=CARTESIAN_POINT('',(-0.7361,0.85,-1.8));
#109=LINE('',#108,#107);
#110=EDGE_CURVE('',#23,#31,#109,.T.);
#111=ORIENTED_EDGE('',*,*,#110,.T.);
#112=ORIENTED_EDGE('',*,*,#75,.T.);
#113=VECTOR('',#15,2.8);
#114=CARTESIAN_POINT('',(0.7361,0.85,-1.8));
#115=LINE('',#114,#113);
#116=EDGE_CURVE('',#25,#33,#115,.T.);
#117=ORIENTED_EDGE('',*,*,#116,.F.);
#118=ORIENTED_EDGE('',*,*,#43,.F.);
#119=EDGE_LOOP('',(#111,#112,#117,#118));
#120=FACE_OUTER_BOUND('',#119,.T.);
#121=CARTESIAN_POINT('',(-0.7361,0.85,-1.8));
#122=AXIS2_PLACEMENT_3D('',#121,#34,#16);
#123=PLANE('',#122);
#124=ADVANCED_FACE('',(#120),#123,.T.);
#125=ORIENTED_EDGE('',*,*,#98,.T.);
#126=ORIENTED_EDGE('',*,*,#80,.T.);
#127=ORIENTED_EDGE('',*,*,#110,.F.);
#128=ORIENTED_EDGE('',*,*,#38,.F.);
#129=EDGE_LOOP('',(#125,#126,#127,#128));
#130=FACE_OUTER_BOUND('',#129,.T.);
#131=CARTESIAN_POINT('',(-0.7361,0.425,-1.8));
#132=DIRECTION('',(-1.,0.,0.));
#133=AXIS2_PLACEMENT_3D('',#131,#132,#34);
#134=PLANE('',#133);
#135=ADVANCED_FACE('',(#130),#134,.T.);
#136=ORIENTED_EDGE('',*,*,#48,.T.);
#137=ORIENTED_EDGE('',*,*,#116,.T.);
#138=ORIENTED_EDGE('',*,*,#70,.F.);
#139=ORIENTED_EDGE('',*,*,#92,.F.);
#140=EDGE_LOOP('',(#136,#137,#138,#139));
#141=FACE_OUTER_BOUND('',#140,.T.);
#142=CARTESIAN_POINT('',(0.7361,0.425,-1.8));
#143=AXIS2_PLACEMENT_3D('',#142,#16,#34);
#144=PLANE('',#143);
#145=ADVANCED_FACE('',(#141),#144,.T.);
#146=CLOSED_SHELL('',(#61,#87,#106,#124,#135,#145));
#147=MANIFOLD_SOLID_BREP('Core_0_0',#146);
#148=COLOUR_RGB('',0.85,0.68,0.2);
#149=FILL_AREA_STYLE_COLOUR('',#148);
#150=FILL_AREA_STYLE('',(#149));
#151=SURFACE_STYLE_FILL_AREA(#150);
#152=SURFACE_SIDE_STYLE('',(#151));
#153=SURFACE_STYLE_USAGE(.BOTH.,#152);
#154=PRESENTATION_STYLE_ASSIGNMENT((#153));
#155=STYLED_ITEM('color',(#154),#147);
#156=CARTESIAN_POINT('',(-0.85,-0.,-1.8));
#157=VERTEX_POINT('',#156);
#158=CARTESIAN_POINT('',(0.85,-0.,-1.8));
#159=VERTEX_POINT('',#158);
#160=CARTESIAN_POINT('',(-0.85,0.425,-1.8));
#161=VERTEX_POINT('',#160);
#162=CARTESIAN_POINT('',(0.85,0.425,-1.8));
#163=VERTEX_POINT('',#162);
#164=CARTESIAN_POINT('',(-0.85,-0.,1.));
#165=VERTEX_POINT('',#164);
#166=CARTESIAN_POINT('',(0.85,-0.,1.));
#167=VERTEX_POINT('',#166);
#168=CARTESIAN_POINT('',(-0.85,0.425,1.));
#169=VERTEX_POINT('',#168);
#170=CARTESIAN_POINT('',(0.85,0.425,1.));
#171=VERTEX_POINT('',#170);
#172=VECTOR('',#34,0.425);
#173=CARTESIAN_POINT('',(-0.85,-0.,-1.8));
#174=LINE('',#173,#172);
#175=EDGE_CURVE('',#157,#161,#174,.T.);
#176=ORIENTED_EDGE('',*,*,#175,.T.);
#177=VECTOR('',#16,1.7);
#178=CARTESIAN_POINT('',(-0.85,0.425,-1.8));
#179=LINE('',#178,#177);
#180=EDGE_CURVE('',#161,#163,#179,.T.);
#181=ORIENTED_EDGE('',*,*,#180,.T.);
#182=VECTOR('',#34,0.425);
#183=CARTESIAN_POINT('',(0.85,-0.,-1.8));
#184=LINE('',#183,#182);
#185=EDGE_CURVE('',#159,#163,#184,.T.);
#186=ORIENTED_EDGE('',*,*,#185,.F.);
#187=VECTOR('',#16,1.7);
#188=CARTESIAN_POINT('',(-0.85,-0.,-1.8));
#189=LINE('',#188,#187);
#190=EDGE_CURVE('',#157,#159,#189,.T.);
#191=ORIENTED_EDGE('',*,*,#190,.F.);
#192=EDGE_LOOP('',(#176,#181,#186,#191));
#193=FACE_OUTER_BOUND('',#192,.T.);
#194=CARTESIAN_POINT('',(-0.85,-0.,-1.8));
#195=AXIS2_PLACEMENT_3D('',#194,#58,#16);
#196=PLANE('',#195);
#197=ADVANCED_FACE('',(#193),#196,.T.);
#198=VECTOR('',#16,1.7);
#199=CARTESIAN_POINT('',(-0.85,-0.,1.));
#200=LINE('',#199,#198);
#201=EDGE_CURVE('',#165,#167,#200,.T.);
#202=ORIENTED_EDGE('',*,*,#201,.T.);
#203=VECTOR('',#34,0.425);
#204=CARTESIAN_POINT('',(0.85,-0.,1.));
#205=LINE('',#204,#203);
#206=EDGE_CURVE('',#167,#171,#205,.T.);
#207=ORIENTED_EDGE('',*,*,#206,.T.);
#208=VECTOR('',#16,1.7);
#209=CARTESIAN_POINT('',(-0.85,0.425,1.));
#210=LINE('',#209,#208);
#211=EDGE_CURVE('',#169,#171,#210,.T.);
#212=ORIENTED_EDGE('',*,*,#211,.F.);
#213=VECTOR('',#34,0.425);
#214=CARTESIAN_POINT('',(-0.85,-0.,1.));
#215=LINE('',#214,#213);
#216=EDGE_CURVE('',#165,#169,#215,.T.);
#217=ORIENTED_EDGE('',*,*,#216,.F.);
#218=EDGE_LOOP('',(#202,#207,#212,#217));
#219=FACE_OUTER_BOUND('',#218,.T.);
#220=CARTESIAN_POINT('',(-0.85,-0.,1.));
#221=AXIS2_PLACEMENT_3D('',#220,#15,#16);
#222=PLANE('',#221);
#223=ADVANCED_FACE('',(#219),#222,.T.);
#224=ORIENTED_EDGE('',*,*,#190,.T.);
#225=VECTOR('',#15,2.8);
#226=CARTESIAN_POINT('',(0.85,-0.,-1.8));
#227=LINE('',#226,#225);
#228=EDGE_CURVE('',#159,#167,#227,.T.);
#229=ORIENTED_EDGE('',*,*,#228,.T.);
#230=ORIENTED_EDGE('',*,*,#201,.F.);
#231=VECTOR('',#15,2.8);
#232=CARTESIAN_POINT('',(-0.85,-0.,-1.8));
#233=LINE('',#232,#231);
#234=EDGE_CURVE('',#157,#165,#233,.T.);
#235=ORIENTED_EDGE('',*,*,#234,.F.);
#236=EDGE_LOOP('',(#224,#229,#230,#235));
#237=FACE_OUTER_BOUND('',#236,.T.);
#238=CARTESIAN_POINT('',(-0.85,-0.,-1.8));
#239=AXIS2_PLACEMENT_3D('',#238,#103,#16);
#240=PLANE('',#239);
#241=ADVANCED_FACE('',(#237),#240,.T.);
#242=VECTOR('',#15,2.8);
#243=CARTESIAN_POINT('',(-0.85,0.425,-1.8));
#244=LINE('',#243,#242);
#245=EDGE_CURVE('',#161,#169,#244,.T.);
#246=ORIENTED_EDGE('',*,*,#245,.T.);
#247=ORIENTED_EDGE('',*,*,#211,.T.);
#248=VECTOR('',#15,2.8);
#249=CARTESIAN_POINT('',(0.85,0.425,-1.8));
#250=LINE('',#249,#248);
#251=EDGE_CURVE('',#163,#171,#250,.T.);
#252=ORIENTED_EDGE('',*,*,#251,.F.);
#253=ORIENTED_EDGE('',*,*,#180,.F.);
#254=EDGE_LOOP('',(#246,#247,#252,#253));
#255=FACE_OUTER_BOUND('',#254,.T.);
#256=CARTESIAN_POINT('',(-0.85,0.425,-1.8));
#257=AXIS2_PLACEMENT_3D('',#256,#34,#16);
#258=PLANE('',#257);
#259=ADVANCED_FACE('',(#255),#258,.T.);
#260=ORIENTED_EDGE('',*,*,#234,.T.);
#261=ORIENTED_EDGE('',*,*,#216,.T.);
#262=ORIENTED_EDGE('',*,*,#245,.F.);
#263=ORIENTED_EDGE('',*,*,#175,.F.);
#264=EDGE_LOOP('',(#260,#261,#262,#263));
#265=FACE_OUTER_BOUND('',#264,.T.);
#266=CARTESIAN_POINT('',(-0.85,-0.,-1.8));
#267=AXIS2_PLACEMENT_3D('',#266,#132,#34);
#268=PLANE('',#267);
#269=ADVANCED_FACE('',(#265),#268,.T.);
#270=ORIENTED_EDGE('',*,*,#185,.T.);
#271=ORIENTED_EDGE('',*,*,#251,.T.);
#272=ORIENTED_EDGE('',*,*,#206,.F.);
#273=ORIENTED_EDGE('',*,*,#228,.F.);
#274=EDGE_LOOP('',(#270,#271,#272,#273));
#275=FACE_OUTER_BOUND('',#274,.T.);
#276=CARTESIAN_POINT('',(0.85,-0.,-1.8));
#277=AXIS2_PLACEMENT_3D('',#276,#16,#34);
#278=PLANE('',#277);
#279=ADVANCED_FACE('',(#275),#278,.T.);
#280=CLOSED_SHELL('',(#197,#223,#241,#259,#269,#279));
#281=MANIFOLD_SOLID_BREP('Core_0_1',#280);
#282=STYLED_ITEM('color',(#154),#281);
#283=CARTESIAN_POINT('',(-0.85,-0.425,-1.8));
#284=VERTEX_POINT('',#283);
#285=CARTESIAN_POINT('',(0.85,-0.425,-1.8));
#286=VERTEX_POINT('',#285);
#287=CARTESIAN_POINT('',(-0.85,-0.,-1.8));
#288=VERTEX_POINT('',#287);
#289=CARTESIAN_POINT('',(0.85,-0.,-1.8));
#290=VERTEX_POINT('',#289);
#291=CARTESIAN_POINT('',(-0.85,-0.425,1.));
#292=VERTEX_POINT('',#291);
#293=CARTESIAN_POINT('',(0.85,-0.425,1.));
#294=VERTEX_POINT('',#293);
#295=CARTESIAN_POINT('',(-0.85,-0.,1.));
#296=VERTEX_POINT('',#295);
#297=CARTESIAN_POINT('',(0.85,-0.,1.));
#298=VERTEX_POINT('',#297);
#299=VECTOR('',#34,0.425);
#300=CARTESIAN_POINT('',(-0.85,-0.425,-1.8));
#301=LINE('',#300,#299);
#302=EDGE_CURVE('',#284,#288,#301,.T.);
#303=ORIENTED_EDGE('',*,*,#302,.T.);
#304=VECTOR('',#16,1.7);
#305=CARTESIAN_POINT('',(-0.85,-0.,-1.8));
#306=LINE('',#305,#304);
#307=EDGE_CURVE('',#288,#290,#306,.T.);
#308=ORIENTED_EDGE('',*,*,#307,.T.);
#309=VECTOR('',#34,0.425);
#310=CARTESIAN_POINT('',(0.85,-0.425,-1.8));
#311=LINE('',#310,#309);
#312=EDGE_CURVE('',#286,#290,#311,.T.);
#313=ORIENTED_EDGE('',*,*,#312,.F.);
#314=VECTOR('',#16,1.7);
#315=CARTESIAN_POINT('',(-0.85,-0.425,-1.8));
#316=LINE('',#315,#314);
#317=EDGE_CURVE('',#284,#286,#316,.T.);
#318=ORIENTED_EDGE('',*,*,#317,.F.);
#319=EDGE_LOOP('',(#303,#308,#313,#318));
#320=FACE_OUTER_BOUND('',#319,.T.);
#321=CARTESIAN_POINT('',(-0.85,-0.425,-1.8));
#322=AXIS2_PLACEMENT_3D('',#321,#58,#16);
#323=PLANE('',#322);
#324=ADVANCED_FACE('',(#320),#323,.T.);
#325=VECTOR('',#16,1.7);
#326=CARTESIAN_POINT('',(-0.85,-0.425,1.));
#327=LINE('',#326,#325);
#328=EDGE_CURVE('',#292,#294,#327,.T.);
#329=ORIENTED_EDGE('',*,*,#328,.T.);
#330=VECTOR('',#34,0.425);
#331=CARTESIAN_POINT('',(0.85,-0.425,1.));
#332=LINE('',#331,#330);
#333=EDGE_CURVE('',#294,#298,#332,.T.);
#334=ORIENTED_EDGE('',*,*,#333,.T.);
#335=VECTOR('',#16,1.7);
#336=CARTESIAN_POINT('',(-0.85,-0.,1.));
#337=LINE('',#336,#335);
#338=EDGE_CURVE('',#296,#298,#337,.T.);
#339=ORIENTED_EDGE('',*,*,#338,.F.);
#340=VECTOR('',#34,0.425);
#341=CARTESIAN_POINT('',(-0.85,-0.425,1.));
#342=LINE('',#341,#340);
#343=EDGE_CURVE('',#292,#296,#342,.T.);
#344=ORIENTED_EDGE('',*,*,#343,.F.);
#345=EDGE_LOOP('',(#329,#334,#339,#344));
#346=FACE_OUTER_BOUND('',#345,.T.);
#347=CARTESIAN_POINT('',(-0.85,-0.425,1.));
#348=AXIS2_PLACEMENT_3D('',#347,#15,#16);
#349=PLANE('',#348);
#350=ADVANCED_FACE('',(#346),#349,.T.);
#351=ORIENTED_EDGE('',*,*,#317,.T.);
#352=VECTOR('',#15,2.8);
#353=CARTESIAN_POINT('',(0.85,-0.425,-1.8));
#354=LINE('',#353,#352);
#355=EDGE_CURVE('',#286,#294,#354,.T.);
#356=ORIENTED_EDGE('',*,*,#355,.T.);
#357=ORIENTED_EDGE('',*,*,#328,.F.);
#358=VECTOR('',#15,2.8);
#359=CARTESIAN_POINT('',(-0.85,-0.425,-1.8));
#360=LINE('',#359,#358);
#361=EDGE_CURVE('',#284,#292,#360,.T.);
#362=ORIENTED_EDGE('',*,*,#361,.F.);
#363=EDGE_LOOP('',(#351,#356,#357,#362));
#364=FACE_OUTER_BOUND('',#363,.T.);
#365=CARTESIAN_POINT('',(-0.85,-0.425,-1.8));
#366=AXIS2_PLACEMENT_3D('',#365,#103,#16);
#367=PLANE('',#366);
#368=ADVANCED_FACE('',(#364),#367,.T.);
#369=VECTOR('',#15,2.8);
#370=CARTESIAN_POINT('',(-0.85,-0.,-1.8));
#371=LINE('',#370,#369);
#372=EDGE_CURVE('',#288,#296,#371,.T.);
#373=ORIENTED_EDGE('',*,*,#372,.T.);
#374=ORIENTED_EDGE('',*,*,#338,.T.);
#375=VECTOR('',#15,2.8);
#376=CARTESIAN_POINT('',(0.85,-0.,-1.8));
#377=LINE('',#376,#375);
#378=EDGE_CURVE('',#290,#298,#377,.T.);
#379=ORIENTED_EDGE('',*,*,#378,.F.);
#380=ORIENTED_EDGE('',*,*,#307,.F.);
#381=EDGE_LOOP('',(#373,#374,#379,#380));
#382=FACE_OUTER_BOUND('',#381,.T.);
#383=CARTESIAN_POINT('',(-0.85,-0.,-1.8));
#384=AXIS2_PLACEMENT_3D('',#383,#34,#16);
#385=PLANE('',#384);
#386=ADVANCED_FACE('',(#382),#385,.T.);
#387=ORIENTED_EDGE('',*,*,#361,.T.);
#388=ORIENTED_EDGE('',*,*,#343,.T.);
#389=ORIENTED_EDGE('',*,*,#372,.F.);
#390=ORIENTED_EDGE('',*,*,#302,.F.);
#391=EDGE_LOOP('',(#387,#388,#389,#390));
#392=FACE_OUTER_BOUND('',#391,.T.);
#393=CARTESIAN_POINT('',(-0.85,-0.425,-1.8));
#394=AXIS2_PLACEMENT_3D('',#393,#132,#34);
#395=PLANE('',#394);
#396=ADVANCED_FACE('',(#392),#395,.T.);
#397=ORIENTED_EDGE('',*,*,#312,.T.);
#398=ORIENTED_EDGE('',*,*,#378,.T.);
#399=ORIENTED_EDGE('',*,*,#333,.F.);
#400=ORIENTED_EDGE('',*,*,#355,.F.);
#401=EDGE_LOOP('',(#397,#398,#399,#400));
#402=FACE_OUTER_BOUND('',#401,.T.);
#403=CARTESIAN_POINT('',(0.85,-0.425,-1.8));
#404=AXIS2_PLACEMENT_3D('',#403,#16,#34);
#405=PLANE('',#404);
#406=ADVANCED_FACE('',(#402),#405,.T.);
#407=CLOSED_SHELL('',(#324,#350,#368,#386,#396,#406));
#408=MANIFOLD_SOLID_BREP('Core_0_2',#407);
#409=STYLED_ITEM('color',(#154),#408);
#410=CARTESIAN_POINT('',(-0.7361,-0.85,-1.8));
#411=VERTEX_POINT('',#410);
#412=CARTESIAN_POINT('',(0.7361,-0.85,-1.8));
#413=VERTEX_POINT('',#412);
#414=CARTESIAN_POINT('',(-0.7361,-0.425,-1.8));
#415=VERTEX_POINT('',#414);
#416=CARTESIAN_POINT('',(0.7361,-0.425,-1.8));
#417=VERTEX_POINT('',#416);
#418=CARTESIAN_POINT('',(-0.7361,-0.85,1.));
#419=VERTEX_POINT('',#418);
#420=CARTESIAN_POINT('',(0.7361,-0.85,1.));
#421=VERTEX_POINT('',#420);
#422=CARTESIAN_POINT('',(-0.7361,-0.425,1.));
#423=VERTEX_POINT('',#422);
#424=CARTESIAN_POINT('',(0.7361,-0.425,1.));
#425=VERTEX_POINT('',#424);
#426=VECTOR('',#34,0.425);
#427=CARTESIAN_POINT('',(-0.7361,-0.85,-1.8));
#428=LINE('',#427,#426);
#429=EDGE_CURVE('',#411,#415,#428,.T.);
#430=ORIENTED_EDGE('',*,*,#429,.T.);
#431=VECTOR('',#16,1.4722);
#432=CARTESIAN_POINT('',(-0.7361,-0.425,-1.8));
#433=LINE('',#432,#431);
#434=EDGE_CURVE('',#415,#417,#433,.T.);
#435=ORIENTED_EDGE('',*,*,#434,.T.);
#436=VECTOR('',#34,0.425);
#437=CARTESIAN_POINT('',(0.7361,-0.85,-1.8));
#438=LINE('',#437,#436);
#439=EDGE_CURVE('',#413,#417,#438,.T.);
#440=ORIENTED_EDGE('',*,*,#439,.F.);
#441=VECTOR('',#16,1.4722);
#442=CARTESIAN_POINT('',(-0.7361,-0.85,-1.8));
#443=LINE('',#442,#441);
#444=EDGE_CURVE('',#411,#413,#443,.T.);
#445=ORIENTED_EDGE('',*,*,#444,.F.);
#446=EDGE_LOOP('',(#430,#435,#440,#445));
#447=FACE_OUTER_BOUND('',#446,.T.);
#448=CARTESIAN_POINT('',(-0.7361,-0.85,-1.8));
#449=AXIS2_PLACEMENT_3D('',#448,#58,#16);
#450=PLANE('',#449);
#451=ADVANCED_FACE('',(#447),#450,.T.);
#452=VECTOR('',#16,1.4722);
#453=CARTESIAN_POINT('',(-0.7361,-0.85,1.));
#454=LINE('',#453,#452);
#455=EDGE_CURVE('',#419,#421,#454,.T.);
#456=ORIENTED_EDGE('',*,*,#455,.T.);
#457=VECTOR('',#34,0.425);
#458=CARTESIAN_POINT('',(0.7361,-0.85,1.));
#459=LINE('',#458,#457);
#460=EDGE_CURVE('',#421,#425,#459,.T.);
#461=ORIENTED_EDGE('',*,*,#460,.T.);
#462=VECTOR('',#16,1.4722);
#463=CARTESIAN_POINT('',(-0.7361,-0.425,1.));
#464=LINE('',#463,#462);
#465=EDGE_CURVE('',#423,#425,#464,.T.);
#466=ORIENTED_EDGE('',*,*,#465,.F.);
#467=VECTOR('',#34,0.425);
#468=CARTESIAN_POINT('',(-0.7361,-0.85,1.));
#469=LINE('',#468,#467);
#470=EDGE_CURVE('',#419,#423,#469,.T.);
#471=ORIENTED_EDGE('',*,*,#470,.F.);
#472=EDGE_LOOP('',(#456,#461,#466,#471));
#473=FACE_OUTER_BOUND('',#472,.T.);
#474=CARTESIAN_POINT('',(-0.7361,-0.85,1.));
#475=AXIS2_PLACEMENT_3D('',#474,#15,#16);
#476=PLANE('',#475);
#477=ADVANCED_FACE('',(#473),#476,.T.);
#478=ORIENTED_EDGE('',*,*,#444,.T.);
#479=VECTOR('',#15,2.8);
#480=CARTESIAN_POINT('',(0.7361,-0.85,-1.8));
#481=LINE('',#480,#479);
#482=EDGE_CURVE('',#413,#421,#481,.T.);
#483=ORIENTED_EDGE('',*,*,#482,.T.);
#484=ORIENTED_EDGE('',*,*,#455,.F.);
#485=VECTOR('',#15,2.8);
#486=CARTESIAN_POINT('',(-0.7361,-0.85,-1.8));
#487=LINE('',#486,#485);
#488=EDGE_CURVE('',#411,#419,#487,.T.);
#489=ORIENTED_EDGE('',*,*,#488,.F.);
#490=EDGE_LOOP('',(#478,#483,#484,#489));
#491=FACE_OUTER_BOUND('',#490,.T.);
#492=CARTESIAN_POINT('',(-0.7361,-0.85,-1.8));
#493=AXIS2_PLACEMENT_3D('',#492,#103,#16);
#494=PLANE('',#493);
#495=ADVANCED_FACE('',(#491),#494,.T.);
#496=VECTOR('',#15,2.8);
#497=CARTESIAN_POINT('',(-0.7361,-0.425,-1.8));
#498=LINE('',#497,#496);
#499=EDGE_CURVE('',#415,#423,#498,.T.);
#500=ORIENTED_EDGE('',*,*,#499,.T.);
#501=ORIENTED_EDGE('',*,*,#465,.T.);
#502=VECTOR('',#15,2.8);
#503=CARTESIAN_POINT('',(0.7361,-0.425,-1.8));
#504=LINE('',#503,#502);
#505=EDGE_CURVE('',#417,#425,#504,.T.);
#506=ORIENTED_EDGE('',*,*,#505,.F.);
#507=ORIENTED_EDGE('',*,*,#434,.F.);
#508=EDGE_LOOP('',(#500,#501,#506,#507));
#509=FACE_OUTER_BOUND('',#508,.T.);
#510=CARTESIAN_POINT('',(-0.7361,-0.425,-1.8));
#511=AXIS2_PLACEMENT_3D('',#510,#34,#16);
#512=PLANE('',#511);
#513=ADVANCED_FACE('',(#509),#512,.T.);
#514=ORIENTED_EDGE('',*,*,#488,.T.);
#515=ORIENTED_EDGE('',*,*,#470,.T.);
#516=ORIENTED_EDGE('',*,*,#499,.F.);
#517=ORIENTED_EDGE('',*,*,#429,.F.);
#518=EDGE_LOOP('',(#514,#515,#516,#517));
#519=FACE_OUTER_BOUND('',#518,.T.);
#520=CARTESIAN_POINT('',(-0.7361,-0.85,-1.8));
#521=AXIS2_PLACEMENT_3D('',#520,#132,#34);
#522=PLANE('',#521);
#523=ADVANCED_FACE('',(#519),#522,.T.);
#524=ORIENTED_EDGE('',*,*,#439,.T.);
#525=ORIENTED_EDGE('',*,*,#505,.T.);
#526=ORIENTED_EDGE('',*,*,#460,.F.);
#527=ORIENTED_EDGE('',*,*,#482,.F.);
#528=EDGE_LOOP('',(#524,#525,#526,#527));
#529=FACE_OUTER_BOUND('',#528,.T.);
#530=CARTESIAN_POINT('',(0.7361,-0.85,-1.8));
#531=AXIS2_PLACEMENT_3D('',#530,#16,#34);
#532=PLANE('',#531);
#533=ADVANCED_FACE('',(#529),#532,.T.);
#534=CLOSED_SHELL('',(#451,#477,#495,#513,#523,#533));
#535=MANIFOLD_SOLID_BREP('Core_0_3',#534);
#536=STYLED_ITEM('color',(#154),#535);
#537=CARTESIAN_POINT('',(-1.4534,1.3,1.));
#538=VERTEX_POINT('',#537);
#539=CARTESIAN_POINT('',(1.4534,1.3,1.));
#540=VERTEX_POINT('',#539);
#541=CARTESIAN_POINT('',(-1.4534,1.95,1.));
#542=VERTEX_POINT('',#541);
#543=CARTESIAN_POINT('',(1.4534,1.95,1.));
#544=VERTEX_POINT('',#543);
#545=CARTESIAN_POINT('',(-1.4534,1.3,10.));
#546=VERTEX_POINT('',#545);
#547=CARTESIAN_POINT('',(1.4534,1.3,10.));
#548=VERTEX_POINT('',#547);
#549=CARTESIAN_POINT('',(-1.4534,1.95,10.));
#550=VERTEX_POINT('',#549);
#551=CARTESIAN_POINT('',(1.4534,1.95,10.));
#552=VERTEX_POINT('',#551);
#553=VECTOR('',#34,0.65);
#554=CARTESIAN_POINT('',(-1.4534,1.3,1.));
#555=LINE('',#554,#553);
#556=EDGE_CURVE('',#538,#542,#555,.T.);
#557=ORIENTED_EDGE('',*,*,#556,.T.);
#558=VECTOR('',#16,2.9069);
#559=CARTESIAN_POINT('',(-1.4534,1.95,1.));
#560=LINE('',#559,#558);
#561=EDGE_CURVE('',#542,#544,#560,.T.);
#562=ORIENTED_EDGE('',*,*,#561,.T.);
#563=VECTOR('',#34,0.65);
#564=CARTESIAN_POINT('',(1.4534,1.3,1.));
#565=LINE('',#564,#563);
#566=EDGE_CURVE('',#540,#544,#565,.T.);
#567=ORIENTED_EDGE('',*,*,#566,.F.);
#568=VECTOR('',#16,2.9069);
#569=CARTESIAN_POINT('',(-1.4534,1.3,1.));
#570=LINE('',#569,#568);
#571=EDGE_CURVE('',#538,#540,#570,.T.);
#572=ORIENTED_EDGE('',*,*,#571,.F.);
#573=EDGE_LOOP('',(#557,#562,#567,#572));
#574=FACE_OUTER_BOUND('',#573,.T.);
#575=CARTESIAN_POINT('',(-1.4534,1.3,1.));
#576=AXIS2_PLACEMENT_3D('',#575,#58,#16);
#577=PLANE('',#576);
#578=ADVANCED_FACE('',(#574),#577,.T.);
#579=VECTOR('',#16,2.9069);
#580=CARTESIAN_POINT('',(-1.4534,1.3,10.));
#581=LINE('',#580,#579);
#582=EDGE_CURVE('',#546,#548,#581,.T.);
#583=ORIENTED_EDGE('',*,*,#582,.T.);
#584=VECTOR('',#34,0.65);
#585=CARTESIAN_POINT('',(1.4534,1.3,10.));
#586=LINE('',#585,#584);
#587=EDGE_CURVE('',#548,#552,#586,.T.);
#588=ORIENTED_EDGE('',*,*,#587,.T.);
#589=VECTOR('',#16,2.9069);
#590=CARTESIAN_POINT('',(-1.4534,1.95,10.));
#591=LINE('',#590,#589);
#592=EDGE_CURVE('',#550,#552,#591,.T.);
#593=ORIENTED_EDGE('',*,*,#592,.F.);
#594=VECTOR('',#34,0.65);
#595=CARTESIAN_POINT('',(-1.4534,1.3,10.));
#596=LINE('',#595,#594);
#597=EDGE_CURVE('',#546,#550,#596,.T.);
#598=ORIENTED_EDGE('',*,*,#597,.F.);
#599=EDGE_LOOP('',(#583,#588,#593,#598));
#600=FACE_OUTER_BOUND('',#599,.T.);
#601=CARTESIAN_POINT('',(-1.4534,1.3,10.));
#602=AXIS2_PLACEMENT_3D('',#601,#15,#16);
#603=PLANE('',#602);
#604=ADVANCED_FACE('',(#600),#603,.T.);
#605=ORIENTED_EDGE('',*,*,#571,.T.);
#606=VECTOR('',#15,9.);
#607=CARTESIAN_POINT('',(1.4534,1.3,1.));
#608=LINE('',#607,#606);
#609=EDGE_CURVE('',#540,#548,#608,.T.);
#610=ORIENTED_EDGE('',*,*,#609,.T.);
#611=ORIENTED_EDGE('',*,*,#582,.F.);
#612=VECTOR('',#15,9.);
#613=CARTESIAN_POINT('',(-1.4534,1.3,1.));
#614=LINE('',#613,#612);
#615=EDGE_CURVE('',#538,#546,#614,.T.);
#616=ORIENTED_EDGE('',*,*,#615,.F.);
#617=EDGE_LOOP('',(#605,#610,#611,#616));
#618=FACE_OUTER_BOUND('',#617,.T.);
#619=CARTESIAN_POINT('',(-1.4534,1.3,1.));
#620=AXIS2_PLACEMENT_3D('',#619,#103,#16);
#621=PLANE('',#620);
#622=ADVANCED_FACE('',(#618),#621,.T.);
#623=VECTOR('',#15,9.);
#624=CARTESIAN_POINT('',(-1.4534,1.95,1.));
#625=LINE('',#624,#623);
#626=EDGE_CURVE('',#542,#550,#625,.T.);
#627=ORIENTED_EDGE('',*,*,#626,.T.);
#628=ORIENTED_EDGE('',*,*,#592,.T.);
#629=VECTOR('',#15,9.);
#630=CARTESIAN_POINT('',(1.4534,1.95,1.));
#631=LINE('',#630,#629);
#632=EDGE_CURVE('',#544,#552,#631,.T.);
#633=ORIENTED_EDGE('',*,*,#632,.F.);
#634=ORIENTED_EDGE('',*,*,#561,.F.);
#635=EDGE_LOOP('',(#627,#628,#633,#634));
#636=FACE_OUTER_BOUND('',#635,.T.);
#637=CARTESIAN_POINT('',(-1.4534,1.95,1.));
#638=AXIS2_PLACEMENT_3D('',#637,#34,#16);
#639=PLANE('',#638);
#640=ADVANCED_FACE('',(#636),#639,.T.);
#641=ORIENTED_EDGE('',*,*,#615,.T.);
#642=ORIENTED_EDGE('',*,*,#597,.T.);
#643=ORIENTED_EDGE('',*,*,#626,.F.);
#644=ORIENTED_EDGE('',*,*,#556,.F.);
#645=EDGE_LOOP('',(#641,#642,#643,#644));
#646=FACE_OUTER_BOUND('',#645,.T.);
#647=CARTESIAN_POINT('',(-1.4534,1.3,1.));
#648=AXIS2_PLACEMENT_3D('',#647,#132,#34);
#649=PLANE('',#648);
#650=ADVANCED_FACE('',(#646),#649,.T.);
#651=ORIENTED_EDGE('',*,*,#566,.T.);
#652=ORIENTED_EDGE('',*,*,#632,.T.);
#653=ORIENTED_EDGE('',*,*,#587,.F.);
#654=ORIENTED_EDGE('',*,*,#609,.F.);
#655=EDGE_LOOP('',(#651,#652,#653,#654));
#656=FACE_OUTER_BOUND('',#655,.T.);
#657=CARTESIAN_POINT('',(1.4534,1.3,1.));
#658=AXIS2_PLACEMENT_3D('',#657,#16,#34);
#659=PLANE('',#658);
#660=ADVANCED_FACE('',(#656),#659,.T.);
#661=CLOSED_SHELL('',(#578,#604,#622,#640,#650,#660));
#662=MANIFOLD_SOLID_BREP('Insul_0_0',#661);
#663=COLOUR_RGB('',0.75,0.1,0.1);
#664=FILL_AREA_STYLE_COLOUR('',#663);
#665=FILL_AREA_STYLE('',(#664));
#666=SURFACE_STYLE_FILL_AREA(#665);
#667=SURFACE_SIDE_STYLE('',(#666));
#668=SURFACE_STYLE_USAGE(.BOTH.,#667);
#669=PRESENTATION_STYLE_ASSIGNMENT((#668));
#670=STYLED_ITEM('color',(#669),#662);
#671=CARTESIAN_POINT('',(-1.8385,0.65,1.));
#672=VERTEX_POINT('',#671);
#673=CARTESIAN_POINT('',(1.8385,0.65,1.));
#674=VERTEX_POINT('',#673);
#675=CARTESIAN_POINT('',(-1.8385,1.3,1.));
#676=VERTEX_POINT('',#675);
#677=CARTESIAN_POINT('',(1.8385,1.3,1.));
#678=VERTEX_POINT('',#677);
#679=CARTESIAN_POINT('',(-1.8385,0.65,10.));
#680=VERTEX_POINT('',#679);
#681=CARTESIAN_POINT('',(1.8385,0.65,10.));
#682=VERTEX_POINT('',#681);
#683=CARTESIAN_POINT('',(-1.8385,1.3,10.));
#684=VERTEX_POINT('',#683);
#685=CARTESIAN_POINT('',(1.8385,1.3,10.));
#686=VERTEX_POINT('',#685);
#687=VECTOR('',#34,0.65);
#688=CARTESIAN_POINT('',(-1.8385,0.65,1.));
#689=LINE('',#688,#687);
#690=EDGE_CURVE('',#672,#676,#689,.T.);
#691=ORIENTED_EDGE('',*,*,#690,.T.);
#692=VECTOR('',#16,3.677);
#693=CARTESIAN_POINT('',(-1.8385,1.3,1.));
#694=LINE('',#693,#692);
#695=EDGE_CURVE('',#676,#678,#694,.T.);
#696=ORIENTED_EDGE('',*,*,#695,.T.);
#697=VECTOR('',#34,0.65);
#698=CARTESIAN_POINT('',(1.8385,0.65,1.));
#699=LINE('',#698,#697);
#700=EDGE_CURVE('',#674,#678,#699,.T.);
#701=ORIENTED_EDGE('',*,*,#700,.F.);
#702=VECTOR('',#16,3.677);
#703=CARTESIAN_POINT('',(-1.8385,0.65,1.));
#704=LINE('',#703,#702);
#705=EDGE_CURVE('',#672,#674,#704,.T.);
#706=ORIENTED_EDGE('',*,*,#705,.F.);
#707=EDGE_LOOP('',(#691,#696,#701,#706));
#708=FACE_OUTER_BOUND('',#707,.T.);
#709=CARTESIAN_POINT('',(-1.8385,0.65,1.));
#710=AXIS2_PLACEMENT_3D('',#709,#58,#16);
#711=PLANE('',#710);
#712=ADVANCED_FACE('',(#708),#711,.T.);
#713=VECTOR('',#16,3.677);
#714=CARTESIAN_POINT('',(-1.8385,0.65,10.));
#715=LINE('',#714,#713);
#716=EDGE_CURVE('',#680,#682,#715,.T.);
#717=ORIENTED_EDGE('',*,*,#716,.T.);
#718=VECTOR('',#34,0.65);
#719=CARTESIAN_POINT('',(1.8385,0.65,10.));
#720=LINE('',#719,#718);
#721=EDGE_CURVE('',#682,#686,#720,.T.);
#722=ORIENTED_EDGE('',*,*,#721,.T.);
#723=VECTOR('',#16,3.677);
#724=CARTESIAN_POINT('',(-1.8385,1.3,10.));
#725=LINE('',#724,#723);
#726=EDGE_CURVE('',#684,#686,#725,.T.);
#727=ORIENTED_EDGE('',*,*,#726,.F.);
#728=VECTOR('',#34,0.65);
#729=CARTESIAN_POINT('',(-1.8385,0.65,10.));
#730=LINE('',#729,#728);
#731=EDGE_CURVE('',#680,#684,#730,.T.);
#732=ORIENTED_EDGE('',*,*,#731,.F.);
#733=EDGE_LOOP('',(#717,#722,#727,#732));
#734=FACE_OUTER_BOUND('',#733,.T.);
#735=CARTESIAN_POINT('',(-1.8385,0.65,10.));
#736=AXIS2_PLACEMENT_3D('',#735,#15,#16);
#737=PLANE('',#736);
#738=ADVANCED_FACE('',(#734),#737,.T.);
#739=ORIENTED_EDGE('',*,*,#705,.T.);
#740=VECTOR('',#15,9.);
#741=CARTESIAN_POINT('',(1.8385,0.65,1.));
#742=LINE('',#741,#740);
#743=EDGE_CURVE('',#674,#682,#742,.T.);
#744=ORIENTED_EDGE('',*,*,#743,.T.);
#745=ORIENTED_EDGE('',*,*,#716,.F.);
#746=VECTOR('',#15,9.);
#747=CARTESIAN_POINT('',(-1.8385,0.65,1.));
#748=LINE('',#747,#746);
#749=EDGE_CURVE('',#672,#680,#748,.T.);
#750=ORIENTED_EDGE('',*,*,#749,.F.);
#751=EDGE_LOOP('',(#739,#744,#745,#750));
#752=FACE_OUTER_BOUND('',#751,.T.);
#753=CARTESIAN_POINT('',(-1.8385,0.65,1.));
#754=AXIS2_PLACEMENT_3D('',#753,#103,#16);
#755=PLANE('',#754);
#756=ADVANCED_FACE('',(#752),#755,.T.);
#757=VECTOR('',#15,9.);
#758=CARTESIAN_POINT('',(-1.8385,1.3,1.));
#759=LINE('',#758,#757);
#760=EDGE_CURVE('',#676,#684,#759,.T.);
#761=ORIENTED_EDGE('',*,*,#760,.T.);
#762=ORIENTED_EDGE('',*,*,#726,.T.);
#763=VECTOR('',#15,9.);
#764=CARTESIAN_POINT('',(1.8385,1.3,1.));
#765=LINE('',#764,#763);
#766=EDGE_CURVE('',#678,#686,#765,.T.);
#767=ORIENTED_EDGE('',*,*,#766,.F.);
#768=ORIENTED_EDGE('',*,*,#695,.F.);
#769=EDGE_LOOP('',(#761,#762,#767,#768));
#770=FACE_OUTER_BOUND('',#769,.T.);
#771=CARTESIAN_POINT('',(-1.8385,1.3,1.));
#772=AXIS2_PLACEMENT_3D('',#771,#34,#16);
#773=PLANE('',#772);
#774=ADVANCED_FACE('',(#770),#773,.T.);
#775=ORIENTED_EDGE('',*,*,#749,.T.);
#776=ORIENTED_EDGE('',*,*,#731,.T.);
#777=ORIENTED_EDGE('',*,*,#760,.F.);
#778=ORIENTED_EDGE('',*,*,#690,.F.);
#779=EDGE_LOOP('',(#775,#776,#777,#778));
#780=FACE_OUTER_BOUND('',#779,.T.);
#781=CARTESIAN_POINT('',(-1.8385,0.65,1.));
#782=AXIS2_PLACEMENT_3D('',#781,#132,#34);
#783=PLANE('',#782);
#784=ADVANCED_FACE('',(#780),#783,.T.);
#785=ORIENTED_EDGE('',*,*,#700,.T.);
#786=ORIENTED_EDGE('',*,*,#766,.T.);
#787=ORIENTED_EDGE('',*,*,#721,.F.);
#788=ORIENTED_EDGE('',*,*,#743,.F.);
#789=EDGE_LOOP('',(#785,#786,#787,#788));
#790=FACE_OUTER_BOUND('',#789,.T.);
#791=CARTESIAN_POINT('',(1.8385,0.65,1.));
#792=AXIS2_PLACEMENT_3D('',#791,#16,#34);
#793=PLANE('',#792);
#794=ADVANCED_FACE('',(#790),#793,.T.);
#795=CLOSED_SHELL('',(#712,#738,#756,#774,#784,#794));
#796=MANIFOLD_SOLID_BREP('Insul_0_1',#795);
#797=STYLED_ITEM('color',(#669),#796);
#798=CARTESIAN_POINT('',(-1.95,-0.,1.));
#799=VERTEX_POINT('',#798);
#800=CARTESIAN_POINT('',(1.95,-0.,1.));
#801=VERTEX_POINT('',#800);
#802=CARTESIAN_POINT('',(-1.95,0.65,1.));
#803=VERTEX_POINT('',#802);
#804=CARTESIAN_POINT('',(1.95,0.65,1.));
#805=VERTEX_POINT('',#804);
#806=CARTESIAN_POINT('',(-1.95,-0.,10.));
#807=VERTEX_POINT('',#806);
#808=CARTESIAN_POINT('',(1.95,-0.,10.));
#809=VERTEX_POINT('',#808);
#810=CARTESIAN_POINT('',(-1.95,0.65,10.));
#811=VERTEX_POINT('',#810);
#812=CARTESIAN_POINT('',(1.95,0.65,10.));
#813=VERTEX_POINT('',#812);
#814=VECTOR('',#34,0.65);
#815=CARTESIAN_POINT('',(-1.95,-0.,1.));
#816=LINE('',#815,#814);
#817=EDGE_CURVE('',#799,#803,#816,.T.);
#818=ORIENTED_EDGE('',*,*,#817,.T.);
#819=VECTOR('',#16,3.9);
#820=CARTESIAN_POINT('',(-1.95,0.65,1.));
#821=LINE('',#820,#819);
#822=EDGE_CURVE('',#803,#805,#821,.T.);
#823=ORIENTED_EDGE('',*,*,#822,.T.);
#824=VECTOR('',#34,0.65);
#825=CARTESIAN_POINT('',(1.95,-0.,1.));
#826=LINE('',#825,#824);
#827=EDGE_CURVE('',#801,#805,#826,.T.);
#828=ORIENTED_EDGE('',*,*,#827,.F.);
#829=VECTOR('',#16,3.9);
#830=CARTESIAN_POINT('',(-1.95,-0.,1.));
#831=LINE('',#830,#829);
#832=EDGE_CURVE('',#799,#801,#831,.T.);
#833=ORIENTED_EDGE('',*,*,#832,.F.);
#834=EDGE_LOOP('',(#818,#823,#828,#833));
#835=FACE_OUTER_BOUND('',#834,.T.);
#836=CARTESIAN_POINT('',(-1.95,-0.,1.));
#837=AXIS2_PLACEMENT_3D('',#836,#58,#16);
#838=PLANE('',#837);
#839=ADVANCED_FACE('',(#835),#838,.T.);
#840=VECTOR('',#16,3.9);
#841=CARTESIAN_POINT('',(-1.95,-0.,10.));
#842=LINE('',#841,#840);
#843=EDGE_CURVE('',#807,#809,#842,.T.);
#844=ORIENTED_EDGE('',*,*,#843,.T.);
#845=VECTOR('',#34,0.65);
#846=CARTESIAN_POINT('',(1.95,-0.,10.));
#847=LINE('',#846,#845);
#848=EDGE_CURVE('',#809,#813,#847,.T.);
#849=ORIENTED_EDGE('',*,*,#848,.T.);
#850=VECTOR('',#16,3.9);
#851=CARTESIAN_POINT('',(-1.95,0.65,10.));
#852=LINE('',#851,#850);
#853=EDGE_CURVE('',#811,#813,#852,.T.);
#854=ORIENTED_EDGE('',*,*,#853,.F.);
#855=VECTOR('',#34,0.65);
#856=CARTESIAN_POINT('',(-1.95,-0.,10.));
#857=LINE('',#856,#855);
#858=EDGE_CURVE('',#807,#811,#857,.T.);
#859=ORIENTED_EDGE('',*,*,#858,.F.);
#860=EDGE_LOOP('',(#844,#849,#854,#859));
#861=FACE_OUTER_BOUND('',#860,.T.);
#862=CARTESIAN_POINT('',(-1.95,-0.,10.));
#863=AXIS2_PLACEMENT_3D('',#862,#15,#16);
#864=PLANE('',#863);
#865=ADVANCED_FACE('',(#861),#864,.T.);
#866=ORIENTED_EDGE('',*,*,#832,.T.);
#867=VECTOR('',#15,9.);
#868=CARTESIAN_POINT('',(1.95,-0.,1.));
#869=LINE('',#868,#867);
#870=EDGE_CURVE('',#801,#809,#869,.T.);
#871=ORIENTED_EDGE('',*,*,#870,.T.);
#872=ORIENTED_EDGE('',*,*,#843,.F.);
#873=VECTOR('',#15,9.);
#874=CARTESIAN_POINT('',(-1.95,-0.,1.));
#875=LINE('',#874,#873);
#876=EDGE_CURVE('',#799,#807,#875,.T.);
#877=ORIENTED_EDGE('',*,*,#876,.F.);
#878=EDGE_LOOP('',(#866,#871,#872,#877));
#879=FACE_OUTER_BOUND('',#878,.T.);
#880=CARTESIAN_POINT('',(-1.95,-0.,1.));
#881=AXIS2_PLACEMENT_3D('',#880,#103,#16);
#882=PLANE('',#881);
#883=ADVANCED_FACE('',(#879),#882,.T.);
#884=VECTOR('',#15,9.);
#885=CARTESIAN_POINT('',(-1.95,0.65,1.));
#886=LINE('',#885,#884);
#887=EDGE_CURVE('',#803,#811,#886,.T.);
#888=ORIENTED_EDGE('',*,*,#887,.T.);
#889=ORIENTED_EDGE('',*,*,#853,.T.);
#890=VECTOR('',#15,9.);
#891=CARTESIAN_POINT('',(1.95,0.65,1.));
#892=LINE('',#891,#890);
#893=EDGE_CURVE('',#805,#813,#892,.T.);
#894=ORIENTED_EDGE('',*,*,#893,.F.);
#895=ORIENTED_EDGE('',*,*,#822,.F.);
#896=EDGE_LOOP('',(#888,#889,#894,#895));
#897=FACE_OUTER_BOUND('',#896,.T.);
#898=CARTESIAN_POINT('',(-1.95,0.65,1.));
#899=AXIS2_PLACEMENT_3D('',#898,#34,#16);
#900=PLANE('',#899);
#901=ADVANCED_FACE('',(#897),#900,.T.);
#902=ORIENTED_EDGE('',*,*,#876,.T.);
#903=ORIENTED_EDGE('',*,*,#858,.T.);
#904=ORIENTED_EDGE('',*,*,#887,.F.);
#905=ORIENTED_EDGE('',*,*,#817,.F.);
#906=EDGE_LOOP('',(#902,#903,#904,#905));
#907=FACE_OUTER_BOUND('',#906,.T.);
#908=CARTESIAN_POINT('',(-1.95,-0.,1.));
#909=AXIS2_PLACEMENT_3D('',#908,#132,#34);
#910=PLANE('',#909);
#911=ADVANCED_FACE('',(#907),#910,.T.);
#912=ORIENTED_EDGE('',*,*,#827,.T.);
#913=ORIENTED_EDGE('',*,*,#893,.T.);
#914=ORIENTED_EDGE('',*,*,#848,.F.);
#915=ORIENTED_EDGE('',*,*,#870,.F.);
#916=EDGE_LOOP('',(#912,#913,#914,#915));
#917=FACE_OUTER_BOUND('',#916,.T.);
#918=CARTESIAN_POINT('',(1.95,-0.,1.));
#919=AXIS2_PLACEMENT_3D('',#918,#16,#34);
#920=PLANE('',#919);
#921=ADVANCED_FACE('',(#917),#920,.T.);
#922=CLOSED_SHELL('',(#839,#865,#883,#901,#911,#921));
#923=MANIFOLD_SOLID_BREP('Insul_0_2',#922);
#924=STYLED_ITEM('color',(#669),#923);
#925=CARTESIAN_POINT('',(-1.95,-0.65,1.));
#926=VERTEX_POINT('',#925);
#927=CARTESIAN_POINT('',(1.95,-0.65,1.));
#928=VERTEX_POINT('',#927);
#929=CARTESIAN_POINT('',(-1.95,-0.,1.));
#930=VERTEX_POINT('',#929);
#931=CARTESIAN_POINT('',(1.95,-0.,1.));
#932=VERTEX_POINT('',#931);
#933=CARTESIAN_POINT('',(-1.95,-0.65,10.));
#934=VERTEX_POINT('',#933);
#935=CARTESIAN_POINT('',(1.95,-0.65,10.));
#936=VERTEX_POINT('',#935);
#937=CARTESIAN_POINT('',(-1.95,-0.,10.));
#938=VERTEX_POINT('',#937);
#939=CARTESIAN_POINT('',(1.95,-0.,10.));
#940=VERTEX_POINT('',#939);
#941=VECTOR('',#34,0.65);
#942=CARTESIAN_POINT('',(-1.95,-0.65,1.));
#943=LINE('',#942,#941);
#944=EDGE_CURVE('',#926,#930,#943,.T.);
#945=ORIENTED_EDGE('',*,*,#944,.T.);
#946=VECTOR('',#16,3.9);
#947=CARTESIAN_POINT('',(-1.95,-0.,1.));
#948=LINE('',#947,#946);
#949=EDGE_CURVE('',#930,#932,#948,.T.);
#950=ORIENTED_EDGE('',*,*,#949,.T.);
#951=VECTOR('',#34,0.65);
#952=CARTESIAN_POINT('',(1.95,-0.65,1.));
#953=LINE('',#952,#951);
#954=EDGE_CURVE('',#928,#932,#953,.T.);
#955=ORIENTED_EDGE('',*,*,#954,.F.);
#956=VECTOR('',#16,3.9);
#957=CARTESIAN_POINT('',(-1.95,-0.65,1.));
#958=LINE('',#957,#956);
#959=EDGE_CURVE('',#926,#928,#958,.T.);
#960=ORIENTED_EDGE('',*,*,#959,.F.);
#961=EDGE_LOOP('',(#945,#950,#955,#960));
#962=FACE_OUTER_BOUND('',#961,.T.);
#963=CARTESIAN_POINT('',(-1.95,-0.65,1.));
#964=AXIS2_PLACEMENT_3D('',#963,#58,#16);
#965=PLANE('',#964);
#966=ADVANCED_FACE('',(#962),#965,.T.);
#967=VECTOR('',#16,3.9);
#968=CARTESIAN_POINT('',(-1.95,-0.65,10.));
#969=LINE('',#968,#967);
#970=EDGE_CURVE('',#934,#936,#969,.T.);
#971=ORIENTED_EDGE('',*,*,#970,.T.);
#972=VECTOR('',#34,0.65);
#973=CARTESIAN_POINT('',(1.95,-0.65,10.));
#974=LINE('',#973,#972);
#975=EDGE_CURVE('',#936,#940,#974,.T.);
#976=ORIENTED_EDGE('',*,*,#975,.T.);
#977=VECTOR('',#16,3.9);
#978=CARTESIAN_POINT('',(-1.95,-0.,10.));
#979=LINE('',#978,#977);
#980=EDGE_CURVE('',#938,#940,#979,.T.);
#981=ORIENTED_EDGE('',*,*,#980,.F.);
#982=VECTOR('',#34,0.65);
#983=CARTESIAN_POINT('',(-1.95,-0.65,10.));
#984=LINE('',#983,#982);
#985=EDGE_CURVE('',#934,#938,#984,.T.);
#986=ORIENTED_EDGE('',*,*,#985,.F.);
#987=EDGE_LOOP('',(#971,#976,#981,#986));
#988=FACE_OUTER_BOUND('',#987,.T.);
#989=CARTESIAN_POINT('',(-1.95,-0.65,10.));
#990=AXIS2_PLACEMENT_3D('',#989,#15,#16);
#991=PLANE('',#990);
#992=ADVANCED_FACE('',(#988),#991,.T.);
#993=ORIENTED_EDGE('',*,*,#959,.T.);
#994=VECTOR('',#15,9.);
#995=CARTESIAN_POINT('',(1.95,-0.65,1.));
#996=LINE('',#995,#994);
#997=EDGE_CURVE('',#928,#936,#996,.T.);
#998=ORIENTED_EDGE('',*,*,#997,.T.);
#999=ORIENTED_EDGE('',*,*,#970,.F.);
#1000=VECTOR('',#15,9.);
#1001=CARTESIAN_POINT('',(-1.95,-0.65,1.));
#1002=LINE('',#1001,#1000);
#1003=EDGE_CURVE('',#926,#934,#1002,.T.);
#1004=ORIENTED_EDGE('',*,*,#1003,.F.);
#1005=EDGE_LOOP('',(#993,#998,#999,#1004));
#1006=FACE_OUTER_BOUND('',#1005,.T.);
#1007=CARTESIAN_POINT('',(-1.95,-0.65,1.));
#1008=AXIS2_PLACEMENT_3D('',#1007,#103,#16);
#1009=PLANE('',#1008);
#1010=ADVANCED_FACE('',(#1006),#1009,.T.);
#1011=VECTOR('',#15,9.);
#1012=CARTESIAN_POINT('',(-1.95,-0.,1.));
#1013=LINE('',#1012,#1011);
#1014=EDGE_CURVE('',#930,#938,#1013,.T.);
#1015=ORIENTED_EDGE('',*,*,#1014,.T.);
#1016=ORIENTED_EDGE('',*,*,#980,.T.);
#1017=VECTOR('',#15,9.);
#1018=CARTESIAN_POINT('',(1.95,-0.,1.));
#1019=LINE('',#1018,#1017);
#1020=EDGE_CURVE('',#932,#940,#1019,.T.);
#1021=ORIENTED_EDGE('',*,*,#1020,.F.);
#1022=ORIENTED_EDGE('',*,*,#949,.F.);
#1023=EDGE_LOOP('',(#1015,#1016,#1021,#1022));
#1024=FACE_OUTER_BOUND('',#1023,.T.);
#1025=CARTESIAN_POINT('',(-1.95,-0.,1.));
#1026=AXIS2_PLACEMENT_3D('',#1025,#34,#16);
#1027=PLANE('',#1026);
#1028=ADVANCED_FACE('',(#1024),#1027,.T.);
#1029=ORIENTED_EDGE('',*,*,#1003,.T.);
#1030=ORIENTED_EDGE('',*,*,#985,.T.);
#1031=ORIENTED_EDGE('',*,*,#1014,.F.);
#1032=ORIENTED_EDGE('',*,*,#944,.F.);
#1033=EDGE_LOOP('',(#1029,#1030,#1031,#1032));
#1034=FACE_OUTER_BOUND('',#1033,.T.);
#1035=CARTESIAN_POINT('',(-1.95,-0.65,1.));
#1036=AXIS2_PLACEMENT_3D('',#1035,#132,#34);
#1037=PLANE('',#1036);
#1038=ADVANCED_FACE('',(#1034),#1037,.T.);
#1039=ORIENTED_EDGE('',*,*,#954,.T.);
#1040=ORIENTED_EDGE('',*,*,#1020,.T.);
#1041=ORIENTED_EDGE('',*,*,#975,.F.);
#1042=ORIENTED_EDGE('',*,*,#997,.F.);
#1043=EDGE_LOOP('',(#1039,#1040,#1041,#1042));
#1044=FACE_OUTER_BOUND('',#1043,.T.);
#1045=CARTESIAN_POINT('',(1.95,-0.65,1.));
#1046=AXIS2_PLACEMENT_3D('',#1045,#16,#34);
#1047=PLANE('',#1046);
#1048=ADVANCED_FACE('',(#1044),#1047,.T.);
#1049=CLOSED_SHELL('',(#966,#992,#1010,#1028,#1038,#1048));
#1050=MANIFOLD_SOLID_BREP('Insul_0_3',#1049);
#1051=STYLED_ITEM('color',(#669),#1050);
#1052=CARTESIAN_POINT('',(-1.8385,-1.3,1.));
#1053=VERTEX_POINT('',#1052);
#1054=CARTESIAN_POINT('',(1.8385,-1.3,1.));
#1055=VERTEX_POINT('',#1054);
#1056=CARTESIAN_POINT('',(-1.8385,-0.65,1.));
#1057=VERTEX_POINT('',#1056);
#1058=CARTESIAN_POINT('',(1.8385,-0.65,1.));
#1059=VERTEX_POINT('',#1058);
#1060=CARTESIAN_POINT('',(-1.8385,-1.3,10.));
#1061=VERTEX_POINT('',#1060);
#1062=CARTESIAN_POINT('',(1.8385,-1.3,10.));
#1063=VERTEX_POINT('',#1062);
#1064=CARTESIAN_POINT('',(-1.8385,-0.65,10.));
#1065=VERTEX_POINT('',#1064);
#1066=CARTESIAN_POINT('',(1.8385,-0.65,10.));
#1067=VERTEX_POINT('',#1066);
#1068=VECTOR('',#34,0.65);
#1069=CARTESIAN_POINT('',(-1.8385,-1.3,1.));
#1070=LINE('',#1069,#1068);
#1071=EDGE_CURVE('',#1053,#1057,#1070,.T.);
#1072=ORIENTED_EDGE('',*,*,#1071,.T.);
#1073=VECTOR('',#16,3.677);
#1074=CARTESIAN_POINT('',(-1.8385,-0.65,1.));
#1075=LINE('',#1074,#1073);
#1076=EDGE_CURVE('',#1057,#1059,#1075,.T.);
#1077=ORIENTED_EDGE('',*,*,#1076,.T.);
#1078=VECTOR('',#34,0.65);
#1079=CARTESIAN_POINT('',(1.8385,-1.3,1.));
#1080=LINE('',#1079,#1078);
#1081=EDGE_CURVE('',#1055,#1059,#1080,.T.);
#1082=ORIENTED_EDGE('',*,*,#1081,.F.);
#1083=VECTOR('',#16,3.677);
#1084=CARTESIAN_POINT('',(-1.8385,-1.3,1.));
#1085=LINE('',#1084,#1083);
#1086=EDGE_CURVE('',#1053,#1055,#1085,.T.);
#1087=ORIENTED_EDGE('',*,*,#1086,.F.);
#1088=EDGE_LOOP('',(#1072,#1077,#1082,#1087));
#1089=FACE_OUTER_BOUND('',#1088,.T.);
#1090=CARTESIAN_POINT('',(-1.8385,-1.3,1.));
#1091=AXIS2_PLACEMENT_3D('',#1090,#58,#16);
#1092=PLANE('',#1091);
#1093=ADVANCED_FACE('',(#1089),#1092,.T.);
#1094=VECTOR('',#16,3.677);
#1095=CARTESIAN_POINT('',(-1.8385,-1.3,10.));
#1096=LINE('',#1095,#1094);
#1097=EDGE_CURVE('',#1061,#1063,#1096,.T.);
#1098=ORIENTED_EDGE('',*,*,#1097,.T.);
#1099=VECTOR('',#34,0.65);
#1100=CARTESIAN_POINT('',(1.8385,-1.3,10.));
#1101=LINE('',#1100,#1099);
#1102=EDGE_CURVE('',#1063,#1067,#1101,.T.);
#1103=ORIENTED_EDGE('',*,*,#1102,.T.);
#1104=VECTOR('',#16,3.677);
#1105=CARTESIAN_POINT('',(-1.8385,-0.65,10.));
#1106=LINE('',#1105,#1104);
#1107=EDGE_CURVE('',#1065,#1067,#1106,.T.);
#1108=ORIENTED_EDGE('',*,*,#1107,.F.);
#1109=VECTOR('',#34,0.65);
#1110=CARTESIAN_POINT('',(-1.8385,-1.3,10.));
#1111=LINE('',#1110,#1109);
#1112=EDGE_CURVE('',#1061,#1065,#1111,.T.);
#1113=ORIENTED_EDGE('',*,*,#1112,.F.);
#1114=EDGE_LOOP('',(#1098,#1103,#1108,#1113));
#1115=FACE_OUTER_BOUND('',#1114,.T.);
#1116=CARTESIAN_POINT('',(-1.8385,-1.3,10.));
#1117=AXIS2_PLACEMENT_3D('',#1116,#15,#16);
#1118=PLANE('',#1117);
#1119=ADVANCED_FACE('',(#1115),#1118,.T.);
#1120=ORIENTED_EDGE('',*,*,#1086,.T.);
#1121=VECTOR('',#15,9.);
#1122=CARTESIAN_POINT('',(1.8385,-1.3,1.));
#1123=LINE('',#1122,#1121);
#1124=EDGE_CURVE('',#1055,#1063,#1123,.T.);
#1125=ORIENTED_EDGE('',*,*,#1124,.T.);
#1126=ORIENTED_EDGE('',*,*,#1097,.F.);
#1127=VECTOR('',#15,9.);
#1128=CARTESIAN_POINT('',(-1.8385,-1.3,1.));
#1129=LINE('',#1128,#1127);
#1130=EDGE_CURVE('',#1053,#1061,#1129,.T.);
#1131=ORIENTED_EDGE('',*,*,#1130,.F.);
#1132=EDGE_LOOP('',(#1120,#1125,#1126,#1131));
#1133=FACE_OUTER_BOUND('',#1132,.T.);
#1134=CARTESIAN_POINT('',(-1.8385,-1.3,1.));
#1135=AXIS2_PLACEMENT_3D('',#1134,#103,#16);
#1136=PLANE('',#1135);
#1137=ADVANCED_FACE('',(#1133),#1136,.T.);
#1138=VECTOR('',#15,9.);
#1139=CARTESIAN_POINT('',(-1.8385,-0.65,1.));
#1140=LINE('',#1139,#1138);
#1141=EDGE_CURVE('',#1057,#1065,#1140,.T.);
#1142=ORIENTED_EDGE('',*,*,#1141,.T.);
#1143=ORIENTED_EDGE('',*,*,#1107,.T.);
#1144=VECTOR('',#15,9.);
#1145=CARTESIAN_POINT('',(1.8385,-0.65,1.));
#1146=LINE('',#1145,#1144);
#1147=EDGE_CURVE('',#1059,#1067,#1146,.T.);
#1148=ORIENTED_EDGE('',*,*,#1147,.F.);
#1149=ORIENTED_EDGE('',*,*,#1076,.F.);
#1150=EDGE_LOOP('',(#1142,#1143,#1148,#1149));
#1151=FACE_OUTER_BOUND('',#1150,.T.);
#1152=CARTESIAN_POINT('',(-1.8385,-0.65,1.));
#1153=AXIS2_PLACEMENT_3D('',#1152,#34,#16);
#1154=PLANE('',#1153);
#1155=ADVANCED_FACE('',(#1151),#1154,.T.);
#1156=ORIENTED_EDGE('',*,*,#1130,.T.);
#1157=ORIENTED_EDGE('',*,*,#1112,.T.);
#1158=ORIENTED_EDGE('',*,*,#1141,.F.);
#1159=ORIENTED_EDGE('',*,*,#1071,.F.);
#1160=EDGE_LOOP('',(#1156,#1157,#1158,#1159));
#1161=FACE_OUTER_BOUND('',#1160,.T.);
#1162=CARTESIAN_POINT('',(-1.8385,-1.3,1.));
#1163=AXIS2_PLACEMENT_3D('',#1162,#132,#34);
#1164=PLANE('',#1163);
#1165=ADVANCED_FACE('',(#1161),#1164,.T.);
#1166=ORIENTED_EDGE('',*,*,#1081,.T.);
#1167=ORIENTED_EDGE('',*,*,#1147,.T.);
#1168=ORIENTED_EDGE('',*,*,#1102,.F.);
#1169=ORIENTED_EDGE('',*,*,#1124,.F.);
#1170=EDGE_LOOP('',(#1166,#1167,#1168,#1169));
#1171=FACE_OUTER_BOUND('',#1170,.T.);
#1172=CARTESIAN_POINT('',(1.8385,-1.3,1.));
#1173=AXIS2_PLACEMENT_3D('',#1172,#16,#34);
#1174=PLANE('',#1173);
#1175=ADVANCED_FACE('',(#1171),#1174,.T.);
#1176=CLOSED_SHELL('',(#1093,#1119,#1137,#1155,#1165,#1175));
#1177=MANIFOLD_SOLID_BREP('Insul_0_4',#1176);
#1178=STYLED_ITEM('color',(#669),#1177);
#1179=CARTESIAN_POINT('',(-1.4534,-1.95,1.));
#1180=VERTEX_POINT('',#1179);
#1181=CARTESIAN_POINT('',(1.4534,-1.95,1.));
#1182=VERTEX_POINT('',#1181);
#1183=CARTESIAN_POINT('',(-1.4534,-1.3,1.));
#1184=VERTEX_POINT('',#1183);
#1185=CARTESIAN_POINT('',(1.4534,-1.3,1.));
#1186=VERTEX_POINT('',#1185);
#1187=CARTESIAN_POINT('',(-1.4534,-1.95,10.));
#1188=VERTEX_POINT('',#1187);
#1189=CARTESIAN_POINT('',(1.4534,-1.95,10.));
#1190=VERTEX_POINT('',#1189);
#1191=CARTESIAN_POINT('',(-1.4534,-1.3,10.));
#1192=VERTEX_POINT('',#1191);
#1193=CARTESIAN_POINT('',(1.4534,-1.3,10.));
#1194=VERTEX_POINT('',#1193);
#1195=VECTOR('',#34,0.65);
#1196=CARTESIAN_POINT('',(-1.4534,-1.95,1.));
#1197=LINE('',#1196,#1195);
#1198=EDGE_CURVE('',#1180,#1184,#1197,.T.);
#1199=ORIENTED_EDGE('',*,*,#1198,.T.);
#1200=VECTOR('',#16,2.9069);
#1201=CARTESIAN_POINT('',(-1.4534,-1.3,1.));
#1202=LINE('',#1201,#1200);
#1203=EDGE_CURVE('',#1184,#1186,#1202,.T.);
#1204=ORIENTED_EDGE('',*,*,#1203,.T.);
#1205=VECTOR('',#34,0.65);
#1206=CARTESIAN_POINT('',(1.4534,-1.95,1.));
#1207=LINE('',#1206,#1205);
#1208=EDGE_CURVE('',#1182,#1186,#1207,.T.);
#1209=ORIENTED_EDGE('',*,*,#1208,.F.);
#1210=VECTOR('',#16,2.9069);
#1211=CARTESIAN_POINT('',(-1.4534,-1.95,1.));
#1212=LINE('',#1211,#1210);
#1213=EDGE_CURVE('',#1180,#1182,#1212,.T.);
#1214=ORIENTED_EDGE('',*,*,#1213,.F.);
#1215=EDGE_LOOP('',(#1199,#1204,#1209,#1214));
#1216=FACE_OUTER_BOUND('',#1215,.T.);
#1217=CARTESIAN_POINT('',(-1.4534,-1.95,1.));
#1218=AXIS2_PLACEMENT_3D('',#1217,#58,#16);
#1219=PLANE('',#1218);
#1220=ADVANCED_FACE('',(#1216),#1219,.T.);
#1221=VECTOR('',#16,2.9069);
#1222=CARTESIAN_POINT('',(-1.4534,-1.95,10.));
#1223=LINE('',#1222,#1221);
#1224=EDGE_CURVE('',#1188,#1190,#1223,.T.);
#1225=ORIENTED_EDGE('',*,*,#1224,.T.);
#1226=VECTOR('',#34,0.65);
#1227=CARTESIAN_POINT('',(1.4534,-1.95,10.));
#1228=LINE('',#1227,#1226);
#1229=EDGE_CURVE('',#1190,#1194,#1228,.T.);
#1230=ORIENTED_EDGE('',*,*,#1229,.T.);
#1231=VECTOR('',#16,2.9069);
#1232=CARTESIAN_POINT('',(-1.4534,-1.3,10.));
#1233=LINE('',#1232,#1231);
#1234=EDGE_CURVE('',#1192,#1194,#1233,.T.);
#1235=ORIENTED_EDGE('',*,*,#1234,.F.);
#1236=VECTOR('',#34,0.65);
#1237=CARTESIAN_POINT('',(-1.4534,-1.95,10.));
#1238=LINE('',#1237,#1236);
#1239=EDGE_CURVE('',#1188,#1192,#1238,.T.);
#1240=ORIENTED_EDGE('',*,*,#1239,.F.);
#1241=EDGE_LOOP('',(#1225,#1230,#1235,#1240));
#1242=FACE_OUTER_BOUND('',#1241,.T.);
#1243=CARTESIAN_POINT('',(-1.4534,-1.95,10.));
#1244=AXIS2_PLACEMENT_3D('',#1243,#15,#16);
#1245=PLANE('',#1244);
#1246=ADVANCED_FACE('',(#1242),#1245,.T.);
#1247=ORIENTED_EDGE('',*,*,#1213,.T.);
#1248=VECTOR('',#15,9.);
#1249=CARTESIAN_POINT('',(1.4534,-1.95,1.));
#1250=LINE('',#1249,#1248);
#1251=EDGE_CURVE('',#1182,#1190,#1250,.T.);
#1252=ORIENTED_EDGE('',*,*,#1251,.T.);
#1253=ORIENTED_EDGE('',*,*,#1224,.F.);
#1254=VECTOR('',#15,9.);
#1255=CARTESIAN_POINT('',(-1.4534,-1.95,1.));
#1256=LINE('',#1255,#1254);
#1257=EDGE_CURVE('',#1180,#1188,#1256,.T.);
#1258=ORIENTED_EDGE('',*,*,#1257,.F.);
#1259=EDGE_LOOP('',(#1247,#1252,#1253,#1258));
#1260=FACE_OUTER_BOUND('',#1259,.T.);
#1261=CARTESIAN_POINT('',(-1.4534,-1.95,1.));
#1262=AXIS2_PLACEMENT_3D('',#1261,#103,#16);
#1263=PLANE('',#1262);
#1264=ADVANCED_FACE('',(#1260),#1263,.T.);
#1265=VECTOR('',#15,9.);
#1266=CARTESIAN_POINT('',(-1.4534,-1.3,1.));
#1267=LINE('',#1266,#1265);
#1268=EDGE_CURVE('',#1184,#1192,#1267,.T.);
#1269=ORIENTED_EDGE('',*,*,#1268,.T.);
#1270=ORIENTED_EDGE('',*,*,#1234,.T.);
#1271=VECTOR('',#15,9.);
#1272=CARTESIAN_POINT('',(1.4534,-1.3,1.));
#1273=LINE('',#1272,#1271);
#1274=EDGE_CURVE('',#1186,#1194,#1273,.T.);
#1275=ORIENTED_EDGE('',*,*,#1274,.F.);
#1276=ORIENTED_EDGE('',*,*,#1203,.F.);
#1277=EDGE_LOOP('',(#1269,#1270,#1275,#1276));
#1278=FACE_OUTER_BOUND('',#1277,.T.);
#1279=CARTESIAN_POINT('',(-1.4534,-1.3,1.));
#1280=AXIS2_PLACEMENT_3D('',#1279,#34,#16);
#1281=PLANE('',#1280);
#1282=ADVANCED_FACE('',(#1278),#1281,.T.);
#1283=ORIENTED_EDGE('',*,*,#1257,.T.);
#1284=ORIENTED_EDGE('',*,*,#1239,.T.);
#1285=ORIENTED_EDGE('',*,*,#1268,.F.);
#1286=ORIENTED_EDGE('',*,*,#1198,.F.);
#1287=EDGE_LOOP('',(#1283,#1284,#1285,#1286));
#1288=FACE_OUTER_BOUND('',#1287,.T.);
#1289=CARTESIAN_POINT('',(-1.4534,-1.95,1.));
#1290=AXIS2_PLACEMENT_3D('',#1289,#132,#34);
#1291=PLANE('',#1290);
#1292=ADVANCED_FACE('',(#1288),#1291,.T.);
#1293=ORIENTED_EDGE('',*,*,#1208,.T.);
#1294=ORIENTED_EDGE('',*,*,#1274,.T.);
#1295=ORIENTED_EDGE('',*,*,#1229,.F.);
#1296=ORIENTED_EDGE('',*,*,#1251,.F.);
#1297=EDGE_LOOP('',(#1293,#1294,#1295,#1296));
#1298=FACE_OUTER_BOUND('',#1297,.T.);
#1299=CARTESIAN_POINT('',(1.4534,-1.95,1.));
#1300=AXIS2_PLACEMENT_3D('',#1299,#16,#34);
#1301=PLANE('',#1300);
#1302=ADVANCED_FACE('',(#1298),#1301,.T.);
#1303=CLOSED_SHELL('',(#1220,#1246,#1264,#1282,#1292,#1302));
#1304=MANIFOLD_SOLID_BREP('Insul_0_5',#1303);
#1305=STYLED_ITEM('color',(#669),#1304);
#1306=CARTESIAN_POINT('',(7.0639,0.425,-1.8));
#1307=VERTEX_POINT('',#1306);
#1308=CARTESIAN_POINT('',(8.5361,0.425,-1.8));
#1309=VERTEX_POINT('',#1308);
#1310=CARTESIAN_POINT('',(7.0639,0.85,-1.8));
#1311=VERTEX_POINT('',#1310);
#1312=CARTESIAN_POINT('',(8.5361,0.85,-1.8));
#1313=VERTEX_POINT('',#1312);
#1314=CARTESIAN_POINT('',(7.0639,0.425,1.));
#1315=VERTEX_POINT('',#1314);
#1316=CARTESIAN_POINT('',(8.5361,0.425,1.));
#1317=VERTEX_POINT('',#1316);
#1318=CARTESIAN_POINT('',(7.0639,0.85,1.));
#1319=VERTEX_POINT('',#1318);
#1320=CARTESIAN_POINT('',(8.5361,0.85,1.));
#1321=VERTEX_POINT('',#1320);
#1322=VECTOR('',#34,0.425);
#1323=CARTESIAN_POINT('',(7.0639,0.425,-1.8));
#1324=LINE('',#1323,#1322);
#1325=EDGE_CURVE('',#1307,#1311,#1324,.T.);
#1326=ORIENTED_EDGE('',*,*,#1325,.T.);
#1327=VECTOR('',#16,1.4722);
#1328=CARTESIAN_POINT('',(7.0639,0.85,-1.8));
#1329=LINE('',#1328,#1327);
#1330=EDGE_CURVE('',#1311,#1313,#1329,.T.);
#1331=ORIENTED_EDGE('',*,*,#1330,.T.);
#1332=VECTOR('',#34,0.425);
#1333=CARTESIAN_POINT('',(8.5361,0.425,-1.8));
#1334=LINE('',#1333,#1332);
#1335=EDGE_CURVE('',#1309,#1313,#1334,.T.);
#1336=ORIENTED_EDGE('',*,*,#1335,.F.);
#1337=VECTOR('',#16,1.4722);
#1338=CARTESIAN_POINT('',(7.0639,0.425,-1.8));
#1339=LINE('',#1338,#1337);
#1340=EDGE_CURVE('',#1307,#1309,#1339,.T.);
#1341=ORIENTED_EDGE('',*,*,#1340,.F.);
#1342=EDGE_LOOP('',(#1326,#1331,#1336,#1341));
#1343=FACE_OUTER_BOUND('',#1342,.T.);
#1344=CARTESIAN_POINT('',(7.0639,0.425,-1.8));
#1345=AXIS2_PLACEMENT_3D('',#1344,#58,#16);
#1346=PLANE('',#1345);
#1347=ADVANCED_FACE('',(#1343),#1346,.T.);
#1348=VECTOR('',#16,1.4722);
#1349=CARTESIAN_POINT('',(7.0639,0.425,1.));
#1350=LINE('',#1349,#1348);
#1351=EDGE_CURVE('',#1315,#1317,#1350,.T.);
#1352=ORIENTED_EDGE('',*,*,#1351,.T.);
#1353=VECTOR('',#34,0.425);
#1354=CARTESIAN_POINT('',(8.5361,0.425,1.));
#1355=LINE('',#1354,#1353);
#1356=EDGE_CURVE('',#1317,#1321,#1355,.T.);
#1357=ORIENTED_EDGE('',*,*,#1356,.T.);
#1358=VECTOR('',#16,1.4722);
#1359=CARTESIAN_POINT('',(7.0639,0.85,1.));
#1360=LINE('',#1359,#1358);
#1361=EDGE_CURVE('',#1319,#1321,#1360,.T.);
#1362=ORIENTED_EDGE('',*,*,#1361,.F.);
#1363=VECTOR('',#34,0.425);
#1364=CARTESIAN_POINT('',(7.0639,0.425,1.));
#1365=LINE('',#1364,#1363);
#1366=EDGE_CURVE('',#1315,#1319,#1365,.T.);
#1367=ORIENTED_EDGE('',*,*,#1366,.F.);
#1368=EDGE_LOOP('',(#1352,#1357,#1362,#1367));
#1369=FACE_OUTER_BOUND('',#1368,.T.);
#1370=CARTESIAN_POINT('',(7.0639,0.425,1.));
#1371=AXIS2_PLACEMENT_3D('',#1370,#15,#16);
#1372=PLANE('',#1371);
#1373=ADVANCED_FACE('',(#1369),#1372,.T.);
#1374=ORIENTED_EDGE('',*,*,#1340,.T.);
#1375=VECTOR('',#15,2.8);
#1376=CARTESIAN_POINT('',(8.5361,0.425,-1.8));
#1377=LINE('',#1376,#1375);
#1378=EDGE_CURVE('',#1309,#1317,#1377,.T.);
#1379=ORIENTED_EDGE('',*,*,#1378,.T.);
#1380=ORIENTED_EDGE('',*,*,#1351,.F.);
#1381=VECTOR('',#15,2.8);
#1382=CARTESIAN_POINT('',(7.0639,0.425,-1.8));
#1383=LINE('',#1382,#1381);
#1384=EDGE_CURVE('',#1307,#1315,#1383,.T.);
#1385=ORIENTED_EDGE('',*,*,#1384,.F.);
#1386=EDGE_LOOP('',(#1374,#1379,#1380,#1385));
#1387=FACE_OUTER_BOUND('',#1386,.T.);
#1388=CARTESIAN_POINT('',(7.0639,0.425,-1.8));
#1389=AXIS2_PLACEMENT_3D('',#1388,#103,#16);
#1390=PLANE('',#1389);
#1391=ADVANCED_FACE('',(#1387),#1390,.T.);
#1392=VECTOR('',#15,2.8);
#1393=CARTESIAN_POINT('',(7.0639,0.85,-1.8));
#1394=LINE('',#1393,#1392);
#1395=EDGE_CURVE('',#1311,#1319,#1394,.T.);
#1396=ORIENTED_EDGE('',*,*,#1395,.T.);
#1397=ORIENTED_EDGE('',*,*,#1361,.T.);
#1398=VECTOR('',#15,2.8);
#1399=CARTESIAN_POINT('',(8.5361,0.85,-1.8));
#1400=LINE('',#1399,#1398);
#1401=EDGE_CURVE('',#1313,#1321,#1400,.T.);
#1402=ORIENTED_EDGE('',*,*,#1401,.F.);
#1403=ORIENTED_EDGE('',*,*,#1330,.F.);
#1404=EDGE_LOOP('',(#1396,#1397,#1402,#1403));
#1405=FACE_OUTER_BOUND('',#1404,.T.);
#1406=CARTESIAN_POINT('',(7.0639,0.85,-1.8));
#1407=AXIS2_PLACEMENT_3D('',#1406,#34,#16);
#1408=PLANE('',#1407);
#1409=ADVANCED_FACE('',(#1405),#1408,.T.);
#1410=ORIENTED_EDGE('',*,*,#1384,.T.);
#1411=ORIENTED_EDGE('',*,*,#1366,.T.);
#1412=ORIENTED_EDGE('',*,*,#1395,.F.);
#1413=ORIENTED_EDGE('',*,*,#1325,.F.);
#1414=EDGE_LOOP('',(#1410,#1411,#1412,#1413));
#1415=FACE_OUTER_BOUND('',#1414,.T.);
#1416=CARTESIAN_POINT('',(7.0639,0.425,-1.8));
#1417=AXIS2_PLACEMENT_3D('',#1416,#132,#34);
#1418=PLANE('',#1417);
#1419=ADVANCED_FACE('',(#1415),#1418,.T.);
#1420=ORIENTED_EDGE('',*,*,#1335,.T.);
#1421=ORIENTED_EDGE('',*,*,#1401,.T.);
#1422=ORIENTED_EDGE('',*,*,#1356,.F.);
#1423=ORIENTED_EDGE('',*,*,#1378,.F.);
#1424=EDGE_LOOP('',(#1420,#1421,#1422,#1423));
#1425=FACE_OUTER_BOUND('',#1424,.T.);
#1426=CARTESIAN_POINT('',(8.5361,0.425,-1.8));
#1427=AXIS2_PLACEMENT_3D('',#1426,#16,#34);
#1428=PLANE('',#1427);
#1429=ADVANCED_FACE('',(#1425),#1428,.T.);
#1430=CLOSED_SHELL('',(#1347,#1373,#1391,#1409,#1419,#1429));
#1431=MANIFOLD_SOLID_BREP('Core_1_0',#1430);
#1432=STYLED_ITEM('color',(#154),#1431);
#1433=CARTESIAN_POINT('',(6.95,-0.,-1.8));
#1434=VERTEX_POINT('',#1433);
#1435=CARTESIAN_POINT('',(8.65,-0.,-1.8));
#1436=VERTEX_POINT('',#1435);
#1437=CARTESIAN_POINT('',(6.95,0.425,-1.8));
#1438=VERTEX_POINT('',#1437);
#1439=CARTESIAN_POINT('',(8.65,0.425,-1.8));
#1440=VERTEX_POINT('',#1439);
#1441=CARTESIAN_POINT('',(6.95,-0.,1.));
#1442=VERTEX_POINT('',#1441);
#1443=CARTESIAN_POINT('',(8.65,-0.,1.));
#1444=VERTEX_POINT('',#1443);
#1445=CARTESIAN_POINT('',(6.95,0.425,1.));
#1446=VERTEX_POINT('',#1445);
#1447=CARTESIAN_POINT('',(8.65,0.425,1.));
#1448=VERTEX_POINT('',#1447);
#1449=VECTOR('',#34,0.425);
#1450=CARTESIAN_POINT('',(6.95,-0.,-1.8));
#1451=LINE('',#1450,#1449);
#1452=EDGE_CURVE('',#1434,#1438,#1451,.T.);
#1453=ORIENTED_EDGE('',*,*,#1452,.T.);
#1454=VECTOR('',#16,1.7);
#1455=CARTESIAN_POINT('',(6.95,0.425,-1.8));
#1456=LINE('',#1455,#1454);
#1457=EDGE_CURVE('',#1438,#1440,#1456,.T.);
#1458=ORIENTED_EDGE('',*,*,#1457,.T.);
#1459=VECTOR('',#34,0.425);
#1460=CARTESIAN_POINT('',(8.65,-0.,-1.8));
#1461=LINE('',#1460,#1459);
#1462=EDGE_CURVE('',#1436,#1440,#1461,.T.);
#1463=ORIENTED_EDGE('',*,*,#1462,.F.);
#1464=VECTOR('',#16,1.7);
#1465=CARTESIAN_POINT('',(6.95,-0.,-1.8));
#1466=LINE('',#1465,#1464);
#1467=EDGE_CURVE('',#1434,#1436,#1466,.T.);
#1468=ORIENTED_EDGE('',*,*,#1467,.F.);
#1469=EDGE_LOOP('',(#1453,#1458,#1463,#1468));
#1470=FACE_OUTER_BOUND('',#1469,.T.);
#1471=CARTESIAN_POINT('',(6.95,-0.,-1.8));
#1472=AXIS2_PLACEMENT_3D('',#1471,#58,#16);
#1473=PLANE('',#1472);
#1474=ADVANCED_FACE('',(#1470),#1473,.T.);
#1475=VECTOR('',#16,1.7);
#1476=CARTESIAN_POINT('',(6.95,-0.,1.));
#1477=LINE('',#1476,#1475);
#1478=EDGE_CURVE('',#1442,#1444,#1477,.T.);
#1479=ORIENTED_EDGE('',*,*,#1478,.T.);
#1480=VECTOR('',#34,0.425);
#1481=CARTESIAN_POINT('',(8.65,-0.,1.));
#1482=LINE('',#1481,#1480);
#1483=EDGE_CURVE('',#1444,#1448,#1482,.T.);
#1484=ORIENTED_EDGE('',*,*,#1483,.T.);
#1485=VECTOR('',#16,1.7);
#1486=CARTESIAN_POINT('',(6.95,0.425,1.));
#1487=LINE('',#1486,#1485);
#1488=EDGE_CURVE('',#1446,#1448,#1487,.T.);
#1489=ORIENTED_EDGE('',*,*,#1488,.F.);
#1490=VECTOR('',#34,0.425);
#1491=CARTESIAN_POINT('',(6.95,-0.,1.));
#1492=LINE('',#1491,#1490);
#1493=EDGE_CURVE('',#1442,#1446,#1492,.T.);
#1494=ORIENTED_EDGE('',*,*,#1493,.F.);
#1495=EDGE_LOOP('',(#1479,#1484,#1489,#1494));
#1496=FACE_OUTER_BOUND('',#1495,.T.);
#1497=CARTESIAN_POINT('',(6.95,-0.,1.));
#1498=AXIS2_PLACEMENT_3D('',#1497,#15,#16);
#1499=PLANE('',#1498);
#1500=ADVANCED_FACE('',(#1496),#1499,.T.);
#1501=ORIENTED_EDGE('',*,*,#1467,.T.);
#1502=VECTOR('',#15,2.8);
#1503=CARTESIAN_POINT('',(8.65,-0.,-1.8));
#1504=LINE('',#1503,#1502);
#1505=EDGE_CURVE('',#1436,#1444,#1504,.T.);
#1506=ORIENTED_EDGE('',*,*,#1505,.T.);
#1507=ORIENTED_EDGE('',*,*,#1478,.F.);
#1508=VECTOR('',#15,2.8);
#1509=CARTESIAN_POINT('',(6.95,-0.,-1.8));
#1510=LINE('',#1509,#1508);
#1511=EDGE_CURVE('',#1434,#1442,#1510,.T.);
#1512=ORIENTED_EDGE('',*,*,#1511,.F.);
#1513=EDGE_LOOP('',(#1501,#1506,#1507,#1512));
#1514=FACE_OUTER_BOUND('',#1513,.T.);
#1515=CARTESIAN_POINT('',(6.95,-0.,-1.8));
#1516=AXIS2_PLACEMENT_3D('',#1515,#103,#16);
#1517=PLANE('',#1516);
#1518=ADVANCED_FACE('',(#1514),#1517,.T.);
#1519=VECTOR('',#15,2.8);
#1520=CARTESIAN_POINT('',(6.95,0.425,-1.8));
#1521=LINE('',#1520,#1519);
#1522=EDGE_CURVE('',#1438,#1446,#1521,.T.);
#1523=ORIENTED_EDGE('',*,*,#1522,.T.);
#1524=ORIENTED_EDGE('',*,*,#1488,.T.);
#1525=VECTOR('',#15,2.8);
#1526=CARTESIAN_POINT('',(8.65,0.425,-1.8));
#1527=LINE('',#1526,#1525);
#1528=EDGE_CURVE('',#1440,#1448,#1527,.T.);
#1529=ORIENTED_EDGE('',*,*,#1528,.F.);
#1530=ORIENTED_EDGE('',*,*,#1457,.F.);
#1531=EDGE_LOOP('',(#1523,#1524,#1529,#1530));
#1532=FACE_OUTER_BOUND('',#1531,.T.);
#1533=CARTESIAN_POINT('',(6.95,0.425,-1.8));
#1534=AXIS2_PLACEMENT_3D('',#1533,#34,#16);
#1535=PLANE('',#1534);
#1536=ADVANCED_FACE('',(#1532),#1535,.T.);
#1537=ORIENTED_EDGE('',*,*,#1511,.T.);
#1538=ORIENTED_EDGE('',*,*,#1493,.T.);
#1539=ORIENTED_EDGE('',*,*,#1522,.F.);
#1540=ORIENTED_EDGE('',*,*,#1452,.F.);
#1541=EDGE_LOOP('',(#1537,#1538,#1539,#1540));
#1542=FACE_OUTER_BOUND('',#1541,.T.);
#1543=CARTESIAN_POINT('',(6.95,-0.,-1.8));
#1544=AXIS2_PLACEMENT_3D('',#1543,#132,#34);
#1545=PLANE('',#1544);
#1546=ADVANCED_FACE('',(#1542),#1545,.T.);
#1547=ORIENTED_EDGE('',*,*,#1462,.T.);
#1548=ORIENTED_EDGE('',*,*,#1528,.T.);
#1549=ORIENTED_EDGE('',*,*,#1483,.F.);
#1550=ORIENTED_EDGE('',*,*,#1505,.F.);
#1551=EDGE_LOOP('',(#1547,#1548,#1549,#1550));
#1552=FACE_OUTER_BOUND('',#1551,.T.);
#1553=CARTESIAN_POINT('',(8.65,-0.,-1.8));
#1554=AXIS2_PLACEMENT_3D('',#1553,#16,#34);
#1555=PLANE('',#1554);
#1556=ADVANCED_FACE('',(#1552),#1555,.T.);
#1557=CLOSED_SHELL('',(#1474,#1500,#1518,#1536,#1546,#1556));
#1558=MANIFOLD_SOLID_BREP('Core_1_1',#1557);
#1559=STYLED_ITEM('color',(#154),#1558);
#1560=CARTESIAN_POINT('',(6.95,-0.425,-1.8));
#1561=VERTEX_POINT('',#1560);
#1562=CARTESIAN_POINT('',(8.65,-0.425,-1.8));
#1563=VERTEX_POINT('',#1562);
#1564=CARTESIAN_POINT('',(6.95,-0.,-1.8));
#1565=VERTEX_POINT('',#1564);
#1566=CARTESIAN_POINT('',(8.65,-0.,-1.8));
#1567=VERTEX_POINT('',#1566);
#1568=CARTESIAN_POINT('',(6.95,-0.425,1.));
#1569=VERTEX_POINT('',#1568);
#1570=CARTESIAN_POINT('',(8.65,-0.425,1.));
#1571=VERTEX_POINT('',#1570);
#1572=CARTESIAN_POINT('',(6.95,-0.,1.));
#1573=VERTEX_POINT('',#1572);
#1574=CARTESIAN_POINT('',(8.65,-0.,1.));
#1575=VERTEX_POINT('',#1574);
#1576=VECTOR('',#34,0.425);
#1577=CARTESIAN_POINT('',(6.95,-0.425,-1.8));
#1578=LINE('',#1577,#1576);
#1579=EDGE_CURVE('',#1561,#1565,#1578,.T.);
#1580=ORIENTED_EDGE('',*,*,#1579,.T.);
#1581=VECTOR('',#16,1.7);
#1582=CARTESIAN_POINT('',(6.95,-0.,-1.8));
#1583=LINE('',#1582,#1581);
#1584=EDGE_CURVE('',#1565,#1567,#1583,.T.);
#1585=ORIENTED_EDGE('',*,*,#1584,.T.);
#1586=VECTOR('',#34,0.425);
#1587=CARTESIAN_POINT('',(8.65,-0.425,-1.8));
#1588=LINE('',#1587,#1586);
#1589=EDGE_CURVE('',#1563,#1567,#1588,.T.);
#1590=ORIENTED_EDGE('',*,*,#1589,.F.);
#1591=VECTOR('',#16,1.7);
#1592=CARTESIAN_POINT('',(6.95,-0.425,-1.8));
#1593=LINE('',#1592,#1591);
#1594=EDGE_CURVE('',#1561,#1563,#1593,.T.);
#1595=ORIENTED_EDGE('',*,*,#1594,.F.);
#1596=EDGE_LOOP('',(#1580,#1585,#1590,#1595));
#1597=FACE_OUTER_BOUND('',#1596,.T.);
#1598=CARTESIAN_POINT('',(6.95,-0.425,-1.8));
#1599=AXIS2_PLACEMENT_3D('',#1598,#58,#16);
#1600=PLANE('',#1599);
#1601=ADVANCED_FACE('',(#1597),#1600,.T.);
#1602=VECTOR('',#16,1.7);
#1603=CARTESIAN_POINT('',(6.95,-0.425,1.));
#1604=LINE('',#1603,#1602);
#1605=EDGE_CURVE('',#1569,#1571,#1604,.T.);
#1606=ORIENTED_EDGE('',*,*,#1605,.T.);
#1607=VECTOR('',#34,0.425);
#1608=CARTESIAN_POINT('',(8.65,-0.425,1.));
#1609=LINE('',#1608,#1607);
#1610=EDGE_CURVE('',#1571,#1575,#1609,.T.);
#1611=ORIENTED_EDGE('',*,*,#1610,.T.);
#1612=VECTOR('',#16,1.7);
#1613=CARTESIAN_POINT('',(6.95,-0.,1.));
#1614=LINE('',#1613,#1612);
#1615=EDGE_CURVE('',#1573,#1575,#1614,.T.);
#1616=ORIENTED_EDGE('',*,*,#1615,.F.);
#1617=VECTOR('',#34,0.425);
#1618=CARTESIAN_POINT('',(6.95,-0.425,1.));
#1619=LINE('',#1618,#1617);
#1620=EDGE_CURVE('',#1569,#1573,#1619,.T.);
#1621=ORIENTED_EDGE('',*,*,#1620,.F.);
#1622=EDGE_LOOP('',(#1606,#1611,#1616,#1621));
#1623=FACE_OUTER_BOUND('',#1622,.T.);
#1624=CARTESIAN_POINT('',(6.95,-0.425,1.));
#1625=AXIS2_PLACEMENT_3D('',#1624,#15,#16);
#1626=PLANE('',#1625);
#1627=ADVANCED_FACE('',(#1623),#1626,.T.);
#1628=ORIENTED_EDGE('',*,*,#1594,.T.);
#1629=VECTOR('',#15,2.8);
#1630=CARTESIAN_POINT('',(8.65,-0.425,-1.8));
#1631=LINE('',#1630,#1629);
#1632=EDGE_CURVE('',#1563,#1571,#1631,.T.);
#1633=ORIENTED_EDGE('',*,*,#1632,.T.);
#1634=ORIENTED_EDGE('',*,*,#1605,.F.);
#1635=VECTOR('',#15,2.8);
#1636=CARTESIAN_POINT('',(6.95,-0.425,-1.8));
#1637=LINE('',#1636,#1635);
#1638=EDGE_CURVE('',#1561,#1569,#1637,.T.);
#1639=ORIENTED_EDGE('',*,*,#1638,.F.);
#1640=EDGE_LOOP('',(#1628,#1633,#1634,#1639));
#1641=FACE_OUTER_BOUND('',#1640,.T.);
#1642=CARTESIAN_POINT('',(6.95,-0.425,-1.8));
#1643=AXIS2_PLACEMENT_3D('',#1642,#103,#16);
#1644=PLANE('',#1643);
#1645=ADVANCED_FACE('',(#1641),#1644,.T.);
#1646=VECTOR('',#15,2.8);
#1647=CARTESIAN_POINT('',(6.95,-0.,-1.8));
#1648=LINE('',#1647,#1646);
#1649=EDGE_CURVE('',#1565,#1573,#1648,.T.);
#1650=ORIENTED_EDGE('',*,*,#1649,.T.);
#1651=ORIENTED_EDGE('',*,*,#1615,.T.);
#1652=VECTOR('',#15,2.8);
#1653=CARTESIAN_POINT('',(8.65,-0.,-1.8));
#1654=LINE('',#1653,#1652);
#1655=EDGE_CURVE('',#1567,#1575,#1654,.T.);
#1656=ORIENTED_EDGE('',*,*,#1655,.F.);
#1657=ORIENTED_EDGE('',*,*,#1584,.F.);
#1658=EDGE_LOOP('',(#1650,#1651,#1656,#1657));
#1659=FACE_OUTER_BOUND('',#1658,.T.);
#1660=CARTESIAN_POINT('',(6.95,-0.,-1.8));
#1661=AXIS2_PLACEMENT_3D('',#1660,#34,#16);
#1662=PLANE('',#1661);
#1663=ADVANCED_FACE('',(#1659),#1662,.T.);
#1664=ORIENTED_EDGE('',*,*,#1638,.T.);
#1665=ORIENTED_EDGE('',*,*,#1620,.T.);
#1666=ORIENTED_EDGE('',*,*,#1649,.F.);
#1667=ORIENTED_EDGE('',*,*,#1579,.F.);
#1668=EDGE_LOOP('',(#1664,#1665,#1666,#1667));
#1669=FACE_OUTER_BOUND('',#1668,.T.);
#1670=CARTESIAN_POINT('',(6.95,-0.425,-1.8));
#1671=AXIS2_PLACEMENT_3D('',#1670,#132,#34);
#1672=PLANE('',#1671);
#1673=ADVANCED_FACE('',(#1669),#1672,.T.);
#1674=ORIENTED_EDGE('',*,*,#1589,.T.);
#1675=ORIENTED_EDGE('',*,*,#1655,.T.);
#1676=ORIENTED_EDGE('',*,*,#1610,.F.);
#1677=ORIENTED_EDGE('',*,*,#1632,.F.);
#1678=EDGE_LOOP('',(#1674,#1675,#1676,#1677));
#1679=FACE_OUTER_BOUND('',#1678,.T.);
#1680=CARTESIAN_POINT('',(8.65,-0.425,-1.8));
#1681=AXIS2_PLACEMENT_3D('',#1680,#16,#34);
#1682=PLANE('',#1681);
#1683=ADVANCED_FACE('',(#1679),#1682,.T.);
#1684=CLOSED_SHELL('',(#1601,#1627,#1645,#1663,#1673,#1683));
#1685=MANIFOLD_SOLID_BREP('Core_1_2',#1684);
#1686=STYLED_ITEM('color',(#154),#1685);
#1687=CARTESIAN_POINT('',(7.0639,-0.85,-1.8));
#1688=VERTEX_POINT('',#1687);
#1689=CARTESIAN_POINT('',(8.5361,-0.85,-1.8));
#1690=VERTEX_POINT('',#1689);
#1691=CARTESIAN_POINT('',(7.0639,-0.425,-1.8));
#1692=VERTEX_POINT('',#1691);
#1693=CARTESIAN_POINT('',(8.5361,-0.425,-1.8));
#1694=VERTEX_POINT('',#1693);
#1695=CARTESIAN_POINT('',(7.0639,-0.85,1.));
#1696=VERTEX_POINT('',#1695);
#1697=CARTESIAN_POINT('',(8.5361,-0.85,1.));
#1698=VERTEX_POINT('',#1697);
#1699=CARTESIAN_POINT('',(7.0639,-0.425,1.));
#1700=VERTEX_POINT('',#1699);
#1701=CARTESIAN_POINT('',(8.5361,-0.425,1.));
#1702=VERTEX_POINT('',#1701);
#1703=VECTOR('',#34,0.425);
#1704=CARTESIAN_POINT('',(7.0639,-0.85,-1.8));
#1705=LINE('',#1704,#1703);
#1706=EDGE_CURVE('',#1688,#1692,#1705,.T.);
#1707=ORIENTED_EDGE('',*,*,#1706,.T.);
#1708=VECTOR('',#16,1.4722);
#1709=CARTESIAN_POINT('',(7.0639,-0.425,-1.8));
#1710=LINE('',#1709,#1708);
#1711=EDGE_CURVE('',#1692,#1694,#1710,.T.);
#1712=ORIENTED_EDGE('',*,*,#1711,.T.);
#1713=VECTOR('',#34,0.425);
#1714=CARTESIAN_POINT('',(8.5361,-0.85,-1.8));
#1715=LINE('',#1714,#1713);
#1716=EDGE_CURVE('',#1690,#1694,#1715,.T.);
#1717=ORIENTED_EDGE('',*,*,#1716,.F.);
#1718=VECTOR('',#16,1.4722);
#1719=CARTESIAN_POINT('',(7.0639,-0.85,-1.8));
#1720=LINE('',#1719,#1718);
#1721=EDGE_CURVE('',#1688,#1690,#1720,.T.);
#1722=ORIENTED_EDGE('',*,*,#1721,.F.);
#1723=EDGE_LOOP('',(#1707,#1712,#1717,#1722));
#1724=FACE_OUTER_BOUND('',#1723,.T.);
#1725=CARTESIAN_POINT('',(7.0639,-0.85,-1.8));
#1726=AXIS2_PLACEMENT_3D('',#1725,#58,#16);
#1727=PLANE('',#1726);
#1728=ADVANCED_FACE('',(#1724),#1727,.T.);
#1729=VECTOR('',#16,1.4722);
#1730=CARTESIAN_POINT('',(7.0639,-0.85,1.));
#1731=LINE('',#1730,#1729);
#1732=EDGE_CURVE('',#1696,#1698,#1731,.T.);
#1733=ORIENTED_EDGE('',*,*,#1732,.T.);
#1734=VECTOR('',#34,0.425);
#1735=CARTESIAN_POINT('',(8.5361,-0.85,1.));
#1736=LINE('',#1735,#1734);
#1737=EDGE_CURVE('',#1698,#1702,#1736,.T.);
#1738=ORIENTED_EDGE('',*,*,#1737,.T.);
#1739=VECTOR('',#16,1.4722);
#1740=CARTESIAN_POINT('',(7.0639,-0.425,1.));
#1741=LINE('',#1740,#1739);
#1742=EDGE_CURVE('',#1700,#1702,#1741,.T.);
#1743=ORIENTED_EDGE('',*,*,#1742,.F.);
#1744=VECTOR('',#34,0.425);
#1745=CARTESIAN_POINT('',(7.0639,-0.85,1.));
#1746=LINE('',#1745,#1744);
#1747=EDGE_CURVE('',#1696,#1700,#1746,.T.);
#1748=ORIENTED_EDGE('',*,*,#1747,.F.);
#1749=EDGE_LOOP('',(#1733,#1738,#1743,#1748));
#1750=FACE_OUTER_BOUND('',#1749,.T.);
#1751=CARTESIAN_POINT('',(7.0639,-0.85,1.));
#1752=AXIS2_PLACEMENT_3D('',#1751,#15,#16);
#1753=PLANE('',#1752);
#1754=ADVANCED_FACE('',(#1750),#1753,.T.);
#1755=ORIENTED_EDGE('',*,*,#1721,.T.);
#1756=VECTOR('',#15,2.8);
#1757=CARTESIAN_POINT('',(8.5361,-0.85,-1.8));
#1758=LINE('',#1757,#1756);
#1759=EDGE_CURVE('',#1690,#1698,#1758,.T.);
#1760=ORIENTED_EDGE('',*,*,#1759,.T.);
#1761=ORIENTED_EDGE('',*,*,#1732,.F.);
#1762=VECTOR('',#15,2.8);
#1763=CARTESIAN_POINT('',(7.0639,-0.85,-1.8));
#1764=LINE('',#1763,#1762);
#1765=EDGE_CURVE('',#1688,#1696,#1764,.T.);
#1766=ORIENTED_EDGE('',*,*,#1765,.F.);
#1767=EDGE_LOOP('',(#1755,#1760,#1761,#1766));
#1768=FACE_OUTER_BOUND('',#1767,.T.);
#1769=CARTESIAN_POINT('',(7.0639,-0.85,-1.8));
#1770=AXIS2_PLACEMENT_3D('',#1769,#103,#16);
#1771=PLANE('',#1770);
#1772=ADVANCED_FACE('',(#1768),#1771,.T.);
#1773=VECTOR('',#15,2.8);
#1774=CARTESIAN_POINT('',(7.0639,-0.425,-1.8));
#1775=LINE('',#1774,#1773);
#1776=EDGE_CURVE('',#1692,#1700,#1775,.T.);
#1777=ORIENTED_EDGE('',*,*,#1776,.T.);
#1778=ORIENTED_EDGE('',*,*,#1742,.T.);
#1779=VECTOR('',#15,2.8);
#1780=CARTESIAN_POINT('',(8.5361,-0.425,-1.8));
#1781=LINE('',#1780,#1779);
#1782=EDGE_CURVE('',#1694,#1702,#1781,.T.);
#1783=ORIENTED_EDGE('',*,*,#1782,.F.);
#1784=ORIENTED_EDGE('',*,*,#1711,.F.);
#1785=EDGE_LOOP('',(#1777,#1778,#1783,#1784));
#1786=FACE_OUTER_BOUND('',#1785,.T.);
#1787=CARTESIAN_POINT('',(7.0639,-0.425,-1.8));
#1788=AXIS2_PLACEMENT_3D('',#1787,#34,#16);
#1789=PLANE('',#1788);
#1790=ADVANCED_FACE('',(#1786),#1789,.T.);
#1791=ORIENTED_EDGE('',*,*,#1765,.T.);
#1792=ORIENTED_EDGE('',*,*,#1747,.T.);
#1793=ORIENTED_EDGE('',*,*,#1776,.F.);
#1794=ORIENTED_EDGE('',*,*,#1706,.F.);
#1795=EDGE_LOOP('',(#1791,#1792,#1793,#1794));
#1796=FACE_OUTER_BOUND('',#1795,.T.);
#1797=CARTESIAN_POINT('',(7.0639,-0.85,-1.8));
#1798=AXIS2_PLACEMENT_3D('',#1797,#132,#34);
#1799=PLANE('',#1798);
#1800=ADVANCED_FACE('',(#1796),#1799,.T.);
#1801=ORIENTED_EDGE('',*,*,#1716,.T.);
#1802=ORIENTED_EDGE('',*,*,#1782,.T.);
#1803=ORIENTED_EDGE('',*,*,#1737,.F.);
#1804=ORIENTED_EDGE('',*,*,#1759,.F.);
#1805=EDGE_LOOP('',(#1801,#1802,#1803,#1804));
#1806=FACE_OUTER_BOUND('',#1805,.T.);
#1807=CARTESIAN_POINT('',(8.5361,-0.85,-1.8));
#1808=AXIS2_PLACEMENT_3D('',#1807,#16,#34);
#1809=PLANE('',#1808);
#1810=ADVANCED_FACE('',(#1806),#1809,.T.);
#1811=CLOSED_SHELL('',(#1728,#1754,#1772,#1790,#1800,#1810));
#1812=MANIFOLD_SOLID_BREP('Core_1_3',#1811);
#1813=STYLED_ITEM('color',(#154),#1812);
#1814=CARTESIAN_POINT('',(6.3466,1.3,1.));
#1815=VERTEX_POINT('',#1814);
#1816=CARTESIAN_POINT('',(9.2534,1.3,1.));
#1817=VERTEX_POINT('',#1816);
#1818=CARTESIAN_POINT('',(6.3466,1.95,1.));
#1819=VERTEX_POINT('',#1818);
#1820=CARTESIAN_POINT('',(9.2534,1.95,1.));
#1821=VERTEX_POINT('',#1820);
#1822=CARTESIAN_POINT('',(6.3466,1.3,10.));
#1823=VERTEX_POINT('',#1822);
#1824=CARTESIAN_POINT('',(9.2534,1.3,10.));
#1825=VERTEX_POINT('',#1824);
#1826=CARTESIAN_POINT('',(6.3466,1.95,10.));
#1827=VERTEX_POINT('',#1826);
#1828=CARTESIAN_POINT('',(9.2534,1.95,10.));
#1829=VERTEX_POINT('',#1828);
#1830=VECTOR('',#34,0.65);
#1831=CARTESIAN_POINT('',(6.3466,1.3,1.));
#1832=LINE('',#1831,#1830);
#1833=EDGE_CURVE('',#1815,#1819,#1832,.T.);
#1834=ORIENTED_EDGE('',*,*,#1833,.T.);
#1835=VECTOR('',#16,2.9069);
#1836=CARTESIAN_POINT('',(6.3466,1.95,1.));
#1837=LINE('',#1836,#1835);
#1838=EDGE_CURVE('',#1819,#1821,#1837,.T.);
#1839=ORIENTED_EDGE('',*,*,#1838,.T.);
#1840=VECTOR('',#34,0.65);
#1841=CARTESIAN_POINT('',(9.2534,1.3,1.));
#1842=LINE('',#1841,#1840);
#1843=EDGE_CURVE('',#1817,#1821,#1842,.T.);
#1844=ORIENTED_EDGE('',*,*,#1843,.F.);
#1845=VECTOR('',#16,2.9069);
#1846=CARTESIAN_POINT('',(6.3466,1.3,1.));
#1847=LINE('',#1846,#1845);
#1848=EDGE_CURVE('',#1815,#1817,#1847,.T.);
#1849=ORIENTED_EDGE('',*,*,#1848,.F.);
#1850=EDGE_LOOP('',(#1834,#1839,#1844,#1849));
#1851=FACE_OUTER_BOUND('',#1850,.T.);
#1852=CARTESIAN_POINT('',(6.3466,1.3,1.));
#1853=AXIS2_PLACEMENT_3D('',#1852,#58,#16);
#1854=PLANE('',#1853);
#1855=ADVANCED_FACE('',(#1851),#1854,.T.);
#1856=VECTOR('',#16,2.9069);
#1857=CARTESIAN_POINT('',(6.3466,1.3,10.));
#1858=LINE('',#1857,#1856);
#1859=EDGE_CURVE('',#1823,#1825,#1858,.T.);
#1860=ORIENTED_EDGE('',*,*,#1859,.T.);
#1861=VECTOR('',#34,0.65);
#1862=CARTESIAN_POINT('',(9.2534,1.3,10.));
#1863=LINE('',#1862,#1861);
#1864=EDGE_CURVE('',#1825,#1829,#1863,.T.);
#1865=ORIENTED_EDGE('',*,*,#1864,.T.);
#1866=VECTOR('',#16,2.9069);
#1867=CARTESIAN_POINT('',(6.3466,1.95,10.));
#1868=LINE('',#1867,#1866);
#1869=EDGE_CURVE('',#1827,#1829,#1868,.T.);
#1870=ORIENTED_EDGE('',*,*,#1869,.F.);
#1871=VECTOR('',#34,0.65);
#1872=CARTESIAN_POINT('',(6.3466,1.3,10.));
#1873=LINE('',#1872,#1871);
#1874=EDGE_CURVE('',#1823,#1827,#1873,.T.);
#1875=ORIENTED_EDGE('',*,*,#1874,.F.);
#1876=EDGE_LOOP('',(#1860,#1865,#1870,#1875));
#1877=FACE_OUTER_BOUND('',#1876,.T.);
#1878=CARTESIAN_POINT('',(6.3466,1.3,10.));
#1879=AXIS2_PLACEMENT_3D('',#1878,#15,#16);
#1880=PLANE('',#1879);
#1881=ADVANCED_FACE('',(#1877),#1880,.T.);
#1882=ORIENTED_EDGE('',*,*,#1848,.T.);
#1883=VECTOR('',#15,9.);
#1884=CARTESIAN_POINT('',(9.2534,1.3,1.));
#1885=LINE('',#1884,#1883);
#1886=EDGE_CURVE('',#1817,#1825,#1885,.T.);
#1887=ORIENTED_EDGE('',*,*,#1886,.T.);
#1888=ORIENTED_EDGE('',*,*,#1859,.F.);
#1889=VECTOR('',#15,9.);
#1890=CARTESIAN_POINT('',(6.3466,1.3,1.));
#1891=LINE('',#1890,#1889);
#1892=EDGE_CURVE('',#1815,#1823,#1891,.T.);
#1893=ORIENTED_EDGE('',*,*,#1892,.F.);
#1894=EDGE_LOOP('',(#1882,#1887,#1888,#1893));
#1895=FACE_OUTER_BOUND('',#1894,.T.);
#1896=CARTESIAN_POINT('',(6.3466,1.3,1.));
#1897=AXIS2_PLACEMENT_3D('',#1896,#103,#16);
#1898=PLANE('',#1897);
#1899=ADVANCED_FACE('',(#1895),#1898,.T.);
#1900=VECTOR('',#15,9.);
#1901=CARTESIAN_POINT('',(6.3466,1.95,1.));
#1902=LINE('',#1901,#1900);
#1903=EDGE_CURVE('',#1819,#1827,#1902,.T.);
#1904=ORIENTED_EDGE('',*,*,#1903,.T.);
#1905=ORIENTED_EDGE('',*,*,#1869,.T.);
#1906=VECTOR('',#15,9.);
#1907=CARTESIAN_POINT('',(9.2534,1.95,1.));
#1908=LINE('',#1907,#1906);
#1909=EDGE_CURVE('',#1821,#1829,#1908,.T.);
#1910=ORIENTED_EDGE('',*,*,#1909,.F.);
#1911=ORIENTED_EDGE('',*,*,#1838,.F.);
#1912=EDGE_LOOP('',(#1904,#1905,#1910,#1911));
#1913=FACE_OUTER_BOUND('',#1912,.T.);
#1914=CARTESIAN_POINT('',(6.3466,1.95,1.));
#1915=AXIS2_PLACEMENT_3D('',#1914,#34,#16);
#1916=PLANE('',#1915);
#1917=ADVANCED_FACE('',(#1913),#1916,.T.);
#1918=ORIENTED_EDGE('',*,*,#1892,.T.);
#1919=ORIENTED_EDGE('',*,*,#1874,.T.);
#1920=ORIENTED_EDGE('',*,*,#1903,.F.);
#1921=ORIENTED_EDGE('',*,*,#1833,.F.);
#1922=EDGE_LOOP('',(#1918,#1919,#1920,#1921));
#1923=FACE_OUTER_BOUND('',#1922,.T.);
#1924=CARTESIAN_POINT('',(6.3466,1.3,1.));
#1925=AXIS2_PLACEMENT_3D('',#1924,#132,#34);
#1926=PLANE('',#1925);
#1927=ADVANCED_FACE('',(#1923),#1926,.T.);
#1928=ORIENTED_EDGE('',*,*,#1843,.T.);
#1929=ORIENTED_EDGE('',*,*,#1909,.T.);
#1930=ORIENTED_EDGE('',*,*,#1864,.F.);
#1931=ORIENTED_EDGE('',*,*,#1886,.F.);
#1932=EDGE_LOOP('',(#1928,#1929,#1930,#1931));
#1933=FACE_OUTER_BOUND('',#1932,.T.);
#1934=CARTESIAN_POINT('',(9.2534,1.3,1.));
#1935=AXIS2_PLACEMENT_3D('',#1934,#16,#34);
#1936=PLANE('',#1935);
#1937=ADVANCED_FACE('',(#1933),#1936,.T.);
#1938=CLOSED_SHELL('',(#1855,#1881,#1899,#1917,#1927,#1937));
#1939=MANIFOLD_SOLID_BREP('Insul_1_0',#1938);
#1940=COLOUR_RGB('',0.08,0.08,0.08);
#1941=FILL_AREA_STYLE_COLOUR('',#1940);
#1942=FILL_AREA_STYLE('',(#1941));
#1943=SURFACE_STYLE_FILL_AREA(#1942);
#1944=SURFACE_SIDE_STYLE('',(#1943));
#1945=SURFACE_STYLE_USAGE(.BOTH.,#1944);
#1946=PRESENTATION_STYLE_ASSIGNMENT((#1945));
#1947=STYLED_ITEM('color',(#1946),#1939);
#1948=CARTESIAN_POINT('',(5.9615,0.65,1.));
#1949=VERTEX_POINT('',#1948);
#1950=CARTESIAN_POINT('',(9.6385,0.65,1.));
#1951=VERTEX_POINT('',#1950);
#1952=CARTESIAN_POINT('',(5.9615,1.3,1.));
#1953=VERTEX_POINT('',#1952);
#1954=CARTESIAN_POINT('',(9.6385,1.3,1.));
#1955=VERTEX_POINT('',#1954);
#1956=CARTESIAN_POINT('',(5.9615,0.65,10.));
#1957=VERTEX_POINT('',#1956);
#1958=CARTESIAN_POINT('',(9.6385,0.65,10.));
#1959=VERTEX_POINT('',#1958);
#1960=CARTESIAN_POINT('',(5.9615,1.3,10.));
#1961=VERTEX_POINT('',#1960);
#1962=CARTESIAN_POINT('',(9.6385,1.3,10.));
#1963=VERTEX_POINT('',#1962);
#1964=VECTOR('',#34,0.65);
#1965=CARTESIAN_POINT('',(5.9615,0.65,1.));
#1966=LINE('',#1965,#1964);
#1967=EDGE_CURVE('',#1949,#1953,#1966,.T.);
#1968=ORIENTED_EDGE('',*,*,#1967,.T.);
#1969=VECTOR('',#16,3.677);
#1970=CARTESIAN_POINT('',(5.9615,1.3,1.));
#1971=LINE('',#1970,#1969);
#1972=EDGE_CURVE('',#1953,#1955,#1971,.T.);
#1973=ORIENTED_EDGE('',*,*,#1972,.T.);
#1974=VECTOR('',#34,0.65);
#1975=CARTESIAN_POINT('',(9.6385,0.65,1.));
#1976=LINE('',#1975,#1974);
#1977=EDGE_CURVE('',#1951,#1955,#1976,.T.);
#1978=ORIENTED_EDGE('',*,*,#1977,.F.);
#1979=VECTOR('',#16,3.677);
#1980=CARTESIAN_POINT('',(5.9615,0.65,1.));
#1981=LINE('',#1980,#1979);
#1982=EDGE_CURVE('',#1949,#1951,#1981,.T.);
#1983=ORIENTED_EDGE('',*,*,#1982,.F.);
#1984=EDGE_LOOP('',(#1968,#1973,#1978,#1983));
#1985=FACE_OUTER_BOUND('',#1984,.T.);
#1986=CARTESIAN_POINT('',(5.9615,0.65,1.));
#1987=AXIS2_PLACEMENT_3D('',#1986,#58,#16);
#1988=PLANE('',#1987);
#1989=ADVANCED_FACE('',(#1985),#1988,.T.);
#1990=VECTOR('',#16,3.677);
#1991=CARTESIAN_POINT('',(5.9615,0.65,10.));
#1992=LINE('',#1991,#1990);
#1993=EDGE_CURVE('',#1957,#1959,#1992,.T.);
#1994=ORIENTED_EDGE('',*,*,#1993,.T.);
#1995=VECTOR('',#34,0.65);
#1996=CARTESIAN_POINT('',(9.6385,0.65,10.));
#1997=LINE('',#1996,#1995);
#1998=EDGE_CURVE('',#1959,#1963,#1997,.T.);
#1999=ORIENTED_EDGE('',*,*,#1998,.T.);
#2000=VECTOR('',#16,3.677);
#2001=CARTESIAN_POINT('',(5.9615,1.3,10.));
#2002=LINE('',#2001,#2000);
#2003=EDGE_CURVE('',#1961,#1963,#2002,.T.);
#2004=ORIENTED_EDGE('',*,*,#2003,.F.);
#2005=VECTOR('',#34,0.65);
#2006=CARTESIAN_POINT('',(5.9615,0.65,10.));
#2007=LINE('',#2006,#2005);
#2008=EDGE_CURVE('',#1957,#1961,#2007,.T.);
#2009=ORIENTED_EDGE('',*,*,#2008,.F.);
#2010=EDGE_LOOP('',(#1994,#1999,#2004,#2009));
#2011=FACE_OUTER_BOUND('',#2010,.T.);
#2012=CARTESIAN_POINT('',(5.9615,0.65,10.));
#2013=AXIS2_PLACEMENT_3D('',#2012,#15,#16);
#2014=PLANE('',#2013);
#2015=ADVANCED_FACE('',(#2011),#2014,.T.);
#2016=ORIENTED_EDGE('',*,*,#1982,.T.);
#2017=VECTOR('',#15,9.);
#2018=CARTESIAN_POINT('',(9.6385,0.65,1.));
#2019=LINE('',#2018,#2017);
#2020=EDGE_CURVE('',#1951,#1959,#2019,.T.);
#2021=ORIENTED_EDGE('',*,*,#2020,.T.);
#2022=ORIENTED_EDGE('',*,*,#1993,.F.);
#2023=VECTOR('',#15,9.);
#2024=CARTESIAN_POINT('',(5.9615,0.65,1.));
#2025=LINE('',#2024,#2023);
#2026=EDGE_CURVE('',#1949,#1957,#2025,.T.);
#2027=ORIENTED_EDGE('',*,*,#2026,.F.);
#2028=EDGE_LOOP('',(#2016,#2021,#2022,#2027));
#2029=FACE_OUTER_BOUND('',#2028,.T.);
#2030=CARTESIAN_POINT('',(5.9615,0.65,1.));
#2031=AXIS2_PLACEMENT_3D('',#2030,#103,#16);
#2032=PLANE('',#2031);
#2033=ADVANCED_FACE('',(#2029),#2032,.T.);
#2034=VECTOR('',#15,9.);
#2035=CARTESIAN_POINT('',(5.9615,1.3,1.));
#2036=LINE('',#2035,#2034);
#2037=EDGE_CURVE('',#1953,#1961,#2036,.T.);
#2038=ORIENTED_EDGE('',*,*,#2037,.T.);
#2039=ORIENTED_EDGE('',*,*,#2003,.T.);
#2040=VECTOR('',#15,9.);
#2041=CARTESIAN_POINT('',(9.6385,1.3,1.));
#2042=LINE('',#2041,#2040);
#2043=EDGE_CURVE('',#1955,#1963,#2042,.T.);
#2044=ORIENTED_EDGE('',*,*,#2043,.F.);
#2045=ORIENTED_EDGE('',*,*,#1972,.F.);
#2046=EDGE_LOOP('',(#2038,#2039,#2044,#2045));
#2047=FACE_OUTER_BOUND('',#2046,.T.);
#2048=CARTESIAN_POINT('',(5.9615,1.3,1.));
#2049=AXIS2_PLACEMENT_3D('',#2048,#34,#16);
#2050=PLANE('',#2049);
#2051=ADVANCED_FACE('',(#2047),#2050,.T.);
#2052=ORIENTED_EDGE('',*,*,#2026,.T.);
#2053=ORIENTED_EDGE('',*,*,#2008,.T.);
#2054=ORIENTED_EDGE('',*,*,#2037,.F.);
#2055=ORIENTED_EDGE('',*,*,#1967,.F.);
#2056=EDGE_LOOP('',(#2052,#2053,#2054,#2055));
#2057=FACE_OUTER_BOUND('',#2056,.T.);
#2058=CARTESIAN_POINT('',(5.9615,0.65,1.));
#2059=AXIS2_PLACEMENT_3D('',#2058,#132,#34);
#2060=PLANE('',#2059);
#2061=ADVANCED_FACE('',(#2057),#2060,.T.);
#2062=ORIENTED_EDGE('',*,*,#1977,.T.);
#2063=ORIENTED_EDGE('',*,*,#2043,.T.);
#2064=ORIENTED_EDGE('',*,*,#1998,.F.);
#2065=ORIENTED_EDGE('',*,*,#2020,.F.);
#2066=EDGE_LOOP('',(#2062,#2063,#2064,#2065));
#2067=FACE_OUTER_BOUND('',#2066,.T.);
#2068=CARTESIAN_POINT('',(9.6385,0.65,1.));
#2069=AXIS2_PLACEMENT_3D('',#2068,#16,#34);
#2070=PLANE('',#2069);
#2071=ADVANCED_FACE('',(#2067),#2070,.T.);
#2072=CLOSED_SHELL('',(#1989,#2015,#2033,#2051,#2061,#2071));
#2073=MANIFOLD_SOLID_BREP('Insul_1_1',#2072);
#2074=STYLED_ITEM('color',(#1946),#2073);
#2075=CARTESIAN_POINT('',(5.85,-0.,1.));
#2076=VERTEX_POINT('',#2075);
#2077=CARTESIAN_POINT('',(9.75,-0.,1.));
#2078=VERTEX_POINT('',#2077);
#2079=CARTESIAN_POINT('',(5.85,0.65,1.));
#2080=VERTEX_POINT('',#2079);
#2081=CARTESIAN_POINT('',(9.75,0.65,1.));
#2082=VERTEX_POINT('',#2081);
#2083=CARTESIAN_POINT('',(5.85,-0.,10.));
#2084=VERTEX_POINT('',#2083);
#2085=CARTESIAN_POINT('',(9.75,-0.,10.));
#2086=VERTEX_POINT('',#2085);
#2087=CARTESIAN_POINT('',(5.85,0.65,10.));
#2088=VERTEX_POINT('',#2087);
#2089=CARTESIAN_POINT('',(9.75,0.65,10.));
#2090=VERTEX_POINT('',#2089);
#2091=VECTOR('',#34,0.65);
#2092=CARTESIAN_POINT('',(5.85,-0.,1.));
#2093=LINE('',#2092,#2091);
#2094=EDGE_CURVE('',#2076,#2080,#2093,.T.);
#2095=ORIENTED_EDGE('',*,*,#2094,.T.);
#2096=VECTOR('',#16,3.9);
#2097=CARTESIAN_POINT('',(5.85,0.65,1.));
#2098=LINE('',#2097,#2096);
#2099=EDGE_CURVE('',#2080,#2082,#2098,.T.);
#2100=ORIENTED_EDGE('',*,*,#2099,.T.);
#2101=VECTOR('',#34,0.65);
#2102=CARTESIAN_POINT('',(9.75,-0.,1.));
#2103=LINE('',#2102,#2101);
#2104=EDGE_CURVE('',#2078,#2082,#2103,.T.);
#2105=ORIENTED_EDGE('',*,*,#2104,.F.);
#2106=VECTOR('',#16,3.9);
#2107=CARTESIAN_POINT('',(5.85,-0.,1.));
#2108=LINE('',#2107,#2106);
#2109=EDGE_CURVE('',#2076,#2078,#2108,.T.);
#2110=ORIENTED_EDGE('',*,*,#2109,.F.);
#2111=EDGE_LOOP('',(#2095,#2100,#2105,#2110));
#2112=FACE_OUTER_BOUND('',#2111,.T.);
#2113=CARTESIAN_POINT('',(5.85,-0.,1.));
#2114=AXIS2_PLACEMENT_3D('',#2113,#58,#16);
#2115=PLANE('',#2114);
#2116=ADVANCED_FACE('',(#2112),#2115,.T.);
#2117=VECTOR('',#16,3.9);
#2118=CARTESIAN_POINT('',(5.85,-0.,10.));
#2119=LINE('',#2118,#2117);
#2120=EDGE_CURVE('',#2084,#2086,#2119,.T.);
#2121=ORIENTED_EDGE('',*,*,#2120,.T.);
#2122=VECTOR('',#34,0.65);
#2123=CARTESIAN_POINT('',(9.75,-0.,10.));
#2124=LINE('',#2123,#2122);
#2125=EDGE_CURVE('',#2086,#2090,#2124,.T.);
#2126=ORIENTED_EDGE('',*,*,#2125,.T.);
#2127=VECTOR('',#16,3.9);
#2128=CARTESIAN_POINT('',(5.85,0.65,10.));
#2129=LINE('',#2128,#2127);
#2130=EDGE_CURVE('',#2088,#2090,#2129,.T.);
#2131=ORIENTED_EDGE('',*,*,#2130,.F.);
#2132=VECTOR('',#34,0.65);
#2133=CARTESIAN_POINT('',(5.85,-0.,10.));
#2134=LINE('',#2133,#2132);
#2135=EDGE_CURVE('',#2084,#2088,#2134,.T.);
#2136=ORIENTED_EDGE('',*,*,#2135,.F.);
#2137=EDGE_LOOP('',(#2121,#2126,#2131,#2136));
#2138=FACE_OUTER_BOUND('',#2137,.T.);
#2139=CARTESIAN_POINT('',(5.85,-0.,10.));
#2140=AXIS2_PLACEMENT_3D('',#2139,#15,#16);
#2141=PLANE('',#2140);
#2142=ADVANCED_FACE('',(#2138),#2141,.T.);
#2143=ORIENTED_EDGE('',*,*,#2109,.T.);
#2144=VECTOR('',#15,9.);
#2145=CARTESIAN_POINT('',(9.75,-0.,1.));
#2146=LINE('',#2145,#2144);
#2147=EDGE_CURVE('',#2078,#2086,#2146,.T.);
#2148=ORIENTED_EDGE('',*,*,#2147,.T.);
#2149=ORIENTED_EDGE('',*,*,#2120,.F.);
#2150=VECTOR('',#15,9.);
#2151=CARTESIAN_POINT('',(5.85,-0.,1.));
#2152=LINE('',#2151,#2150);
#2153=EDGE_CURVE('',#2076,#2084,#2152,.T.);
#2154=ORIENTED_EDGE('',*,*,#2153,.F.);
#2155=EDGE_LOOP('',(#2143,#2148,#2149,#2154));
#2156=FACE_OUTER_BOUND('',#2155,.T.);
#2157=CARTESIAN_POINT('',(5.85,-0.,1.));
#2158=AXIS2_PLACEMENT_3D('',#2157,#103,#16);
#2159=PLANE('',#2158);
#2160=ADVANCED_FACE('',(#2156),#2159,.T.);
#2161=VECTOR('',#15,9.);
#2162=CARTESIAN_POINT('',(5.85,0.65,1.));
#2163=LINE('',#2162,#2161);
#2164=EDGE_CURVE('',#2080,#2088,#2163,.T.);
#2165=ORIENTED_EDGE('',*,*,#2164,.T.);
#2166=ORIENTED_EDGE('',*,*,#2130,.T.);
#2167=VECTOR('',#15,9.);
#2168=CARTESIAN_POINT('',(9.75,0.65,1.));
#2169=LINE('',#2168,#2167);
#2170=EDGE_CURVE('',#2082,#2090,#2169,.T.);
#2171=ORIENTED_EDGE('',*,*,#2170,.F.);
#2172=ORIENTED_EDGE('',*,*,#2099,.F.);
#2173=EDGE_LOOP('',(#2165,#2166,#2171,#2172));
#2174=FACE_OUTER_BOUND('',#2173,.T.);
#2175=CARTESIAN_POINT('',(5.85,0.65,1.));
#2176=AXIS2_PLACEMENT_3D('',#2175,#34,#16);
#2177=PLANE('',#2176);
#2178=ADVANCED_FACE('',(#2174),#2177,.T.);
#2179=ORIENTED_EDGE('',*,*,#2153,.T.);
#2180=ORIENTED_EDGE('',*,*,#2135,.T.);
#2181=ORIENTED_EDGE('',*,*,#2164,.F.);
#2182=ORIENTED_EDGE('',*,*,#2094,.F.);
#2183=EDGE_LOOP('',(#2179,#2180,#2181,#2182));
#2184=FACE_OUTER_BOUND('',#2183,.T.);
#2185=CARTESIAN_POINT('',(5.85,-0.,1.));
#2186=AXIS2_PLACEMENT_3D('',#2185,#132,#34);
#2187=PLANE('',#2186);
#2188=ADVANCED_FACE('',(#2184),#2187,.T.);
#2189=ORIENTED_EDGE('',*,*,#2104,.T.);
#2190=ORIENTED_EDGE('',*,*,#2170,.T.);
#2191=ORIENTED_EDGE('',*,*,#2125,.F.);
#2192=ORIENTED_EDGE('',*,*,#2147,.F.);
#2193=EDGE_LOOP('',(#2189,#2190,#2191,#2192));
#2194=FACE_OUTER_BOUND('',#2193,.T.);
#2195=CARTESIAN_POINT('',(9.75,-0.,1.));
#2196=AXIS2_PLACEMENT_3D('',#2195,#16,#34);
#2197=PLANE('',#2196);
#2198=ADVANCED_FACE('',(#2194),#2197,.T.);
#2199=CLOSED_SHELL('',(#2116,#2142,#2160,#2178,#2188,#2198));
#2200=MANIFOLD_SOLID_BREP('Insul_1_2',#2199);
#2201=STYLED_ITEM('color',(#1946),#2200);
#2202=CARTESIAN_POINT('',(5.85,-0.65,1.));
#2203=VERTEX_POINT('',#2202);
#2204=CARTESIAN_POINT('',(9.75,-0.65,1.));
#2205=VERTEX_POINT('',#2204);
#2206=CARTESIAN_POINT('',(5.85,-0.,1.));
#2207=VERTEX_POINT('',#2206);
#2208=CARTESIAN_POINT('',(9.75,-0.,1.));
#2209=VERTEX_POINT('',#2208);
#2210=CARTESIAN_POINT('',(5.85,-0.65,10.));
#2211=VERTEX_POINT('',#2210);
#2212=CARTESIAN_POINT('',(9.75,-0.65,10.));
#2213=VERTEX_POINT('',#2212);
#2214=CARTESIAN_POINT('',(5.85,-0.,10.));
#2215=VERTEX_POINT('',#2214);
#2216=CARTESIAN_POINT('',(9.75,-0.,10.));
#2217=VERTEX_POINT('',#2216);
#2218=VECTOR('',#34,0.65);
#2219=CARTESIAN_POINT('',(5.85,-0.65,1.));
#2220=LINE('',#2219,#2218);
#2221=EDGE_CURVE('',#2203,#2207,#2220,.T.);
#2222=ORIENTED_EDGE('',*,*,#2221,.T.);
#2223=VECTOR('',#16,3.9);
#2224=CARTESIAN_POINT('',(5.85,-0.,1.));
#2225=LINE('',#2224,#2223);
#2226=EDGE_CURVE('',#2207,#2209,#2225,.T.);
#2227=ORIENTED_EDGE('',*,*,#2226,.T.);
#2228=VECTOR('',#34,0.65);
#2229=CARTESIAN_POINT('',(9.75,-0.65,1.));
#2230=LINE('',#2229,#2228);
#2231=EDGE_CURVE('',#2205,#2209,#2230,.T.);
#2232=ORIENTED_EDGE('',*,*,#2231,.F.);
#2233=VECTOR('',#16,3.9);
#2234=CARTESIAN_POINT('',(5.85,-0.65,1.));
#2235=LINE('',#2234,#2233);
#2236=EDGE_CURVE('',#2203,#2205,#2235,.T.);
#2237=ORIENTED_EDGE('',*,*,#2236,.F.);
#2238=EDGE_LOOP('',(#2222,#2227,#2232,#2237));
#2239=FACE_OUTER_BOUND('',#2238,.T.);
#2240=CARTESIAN_POINT('',(5.85,-0.65,1.));
#2241=AXIS2_PLACEMENT_3D('',#2240,#58,#16);
#2242=PLANE('',#2241);
#2243=ADVANCED_FACE('',(#2239),#2242,.T.);
#2244=VECTOR('',#16,3.9);
#2245=CARTESIAN_POINT('',(5.85,-0.65,10.));
#2246=LINE('',#2245,#2244);
#2247=EDGE_CURVE('',#2211,#2213,#2246,.T.);
#2248=ORIENTED_EDGE('',*,*,#2247,.T.);
#2249=VECTOR('',#34,0.65);
#2250=CARTESIAN_POINT('',(9.75,-0.65,10.));
#2251=LINE('',#2250,#2249);
#2252=EDGE_CURVE('',#2213,#2217,#2251,.T.);
#2253=ORIENTED_EDGE('',*,*,#2252,.T.);
#2254=VECTOR('',#16,3.9);
#2255=CARTESIAN_POINT('',(5.85,-0.,10.));
#2256=LINE('',#2255,#2254);
#2257=EDGE_CURVE('',#2215,#2217,#2256,.T.);
#2258=ORIENTED_EDGE('',*,*,#2257,.F.);
#2259=VECTOR('',#34,0.65);
#2260=CARTESIAN_POINT('',(5.85,-0.65,10.));
#2261=LINE('',#2260,#2259);
#2262=EDGE_CURVE('',#2211,#2215,#2261,.T.);
#2263=ORIENTED_EDGE('',*,*,#2262,.F.);
#2264=EDGE_LOOP('',(#2248,#2253,#2258,#2263));
#2265=FACE_OUTER_BOUND('',#2264,.T.);
#2266=CARTESIAN_POINT('',(5.85,-0.65,10.));
#2267=AXIS2_PLACEMENT_3D('',#2266,#15,#16);
#2268=PLANE('',#2267);
#2269=ADVANCED_FACE('',(#2265),#2268,.T.);
#2270=ORIENTED_EDGE('',*,*,#2236,.T.);
#2271=VECTOR('',#15,9.);
#2272=CARTESIAN_POINT('',(9.75,-0.65,1.));
#2273=LINE('',#2272,#2271);
#2274=EDGE_CURVE('',#2205,#2213,#2273,.T.);
#2275=ORIENTED_EDGE('',*,*,#2274,.T.);
#2276=ORIENTED_EDGE('',*,*,#2247,.F.);
#2277=VECTOR('',#15,9.);
#2278=CARTESIAN_POINT('',(5.85,-0.65,1.));
#2279=LINE('',#2278,#2277);
#2280=EDGE_CURVE('',#2203,#2211,#2279,.T.);
#2281=ORIENTED_EDGE('',*,*,#2280,.F.);
#2282=EDGE_LOOP('',(#2270,#2275,#2276,#2281));
#2283=FACE_OUTER_BOUND('',#2282,.T.);
#2284=CARTESIAN_POINT('',(5.85,-0.65,1.));
#2285=AXIS2_PLACEMENT_3D('',#2284,#103,#16);
#2286=PLANE('',#2285);
#2287=ADVANCED_FACE('',(#2283),#2286,.T.);
#2288=VECTOR('',#15,9.);
#2289=CARTESIAN_POINT('',(5.85,-0.,1.));
#2290=LINE('',#2289,#2288);
#2291=EDGE_CURVE('',#2207,#2215,#2290,.T.);
#2292=ORIENTED_EDGE('',*,*,#2291,.T.);
#2293=ORIENTED_EDGE('',*,*,#2257,.T.);
#2294=VECTOR('',#15,9.);
#2295=CARTESIAN_POINT('',(9.75,-0.,1.));
#2296=LINE('',#2295,#2294);
#2297=EDGE_CURVE('',#2209,#2217,#2296,.T.);
#2298=ORIENTED_EDGE('',*,*,#2297,.F.);
#2299=ORIENTED_EDGE('',*,*,#2226,.F.);
#2300=EDGE_LOOP('',(#2292,#2293,#2298,#2299));
#2301=FACE_OUTER_BOUND('',#2300,.T.);
#2302=CARTESIAN_POINT('',(5.85,-0.,1.));
#2303=AXIS2_PLACEMENT_3D('',#2302,#34,#16);
#2304=PLANE('',#2303);
#2305=ADVANCED_FACE('',(#2301),#2304,.T.);
#2306=ORIENTED_EDGE('',*,*,#2280,.T.);
#2307=ORIENTED_EDGE('',*,*,#2262,.T.);
#2308=ORIENTED_EDGE('',*,*,#2291,.F.);
#2309=ORIENTED_EDGE('',*,*,#2221,.F.);
#2310=EDGE_LOOP('',(#2306,#2307,#2308,#2309));
#2311=FACE_OUTER_BOUND('',#2310,.T.);
#2312=CARTESIAN_POINT('',(5.85,-0.65,1.));
#2313=AXIS2_PLACEMENT_3D('',#2312,#132,#34);
#2314=PLANE('',#2313);
#2315=ADVANCED_FACE('',(#2311),#2314,.T.);
#2316=ORIENTED_EDGE('',*,*,#2231,.T.);
#2317=ORIENTED_EDGE('',*,*,#2297,.T.);
#2318=ORIENTED_EDGE('',*,*,#2252,.F.);
#2319=ORIENTED_EDGE('',*,*,#2274,.F.);
#2320=EDGE_LOOP('',(#2316,#2317,#2318,#2319));
#2321=FACE_OUTER_BOUND('',#2320,.T.);
#2322=CARTESIAN_POINT('',(9.75,-0.65,1.));
#2323=AXIS2_PLACEMENT_3D('',#2322,#16,#34);
#2324=PLANE('',#2323);
#2325=ADVANCED_FACE('',(#2321),#2324,.T.);
#2326=CLOSED_SHELL('',(#2243,#2269,#2287,#2305,#2315,#2325));
#2327=MANIFOLD_SOLID_BREP('Insul_1_3',#2326);
#2328=STYLED_ITEM('color',(#1946),#2327);
#2329=CARTESIAN_POINT('',(5.9615,-1.3,1.));
#2330=VERTEX_POINT('',#2329);
#2331=CARTESIAN_POINT('',(9.6385,-1.3,1.));
#2332=VERTEX_POINT('',#2331);
#2333=CARTESIAN_POINT('',(5.9615,-0.65,1.));
#2334=VERTEX_POINT('',#2333);
#2335=CARTESIAN_POINT('',(9.6385,-0.65,1.));
#2336=VERTEX_POINT('',#2335);
#2337=CARTESIAN_POINT('',(5.9615,-1.3,10.));
#2338=VERTEX_POINT('',#2337);
#2339=CARTESIAN_POINT('',(9.6385,-1.3,10.));
#2340=VERTEX_POINT('',#2339);
#2341=CARTESIAN_POINT('',(5.9615,-0.65,10.));
#2342=VERTEX_POINT('',#2341);
#2343=CARTESIAN_POINT('',(9.6385,-0.65,10.));
#2344=VERTEX_POINT('',#2343);
#2345=VECTOR('',#34,0.65);
#2346=CARTESIAN_POINT('',(5.9615,-1.3,1.));
#2347=LINE('',#2346,#2345);
#2348=EDGE_CURVE('',#2330,#2334,#2347,.T.);
#2349=ORIENTED_EDGE('',*,*,#2348,.T.);
#2350=VECTOR('',#16,3.677);
#2351=CARTESIAN_POINT('',(5.9615,-0.65,1.));
#2352=LINE('',#2351,#2350);
#2353=EDGE_CURVE('',#2334,#2336,#2352,.T.);
#2354=ORIENTED_EDGE('',*,*,#2353,.T.);
#2355=VECTOR('',#34,0.65);
#2356=CARTESIAN_POINT('',(9.6385,-1.3,1.));
#2357=LINE('',#2356,#2355);
#2358=EDGE_CURVE('',#2332,#2336,#2357,.T.);
#2359=ORIENTED_EDGE('',*,*,#2358,.F.);
#2360=VECTOR('',#16,3.677);
#2361=CARTESIAN_POINT('',(5.9615,-1.3,1.));
#2362=LINE('',#2361,#2360);
#2363=EDGE_CURVE('',#2330,#2332,#2362,.T.);
#2364=ORIENTED_EDGE('',*,*,#2363,.F.);
#2365=EDGE_LOOP('',(#2349,#2354,#2359,#2364));
#2366=FACE_OUTER_BOUND('',#2365,.T.);
#2367=CARTESIAN_POINT('',(5.9615,-1.3,1.));
#2368=AXIS2_PLACEMENT_3D('',#2367,#58,#16);
#2369=PLANE('',#2368);
#2370=ADVANCED_FACE('',(#2366),#2369,.T.);
#2371=VECTOR('',#16,3.677);
#2372=CARTESIAN_POINT('',(5.9615,-1.3,10.));
#2373=LINE('',#2372,#2371);
#2374=EDGE_CURVE('',#2338,#2340,#2373,.T.);
#2375=ORIENTED_EDGE('',*,*,#2374,.T.);
#2376=VECTOR('',#34,0.65);
#2377=CARTESIAN_POINT('',(9.6385,-1.3,10.));
#2378=LINE('',#2377,#2376);
#2379=EDGE_CURVE('',#2340,#2344,#2378,.T.);
#2380=ORIENTED_EDGE('',*,*,#2379,.T.);
#2381=VECTOR('',#16,3.677);
#2382=CARTESIAN_POINT('',(5.9615,-0.65,10.));
#2383=LINE('',#2382,#2381);
#2384=EDGE_CURVE('',#2342,#2344,#2383,.T.);
#2385=ORIENTED_EDGE('',*,*,#2384,.F.);
#2386=VECTOR('',#34,0.65);
#2387=CARTESIAN_POINT('',(5.9615,-1.3,10.));
#2388=LINE('',#2387,#2386);
#2389=EDGE_CURVE('',#2338,#2342,#2388,.T.);
#2390=ORIENTED_EDGE('',*,*,#2389,.F.);
#2391=EDGE_LOOP('',(#2375,#2380,#2385,#2390));
#2392=FACE_OUTER_BOUND('',#2391,.T.);
#2393=CARTESIAN_POINT('',(5.9615,-1.3,10.));
#2394=AXIS2_PLACEMENT_3D('',#2393,#15,#16);
#2395=PLANE('',#2394);
#2396=ADVANCED_FACE('',(#2392),#2395,.T.);
#2397=ORIENTED_EDGE('',*,*,#2363,.T.);
#2398=VECTOR('',#15,9.);
#2399=CARTESIAN_POINT('',(9.6385,-1.3,1.));
#2400=LINE('',#2399,#2398);
#2401=EDGE_CURVE('',#2332,#2340,#2400,.T.);
#2402=ORIENTED_EDGE('',*,*,#2401,.T.);
#2403=ORIENTED_EDGE('',*,*,#2374,.F.);
#2404=VECTOR('',#15,9.);
#2405=CARTESIAN_POINT('',(5.9615,-1.3,1.));
#2406=LINE('',#2405,#2404);
#2407=EDGE_CURVE('',#2330,#2338,#2406,.T.);
#2408=ORIENTED_EDGE('',*,*,#2407,.F.);
#2409=EDGE_LOOP('',(#2397,#2402,#2403,#2408));
#2410=FACE_OUTER_BOUND('',#2409,.T.);
#2411=CARTESIAN_POINT('',(5.9615,-1.3,1.));
#2412=AXIS2_PLACEMENT_3D('',#2411,#103,#16);
#2413=PLANE('',#2412);
#2414=ADVANCED_FACE('',(#2410),#2413,.T.);
#2415=VECTOR('',#15,9.);
#2416=CARTESIAN_POINT('',(5.9615,-0.65,1.));
#2417=LINE('',#2416,#2415);
#2418=EDGE_CURVE('',#2334,#2342,#2417,.T.);
#2419=ORIENTED_EDGE('',*,*,#2418,.T.);
#2420=ORIENTED_EDGE('',*,*,#2384,.T.);
#2421=VECTOR('',#15,9.);
#2422=CARTESIAN_POINT('',(9.6385,-0.65,1.));
#2423=LINE('',#2422,#2421);
#2424=EDGE_CURVE('',#2336,#2344,#2423,.T.);
#2425=ORIENTED_EDGE('',*,*,#2424,.F.);
#2426=ORIENTED_EDGE('',*,*,#2353,.F.);
#2427=EDGE_LOOP('',(#2419,#2420,#2425,#2426));
#2428=FACE_OUTER_BOUND('',#2427,.T.);
#2429=CARTESIAN_POINT('',(5.9615,-0.65,1.));
#2430=AXIS2_PLACEMENT_3D('',#2429,#34,#16);
#2431=PLANE('',#2430);
#2432=ADVANCED_FACE('',(#2428),#2431,.T.);
#2433=ORIENTED_EDGE('',*,*,#2407,.T.);
#2434=ORIENTED_EDGE('',*,*,#2389,.T.);
#2435=ORIENTED_EDGE('',*,*,#2418,.F.);
#2436=ORIENTED_EDGE('',*,*,#2348,.F.);
#2437=EDGE_LOOP('',(#2433,#2434,#2435,#2436));
#2438=FACE_OUTER_BOUND('',#2437,.T.);
#2439=CARTESIAN_POINT('',(5.9615,-1.3,1.));
#2440=AXIS2_PLACEMENT_3D('',#2439,#132,#34);
#2441=PLANE('',#2440);
#2442=ADVANCED_FACE('',(#2438),#2441,.T.);
#2443=ORIENTED_EDGE('',*,*,#2358,.T.);
#2444=ORIENTED_EDGE('',*,*,#2424,.T.);
#2445=ORIENTED_EDGE('',*,*,#2379,.F.);
#2446=ORIENTED_EDGE('',*,*,#2401,.F.);
#2447=EDGE_LOOP('',(#2443,#2444,#2445,#2446));
#2448=FACE_OUTER_BOUND('',#2447,.T.);
#2449=CARTESIAN_POINT('',(9.6385,-1.3,1.));
#2450=AXIS2_PLACEMENT_3D('',#2449,#16,#34);
#2451=PLANE('',#2450);
#2452=ADVANCED_FACE('',(#2448),#2451,.T.);
#2453=CLOSED_SHELL('',(#2370,#2396,#2414,#2432,#2442,#2452));
#2454=MANIFOLD_SOLID_BREP('Insul_1_4',#2453);
#2455=STYLED_ITEM('color',(#1946),#2454);
#2456=CARTESIAN_POINT('',(6.3466,-1.95,1.));
#2457=VERTEX_POINT('',#2456);
#2458=CARTESIAN_POINT('',(9.2534,-1.95,1.));
#2459=VERTEX_POINT('',#2458);
#2460=CARTESIAN_POINT('',(6.3466,-1.3,1.));
#2461=VERTEX_POINT('',#2460);
#2462=CARTESIAN_POINT('',(9.2534,-1.3,1.));
#2463=VERTEX_POINT('',#2462);
#2464=CARTESIAN_POINT('',(6.3466,-1.95,10.));
#2465=VERTEX_POINT('',#2464);
#2466=CARTESIAN_POINT('',(9.2534,-1.95,10.));
#2467=VERTEX_POINT('',#2466);
#2468=CARTESIAN_POINT('',(6.3466,-1.3,10.));
#2469=VERTEX_POINT('',#2468);
#2470=CARTESIAN_POINT('',(9.2534,-1.3,10.));
#2471=VERTEX_POINT('',#2470);
#2472=VECTOR('',#34,0.65);
#2473=CARTESIAN_POINT('',(6.3466,-1.95,1.));
#2474=LINE('',#2473,#2472);
#2475=EDGE_CURVE('',#2457,#2461,#2474,.T.);
#2476=ORIENTED_EDGE('',*,*,#2475,.T.);
#2477=VECTOR('',#16,2.9069);
#2478=CARTESIAN_POINT('',(6.3466,-1.3,1.));
#2479=LINE('',#2478,#2477);
#2480=EDGE_CURVE('',#2461,#2463,#2479,.T.);
#2481=ORIENTED_EDGE('',*,*,#2480,.T.);
#2482=VECTOR('',#34,0.65);
#2483=CARTESIAN_POINT('',(9.2534,-1.95,1.));
#2484=LINE('',#2483,#2482);
#2485=EDGE_CURVE('',#2459,#2463,#2484,.T.);
#2486=ORIENTED_EDGE('',*,*,#2485,.F.);
#2487=VECTOR('',#16,2.9069);
#2488=CARTESIAN_POINT('',(6.3466,-1.95,1.));
#2489=LINE('',#2488,#2487);
#2490=EDGE_CURVE('',#2457,#2459,#2489,.T.);
#2491=ORIENTED_EDGE('',*,*,#2490,.F.);
#2492=EDGE_LOOP('',(#2476,#2481,#2486,#2491));
#2493=FACE_OUTER_BOUND('',#2492,.T.);
#2494=CARTESIAN_POINT('',(6.3466,-1.95,1.));
#2495=AXIS2_PLACEMENT_3D('',#2494,#58,#16);
#2496=PLANE('',#2495);
#2497=ADVANCED_FACE('',(#2493),#2496,.T.);
#2498=VECTOR('',#16,2.9069);
#2499=CARTESIAN_POINT('',(6.3466,-1.95,10.));
#2500=LINE('',#2499,#2498);
#2501=EDGE_CURVE('',#2465,#2467,#2500,.T.);
#2502=ORIENTED_EDGE('',*,*,#2501,.T.);
#2503=VECTOR('',#34,0.65);
#2504=CARTESIAN_POINT('',(9.2534,-1.95,10.));
#2505=LINE('',#2504,#2503);
#2506=EDGE_CURVE('',#2467,#2471,#2505,.T.);
#2507=ORIENTED_EDGE('',*,*,#2506,.T.);
#2508=VECTOR('',#16,2.9069);
#2509=CARTESIAN_POINT('',(6.3466,-1.3,10.));
#2510=LINE('',#2509,#2508);
#2511=EDGE_CURVE('',#2469,#2471,#2510,.T.);
#2512=ORIENTED_EDGE('',*,*,#2511,.F.);
#2513=VECTOR('',#34,0.65);
#2514=CARTESIAN_POINT('',(6.3466,-1.95,10.));
#2515=LINE('',#2514,#2513);
#2516=EDGE_CURVE('',#2465,#2469,#2515,.T.);
#2517=ORIENTED_EDGE('',*,*,#2516,.F.);
#2518=EDGE_LOOP('',(#2502,#2507,#2512,#2517));
#2519=FACE_OUTER_BOUND('',#2518,.T.);
#2520=CARTESIAN_POINT('',(6.3466,-1.95,10.));
#2521=AXIS2_PLACEMENT_3D('',#2520,#15,#16);
#2522=PLANE('',#2521);
#2523=ADVANCED_FACE('',(#2519),#2522,.T.);
#2524=ORIENTED_EDGE('',*,*,#2490,.T.);
#2525=VECTOR('',#15,9.);
#2526=CARTESIAN_POINT('',(9.2534,-1.95,1.));
#2527=LINE('',#2526,#2525);
#2528=EDGE_CURVE('',#2459,#2467,#2527,.T.);
#2529=ORIENTED_EDGE('',*,*,#2528,.T.);
#2530=ORIENTED_EDGE('',*,*,#2501,.F.);
#2531=VECTOR('',#15,9.);
#2532=CARTESIAN_POINT('',(6.3466,-1.95,1.));
#2533=LINE('',#2532,#2531);
#2534=EDGE_CURVE('',#2457,#2465,#2533,.T.);
#2535=ORIENTED_EDGE('',*,*,#2534,.F.);
#2536=EDGE_LOOP('',(#2524,#2529,#2530,#2535));
#2537=FACE_OUTER_BOUND('',#2536,.T.);
#2538=CARTESIAN_POINT('',(6.3466,-1.95,1.));
#2539=AXIS2_PLACEMENT_3D('',#2538,#103,#16);
#2540=PLANE('',#2539);
#2541=ADVANCED_FACE('',(#2537),#2540,.T.);
#2542=VECTOR('',#15,9.);
#2543=CARTESIAN_POINT('',(6.3466,-1.3,1.));
#2544=LINE('',#2543,#2542);
#2545=EDGE_CURVE('',#2461,#2469,#2544,.T.);
#2546=ORIENTED_EDGE('',*,*,#2545,.T.);
#2547=ORIENTED_EDGE('',*,*,#2511,.T.);
#2548=VECTOR('',#15,9.);
#2549=CARTESIAN_POINT('',(9.2534,-1.3,1.));
#2550=LINE('',#2549,#2548);
#2551=EDGE_CURVE('',#2463,#2471,#2550,.T.);
#2552=ORIENTED_EDGE('',*,*,#2551,.F.);
#2553=ORIENTED_EDGE('',*,*,#2480,.F.);
#2554=EDGE_LOOP('',(#2546,#2547,#2552,#2553));
#2555=FACE_OUTER_BOUND('',#2554,.T.);
#2556=CARTESIAN_POINT('',(6.3466,-1.3,1.));
#2557=AXIS2_PLACEMENT_3D('',#2556,#34,#16);
#2558=PLANE('',#2557);
#2559=ADVANCED_FACE('',(#2555),#2558,.T.);
#2560=ORIENTED_EDGE('',*,*,#2534,.T.);
#2561=ORIENTED_EDGE('',*,*,#2516,.T.);
#2562=ORIENTED_EDGE('',*,*,#2545,.F.);
#2563=ORIENTED_EDGE('',*,*,#2475,.F.);
#2564=EDGE_LOOP('',(#2560,#2561,#2562,#2563));
#2565=FACE_OUTER_BOUND('',#2564,.T.);
#2566=CARTESIAN_POINT('',(6.3466,-1.95,1.));
#2567=AXIS2_PLACEMENT_3D('',#2566,#132,#34);
#2568=PLANE('',#2567);
#2569=ADVANCED_FACE('',(#2565),#2568,.T.);
#2570=ORIENTED_EDGE('',*,*,#2485,.T.);
#2571=ORIENTED_EDGE('',*,*,#2551,.T.);
#2572=ORIENTED_EDGE('',*,*,#2506,.F.);
#2573=ORIENTED_EDGE('',*,*,#2528,.F.);
#2574=EDGE_LOOP('',(#2570,#2571,#2572,#2573));
#2575=FACE_OUTER_BOUND('',#2574,.T.);
#2576=CARTESIAN_POINT('',(9.2534,-1.95,1.));
#2577=AXIS2_PLACEMENT_3D('',#2576,#16,#34);
#2578=PLANE('',#2577);
#2579=ADVANCED_FACE('',(#2575),#2578,.T.);
#2580=CLOSED_SHELL('',(#2497,#2523,#2541,#2559,#2569,#2579));
#2581=MANIFOLD_SOLID_BREP('Insul_1_5',#2580);
#2582=STYLED_ITEM('color',(#1946),#2581);
#2583=ADVANCED_BREP_SHAPE_REPRESENTATION('',(#17,#147,#281,#408,#535,#662,#796,#923,#1050,#1177,#1304,#1431,#1558,#1685,#1812,#1939,#2073,#2200,#2327,#2454,#2581),#13);
#2584=SHAPE_DEFINITION_REPRESENTATION(#8,#2583);
#2585=MECHANICAL_DESIGN_GEOMETRIC_PRESENTATION_REPRESENTATION('',(#155,#282,#409,#536,#670,#797,#924,#1051,#1178,#1305,#1432,#1559,#1686,#1813,#1947,#2074,#2201,#2328,#2455,#2582),#13);
ENDSEC;
END-ISO-10303-21;
