ISO-10303-21;
HEADER;
FILE_DESCRIPTION(('WSON-12-1EP_3x3mm simplified model'),'2;1');
FILE_NAME('WSON-12-1EP_3x3mm.step','2026-09-23T00:00:00',('gopo'),(''),'step_boxes.py','','');
FILE_SCHEMA(('AUTOMOTIVE_DESIGN { 1 0 10303 214 1 1 1 1 }'));
ENDSEC;
DATA;
#1=APPLICATION_CONTEXT('core data for automotive mechanical design processes');
#2=APPLICATION_PROTOCOL_DEFINITION('international standard','automotive_design',2000,#1);
#3=PRODUCT_CONTEXT('',#1,'mechanical');
#4=PRODUCT('WSON-12-1EP_3x3mm','WSON-12-1EP_3x3mm','',(#3));
#5=PRODUCT_DEFINITION_FORMATION('','',#4);
#6=PRODUCT_DEFINITION_CONTEXT('part definition',#1,'design');
#7=PRODUCT_DEFINITION('design','',#5,#6);
#8=PRODUCT_DEFINITION_SHAPE('','',#7);
#9=( LENGTH_UNIT() NAMED_UNIT(*) SI_UNIT(.MILLI.,.METRE.) );
#10=( NAMED_UNIT(*) PLANE_ANGLE_UNIT() SI_UNIT($,.RADIAN.) );
#11=( NAMED_UNIT(*) SI_UNIT($,.STERADIAN.) SOLID_ANGLE_UNIT() );
#12=UNCERTAINTY_MEASURE_WITH_UNIT(LENGTH_MEASURE(1.E-07),#9,'distance_accuracy_value','confusion accuracy');
#13=( GEOMETRIC_REPRESENTATION_CONTEXT(3) GLOBAL_UNCERTAINTY_ASSIGNED_CONTEXT((#12)) GLOBAL_UNIT_ASSIGNED_CONTEXT((#9,#10,#11)) REPRESENTATION_CONTEXT('Context #1','3D Context with UNIT and UNCERTAINTY') );
#14=CARTESIAN_POINT('',(0.,0.,0.));
#15=DIRECTION('',(0.,0.,1.));
#16=DIRECTION('',(1.,0.,0.));
#17=AXIS2_PLACEMENT_3D('',#14,#15,#16);
#18=CARTESIAN_POINT('',(-1.5,-1.5,0.));
#19=VERTEX_POINT('',#18);
#20=CARTESIAN_POINT('',(1.5,-1.5,0.));
#21=VERTEX_POINT('',#20);
#22=CARTESIAN_POINT('',(-1.5,1.5,0.));
#23=VERTEX_POINT('',#22);
#24=CARTESIAN_POINT('',(1.5,1.5,0.));
#25=VERTEX_POINT('',#24);
#26=CARTESIAN_POINT('',(-1.5,-1.5,0.75));
#27=VERTEX_POINT('',#26);
#28=CARTESIAN_POINT('',(1.5,-1.5,0.75));
#29=VERTEX_POINT('',#28);
#30=CARTESIAN_POINT('',(-1.5,1.5,0.75));
#31=VERTEX_POINT('',#30);
#32=CARTESIAN_POINT('',(1.5,1.5,0.75));
#33=VERTEX_POINT('',#32);
#34=DIRECTION('',(0.,1.,0.));
#35=VECTOR('',#34,3.);
#36=CARTESIAN_POINT('',(-1.5,-1.5,0.));
#37=LINE('',#36,#35);
#38=EDGE_CURVE('',#19,#23,#37,.T.);
#39=ORIENTED_EDGE('',*,*,#38,.T.);
#40=VECTOR('',#16,3.);
#41=CARTESIAN_POINT('',(-1.5,1.5,0.));
#42=LINE('',#41,#40);
#43=EDGE_CURVE('',#23,#25,#42,.T.);
#44=ORIENTED_EDGE('',*,*,#43,.T.);
#45=VECTOR('',#34,3.);
#46=CARTESIAN_POINT('',(1.5,-1.5,0.));
#47=LINE('',#46,#45);
#48=EDGE_CURVE('',#21,#25,#47,.T.);
#49=ORIENTED_EDGE('',*,*,#48,.F.);
#50=VECTOR('',#16,3.);
#51=CARTESIAN_POINT('',(-1.5,-1.5,0.));
#52=LINE('',#51,#50);
#53=EDGE_CURVE('',#19,#21,#52,.T.);
#54=ORIENTED_EDGE('',*,*,#53,.F.);
#55=EDGE_LOOP('',(#39,#44,#49,#54));
#56=FACE_OUTER_BOUND('',#55,.T.);
#57=CARTESIAN_POINT('',(-1.5,-1.5,0.));
#58=DIRECTION('',(0.,0.,-1.));
#59=AXIS2_PLACEMENT_3D('',#57,#58,#16);
#60=PLANE('',#59);
#61=ADVANCED_FACE('',(#56),#60,.T.);
#62=VECTOR('',#16,3.);
#63=CARTESIAN_POINT('',(-1.5,-1.5,0.75));
#64=LINE('',#63,#62);
#65=EDGE_CURVE('',#27,#29,#64,.T.);
#66=ORIENTED_EDGE('',*,*,#65,.T.);
#67=VECTOR('',#34,3.);
#68=CARTESIAN_POINT('',(1.5,-1.5,0.75));
#69=LINE('',#68,#67);
#70=EDGE_CURVE('',#29,#33,#69,.T.);
#71=ORIENTED_EDGE('',*,*,#70,.T.);
#72=VECTOR('',#16,3.);
#73=CARTESIAN_POINT('',(-1.5,1.5,0.75));
#74=LINE('',#73,#72);
#75=EDGE_CURVE('',#31,#33,#74,.T.);
#76=ORIENTED_EDGE('',*,*,#75,.F.);
#77=VECTOR('',#34,3.);
#78=CARTESIAN_POINT('',(-1.5,-1.5,0.75));
#79=LINE('',#78,#77);
#80=EDGE_CURVE('',#27,#31,#79,.T.);
#81=ORIENTED_EDGE('',*,*,#80,.F.);
#82=EDGE_LOOP('',(#66,#71,#76,#81));
#83=FACE_OUTER_BOUND('',#82,.T.);
#84=CARTESIAN_POINT('',(-1.5,-1.5,0.75));
#85=AXIS2_PLACEMENT_3D('',#84,#15,#16);
#86=PLANE('',#85);
#87=ADVANCED_FACE('',(#83),#86,.T.);
#88=ORIENTED_EDGE('',*,*,#53,.T.);
#89=VECTOR('',#15,0.75);
#90=CARTESIAN_POINT('',(1.5,-1.5,0.));
#91=LINE('',#90,#89);
#92=EDGE_CURVE('',#21,#29,#91,.T.);
#93=ORIENTED_EDGE('',*,*,#92,.T.);
#94=ORIENTED_EDGE('',*,*,#65,.F.);
#95=VECTOR('',#15,0.75);
#96=CARTESIAN_POINT('',(-1.5,-1.5,0.));
#97=LINE('',#96,#95);
#98=EDGE_CURVE('',#19,#27,#97,.T.);
#99=ORIENTED_EDGE('',*,*,#98,.F.);
#100=EDGE_LOOP('',(#88,#93,#94,#99));
#101=FACE_OUTER_BOUND('',#100,.T.);
#102=CARTESIAN_POINT('',(-1.5,-1.5,0.));
#103=DIRECTION('',(0.,-1.,0.));
#104=AXIS2_PLACEMENT_3D('',#102,#103,#16);
#105=PLANE('',#104);
#106=ADVANCED_FACE('',(#101),#105,.T.);
#107=VECTOR('',#15,0.75);
#108=CARTESIAN_POINT('',(-1.5,1.5,0.));
#109=LINE('',#108,#107);
#110=EDGE_CURVE('',#23,#31,#109,.T.);
#111=ORIENTED_EDGE('',*,*,#110,.T.);
#112=ORIENTED_EDGE('',*,*,#75,.T.);
#113=VECTOR('',#15,0.75);
#114=CARTESIAN_POINT('',(1.5,1.5,0.));
#115=LINE('',#114,#113);
#116=EDGE_CURVE('',#25,#33,#115,.T.);
#117=ORIENTED_EDGE('',*,*,#116,.F.);
#118=ORIENTED_EDGE('',*,*,#43,.F.);
#119=EDGE_LOOP('',(#111,#112,#117,#118));
#120=FACE_OUTER_BOUND('',#119,.T.);
#121=CARTESIAN_POINT('',(-1.5,1.5,0.));
#122=AXIS2_PLACEMENT_3D('',#121,#34,#16);
#123=PLANE('',#122);
#124=ADVANCED_FACE('',(#120),#123,.T.);
#125=ORIENTED_EDGE('',*,*,#98,.T.);
#126=ORIENTED_EDGE('',*,*,#80,.T.);
#127=ORIENTED_EDGE('',*,*,#110,.F.);
#128=ORIENTED_EDGE('',*,*,#38,.F.);
#129=EDGE_LOOP('',(#125,#126,#127,#128));
#130=FACE_OUTER_BOUND('',#129,.T.);
#131=CARTESIAN_POINT('',(-1.5,-1.5,0.));
#132=DIRECTION('',(-1.,0.,0.));
#133=AXIS2_PLACEMENT_3D('',#131,#132,#34);
#134=PLANE('',#133);
#135=ADVANCED_FACE('',(#130),#134,.T.);
#136=ORIENTED_EDGE('',*,*,#48,.T.);
#137=ORIENTED_EDGE('',*,*,#116,.T.);
#138=ORIENTED_EDGE('',*,*,#70,.F.);
#139=ORIENTED_EDGE('',*,*,#92,.F.);
#140=EDGE_LOOP('',(#136,#137,#138,#139));
#141=FACE_OUTER_BOUND('',#140,.T.);
#142=CARTESIAN_POINT('',(1.5,-1.5,0.));
#143=AXIS2_PLACEMENT_3D('',#142,#16,#34);
#144=PLANE('',#143);
#145=ADVANCED_FACE('',(#141),#144,.T.);
#146=CLOSED_SHELL('',(#61,#87,#106,#124,#135,#145));
#147=MANIFOLD_SOLID_BREP('Body',#146);
#148=COLOUR_RGB('',0.08,0.08,0.08);
#149=FILL_AREA_STYLE_COLOUR('',#148);
#150=FILL_AREA_STYLE('',(#149));
#151=SURFACE_STYLE_FILL_AREA(#150);
#152=SURFACE_SIDE_STYLE('',(#151));
#153=SURFACE_STYLE_USAGE(.BOTH.,#152);
#154=PRESENTATION_STYLE_ASSIGNMENT((#153));
#155=STYLED_ITEM('color',(#154),#147);
#156=CARTESIAN_POINT('',(-1.5,1.13,0.));
#157=VERTEX_POINT('',#156);
#158=CARTESIAN_POINT('',(-1.1,1.13,0.));
#159=VERTEX_POINT('',#158);
#160=CARTESIAN_POINT('',(-1.5,1.37,0.));
#161=VERTEX_POINT('',#160);
#162=CARTESIAN_POINT('',(-1.1,1.37,0.));
#163=VERTEX_POINT('',#162);
#164=CARTESIAN_POINT('',(-1.5,1.13,0.2));
#165=VERTEX_POINT('',#164);
#166=CARTESIAN_POINT('',(-1.1,1.13,0.2));
#167=VERTEX_POINT('',#166);
#168=CARTESIAN_POINT('',(-1.5,1.37,0.2));
#169=VERTEX_POINT('',#168);
#170=CARTESIAN_POINT('',(-1.1,1.37,0.2));
#171=VERTEX_POINT('',#170);
#172=VECTOR('',#34,0.24);
#173=CARTESIAN_POINT('',(-1.5,1.13,0.));
#174=LINE('',#173,#172);
#175=EDGE_CURVE('',#157,#161,#174,.T.);
#176=ORIENTED_EDGE('',*,*,#175,.T.);
#177=VECTOR('',#16,0.4);
#178=CARTESIAN_POINT('',(-1.5,1.37,0.));
#179=LINE('',#178,#177);
#180=EDGE_CURVE('',#161,#163,#179,.T.);
#181=ORIENTED_EDGE('',*,*,#180,.T.);
#182=VECTOR('',#34,0.24);
#183=CARTESIAN_POINT('',(-1.1,1.13,0.));
#184=LINE('',#183,#182);
#185=EDGE_CURVE('',#159,#163,#184,.T.);
#186=ORIENTED_EDGE('',*,*,#185,.F.);
#187=VECTOR('',#16,0.4);
#188=CARTESIAN_POINT('',(-1.5,1.13,0.));
#189=LINE('',#188,#187);
#190=EDGE_CURVE('',#157,#159,#189,.T.);
#191=ORIENTED_EDGE('',*,*,#190,.F.);
#192=EDGE_LOOP('',(#176,#181,#186,#191));
#193=FACE_OUTER_BOUND('',#192,.T.);
#194=CARTESIAN_POINT('',(-1.5,1.13,0.));
#195=AXIS2_PLACEMENT_3D('',#194,#58,#16);
#196=PLANE('',#195);
#197=ADVANCED_FACE('',(#193),#196,.T.);
#198=VECTOR('',#16,0.4);
#199=CARTESIAN_POINT('',(-1.5,1.13,0.2));
#200=LINE('',#199,#198);
#201=EDGE_CURVE('',#165,#167,#200,.T.);
#202=ORIENTED_EDGE('',*,*,#201,.T.);
#203=VECTOR('',#34,0.24);
#204=CARTESIAN_POINT('',(-1.1,1.13,0.2));
#205=LINE('',#204,#203);
#206=EDGE_CURVE('',#167,#171,#205,.T.);
#207=ORIENTED_EDGE('',*,*,#206,.T.);
#208=VECTOR('',#16,0.4);
#209=CARTESIAN_POINT('',(-1.5,1.37,0.2));
#210=LINE('',#209,#208);
#211=EDGE_CURVE('',#169,#171,#210,.T.);
#212=ORIENTED_EDGE('',*,*,#211,.F.);
#213=VECTOR('',#34,0.24);
#214=CARTESIAN_POINT('',(-1.5,1.13,0.2));
#215=LINE('',#214,#213);
#216=EDGE_CURVE('',#165,#169,#215,.T.);
#217=ORIENTED_EDGE('',*,*,#216,.F.);
#218=EDGE_LOOP('',(#202,#207,#212,#217));
#219=FACE_OUTER_BOUND('',#218,.T.);
#220=CARTESIAN_POINT('',(-1.5,1.13,0.2));
#221=AXIS2_PLACEMENT_3D('',#220,#15,#16);
#222=PLANE('',#221);
#223=ADVANCED_FACE('',(#219),#222,.T.);
#224=ORIENTED_EDGE('',*,*,#190,.T.);
#225=VECTOR('',#15,0.2);
#226=CARTESIAN_POINT('',(-1.1,1.13,0.));
#227=LINE('',#226,#225);
#228=EDGE_CURVE('',#159,#167,#227,.T.);
#229=ORIENTED_EDGE('',*,*,#228,.T.);
#230=ORIENTED_EDGE('',*,*,#201,.F.);
#231=VECTOR('',#15,0.2);
#232=CARTESIAN_POINT('',(-1.5,1.13,0.));
#233=LINE('',#232,#231);
#234=EDGE_CURVE('',#157,#165,#233,.T.);
#235=ORIENTED_EDGE('',*,*,#234,.F.);
#236=EDGE_LOOP('',(#224,#229,#230,#235));
#237=FACE_OUTER_BOUND('',#236,.T.);
#238=CARTESIAN_POINT('',(-1.5,1.13,0.));
#239=AXIS2_PLACEMENT_3D('',#238,#103,#16);
#240=PLANE('',#239);
#241=ADVANCED_FACE('',(#237),#240,.T.);
#242=VECTOR('',#15,0.2);
#243=CARTESIAN_POINT('',(-1.5,1.37,0.));
#244=LINE('',#243,#242);
#245=EDGE_CURVE('',#161,#169,#244,.T.);
#246=ORIENTED_EDGE('',*,*,#245,.T.);
#247=ORIENTED_EDGE('',*,*,#211,.T.);
#248=VECTOR('',#15,0.2);
#249=CARTESIAN_POINT('',(-1.1,1.37,0.));
#250=LINE('',#249,#248);
#251=EDGE_CURVE('',#163,#171,#250,.T.);
#252=ORIENTED_EDGE('',*,*,#251,.F.);
#253=ORIENTED_EDGE('',*,*,#180,.F.);
#254=EDGE_LOOP('',(#246,#247,#252,#253));
#255=FACE_OUTER_BOUND('',#254,.T.);
#256=CARTESIAN_POINT('',(-1.5,1.37,0.));
#257=AXIS2_PLACEMENT_3D('',#256,#34,#16);
#258=PLANE('',#257);
#259=ADVANCED_FACE('',(#255),#258,.T.);
#260=ORIENTED_EDGE('',*,*,#234,.T.);
#261=ORIENTED_EDGE('',*,*,#216,.T.);
#262=ORIENTED_EDGE('',*,*,#245,.F.);
#263=ORIENTED_EDGE('',*,*,#175,.F.);
#264=EDGE_LOOP('',(#260,#261,#262,#263));
#265=FACE_OUTER_BOUND('',#264,.T.);
#266=CARTESIAN_POINT('',(-1.5,1.13,0.));
#267=AXIS2_PLACEMENT_3D('',#266,#132,#34);
#268=PLANE('',#267);
#269=ADVANCED_FACE('',(#265),#268,.T.);
#270=ORIENTED_EDGE('',*,*,#185,.T.);
#271=ORIENTED_EDGE('',*,*,#251,.T.);
#272=ORIENTED_EDGE('',*,*,#206,.F.);
#273=ORIENTED_EDGE('',*,*,#228,.F.);
#274=EDGE_LOOP('',(#270,#271,#272,#273));
#275=FACE_OUTER_BOUND('',#274,.T.);
#276=CARTESIAN_POINT('',(-1.1,1.13,0.));
#277=AXIS2_PLACEMENT_3D('',#276,#16,#34);
#278=PLANE('',#277);
#279=ADVANCED_FACE('',(#275),#278,.T.);
#280=CLOSED_SHELL('',(#197,#223,#241,#259,#269,#279));
#281=MANIFOLD_SOLID_BREP('Pin_-1_0',#280);
#282=COLOUR_RGB('',0.78,0.78,0.8);
#283=FILL_AREA_STYLE_COLOUR('',#282);
#284=FILL_AREA_STYLE('',(#283));
#285=SURFACE_STYLE_FILL_AREA(#284);
#286=SURFACE_SIDE_STYLE('',(#285));
#287=SURFACE_STYLE_USAGE(.BOTH.,#286);
#288=PRESENTATION_STYLE_ASSIGNMENT((#287));
#289=STYLED_ITEM('color',(#288),#281);
#290=CARTESIAN_POINT('',(1.1,1.13,0.));
#291=VERTEX_POINT('',#290);
#292=CARTESIAN_POINT('',(1.5,1.13,0.));
#293=VERTEX_POINT('',#292);
#294=CARTESIAN_POINT('',(1.1,1.37,0.));
#295=VERTEX_POINT('',#294);
#296=CARTESIAN_POINT('',(1.5,1.37,0.));
#297=VERTEX_POINT('',#296);
#298=CARTESIAN_POINT('',(1.1,1.13,0.2));
#299=VERTEX_POINT('',#298);
#300=CARTESIAN_POINT('',(1.5,1.13,0.2));
#301=VERTEX_POINT('',#300);
#302=CARTESIAN_POINT('',(1.1,1.37,0.2));
#303=VERTEX_POINT('',#302);
#304=CARTESIAN_POINT('',(1.5,1.37,0.2));
#305=VERTEX_POINT('',#304);
#306=VECTOR('',#34,0.24);
#307=CARTESIAN_POINT('',(1.1,1.13,0.));
#308=LINE('',#307,#306);
#309=EDGE_CURVE('',#291,#295,#308,.T.);
#310=ORIENTED_EDGE('',*,*,#309,.T.);
#311=VECTOR('',#16,0.4);
#312=CARTESIAN_POINT('',(1.1,1.37,0.));
#313=LINE('',#312,#311);
#314=EDGE_CURVE('',#295,#297,#313,.T.);
#315=ORIENTED_EDGE('',*,*,#314,.T.);
#316=VECTOR('',#34,0.24);
#317=CARTESIAN_POINT('',(1.5,1.13,0.));
#318=LINE('',#317,#316);
#319=EDGE_CURVE('',#293,#297,#318,.T.);
#320=ORIENTED_EDGE('',*,*,#319,.F.);
#321=VECTOR('',#16,0.4);
#322=CARTESIAN_POINT('',(1.1,1.13,0.));
#323=LINE('',#322,#321);
#324=EDGE_CURVE('',#291,#293,#323,.T.);
#325=ORIENTED_EDGE('',*,*,#324,.F.);
#326=EDGE_LOOP('',(#310,#315,#320,#325));
#327=FACE_OUTER_BOUND('',#326,.T.);
#328=CARTESIAN_POINT('',(1.1,1.13,0.));
#329=AXIS2_PLACEMENT_3D('',#328,#58,#16);
#330=PLANE('',#329);
#331=ADVANCED_FACE('',(#327),#330,.T.);
#332=VECTOR('',#16,0.4);
#333=CARTESIAN_POINT('',(1.1,1.13,0.2));
#334=LINE('',#333,#332);
#335=EDGE_CURVE('',#299,#301,#334,.T.);
#336=ORIENTED_EDGE('',*,*,#335,.T.);
#337=VECTOR('',#34,0.24);
#338=CARTESIAN_POINT('',(1.5,1.13,0.2));
#339=LINE('',#338,#337);
#340=EDGE_CURVE('',#301,#305,#339,.T.);
#341=ORIENTED_EDGE('',*,*,#340,.T.);
#342=VECTOR('',#16,0.4);
#343=CARTESIAN_POINT('',(1.1,1.37,0.2));
#344=LINE('',#343,#342);
#345=EDGE_CURVE('',#303,#305,#344,.T.);
#346=ORIENTED_EDGE('',*,*,#345,.F.);
#347=VECTOR('',#34,0.24);
#348=CARTESIAN_POINT('',(1.1,1.13,0.2));
#349=LINE('',#348,#347);
#350=EDGE_CURVE('',#299,#303,#349,.T.);
#351=ORIENTED_EDGE('',*,*,#350,.F.);
#352=EDGE_LOOP('',(#336,#341,#346,#351));
#353=FACE_OUTER_BOUND('',#352,.T.);
#354=CARTESIAN_POINT('',(1.1,1.13,0.2));
#355=AXIS2_PLACEMENT_3D('',#354,#15,#16);
#356=PLANE('',#355);
#357=ADVANCED_FACE('',(#353),#356,.T.);
#358=ORIENTED_EDGE('',*,*,#324,.T.);
#359=VECTOR('',#15,0.2);
#360=CARTESIAN_POINT('',(1.5,1.13,0.));
#361=LINE('',#360,#359);
#362=EDGE_CURVE('',#293,#301,#361,.T.);
#363=ORIENTED_EDGE('',*,*,#362,.T.);
#364=ORIENTED_EDGE('',*,*,#335,.F.);
#365=VECTOR('',#15,0.2);
#366=CARTESIAN_POINT('',(1.1,1.13,0.));
#367=LINE('',#366,#365);
#368=EDGE_CURVE('',#291,#299,#367,.T.);
#369=ORIENTED_EDGE('',*,*,#368,.F.);
#370=EDGE_LOOP('',(#358,#363,#364,#369));
#371=FACE_OUTER_BOUND('',#370,.T.);
#372=CARTESIAN_POINT('',(1.1,1.13,0.));
#373=AXIS2_PLACEMENT_3D('',#372,#103,#16);
#374=PLANE('',#373);
#375=ADVANCED_FACE('',(#371),#374,.T.);
#376=VECTOR('',#15,0.2);
#377=CARTESIAN_POINT('',(1.1,1.37,0.));
#378=LINE('',#377,#376);
#379=EDGE_CURVE('',#295,#303,#378,.T.);
#380=ORIENTED_EDGE('',*,*,#379,.T.);
#381=ORIENTED_EDGE('',*,*,#345,.T.);
#382=VECTOR('',#15,0.2);
#383=CARTESIAN_POINT('',(1.5,1.37,0.));
#384=LINE('',#383,#382);
#385=EDGE_CURVE('',#297,#305,#384,.T.);
#386=ORIENTED_EDGE('',*,*,#385,.F.);
#387=ORIENTED_EDGE('',*,*,#314,.F.);
#388=EDGE_LOOP('',(#380,#381,#386,#387));
#389=FACE_OUTER_BOUND('',#388,.T.);
#390=CARTESIAN_POINT('',(1.1,1.37,0.));
#391=AXIS2_PLACEMENT_3D('',#390,#34,#16);
#392=PLANE('',#391);
#393=ADVANCED_FACE('',(#389),#392,.T.);
#394=ORIENTED_EDGE('',*,*,#368,.T.);
#395=ORIENTED_EDGE('',*,*,#350,.T.);
#396=ORIENTED_EDGE('',*,*,#379,.F.);
#397=ORIENTED_EDGE('',*,*,#309,.F.);
#398=EDGE_LOOP('',(#394,#395,#396,#397));
#399=FACE_OUTER_BOUND('',#398,.T.);
#400=CARTESIAN_POINT('',(1.1,1.13,0.));
#401=AXIS2_PLACEMENT_3D('',#400,#132,#34);
#402=PLANE('',#401);
#403=ADVANCED_FACE('',(#399),#402,.T.);
#404=ORIENTED_EDGE('',*,*,#319,.T.);
#405=ORIENTED_EDGE('',*,*,#385,.T.);
#406=ORIENTED_EDGE('',*,*,#340,.F.);
#407=ORIENTED_EDGE('',*,*,#362,.F.);
#408=EDGE_LOOP('',(#404,#405,#406,#407));
#409=FACE_OUTER_BOUND('',#408,.T.);
#410=CARTESIAN_POINT('',(1.5,1.13,0.));
#411=AXIS2_PLACEMENT_3D('',#410,#16,#34);
#412=PLANE('',#411);
#413=ADVANCED_FACE('',(#409),#412,.T.);
#414=CLOSED_SHELL('',(#331,#357,#375,#393,#403,#413));
#415=MANIFOLD_SOLID_BREP('Pin_1_0',#414);
#416=STYLED_ITEM('color',(#288),#415);
#417=CARTESIAN_POINT('',(-1.5,0.63,0.));
#418=VERTEX_POINT('',#417);
#419=CARTESIAN_POINT('',(-1.1,0.63,0.));
#420=VERTEX_POINT('',#419);
#421=CARTESIAN_POINT('',(-1.5,0.87,0.));
#422=VERTEX_POINT('',#421);
#423=CARTESIAN_POINT('',(-1.1,0.87,0.));
#424=VERTEX_POINT('',#423);
#425=CARTESIAN_POINT('',(-1.5,0.63,0.2));
#426=VERTEX_POINT('',#425);
#427=CARTESIAN_POINT('',(-1.1,0.63,0.2));
#428=VERTEX_POINT('',#427);
#429=CARTESIAN_POINT('',(-1.5,0.87,0.2));
#430=VERTEX_POINT('',#429);
#431=CARTESIAN_POINT('',(-1.1,0.87,0.2));
#432=VERTEX_POINT('',#431);
#433=VECTOR('',#34,0.24);
#434=CARTESIAN_POINT('',(-1.5,0.63,0.));
#435=LINE('',#434,#433);
#436=EDGE_CURVE('',#418,#422,#435,.T.);
#437=ORIENTED_EDGE('',*,*,#436,.T.);
#438=VECTOR('',#16,0.4);
#439=CARTESIAN_POINT('',(-1.5,0.87,0.));
#440=LINE('',#439,#438);
#441=EDGE_CURVE('',#422,#424,#440,.T.);
#442=ORIENTED_EDGE('',*,*,#441,.T.);
#443=VECTOR('',#34,0.24);
#444=CARTESIAN_POINT('',(-1.1,0.63,0.));
#445=LINE('',#444,#443);
#446=EDGE_CURVE('',#420,#424,#445,.T.);
#447=ORIENTED_EDGE('',*,*,#446,.F.);
#448=VECTOR('',#16,0.4);
#449=CARTESIAN_POINT('',(-1.5,0.63,0.));
#450=LINE('',#449,#448);
#451=EDGE_CURVE('',#418,#420,#450,.T.);
#452=ORIENTED_EDGE('',*,*,#451,.F.);
#453=EDGE_LOOP('',(#437,#442,#447,#452));
#454=FACE_OUTER_BOUND('',#453,.T.);
#455=CARTESIAN_POINT('',(-1.5,0.63,0.));
#456=AXIS2_PLACEMENT_3D('',#455,#58,#16);
#457=PLANE('',#456);
#458=ADVANCED_FACE('',(#454),#457,.T.);
#459=VECTOR('',#16,0.4);
#460=CARTESIAN_POINT('',(-1.5,0.63,0.2));
#461=LINE('',#460,#459);
#462=EDGE_CURVE('',#426,#428,#461,.T.);
#463=ORIENTED_EDGE('',*,*,#462,.T.);
#464=VECTOR('',#34,0.24);
#465=CARTESIAN_POINT('',(-1.1,0.63,0.2));
#466=LINE('',#465,#464);
#467=EDGE_CURVE('',#428,#432,#466,.T.);
#468=ORIENTED_EDGE('',*,*,#467,.T.);
#469=VECTOR('',#16,0.4);
#470=CARTESIAN_POINT('',(-1.5,0.87,0.2));
#471=LINE('',#470,#469);
#472=EDGE_CURVE('',#430,#432,#471,.T.);
#473=ORIENTED_EDGE('',*,*,#472,.F.);
#474=VECTOR('',#34,0.24);
#475=CARTESIAN_POINT('',(-1.5,0.63,0.2));
#476=LINE('',#475,#474);
#477=EDGE_CURVE('',#426,#430,#476,.T.);
#478=ORIENTED_EDGE('',*,*,#477,.F.);
#479=EDGE_LOOP('',(#463,#468,#473,#478));
#480=FACE_OUTER_BOUND('',#479,.T.);
#481=CARTESIAN_POINT('',(-1.5,0.63,0.2));
#482=AXIS2_PLACEMENT_3D('',#481,#15,#16);
#483=PLANE('',#482);
#484=ADVANCED_FACE('',(#480),#483,.T.);
#485=ORIENTED_EDGE('',*,*,#451,.T.);
#486=VECTOR('',#15,0.2);
#487=CARTESIAN_POINT('',(-1.1,0.63,0.));
#488=LINE('',#487,#486);
#489=EDGE_CURVE('',#420,#428,#488,.T.);
#490=ORIENTED_EDGE('',*,*,#489,.T.);
#491=ORIENTED_EDGE('',*,*,#462,.F.);
#492=VECTOR('',#15,0.2);
#493=CARTESIAN_POINT('',(-1.5,0.63,0.));
#494=LINE('',#493,#492);
#495=EDGE_CURVE('',#418,#426,#494,.T.);
#496=ORIENTED_EDGE('',*,*,#495,.F.);
#497=EDGE_LOOP('',(#485,#490,#491,#496));
#498=FACE_OUTER_BOUND('',#497,.T.);
#499=CARTESIAN_POINT('',(-1.5,0.63,0.));
#500=AXIS2_PLACEMENT_3D('',#499,#103,#16);
#501=PLANE('',#500);
#502=ADVANCED_FACE('',(#498),#501,.T.);
#503=VECTOR('',#15,0.2);
#504=CARTESIAN_POINT('',(-1.5,0.87,0.));
#505=LINE('',#504,#503);
#506=EDGE_CURVE('',#422,#430,#505,.T.);
#507=ORIENTED_EDGE('',*,*,#506,.T.);
#508=ORIENTED_EDGE('',*,*,#472,.T.);
#509=VECTOR('',#15,0.2);
#510=CARTESIAN_POINT('',(-1.1,0.87,0.));
#511=LINE('',#510,#509);
#512=EDGE_CURVE('',#424,#432,#511,.T.);
#513=ORIENTED_EDGE('',*,*,#512,.F.);
#514=ORIENTED_EDGE('',*,*,#441,.F.);
#515=EDGE_LOOP('',(#507,#508,#513,#514));
#516=FACE_OUTER_BOUND('',#515,.T.);
#517=CARTESIAN_POINT('',(-1.5,0.87,0.));
#518=AXIS2_PLACEMENT_3D('',#517,#34,#16);
#519=PLANE('',#518);
#520=ADVANCED_FACE('',(#516),#519,.T.);
#521=ORIENTED_EDGE('',*,*,#495,.T.);
#522=ORIENTED_EDGE('',*,*,#477,.T.);
#523=ORIENTED_EDGE('',*,*,#506,.F.);
#524=ORIENTED_EDGE('',*,*,#436,.F.);
#525=EDGE_LOOP('',(#521,#522,#523,#524));
#526=FACE_OUTER_BOUND('',#525,.T.);
#527=CARTESIAN_POINT('',(-1.5,0.63,0.));
#528=AXIS2_PLACEMENT_3D('',#527,#132,#34);
#529=PLANE('',#528);
#530=ADVANCED_FACE('',(#526),#529,.T.);
#531=ORIENTED_EDGE('',*,*,#446,.T.);
#532=ORIENTED_EDGE('',*,*,#512,.T.);
#533=ORIENTED_EDGE('',*,*,#467,.F.);
#534=ORIENTED_EDGE('',*,*,#489,.F.);
#535=EDGE_LOOP('',(#531,#532,#533,#534));
#536=FACE_OUTER_BOUND('',#535,.T.);
#537=CARTESIAN_POINT('',(-1.1,0.63,0.));
#538=AXIS2_PLACEMENT_3D('',#537,#16,#34);
#539=PLANE('',#538);
#540=ADVANCED_FACE('',(#536),#539,.T.);
#541=CLOSED_SHELL('',(#458,#484,#502,#520,#530,#540));
#542=MANIFOLD_SOLID_BREP('Pin_-1_1',#541);
#543=STYLED_ITEM('color',(#288),#542);
#544=CARTESIAN_POINT('',(1.1,0.63,0.));
#545=VERTEX_POINT('',#544);
#546=CARTESIAN_POINT('',(1.5,0.63,0.));
#547=VERTEX_POINT('',#546);
#548=CARTESIAN_POINT('',(1.1,0.87,0.));
#549=VERTEX_POINT('',#548);
#550=CARTESIAN_POINT('',(1.5,0.87,0.));
#551=VERTEX_POINT('',#550);
#552=CARTESIAN_POINT('',(1.1,0.63,0.2));
#553=VERTEX_POINT('',#552);
#554=CARTESIAN_POINT('',(1.5,0.63,0.2));
#555=VERTEX_POINT('',#554);
#556=CARTESIAN_POINT('',(1.1,0.87,0.2));
#557=VERTEX_POINT('',#556);
#558=CARTESIAN_POINT('',(1.5,0.87,0.2));
#559=VERTEX_POINT('',#558);
#560=VECTOR('',#34,0.24);
#561=CARTESIAN_POINT('',(1.1,0.63,0.));
#562=LINE('',#561,#560);
#563=EDGE_CURVE('',#545,#549,#562,.T.);
#564=ORIENTED_EDGE('',*,*,#563,.T.);
#565=VECTOR('',#16,0.4);
#566=CARTESIAN_POINT('',(1.1,0.87,0.));
#567=LINE('',#566,#565);
#568=EDGE_CURVE('',#549,#551,#567,.T.);
#569=ORIENTED_EDGE('',*,*,#568,.T.);
#570=VECTOR('',#34,0.24);
#571=CARTESIAN_POINT('',(1.5,0.63,0.));
#572=LINE('',#571,#570);
#573=EDGE_CURVE('',#547,#551,#572,.T.);
#574=ORIENTED_EDGE('',*,*,#573,.F.);
#575=VECTOR('',#16,0.4);
#576=CARTESIAN_POINT('',(1.1,0.63,0.));
#577=LINE('',#576,#575);
#578=EDGE_CURVE('',#545,#547,#577,.T.);
#579=ORIENTED_EDGE('',*,*,#578,.F.);
#580=EDGE_LOOP('',(#564,#569,#574,#579));
#581=FACE_OUTER_BOUND('',#580,.T.);
#582=CARTESIAN_POINT('',(1.1,0.63,0.));
#583=AXIS2_PLACEMENT_3D('',#582,#58,#16);
#584=PLANE('',#583);
#585=ADVANCED_FACE('',(#581),#584,.T.);
#586=VECTOR('',#16,0.4);
#587=CARTESIAN_POINT('',(1.1,0.63,0.2));
#588=LINE('',#587,#586);
#589=EDGE_CURVE('',#553,#555,#588,.T.);
#590=ORIENTED_EDGE('',*,*,#589,.T.);
#591=VECTOR('',#34,0.24);
#592=CARTESIAN_POINT('',(1.5,0.63,0.2));
#593=LINE('',#592,#591);
#594=EDGE_CURVE('',#555,#559,#593,.T.);
#595=ORIENTED_EDGE('',*,*,#594,.T.);
#596=VECTOR('',#16,0.4);
#597=CARTESIAN_POINT('',(1.1,0.87,0.2));
#598=LINE('',#597,#596);
#599=EDGE_CURVE('',#557,#559,#598,.T.);
#600=ORIENTED_EDGE('',*,*,#599,.F.);
#601=VECTOR('',#34,0.24);
#602=CARTESIAN_POINT('',(1.1,0.63,0.2));
#603=LINE('',#602,#601);
#604=EDGE_CURVE('',#553,#557,#603,.T.);
#605=ORIENTED_EDGE('',*,*,#604,.F.);
#606=EDGE_LOOP('',(#590,#595,#600,#605));
#607=FACE_OUTER_BOUND('',#606,.T.);
#608=CARTESIAN_POINT('',(1.1,0.63,0.2));
#609=AXIS2_PLACEMENT_3D('',#608,#15,#16);
#610=PLANE('',#609);
#611=ADVANCED_FACE('',(#607),#610,.T.);
#612=ORIENTED_EDGE('',*,*,#578,.T.);
#613=VECTOR('',#15,0.2);
#614=CARTESIAN_POINT('',(1.5,0.63,0.));
#615=LINE('',#614,#613);
#616=EDGE_CURVE('',#547,#555,#615,.T.);
#617=ORIENTED_EDGE('',*,*,#616,.T.);
#618=ORIENTED_EDGE('',*,*,#589,.F.);
#619=VECTOR('',#15,0.2);
#620=CARTESIAN_POINT('',(1.1,0.63,0.));
#621=LINE('',#620,#619);
#622=EDGE_CURVE('',#545,#553,#621,.T.);
#623=ORIENTED_EDGE('',*,*,#622,.F.);
#624=EDGE_LOOP('',(#612,#617,#618,#623));
#625=FACE_OUTER_BOUND('',#624,.T.);
#626=CARTESIAN_POINT('',(1.1,0.63,0.));
#627=AXIS2_PLACEMENT_3D('',#626,#103,#16);
#628=PLANE('',#627);
#629=ADVANCED_FACE('',(#625),#628,.T.);
#630=VECTOR('',#15,0.2);
#631=CARTESIAN_POINT('',(1.1,0.87,0.));
#632=LINE('',#631,#630);
#633=EDGE_CURVE('',#549,#557,#632,.T.);
#634=ORIENTED_EDGE('',*,*,#633,.T.);
#635=ORIENTED_EDGE('',*,*,#599,.T.);
#636=VECTOR('',#15,0.2);
#637=CARTESIAN_POINT('',(1.5,0.87,0.));
#638=LINE('',#637,#636);
#639=EDGE_CURVE('',#551,#559,#638,.T.);
#640=ORIENTED_EDGE('',*,*,#639,.F.);
#641=ORIENTED_EDGE('',*,*,#568,.F.);
#642=EDGE_LOOP('',(#634,#635,#640,#641));
#643=FACE_OUTER_BOUND('',#642,.T.);
#644=CARTESIAN_POINT('',(1.1,0.87,0.));
#645=AXIS2_PLACEMENT_3D('',#644,#34,#16);
#646=PLANE('',#645);
#647=ADVANCED_FACE('',(#643),#646,.T.);
#648=ORIENTED_EDGE('',*,*,#622,.T.);
#649=ORIENTED_EDGE('',*,*,#604,.T.);
#650=ORIENTED_EDGE('',*,*,#633,.F.);
#651=ORIENTED_EDGE('',*,*,#563,.F.);
#652=EDGE_LOOP('',(#648,#649,#650,#651));
#653=FACE_OUTER_BOUND('',#652,.T.);
#654=CARTESIAN_POINT('',(1.1,0.63,0.));
#655=AXIS2_PLACEMENT_3D('',#654,#132,#34);
#656=PLANE('',#655);
#657=ADVANCED_FACE('',(#653),#656,.T.);
#658=ORIENTED_EDGE('',*,*,#573,.T.);
#659=ORIENTED_EDGE('',*,*,#639,.T.);
#660=ORIENTED_EDGE('',*,*,#594,.F.);
#661=ORIENTED_EDGE('',*,*,#616,.F.);
#662=EDGE_LOOP('',(#658,#659,#660,#661));
#663=FACE_OUTER_BOUND('',#662,.T.);
#664=CARTESIAN_POINT('',(1.5,0.63,0.));
#665=AXIS2_PLACEMENT_3D('',#664,#16,#34);
#666=PLANE('',#665);
#667=ADVANCED_FACE('',(#663),#666,.T.);
#668=CLOSED_SHELL('',(#585,#611,#629,#647,#657,#667));
#669=MANIFOLD_SOLID_BREP('Pin_1_1',#668);
#670=STYLED_ITEM('color',(#288),#669);
#671=CARTESIAN_POINT('',(-1.5,0.13,0.));
#672=VERTEX_POINT('',#671);
#673=CARTESIAN_POINT('',(-1.1,0.13,0.));
#674=VERTEX_POINT('',#673);
#675=CARTESIAN_POINT('',(-1.5,0.37,0.));
#676=VERTEX_POINT('',#675);
#677=CARTESIAN_POINT('',(-1.1,0.37,0.));
#678=VERTEX_POINT('',#677);
#679=CARTESIAN_POINT('',(-1.5,0.13,0.2));
#680=VERTEX_POINT('',#679);
#681=CARTESIAN_POINT('',(-1.1,0.13,0.2));
#682=VERTEX_POINT('',#681);
#683=CARTESIAN_POINT('',(-1.5,0.37,0.2));
#684=VERTEX_POINT('',#683);
#685=CARTESIAN_POINT('',(-1.1,0.37,0.2));
#686=VERTEX_POINT('',#685);
#687=VECTOR('',#34,0.24);
#688=CARTESIAN_POINT('',(-1.5,0.13,0.));
#689=LINE('',#688,#687);
#690=EDGE_CURVE('',#672,#676,#689,.T.);
#691=ORIENTED_EDGE('',*,*,#690,.T.);
#692=VECTOR('',#16,0.4);
#693=CARTESIAN_POINT('',(-1.5,0.37,0.));
#694=LINE('',#693,#692);
#695=EDGE_CURVE('',#676,#678,#694,.T.);
#696=ORIENTED_EDGE('',*,*,#695,.T.);
#697=VECTOR('',#34,0.24);
#698=CARTESIAN_POINT('',(-1.1,0.13,0.));
#699=LINE('',#698,#697);
#700=EDGE_CURVE('',#674,#678,#699,.T.);
#701=ORIENTED_EDGE('',*,*,#700,.F.);
#702=VECTOR('',#16,0.4);
#703=CARTESIAN_POINT('',(-1.5,0.13,0.));
#704=LINE('',#703,#702);
#705=EDGE_CURVE('',#672,#674,#704,.T.);
#706=ORIENTED_EDGE('',*,*,#705,.F.);
#707=EDGE_LOOP('',(#691,#696,#701,#706));
#708=FACE_OUTER_BOUND('',#707,.T.);
#709=CARTESIAN_POINT('',(-1.5,0.13,0.));
#710=AXIS2_PLACEMENT_3D('',#709,#58,#16);
#711=PLANE('',#710);
#712=ADVANCED_FACE('',(#708),#711,.T.);
#713=VECTOR('',#16,0.4);
#714=CARTESIAN_POINT('',(-1.5,0.13,0.2));
#715=LINE('',#714,#713);
#716=EDGE_CURVE('',#680,#682,#715,.T.);
#717=ORIENTED_EDGE('',*,*,#716,.T.);
#718=VECTOR('',#34,0.24);
#719=CARTESIAN_POINT('',(-1.1,0.13,0.2));
#720=LINE('',#719,#718);
#721=EDGE_CURVE('',#682,#686,#720,.T.);
#722=ORIENTED_EDGE('',*,*,#721,.T.);
#723=VECTOR('',#16,0.4);
#724=CARTESIAN_POINT('',(-1.5,0.37,0.2));
#725=LINE('',#724,#723);
#726=EDGE_CURVE('',#684,#686,#725,.T.);
#727=ORIENTED_EDGE('',*,*,#726,.F.);
#728=VECTOR('',#34,0.24);
#729=CARTESIAN_POINT('',(-1.5,0.13,0.2));
#730=LINE('',#729,#728);
#731=EDGE_CURVE('',#680,#684,#730,.T.);
#732=ORIENTED_EDGE('',*,*,#731,.F.);
#733=EDGE_LOOP('',(#717,#722,#727,#732));
#734=FACE_OUTER_BOUND('',#733,.T.);
#735=CARTESIAN_POINT('',(-1.5,0.13,0.2));
#736=AXIS2_PLACEMENT_3D('',#735,#15,#16);
#737=PLANE('',#736);
#738=ADVANCED_FACE('',(#734),#737,.T.);
#739=ORIENTED_EDGE('',*,*,#705,.T.);
#740=VECTOR('',#15,0.2);
#741=CARTESIAN_POINT('',(-1.1,0.13,0.));
#742=LINE('',#741,#740);
#743=EDGE_CURVE('',#674,#682,#742,.T.);
#744=ORIENTED_EDGE('',*,*,#743,.T.);
#745=ORIENTED_EDGE('',*,*,#716,.F.);
#746=VECTOR('',#15,0.2);
#747=CARTESIAN_POINT('',(-1.5,0.13,0.));
#748=LINE('',#747,#746);
#749=EDGE_CURVE('',#672,#680,#748,.T.);
#750=ORIENTED_EDGE('',*,*,#749,.F.);
#751=EDGE_LOOP('',(#739,#744,#745,#750));
#752=FACE_OUTER_BOUND('',#751,.T.);
#753=CARTESIAN_POINT('',(-1.5,0.13,0.));
#754=AXIS2_PLACEMENT_3D('',#753,#103,#16);
#755=PLANE('',#754);
#756=ADVANCED_FACE('',(#752),#755,.T.);
#757=VECTOR('',#15,0.2);
#758=CARTESIAN_POINT('',(-1.5,0.37,0.));
#759=LINE('',#758,#757);
#760=EDGE_CURVE('',#676,#684,#759,.T.);
#761=ORIENTED_EDGE('',*,*,#760,.T.);
#762=ORIENTED_EDGE('',*,*,#726,.T.);
#763=VECTOR('',#15,0.2);
#764=CARTESIAN_POINT('',(-1.1,0.37,0.));
#765=LINE('',#764,#763);
#766=EDGE_CURVE('',#678,#686,#765,.T.);
#767=ORIENTED_EDGE('',*,*,#766,.F.);
#768=ORIENTED_EDGE('',*,*,#695,.F.);
#769=EDGE_LOOP('',(#761,#762,#767,#768));
#770=FACE_OUTER_BOUND('',#769,.T.);
#771=CARTESIAN_POINT('',(-1.5,0.37,0.));
#772=AXIS2_PLACEMENT_3D('',#771,#34,#16);
#773=PLANE('',#772);
#774=ADVANCED_FACE('',(#770),#773,.T.);
#775=ORIENTED_EDGE('',*,*,#749,.T.);
#776=ORIENTED_EDGE('',*,*,#731,.T.);
#777=ORIENTED_EDGE('',*,*,#760,.F.);
#778=ORIENTED_EDGE('',*,*,#690,.F.);
#779=EDGE_LOOP('',(#775,#776,#777,#778));
#780=FACE_OUTER_BOUND('',#779,.T.);
#781=CARTESIAN_POINT('',(-1.5,0.13,0.));
#782=AXIS2_PLACEMENT_3D('',#781,#132,#34);
#783=PLANE('',#782);
#784=ADVANCED_FACE('',(#780),#783,.T.);
#785=ORIENTED_EDGE('',*,*,#700,.T.);
#786=ORIENTED_EDGE('',*,*,#766,.T.);
#787=ORIENTED_EDGE('',*,*,#721,.F.);
#788=ORIENTED_EDGE('',*,*,#743,.F.);
#789=EDGE_LOOP('',(#785,#786,#787,#788));
#790=FACE_OUTER_BOUND('',#789,.T.);
#791=CARTESIAN_POINT('',(-1.1,0.13,0.));
#792=AXIS2_PLACEMENT_3D('',#791,#16,#34);
#793=PLANE('',#792);
#794=ADVANCED_FACE('',(#790),#793,.T.);
#795=CLOSED_SHELL('',(#712,#738,#756,#774,#784,#794));
#796=MANIFOLD_SOLID_BREP('Pin_-1_2',#795);
#797=STYLED_ITEM('color',(#288),#796);
#798=CARTESIAN_POINT('',(1.1,0.13,0.));
#799=VERTEX_POINT('',#798);
#800=CARTESIAN_POINT('',(1.5,0.13,0.));
#801=VERTEX_POINT('',#800);
#802=CARTESIAN_POINT('',(1.1,0.37,0.));
#803=VERTEX_POINT('',#802);
#804=CARTESIAN_POINT('',(1.5,0.37,0.));
#805=VERTEX_POINT('',#804);
#806=CARTESIAN_POINT('',(1.1,0.13,0.2));
#807=VERTEX_POINT('',#806);
#808=CARTESIAN_POINT('',(1.5,0.13,0.2));
#809=VERTEX_POINT('',#808);
#810=CARTESIAN_POINT('',(1.1,0.37,0.2));
#811=VERTEX_POINT('',#810);
#812=CARTESIAN_POINT('',(1.5,0.37,0.2));
#813=VERTEX_POINT('',#812);
#814=VECTOR('',#34,0.24);
#815=CARTESIAN_POINT('',(1.1,0.13,0.));
#816=LINE('',#815,#814);
#817=EDGE_CURVE('',#799,#803,#816,.T.);
#818=ORIENTED_EDGE('',*,*,#817,.T.);
#819=VECTOR('',#16,0.4);
#820=CARTESIAN_POINT('',(1.1,0.37,0.));
#821=LINE('',#820,#819);
#822=EDGE_CURVE('',#803,#805,#821,.T.);
#823=ORIENTED_EDGE('',*,*,#822,.T.);
#824=VECTOR('',#34,0.24);
#825=CARTESIAN_POINT('',(1.5,0.13,0.));
#826=LINE('',#825,#824);
#827=EDGE_CURVE('',#801,#805,#826,.T.);
#828=ORIENTED_EDGE('',*,*,#827,.F.);
#829=VECTOR('',#16,0.4);
#830=CARTESIAN_POINT('',(1.1,0.13,0.));
#831=LINE('',#830,#829);
#832=EDGE_CURVE('',#799,#801,#831,.T.);
#833=ORIENTED_EDGE('',*,*,#832,.F.);
#834=EDGE_LOOP('',(#818,#823,#828,#833));
#835=FACE_OUTER_BOUND('',#834,.T.);
#836=CARTESIAN_POINT('',(1.1,0.13,0.));
#837=AXIS2_PLACEMENT_3D('',#836,#58,#16);
#838=PLANE('',#837);
#839=ADVANCED_FACE('',(#835),#838,.T.);
#840=VECTOR('',#16,0.4);
#841=CARTESIAN_POINT('',(1.1,0.13,0.2));
#842=LINE('',#841,#840);
#843=EDGE_CURVE('',#807,#809,#842,.T.);
#844=ORIENTED_EDGE('',*,*,#843,.T.);
#845=VECTOR('',#34,0.24);
#846=CARTESIAN_POINT('',(1.5,0.13,0.2));
#847=LINE('',#846,#845);
#848=EDGE_CURVE('',#809,#813,#847,.T.);
#849=ORIENTED_EDGE('',*,*,#848,.T.);
#850=VECTOR('',#16,0.4);
#851=CARTESIAN_POINT('',(1.1,0.37,0.2));
#852=LINE('',#851,#850);
#853=EDGE_CURVE('',#811,#813,#852,.T.);
#854=ORIENTED_EDGE('',*,*,#853,.F.);
#855=VECTOR('',#34,0.24);
#856=CARTESIAN_POINT('',(1.1,0.13,0.2));
#857=LINE('',#856,#855);
#858=EDGE_CURVE('',#807,#811,#857,.T.);
#859=ORIENTED_EDGE('',*,*,#858,.F.);
#860=EDGE_LOOP('',(#844,#849,#854,#859));
#861=FACE_OUTER_BOUND('',#860,.T.);
#862=CARTESIAN_POINT('',(1.1,0.13,0.2));
#863=AXIS2_PLACEMENT_3D('',#862,#15,#16);
#864=PLANE('',#863);
#865=ADVANCED_FACE('',(#861),#864,.T.);
#866=ORIENTED_EDGE('',*,*,#832,.T.);
#867=VECTOR('',#15,0.2);
#868=CARTESIAN_POINT('',(1.5,0.13,0.));
#869=LINE('',#868,#867);
#870=EDGE_CURVE('',#801,#809,#869,.T.);
#871=ORIENTED_EDGE('',*,*,#870,.T.);
#872=ORIENTED_EDGE('',*,*,#843,.F.);
#873=VECTOR('',#15,0.2);
#874=CARTESIAN_POINT('',(1.1,0.13,0.));
#875=LINE('',#874,#873);
#876=EDGE_CURVE('',#799,#807,#875,.T.);
#877=ORIENTED_EDGE('',*,*,#876,.F.);
#878=EDGE_LOOP('',(#866,#871,#872,#877));
#879=FACE_OUTER_BOUND('',#878,.T.);
#880=CARTESIAN_POINT('',(1.1,0.13,0.));
#881=AXIS2_PLACEMENT_3D('',#880,#103,#16);
#882=PLANE('',#881);
#883=ADVANCED_FACE('',(#879),#882,.T.);
#884=VECTOR('',#15,0.2);
#885=CARTESIAN_POINT('',(1.1,0.37,0.));
#886=LINE('',#885,#884);
#887=EDGE_CURVE('',#803,#811,#886,.T.);
#888=ORIENTED_EDGE('',*,*,#887,.T.);
#889=ORIENTED_EDGE('',*,*,#853,.T.);
#890=VECTOR('',#15,0.2);
#891=CARTESIAN_POINT('',(1.5,0.37,0.));
#892=LINE('',#891,#890);
#893=EDGE_CURVE('',#805,#813,#892,.T.);
#894=ORIENTED_EDGE('',*,*,#893,.F.);
#895=ORIENTED_EDGE('',*,*,#822,.F.);
#896=EDGE_LOOP('',(#888,#889,#894,#895));
#897=FACE_OUTER_BOUND('',#896,.T.);
#898=CARTESIAN_POINT('',(1.1,0.37,0.));
#899=AXIS2_PLACEMENT_3D('',#898,#34,#16);
#900=PLANE('',#899);
#901=ADVANCED_FACE('',(#897),#900,.T.);
#902=ORIENTED_EDGE('',*,*,#876,.T.);
#903=ORIENTED_EDGE('',*,*,#858,.T.);
#904=ORIENTED_EDGE('',*,*,#887,.F.);
#905=ORIENTED_EDGE('',*,*,#817,.F.);
#906=EDGE_LOOP('',(#902,#903,#904,#905));
#907=FACE_OUTER_BOUND('',#906,.T.);
#908=CARTESIAN_POINT('',(1.1,0.13,0.));
#909=AXIS2_PLACEMENT_3D('',#908,#132,#34);
#910=PLANE('',#909);
#911=ADVANCED_FACE('',(#907),#910,.T.);
#912=ORIENTED_EDGE('',*,*,#827,.T.);
#913=ORIENTED_EDGE('',*,*,#893,.T.);
#914=ORIENTED_EDGE('',*,*,#848,.F.);
#915=ORIENTED_EDGE('',*,*,#870,.F.);
#916=EDGE_LOOP('',(#912,#913,#914,#915));
#917=FACE_OUTER_BOUND('',#916,.T.);
#918=CARTESIAN_POINT('',(1.5,0.13,0.));
#919=AXIS2_PLACEMENT_3D('',#918,#16,#34);
#920=PLANE('',#919);
#921=ADVANCED_FACE('',(#917),#920,.T.);
#922=CLOSED_SHELL('',(#839,#865,#883,#901,#911,#921));
#923=MANIFOLD_SOLID_BREP('Pin_1_2',#922);
#924=STYLED_ITEM('color',(#288),#923);
#925=CARTESIAN_POINT('',(-1.5,-0.37,0.));
#926=VERTEX_POINT('',#925);
#927=CARTESIAN_POINT('',(-1.1,-0.37,0.));
#928=VERTEX_POINT('',#927);
#929=CARTESIAN_POINT('',(-1.5,-0.13,0.));
#930=VERTEX_POINT('',#929);
#931=CARTESIAN_POINT('',(-1.1,-0.13,0.));
#932=VERTEX_POINT('',#931);
#933=CARTESIAN_POINT('',(-1.5,-0.37,0.2));
#934=VERTEX_POINT('',#933);
#935=CARTESIAN_POINT('',(-1.1,-0.37,0.2));
#936=VERTEX_POINT('',#935);
#937=CARTESIAN_POINT('',(-1.5,-0.13,0.2));
#938=VERTEX_POINT('',#937);
#939=CARTESIAN_POINT('',(-1.1,-0.13,0.2));
#940=VERTEX_POINT('',#939);
#941=VECTOR('',#34,0.24);
#942=CARTESIAN_POINT('',(-1.5,-0.37,0.));
#943=LINE('',#942,#941);
#944=EDGE_CURVE('',#926,#930,#943,.T.);
#945=ORIENTED_EDGE('',*,*,#944,.T.);
#946=VECTOR('',#16,0.4);
#947=CARTESIAN_POINT('',(-1.5,-0.13,0.));
#948=LINE('',#947,#946);
#949=EDGE_CURVE('',#930,#932,#948,.T.);
#950=ORIENTED_EDGE('',*,*,#949,.T.);
#951=VECTOR('',#34,0.24);
#952=CARTESIAN_POINT('',(-1.1,-0.37,0.));
#953=LINE('',#952,#951);
#954=EDGE_CURVE('',#928,#932,#953,.T.);
#955=ORIENTED_EDGE('',*,*,#954,.F.);
#956=VECTOR('',#16,0.4);
#957=CARTESIAN_POINT('',(-1.5,-0.37,0.));
#958=LINE('',#957,#956);
#959=EDGE_CURVE('',#926,#928,#958,.T.);
#960=ORIENTED_EDGE('',*,*,#959,.F.);
#961=EDGE_LOOP('',(#945,#950,#955,#960));
#962=FACE_OUTER_BOUND('',#961,.T.);
#963=CARTESIAN_POINT('',(-1.5,-0.37,0.));
#964=AXIS2_PLACEMENT_3D('',#963,#58,#16);
#965=PLANE('',#964);
#966=ADVANCED_FACE('',(#962),#965,.T.);
#967=VECTOR('',#16,0.4);
#968=CARTESIAN_POINT('',(-1.5,-0.37,0.2));
#969=LINE('',#968,#967);
#970=EDGE_CURVE('',#934,#936,#969,.T.);
#971=ORIENTED_EDGE('',*,*,#970,.T.);
#972=VECTOR('',#34,0.24);
#973=CARTESIAN_POINT('',(-1.1,-0.37,0.2));
#974=LINE('',#973,#972);
#975=EDGE_CURVE('',#936,#940,#974,.T.);
#976=ORIENTED_EDGE('',*,*,#975,.T.);
#977=VECTOR('',#16,0.4);
#978=CARTESIAN_POINT('',(-1.5,-0.13,0.2));
#979=LINE('',#978,#977);
#980=EDGE_CURVE('',#938,#940,#979,.T.);
#981=ORIENTED_EDGE('',*,*,#980,.F.);
#982=VECTOR('',#34,0.24);
#983=CARTESIAN_POINT('',(-1.5,-0.37,0.2));
#984=LINE('',#983,#982);
#985=EDGE_CURVE('',#934,#938,#984,.T.);
#986=ORIENTED_EDGE('',*,*,#985,.F.);
#987=EDGE_LOOP('',(#971,#976,#981,#986));
#988=FACE_OUTER_BOUND('',#987,.T.);
#989=CARTESIAN_POINT('',(-1.5,-0.37,0.2));
#990=AXIS2_PLACEMENT_3D('',#989,#15,#16);
#991=PLANE('',#990);
#992=ADVANCED_FACE('',(#988),#991,.T.);
#993=ORIENTED_EDGE('',*,*,#959,.T.);
#994=VECTOR('',#15,0.2);
#995=CARTESIAN_POINT('',(-1.1,-0.37,0.));
#996=LINE('',#995,#994);
#997=EDGE_CURVE('',#928,#936,#996,.T.);
#998=ORIENTED_EDGE('',*,*,#997,.T.);
#999=ORIENTED_EDGE('',*,*,#970,.F.);
#1000=VECTOR('',#15,0.2);
#1001=CARTESIAN_POINT('',(-1.5,-0.37,0.));
#1002=LINE('',#1001,#1000);
#1003=EDGE_CURVE('',#926,#934,#1002,.T.);
#1004=ORIENTED_EDGE('',*,*,#1003,.F.);
#1005=EDGE_LOOP('',(#993,#998,#999,#1004));
#1006=FACE_OUTER_BOUND('',#1005,.T.);
#1007=CARTESIAN_POINT('',(-1.5,-0.37,0.));
#1008=AXIS2_PLACEMENT_3D('',#1007,#103,#16);
#1009=PLANE('',#1008);
#1010=ADVANCED_FACE('',(#1006),#1009,.T.);
#1011=VECTOR('',#15,0.2);
#1012=CARTESIAN_POINT('',(-1.5,-0.13,0.));
#1013=LINE('',#1012,#1011);
#1014=EDGE_CURVE('',#930,#938,#1013,.T.);
#1015=ORIENTED_EDGE('',*,*,#1014,.T.);
#1016=ORIENTED_EDGE('',*,*,#980,.T.);
#1017=VECTOR('',#15,0.2);
#1018=CARTESIAN_POINT('',(-1.1,-0.13,0.));
#1019=LINE('',#1018,#1017);
#1020=EDGE_CURVE('',#932,#940,#1019,.T.);
#1021=ORIENTED_EDGE('',*,*,#1020,.F.);
#1022=ORIENTED_EDGE('',*,*,#949,.F.);
#1023=EDGE_LOOP('',(#1015,#1016,#1021,#1022));
#1024=FACE_OUTER_BOUND('',#1023,.T.);
#1025=CARTESIAN_POINT('',(-1.5,-0.13,0.));
#1026=AXIS2_PLACEMENT_3D('',#1025,#34,#16);
#1027=PLANE('',#1026);
#1028=ADVANCED_FACE('',(#1024),#1027,.T.);
#1029=ORIENTED_EDGE('',*,*,#1003,.T.);
#1030=ORIENTED_EDGE('',*,*,#985,.T.);
#1031=ORIENTED_EDGE('',*,*,#1014,.F.);
#1032=ORIENTED_EDGE('',*,*,#944,.F.);
#1033=EDGE_LOOP('',(#1029,#1030,#1031,#1032));
#1034=FACE_OUTER_BOUND('',#1033,.T.);
#1035=CARTESIAN_POINT('',(-1.5,-0.37,0.));
#1036=AXIS2_PLACEMENT_3D('',#1035,#132,#34);
#1037=PLANE('',#1036);
#1038=ADVANCED_FACE('',(#1034),#1037,.T.);
#1039=ORIENTED_EDGE('',*,*,#954,.T.);
#1040=ORIENTED_EDGE('',*,*,#1020,.T.);
#1041=ORIENTED_EDGE('',*,*,#975,.F.);
#1042=ORIENTED_EDGE('',*,*,#997,.F.);
#1043=EDGE_LOOP('',(#1039,#1040,#1041,#1042));
#1044=FACE_OUTER_BOUND('',#1043,.T.);
#1045=CARTESIAN_POINT('',(-1.1,-0.37,0.));
#1046=AXIS2_PLACEMENT_3D('',#1045,#16,#34);
#1047=PLANE('',#1046);
#1048=ADVANCED_FACE('',(#1044),#1047,.T.);
#1049=CLOSED_SHELL('',(#966,#992,#1010,#1028,#1038,#1048));
#1050=MANIFOLD_SOLID_BREP('Pin_-1_3',#1049);
#1051=STYLED_ITEM('color',(#288),#1050);
#1052=CARTESIAN_POINT('',(1.1,-0.37,0.));
#1053=VERTEX_POINT('',#1052);
#1054=CARTESIAN_POINT('',(1.5,-0.37,0.));
#1055=VERTEX_POINT('',#1054);
#1056=CARTESIAN_POINT('',(1.1,-0.13,0.));
#1057=VERTEX_POINT('',#1056);
#1058=CARTESIAN_POINT('',(1.5,-0.13,0.));
#1059=VERTEX_POINT('',#1058);
#1060=CARTESIAN_POINT('',(1.1,-0.37,0.2));
#1061=VERTEX_POINT('',#1060);
#1062=CARTESIAN_POINT('',(1.5,-0.37,0.2));
#1063=VERTEX_POINT('',#1062);
#1064=CARTESIAN_POINT('',(1.1,-0.13,0.2));
#1065=VERTEX_POINT('',#1064);
#1066=CARTESIAN_POINT('',(1.5,-0.13,0.2));
#1067=VERTEX_POINT('',#1066);
#1068=VECTOR('',#34,0.24);
#1069=CARTESIAN_POINT('',(1.1,-0.37,0.));
#1070=LINE('',#1069,#1068);
#1071=EDGE_CURVE('',#1053,#1057,#1070,.T.);
#1072=ORIENTED_EDGE('',*,*,#1071,.T.);
#1073=VECTOR('',#16,0.4);
#1074=CARTESIAN_POINT('',(1.1,-0.13,0.));
#1075=LINE('',#1074,#1073);
#1076=EDGE_CURVE('',#1057,#1059,#1075,.T.);
#1077=ORIENTED_EDGE('',*,*,#1076,.T.);
#1078=VECTOR('',#34,0.24);
#1079=CARTESIAN_POINT('',(1.5,-0.37,0.));
#1080=LINE('',#1079,#1078);
#1081=EDGE_CURVE('',#1055,#1059,#1080,.T.);
#1082=ORIENTED_EDGE('',*,*,#1081,.F.);
#1083=VECTOR('',#16,0.4);
#1084=CARTESIAN_POINT('',(1.1,-0.37,0.));
#1085=LINE('',#1084,#1083);
#1086=EDGE_CURVE('',#1053,#1055,#1085,.T.);
#1087=ORIENTED_EDGE('',*,*,#1086,.F.);
#1088=EDGE_LOOP('',(#1072,#1077,#1082,#1087));
#1089=FACE_OUTER_BOUND('',#1088,.T.);
#1090=CARTESIAN_POINT('',(1.1,-0.37,0.));
#1091=AXIS2_PLACEMENT_3D('',#1090,#58,#16);
#1092=PLANE('',#1091);
#1093=ADVANCED_FACE('',(#1089),#1092,.T.);
#1094=VECTOR('',#16,0.4);
#1095=CARTESIAN_POINT('',(1.1,-0.37,0.2));
#1096=LINE('',#1095,#1094);
#1097=EDGE_CURVE('',#1061,#1063,#1096,.T.);
#1098=ORIENTED_EDGE('',*,*,#1097,.T.);
#1099=VECTOR('',#34,0.24);
#1100=CARTESIAN_POINT('',(1.5,-0.37,0.2));
#1101=LINE('',#1100,#1099);
#1102=EDGE_CURVE('',#1063,#1067,#1101,.T.);
#1103=ORIENTED_EDGE('',*,*,#1102,.T.);
#1104=VECTOR('',#16,0.4);
#1105=CARTESIAN_POINT('',(1.1,-0.13,0.2));
#1106=LINE('',#1105,#1104);
#1107=EDGE_CURVE('',#1065,#1067,#1106,.T.);
#1108=ORIENTED_EDGE('',*,*,#1107,.F.);
#1109=VECTOR('',#34,0.24);
#1110=CARTESIAN_POINT('',(1.1,-0.37,0.2));
#1111=LINE('',#1110,#1109);
#1112=EDGE_CURVE('',#1061,#1065,#1111,.T.);
#1113=ORIENTED_EDGE('',*,*,#1112,.F.);
#1114=EDGE_LOOP('',(#1098,#1103,#1108,#1113));
#1115=FACE_OUTER_BOUND('',#1114,.T.);
#1116=CARTESIAN_POINT('',(1.1,-0.37,0.2));
#1117=AXIS2_PLACEMENT_3D('',#1116,#15,#16);
#1118=PLANE('',#1117);
#1119=ADVANCED_FACE('',(#1115),#1118,.T.);
#1120=ORIENTED_EDGE('',*,*,#1086,.T.);
#1121=VECTOR('',#15,0.2);
#1122=CARTESIAN_POINT('',(1.5,-0.37,0.));
#1123=LINE('',#1122,#1121);
#1124=EDGE_CURVE('',#1055,#1063,#1123,.T.);
#1125=ORIENTED_EDGE('',*,*,#1124,.T.);
#1126=ORIENTED_EDGE('',*,*,#1097,.F.);
#1127=VECTOR('',#15,0.2);
#1128=CARTESIAN_POINT('',(1.1,-0.37,0.));
#1129=LINE('',#1128,#1127);
#1130=EDGE_CURVE('',#1053,#1061,#1129,.T.);
#1131=ORIENTED_EDGE('',*,*,#1130,.F.);
#1132=EDGE_LOOP('',(#1120,#1125,#1126,#1131));
#1133=FACE_OUTER_BOUND('',#1132,.T.);
#1134=CARTESIAN_POINT('',(1.1,-0.37,0.));
#1135=AXIS2_PLACEMENT_3D('',#1134,#103,#16);
#1136=PLANE('',#1135);
#1137=ADVANCED_FACE('',(#1133),#1136,.T.);
#1138=VECTOR('',#15,0.2);
#1139=CARTESIAN_POINT('',(1.1,-0.13,0.));
#1140=LINE('',#1139,#1138);
#1141=EDGE_CURVE('',#1057,#1065,#1140,.T.);
#1142=ORIENTED_EDGE('',*,*,#1141,.T.);
#1143=ORIENTED_EDGE('',*,*,#1107,.T.);
#1144=VECTOR('',#15,0.2);
#1145=CARTESIAN_POINT('',(1.5,-0.13,0.));
#1146=LINE('',#1145,#1144);
#1147=EDGE_CURVE('',#1059,#1067,#1146,.T.);
#1148=ORIENTED_EDGE('',*,*,#1147,.F.);
#1149=ORIENTED_EDGE('',*,*,#1076,.F.);
#1150=EDGE_LOOP('',(#1142,#1143,#1148,#1149));
#1151=FACE_OUTER_BOUND('',#1150,.T.);
#1152=CARTESIAN_POINT('',(1.1,-0.13,0.));
#1153=AXIS2_PLACEMENT_3D('',#1152,#34,#16);
#1154=PLANE('',#1153);
#1155=ADVANCED_FACE('',(#1151),#1154,.T.);
#1156=ORIENTED_EDGE('',*,*,#1130,.T.);
#1157=ORIENTED_EDGE('',*,*,#1112,.T.);
#1158=ORIENTED_EDGE('',*,*,#1141,.F.);
#1159=ORIENTED_EDGE('',*,*,#1071,.F.);
#1160=EDGE_LOOP('',(#1156,#1157,#1158,#1159));
#1161=FACE_OUTER_BOUND('',#1160,.T.);
#1162=CARTESIAN_POINT('',(1.1,-0.37,0.));
#1163=AXIS2_PLACEMENT_3D('',#1162,#132,#34);
#1164=PLANE('',#1163);
#1165=ADVANCED_FACE('',(#1161),#1164,.T.);
#1166=ORIENTED_EDGE('',*,*,#1081,.T.);
#1167=ORIENTED_EDGE('',*,*,#1147,.T.);
#1168=ORIENTED_EDGE('',*,*,#1102,.F.);
#1169=ORIENTED_EDGE('',*,*,#1124,.F.);
#1170=EDGE_LOOP('',(#1166,#1167,#1168,#1169));
#1171=FACE_OUTER_BOUND('',#1170,.T.);
#1172=CARTESIAN_POINT('',(1.5,-0.37,0.));
#1173=AXIS2_PLACEMENT_3D('',#1172,#16,#34);
#1174=PLANE('',#1173);
#1175=ADVANCED_FACE('',(#1171),#1174,.T.);
#1176=CLOSED_SHELL('',(#1093,#1119,#1137,#1155,#1165,#1175));
#1177=MANIFOLD_SOLID_BREP('Pin_1_3',#1176);
#1178=STYLED_ITEM('color',(#288),#1177);
#1179=CARTESIAN_POINT('',(-1.5,-0.87,0.));
#1180=VERTEX_POINT('',#1179);
#1181=CARTESIAN_POINT('',(-1.1,-0.87,0.));
#1182=VERTEX_POINT('',#1181);
#1183=CARTESIAN_POINT('',(-1.5,-0.63,0.));
#1184=VERTEX_POINT('',#1183);
#1185=CARTESIAN_POINT('',(-1.1,-0.63,0.));
#1186=VERTEX_POINT('',#1185);
#1187=CARTESIAN_POINT('',(-1.5,-0.87,0.2));
#1188=VERTEX_POINT('',#1187);
#1189=CARTESIAN_POINT('',(-1.1,-0.87,0.2));
#1190=VERTEX_POINT('',#1189);
#1191=CARTESIAN_POINT('',(-1.5,-0.63,0.2));
#1192=VERTEX_POINT('',#1191);
#1193=CARTESIAN_POINT('',(-1.1,-0.63,0.2));
#1194=VERTEX_POINT('',#1193);
#1195=VECTOR('',#34,0.24);
#1196=CARTESIAN_POINT('',(-1.5,-0.87,0.));
#1197=LINE('',#1196,#1195);
#1198=EDGE_CURVE('',#1180,#1184,#1197,.T.);
#1199=ORIENTED_EDGE('',*,*,#1198,.T.);
#1200=VECTOR('',#16,0.4);
#1201=CARTESIAN_POINT('',(-1.5,-0.63,0.));
#1202=LINE('',#1201,#1200);
#1203=EDGE_CURVE('',#1184,#1186,#1202,.T.);
#1204=ORIENTED_EDGE('',*,*,#1203,.T.);
#1205=VECTOR('',#34,0.24);
#1206=CARTESIAN_POINT('',(-1.1,-0.87,0.));
#1207=LINE('',#1206,#1205);
#1208=EDGE_CURVE('',#1182,#1186,#1207,.T.);
#1209=ORIENTED_EDGE('',*,*,#1208,.F.);
#1210=VECTOR('',#16,0.4);
#1211=CARTESIAN_POINT('',(-1.5,-0.87,0.));
#1212=LINE('',#1211,#1210);
#1213=EDGE_CURVE('',#1180,#1182,#1212,.T.);
#1214=ORIENTED_EDGE('',*,*,#1213,.F.);
#1215=EDGE_LOOP('',(#1199,#1204,#1209,#1214));
#1216=FACE_OUTER_BOUND('',#1215,.T.);
#1217=CARTESIAN_POINT('',(-1.5,-0.87,0.));
#1218=AXIS2_PLACEMENT_3D('',#1217,#58,#16);
#1219=PLANE('',#1218);
#1220=ADVANCED_FACE('',(#1216),#1219,.T.);
#1221=VECTOR('',#16,0.4);
#1222=CARTESIAN_POINT('',(-1.5,-0.87,0.2));
#1223=LINE('',#1222,#1221);
#1224=EDGE_CURVE('',#1188,#1190,#1223,.T.);
#1225=ORIENTED_EDGE('',*,*,#1224,.T.);
#1226=VECTOR('',#34,0.24);
#1227=CARTESIAN_POINT('',(-1.1,-0.87,0.2));
#1228=LINE('',#1227,#1226);
#1229=EDGE_CURVE('',#1190,#1194,#1228,.T.);
#1230=ORIENTED_EDGE('',*,*,#1229,.T.);
#1231=VECTOR('',#16,0.4);
#1232=CARTESIAN_POINT('',(-1.5,-0.63,0.2));
#1233=LINE('',#1232,#1231);
#1234=EDGE_CURVE('',#1192,#1194,#1233,.T.);
#1235=ORIENTED_EDGE('',*,*,#1234,.F.);
#1236=VECTOR('',#34,0.24);
#1237=CARTESIAN_POINT('',(-1.5,-0.87,0.2));
#1238=LINE('',#1237,#1236);
#1239=EDGE_CURVE('',#1188,#1192,#1238,.T.);
#1240=ORIENTED_EDGE('',*,*,#1239,.F.);
#1241=EDGE_LOOP('',(#1225,#1230,#1235,#1240));
#1242=FACE_OUTER_BOUND('',#1241,.T.);
#1243=CARTESIAN_POINT('',(-1.5,-0.87,0.2));
#1244=AXIS2_PLACEMENT_3D('',#1243,#15,#16);
#1245=PLANE('',#1244);
#1246=ADVANCED_FACE('',(#1242),#1245,.T.);
#1247=ORIENTED_EDGE('',*,*,#1213,.T.);
#1248=VECTOR('',#15,0.2);
#1249=CARTESIAN_POINT('',(-1.1,-0.87,0.));
#1250=LINE('',#1249,#1248);
#1251=EDGE_CURVE('',#1182,#1190,#1250,.T.);
#1252=ORIENTED_EDGE('',*,*,#1251,.T.);
#1253=ORIENTED_EDGE('',*,*,#1224,.F.);
#1254=VECTOR('',#15,0.2);
#1255=CARTESIAN_POINT('',(-1.5,-0.87,0.));
#1256=LINE('',#1255,#1254);
#1257=EDGE_CURVE('',#1180,#1188,#1256,.T.);
#1258=ORIENTED_EDGE('',*,*,#1257,.F.);
#1259=EDGE_LOOP('',(#1247,#1252,#1253,#1258));
#1260=FACE_OUTER_BOUND('',#1259,.T.);
#1261=CARTESIAN_POINT('',(-1.5,-0.87,0.));
#1262=AXIS2_PLACEMENT_3D('',#1261,#103,#16);
#1263=PLANE('',#1262);
#1264=ADVANCED_FACE('',(#1260),#1263,.T.);
#1265=VECTOR('',#15,0.2);
#1266=CARTESIAN_POINT('',(-1.5,-0.63,0.));
#1267=LINE('',#1266,#1265);
#1268=EDGE_CURVE('',#1184,#1192,#1267,.T.);
#1269=ORIENTED_EDGE('',*,*,#1268,.T.);
#1270=ORIENTED_EDGE('',*,*,#1234,.T.);
#1271=VECTOR('',#15,0.2);
#1272=CARTESIAN_POINT('',(-1.1,-0.63,0.));
#1273=LINE('',#1272,#1271);
#1274=EDGE_CURVE('',#1186,#1194,#1273,.T.);
#1275=ORIENTED_EDGE('',*,*,#1274,.F.);
#1276=ORIENTED_EDGE('',*,*,#1203,.F.);
#1277=EDGE_LOOP('',(#1269,#1270,#1275,#1276));
#1278=FACE_OUTER_BOUND('',#1277,.T.);
#1279=CARTESIAN_POINT('',(-1.5,-0.63,0.));
#1280=AXIS2_PLACEMENT_3D('',#1279,#34,#16);
#1281=PLANE('',#1280);
#1282=ADVANCED_FACE('',(#1278),#1281,.T.);
#1283=ORIENTED_EDGE('',*,*,#1257,.T.);
#1284=ORIENTED_EDGE('',*,*,#1239,.T.);
#1285=ORIENTED_EDGE('',*,*,#1268,.F.);
#1286=ORIENTED_EDGE('',*,*,#1198,.F.);
#1287=EDGE_LOOP('',(#1283,#1284,#1285,#1286));
#1288=FACE_OUTER_BOUND('',#1287,.T.);
#1289=CARTESIAN_POINT('',(-1.5,-0.87,0.));
#1290=AXIS2_PLACEMENT_3D('',#1289,#132,#34);
#1291=PLANE('',#1290);
#1292=ADVANCED_FACE('',(#1288),#1291,.T.);
#1293=ORIENTED_EDGE('',*,*,#1208,.T.);
#1294=ORIENTED_EDGE('',*,*,#1274,.T.);
#1295=ORIENTED_EDGE('',*,*,#1229,.F.);
#1296=ORIENTED_EDGE('',*,*,#1251,.F.);
#1297=EDGE_LOOP('',(#1293,#1294,#1295,#1296));
#1298=FACE_OUTER_BOUND('',#1297,.T.);
#1299=CARTESIAN_POINT('',(-1.1,-0.87,0.));
#1300=AXIS2_PLACEMENT_3D('',#1299,#16,#34);
#1301=PLANE('',#1300);
#1302=ADVANCED_FACE('',(#1298),#1301,.T.);
#1303=CLOSED_SHELL('',(#1220,#1246,#1264,#1282,#1292,#1302));
#1304=MANIFOLD_SOLID_BREP('Pin_-1_4',#1303);
#1305=STYLED_ITEM('color',(#288),#1304);
#1306=CARTESIAN_POINT('',(1.1,-0.87,0.));
#1307=VERTEX_POINT('',#1306);
#1308=CARTESIAN_POINT('',(1.5,-0.87,0.));
#1309=VERTEX_POINT('',#1308);
#1310=CARTESIAN_POINT('',(1.1,-0.63,0.));
#1311=VERTEX_POINT('',#1310);
#1312=CARTESIAN_POINT('',(1.5,-0.63,0.));
#1313=VERTEX_POINT('',#1312);
#1314=CARTESIAN_POINT('',(1.1,-0.87,0.2));
#1315=VERTEX_POINT('',#1314);
#1316=CARTESIAN_POINT('',(1.5,-0.87,0.2));
#1317=VERTEX_POINT('',#1316);
#1318=CARTESIAN_POINT('',(1.1,-0.63,0.2));
#1319=VERTEX_POINT('',#1318);
#1320=CARTESIAN_POINT('',(1.5,-0.63,0.2));
#1321=VERTEX_POINT('',#1320);
#1322=VECTOR('',#34,0.24);
#1323=CARTESIAN_POINT('',(1.1,-0.87,0.));
#1324=LINE('',#1323,#1322);
#1325=EDGE_CURVE('',#1307,#1311,#1324,.T.);
#1326=ORIENTED_EDGE('',*,*,#1325,.T.);
#1327=VECTOR('',#16,0.4);
#1328=CARTESIAN_POINT('',(1.1,-0.63,0.));
#1329=LINE('',#1328,#1327);
#1330=EDGE_CURVE('',#1311,#1313,#1329,.T.);
#1331=ORIENTED_EDGE('',*,*,#1330,.T.);
#1332=VECTOR('',#34,0.24);
#1333=CARTESIAN_POINT('',(1.5,-0.87,0.));
#1334=LINE('',#1333,#1332);
#1335=EDGE_CURVE('',#1309,#1313,#1334,.T.);
#1336=ORIENTED_EDGE('',*,*,#1335,.F.);
#1337=VECTOR('',#16,0.4);
#1338=CARTESIAN_POINT('',(1.1,-0.87,0.));
#1339=LINE('',#1338,#1337);
#1340=EDGE_CURVE('',#1307,#1309,#1339,.T.);
#1341=ORIENTED_EDGE('',*,*,#1340,.F.);
#1342=EDGE_LOOP('',(#1326,#1331,#1336,#1341));
#1343=FACE_OUTER_BOUND('',#1342,.T.);
#1344=CARTESIAN_POINT('',(1.1,-0.87,0.));
#1345=AXIS2_PLACEMENT_3D('',#1344,#58,#16);
#1346=PLANE('',#1345);
#1347=ADVANCED_FACE('',(#1343),#1346,.T.);
#1348=VECTOR('',#16,0.4);
#1349=CARTESIAN_POINT('',(1.1,-0.87,0.2));
#1350=LINE('',#1349,#1348);
#1351=EDGE_CURVE('',#1315,#1317,#1350,.T.);
#1352=ORIENTED_EDGE('',*,*,#1351,.T.);
#1353=VECTOR('',#34,0.24);
#1354=CARTESIAN_POINT('',(1.5,-0.87,0.2));
#1355=LINE('',#1354,#1353);
#1356=EDGE_CURVE('',#1317,#1321,#1355,.T.);
#1357=ORIENTED_EDGE('',*,*,#1356,.T.);
#1358=VECTOR('',#16,0.4);
#1359=CARTESIAN_POINT('',(1.1,-0.63,0.2));
#1360=LINE('',#1359,#1358);
#1361=EDGE_CURVE('',#1319,#1321,#1360,.T.);
#1362=ORIENTED_EDGE('',*,*,#1361,.F.);
#1363=VECTOR('',#34,0.24);
#1364=CARTESIAN_POINT('',(1.1,-0.87,0.2));
#1365=LINE('',#1364,#1363);
#1366=EDGE_CURVE('',#1315,#1319,#1365,.T.);
#1367=ORIENTED_EDGE('',*,*,#1366,.F.);
#1368=EDGE_LOOP('',(#1352,#1357,#1362,#1367));
#1369=FACE_OUTER_BOUND('',#1368,.T.);
#1370=CARTESIAN_POINT('',(1.1,-0.87,0.2));
#1371=AXIS2_PLACEMENT_3D('',#1370,#15,#16);
#1372=PLANE('',#1371);
#1373=ADVANCED_FACE('',(#1369),#1372,.T.);
#1374=ORIENTED_EDGE('',*,*,#1340,.T.);
#1375=VECTOR('',#15,0.2);
#1376=CARTESIAN_POINT('',(1.5,-0.87,0.));
#1377=LINE('',#1376,#1375);
#1378=EDGE_CURVE('',#1309,#1317,#1377,.T.);
#1379=ORIENTED_EDGE('',*,*,#1378,.T.);
#1380=ORIENTED_EDGE('',*,*,#1351,.F.);
#1381=VECTOR('',#15,0.2);
#1382=CARTESIAN_POINT('',(1.1,-0.87,0.));
#1383=LINE('',#1382,#1381);
#1384=EDGE_CURVE('',#1307,#1315,#1383,.T.);
#1385=ORIENTED_EDGE('',*,*,#1384,.F.);
#1386=EDGE_LOOP('',(#1374,#1379,#1380,#1385));
#1387=FACE_OUTER_BOUND('',#1386,.T.);
#1388=CARTESIAN_POINT('',(1.1,-0.87,0.));
#1389=AXIS2_PLACEMENT_3D('',#1388,#103,#16);
#1390=PLANE('',#1389);
#1391=ADVANCED_FACE('',(#1387),#1390,.T.);
#1392=VECTOR('',#15,0.2);
#1393=CARTESIAN_POINT('',(1.1,-0.63,0.));
#1394=LINE('',#1393,#1392);
#1395=EDGE_CURVE('',#1311,#1319,#1394,.T.);
#1396=ORIENTED_EDGE('',*,*,#1395,.T.);
#1397=ORIENTED_EDGE('',*,*,#1361,.T.);
#1398=VECTOR('',#15,0.2);
#1399=CARTESIAN_POINT('',(1.5,-0.63,0.));
#1400=LINE('',#1399,#1398);
#1401=EDGE_CURVE('',#1313,#1321,#1400,.T.);
#1402=ORIENTED_EDGE('',*,*,#1401,.F.);
#1403=ORIENTED_EDGE('',*,*,#1330,.F.);
#1404=EDGE_LOOP('',(#1396,#1397,#1402,#1403));
#1405=FACE_OUTER_BOUND('',#1404,.T.);
#1406=CARTESIAN_POINT('',(1.1,-0.63,0.));
#1407=AXIS2_PLACEMENT_3D('',#1406,#34,#16);
#1408=PLANE('',#1407);
#1409=ADVANCED_FACE('',(#1405),#1408,.T.);
#1410=ORIENTED_EDGE('',*,*,#1384,.T.);
#1411=ORIENTED_EDGE('',*,*,#1366,.T.);
#1412=ORIENTED_EDGE('',*,*,#1395,.F.);
#1413=ORIENTED_EDGE('',*,*,#1325,.F.);
#1414=EDGE_LOOP('',(#1410,#1411,#1412,#1413));
#1415=FACE_OUTER_BOUND('',#1414,.T.);
#1416=CARTESIAN_POINT('',(1.1,-0.87,0.));
#1417=AXIS2_PLACEMENT_3D('',#1416,#132,#34);
#1418=PLANE('',#1417);
#1419=ADVANCED_FACE('',(#1415),#1418,.T.);
#1420=ORIENTED_EDGE('',*,*,#1335,.T.);
#1421=ORIENTED_EDGE('',*,*,#1401,.T.);
#1422=ORIENTED_EDGE('',*,*,#1356,.F.);
#1423=ORIENTED_EDGE('',*,*,#1378,.F.);
#1424=EDGE_LOOP('',(#1420,#1421,#1422,#1423));
#1425=FACE_OUTER_BOUND('',#1424,.T.);
#1426=CARTESIAN_POINT('',(1.5,-0.87,0.));
#1427=AXIS2_PLACEMENT_3D('',#1426,#16,#34);
#1428=PLANE('',#1427);
#1429=ADVANCED_FACE('',(#1425),#1428,.T.);
#1430=CLOSED_SHELL('',(#1347,#1373,#1391,#1409,#1419,#1429));
#1431=MANIFOLD_SOLID_BREP('Pin_1_4',#1430);
#1432=STYLED_ITEM('color',(#288),#1431);
#1433=CARTESIAN_POINT('',(-1.5,-1.37,0.));
#1434=VERTEX_POINT('',#1433);
#1435=CARTESIAN_POINT('',(-1.1,-1.37,0.));
#1436=VERTEX_POINT('',#1435);
#1437=CARTESIAN_POINT('',(-1.5,-1.13,0.));
#1438=VERTEX_POINT('',#1437);
#1439=CARTESIAN_POINT('',(-1.1,-1.13,0.));
#1440=VERTEX_POINT('',#1439);
#1441=CARTESIAN_POINT('',(-1.5,-1.37,0.2));
#1442=VERTEX_POINT('',#1441);
#1443=CARTESIAN_POINT('',(-1.1,-1.37,0.2));
#1444=VERTEX_POINT('',#1443);
#1445=CARTESIAN_POINT('',(-1.5,-1.13,0.2));
#1446=VERTEX_POINT('',#1445);
#1447=CARTESIAN_POINT('',(-1.1,-1.13,0.2));
#1448=VERTEX_POINT('',#1447);
#1449=VECTOR('',#34,0.24);
#1450=CARTESIAN_POINT('',(-1.5,-1.37,0.));
#1451=LINE('',#1450,#1449);
#1452=EDGE_CURVE('',#1434,#1438,#1451,.T.);
#1453=ORIENTED_EDGE('',*,*,#1452,.T.);
#1454=VECTOR('',#16,0.4);
#1455=CARTESIAN_POINT('',(-1.5,-1.13,0.));
#1456=LINE('',#1455,#1454);
#1457=EDGE_CURVE('',#1438,#1440,#1456,.T.);
#1458=ORIENTED_EDGE('',*,*,#1457,.T.);
#1459=VECTOR('',#34,0.24);
#1460=CARTESIAN_POINT('',(-1.1,-1.37,0.));
#1461=LINE('',#1460,#1459);
#1462=EDGE_CURVE('',#1436,#1440,#1461,.T.);
#1463=ORIENTED_EDGE('',*,*,#1462,.F.);
#1464=VECTOR('',#16,0.4);
#1465=CARTESIAN_POINT('',(-1.5,-1.37,0.));
#1466=LINE('',#1465,#1464);
#1467=EDGE_CURVE('',#1434,#1436,#1466,.T.);
#1468=ORIENTED_EDGE('',*,*,#1467,.F.);
#1469=EDGE_LOOP('',(#1453,#1458,#1463,#1468));
#1470=FACE_OUTER_BOUND('',#1469,.T.);
#1471=CARTESIAN_POINT('',(-1.5,-1.37,0.));
#1472=AXIS2_PLACEMENT_3D('',#1471,#58,#16);
#1473=PLANE('',#1472);
#1474=ADVANCED_FACE('',(#1470),#1473,.T.);
#1475=VECTOR('',#16,0.4);
#1476=CARTESIAN_POINT('',(-1.5,-1.37,0.2));
#1477=LINE('',#1476,#1475);
#1478=EDGE_CURVE('',#1442,#1444,#1477,.T.);
#1479=ORIENTED_EDGE('',*,*,#1478,.T.);
#1480=VECTOR('',#34,0.24);
#1481=CARTESIAN_POINT('',(-1.1,-1.37,0.2));
#1482=LINE('',#1481,#1480);
#1483=EDGE_CURVE('',#1444,#1448,#1482,.T.);
#1484=ORIENTED_EDGE('',*,*,#1483,.T.);
#1485=VECTOR('',#16,0.4);
#1486=CARTESIAN_POINT('',(-1.5,-1.13,0.2));
#1487=LINE('',#1486,#1485);
#1488=EDGE_CURVE('',#1446,#1448,#1487,.T.);
#1489=ORIENTED_EDGE('',*,*,#1488,.F.);
#1490=VECTOR('',#34,0.24);
#1491=CARTESIAN_POINT('',(-1.5,-1.37,0.2));
#1492=LINE('',#1491,#1490);
#1493=EDGE_CURVE('',#1442,#1446,#1492,.T.);
#1494=ORIENTED_EDGE('',*,*,#1493,.F.);
#1495=EDGE_LOOP('',(#1479,#1484,#1489,#1494));
#1496=FACE_OUTER_BOUND('',#1495,.T.);
#1497=CARTESIAN_POINT('',(-1.5,-1.37,0.2));
#1498=AXIS2_PLACEMENT_3D('',#1497,#15,#16);
#1499=PLANE('',#1498);
#1500=ADVANCED_FACE('',(#1496),#1499,.T.);
#1501=ORIENTED_EDGE('',*,*,#1467,.T.);
#1502=VECTOR('',#15,0.2);
#1503=CARTESIAN_POINT('',(-1.1,-1.37,0.));
#1504=LINE('',#1503,#1502);
#1505=EDGE_CURVE('',#1436,#1444,#1504,.T.);
#1506=ORIENTED_EDGE('',*,*,#1505,.T.);
#1507=ORIENTED_EDGE('',*,*,#1478,.F.);
#1508=VECTOR('',#15,0.2);
#1509=CARTESIAN_POINT('',(-1.5,-1.37,0.));
#1510=LINE('',#1509,#1508);
#1511=EDGE_CURVE('',#1434,#1442,#1510,.T.);
#1512=ORIENTED_EDGE('',*,*,#1511,.F.);
#1513=EDGE_LOOP('',(#1501,#1506,#1507,#1512));
#1514=FACE_OUTER_BOUND('',#1513,.T.);
#1515=CARTESIAN_POINT('',(-1.5,-1.37,0.));
#1516=AXIS2_PLACEMENT_3D('',#1515,#103,#16);
#1517=PLANE('',#1516);
#1518=ADVANCED_FACE('',(#1514),#1517,.T.);
#1519=VECTOR('',#15,0.2);
#1520=CARTESIAN_POINT('',(-1.5,-1.13,0.));
#1521=LINE('',#1520,#1519);
#1522=EDGE_CURVE('',#1438,#1446,#1521,.T.);
#1523=ORIENTED_EDGE('',*,*,#1522,.T.);
#1524=ORIENTED_EDGE('',*,*,#1488,.T.);
#1525=VECTOR('',#15,0.2);
#1526=CARTESIAN_POINT('',(-1.1,-1.13,0.));
#1527=LINE('',#1526,#1525);
#1528=EDGE_CURVE('',#1440,#1448,#1527,.T.);
#1529=ORIENTED_EDGE('',*,*,#1528,.F.);
#1530=ORIENTED_EDGE('',*,*,#1457,.F.);
#1531=EDGE_LOOP('',(#1523,#1524,#1529,#1530));
#1532=FACE_OUTER_BOUND('',#1531,.T.);
#1533=CARTESIAN_POINT('',(-1.5,-1.13,0.));
#1534=AXIS2_PLACEMENT_3D('',#1533,#34,#16);
#1535=PLANE('',#1534);
#1536=ADVANCED_FACE('',(#1532),#1535,.T.);
#1537=ORIENTED_EDGE('',*,*,#1511,.T.);
#1538=ORIENTED_EDGE('',*,*,#1493,.T.);
#1539=ORIENTED_EDGE('',*,*,#1522,.F.);
#1540=ORIENTED_EDGE('',*,*,#1452,.F.);
#1541=EDGE_LOOP('',(#1537,#1538,#1539,#1540));
#1542=FACE_OUTER_BOUND('',#1541,.T.);
#1543=CARTESIAN_POINT('',(-1.5,-1.37,0.));
#1544=AXIS2_PLACEMENT_3D('',#1543,#132,#34);
#1545=PLANE('',#1544);
#1546=ADVANCED_FACE('',(#1542),#1545,.T.);
#1547=ORIENTED_EDGE('',*,*,#1462,.T.);
#1548=ORIENTED_EDGE('',*,*,#1528,.T.);
#1549=ORIENTED_EDGE('',*,*,#1483,.F.);
#1550=ORIENTED_EDGE('',*,*,#1505,.F.);
#1551=EDGE_LOOP('',(#1547,#1548,#1549,#1550));
#1552=FACE_OUTER_BOUND('',#1551,.T.);
#1553=CARTESIAN_POINT('',(-1.1,-1.37,0.));
#1554=AXIS2_PLACEMENT_3D('',#1553,#16,#34);
#1555=PLANE('',#1554);
#1556=ADVANCED_FACE('',(#1552),#1555,.T.);
#1557=CLOSED_SHELL('',(#1474,#1500,#1518,#1536,#1546,#1556));
#1558=MANIFOLD_SOLID_BREP('Pin_-1_5',#1557);
#1559=STYLED_ITEM('color',(#288),#1558);
#1560=CARTESIAN_POINT('',(1.1,-1.37,0.));
#1561=VERTEX_POINT('',#1560);
#1562=CARTESIAN_POINT('',(1.5,-1.37,0.));
#1563=VERTEX_POINT('',#1562);
#1564=CARTESIAN_POINT('',(1.1,-1.13,0.));
#1565=VERTEX_POINT('',#1564);
#1566=CARTESIAN_POINT('',(1.5,-1.13,0.));
#1567=VERTEX_POINT('',#1566);
#1568=CARTESIAN_POINT('',(1.1,-1.37,0.2));
#1569=VERTEX_POINT('',#1568);
#1570=CARTESIAN_POINT('',(1.5,-1.37,0.2));
#1571=VERTEX_POINT('',#1570);
#1572=CARTESIAN_POINT('',(1.1,-1.13,0.2));
#1573=VERTEX_POINT('',#1572);
#1574=CARTESIAN_POINT('',(1.5,-1.13,0.2));
#1575=VERTEX_POINT('',#1574);
#1576=VECTOR('',#34,0.24);
#1577=CARTESIAN_POINT('',(1.1,-1.37,0.));
#1578=LINE('',#1577,#1576);
#1579=EDGE_CURVE('',#1561,#1565,#1578,.T.);
#1580=ORIENTED_EDGE('',*,*,#1579,.T.);
#1581=VECTOR('',#16,0.4);
#1582=CARTESIAN_POINT('',(1.1,-1.13,0.));
#1583=LINE('',#1582,#1581);
#1584=EDGE_CURVE('',#1565,#1567,#1583,.T.);
#1585=ORIENTED_EDGE('',*,*,#1584,.T.);
#1586=VECTOR('',#34,0.24);
#1587=CARTESIAN_POINT('',(1.5,-1.37,0.));
#1588=LINE('',#1587,#1586);
#1589=EDGE_CURVE('',#1563,#1567,#1588,.T.);
#1590=ORIENTED_EDGE('',*,*,#1589,.F.);
#1591=VECTOR('',#16,0.4);
#1592=CARTESIAN_POINT('',(1.1,-1.37,0.));
#1593=LINE('',#1592,#1591);
#1594=EDGE_CURVE('',#1561,#1563,#1593,.T.);
#1595=ORIENTED_EDGE('',*,*,#1594,.F.);
#1596=EDGE_LOOP('',(#1580,#1585,#1590,#1595));
#1597=FACE_OUTER_BOUND('',#1596,.T.);
#1598=CARTESIAN_POINT('',(1.1,-1.37,0.));
#1599=AXIS2_PLACEMENT_3D('',#1598,#58,#16);
#1600=PLANE('',#1599);
#1601=ADVANCED_FACE('',(#1597),#1600,.T.);
#1602=VECTOR('',#16,0.4);
#1603=CARTESIAN_POINT('',(1.1,-1.37,0.2));
#1604=LINE('',#1603,#1602);
#1605=EDGE_CURVE('',#1569,#1571,#1604,.T.);
#1606=ORIENTED_EDGE('',*,*,#1605,.T.);
#1607=VECTOR('',#34,0.24);
#1608=CARTESIAN_POINT('',(1.5,-1.37,0.2));
#1609=LINE('',#1608,#1607);
#1610=EDGE_CURVE('',#1571,#1575,#1609,.T.);
#1611=ORIENTED_EDGE('',*,*,#1610,.T.);
#1612=VECTOR('',#16,0.4);
#1613=CARTESIAN_POINT('',(1.1,-1.13,0.2));
#1614=LINE('',#1613,#1612);
#1615=EDGE_CURVE('',#1573,#1575,#1614,.T.);
#1616=ORIENTED_EDGE('',*,*,#1615,.F.);
#1617=VECTOR('',#34,0.24);
#1618=CARTESIAN_POINT('',(1.1,-1.37,0.2));
#1619=LINE('',#1618,#1617);
#1620=EDGE_CURVE('',#1569,#1573,#1619,.T.);
#1621=ORIENTED_EDGE('',*,*,#1620,.F.);
#1622=EDGE_LOOP('',(#1606,#1611,#1616,#1621));
#1623=FACE_OUTER_BOUND('',#1622,.T.);
#1624=CARTESIAN_POINT('',(1.1,-1.37,0.2));
#1625=AXIS2_PLACEMENT_3D('',#1624,#15,#16);
#1626=PLANE('',#1625);
#1627=ADVANCED_FACE('',(#1623),#1626,.T.);
#1628=ORIENTED_EDGE('',*,*,#1594,.T.);
#1629=VECTOR('',#15,0.2);
#1630=CARTESIAN_POINT('',(1.5,-1.37,0.));
#1631=LINE('',#1630,#1629);
#1632=EDGE_CURVE('',#1563,#1571,#1631,.T.);
#1633=ORIENTED_EDGE('',*,*,#1632,.T.);
#1634=ORIENTED_EDGE('',*,*,#1605,.F.);
#1635=VECTOR('',#15,0.2);
#1636=CARTESIAN_POINT('',(1.1,-1.37,0.));
#1637=LINE('',#1636,#1635);
#1638=EDGE_CURVE('',#1561,#1569,#1637,.T.);
#1639=ORIENTED_EDGE('',*,*,#1638,.F.);
#1640=EDGE_LOOP('',(#1628,#1633,#1634,#1639));
#1641=FACE_OUTER_BOUND('',#1640,.T.);
#1642=CARTESIAN_POINT('',(1.1,-1.37,0.));
#1643=AXIS2_PLACEMENT_3D('',#1642,#103,#16);
#1644=PLANE('',#1643);
#1645=ADVANCED_FACE('',(#1641),#1644,.T.);
#1646=VECTOR('',#15,0.2);
#1647=CARTESIAN_POINT('',(1.1,-1.13,0.));
#1648=LINE('',#1647,#1646);
#1649=EDGE_CURVE('',#1565,#1573,#1648,.T.);
#1650=ORIENTED_EDGE('',*,*,#1649,.T.);
#1651=ORIENTED_EDGE('',*,*,#1615,.T.);
#1652=VECTOR('',#15,0.2);
#1653=CARTESIAN_POINT('',(1.5,-1.13,0.));
#1654=LINE('',#1653,#1652);
#1655=EDGE_CURVE('',#1567,#1575,#1654,.T.);
#1656=ORIENTED_EDGE('',*,*,#1655,.F.);
#1657=ORIENTED_EDGE('',*,*,#1584,.F.);
#1658=EDGE_LOOP('',(#1650,#1651,#1656,#1657));
#1659=FACE_OUTER_BOUND('',#1658,.T.);
#1660=CARTESIAN_POINT('',(1.1,-1.13,0.));
#1661=AXIS2_PLACEMENT_3D('',#1660,#34,#16);
#1662=PLANE('',#1661);
#1663=ADVANCED_FACE('',(#1659),#1662,.T.);
#1664=ORIENTED_EDGE('',*,*,#1638,.T.);
#1665=ORIENTED_EDGE('',*,*,#1620,.T.);
#1666=ORIENTED_EDGE('',*,*,#1649,.F.);
#1667=ORIENTED_EDGE('',*,*,#1579,.F.);
#1668=EDGE_LOOP('',(#1664,#1665,#1666,#1667));
#1669=FACE_OUTER_BOUND('',#1668,.T.);
#1670=CARTESIAN_POINT('',(1.1,-1.37,0.));
#1671=AXIS2_PLACEMENT_3D('',#1670,#132,#34);
#1672=PLANE('',#1671);
#1673=ADVANCED_FACE('',(#1669),#1672,.T.);
#1674=ORIENTED_EDGE('',*,*,#1589,.T.);
#1675=ORIENTED_EDGE('',*,*,#1655,.T.);
#1676=ORIENTED_EDGE('',*,*,#1610,.F.);
#1677=ORIENTED_EDGE('',*,*,#1632,.F.);
#1678=EDGE_LOOP('',(#1674,#1675,#1676,#1677));
#1679=FACE_OUTER_BOUND('',#1678,.T.);
#1680=CARTESIAN_POINT('',(1.5,-1.37,0.));
#1681=AXIS2_PLACEMENT_3D('',#1680,#16,#34);
#1682=PLANE('',#1681);
#1683=ADVANCED_FACE('',(#1679),#1682,.T.);
#1684=CLOSED_SHELL('',(#1601,#1627,#1645,#1663,#1673,#1683));
#1685=MANIFOLD_SOLID_BREP('Pin_1_5',#1684);
#1686=STYLED_ITEM('color',(#288),#1685);
#1687=CARTESIAN_POINT('',(-1.2,1.05,0.75));
#1688=VERTEX_POINT('',#1687);
#1689=CARTESIAN_POINT('',(-0.9,1.05,0.75));
#1690=VERTEX_POINT('',#1689);
#1691=CARTESIAN_POINT('',(-1.2,1.35,0.75));
#1692=VERTEX_POINT('',#1691);
#1693=CARTESIAN_POINT('',(-0.9,1.35,0.75));
#1694=VERTEX_POINT('',#1693);
#1695=CARTESIAN_POINT('',(-1.2,1.05,0.76));
#1696=VERTEX_POINT('',#1695);
#1697=CARTESIAN_POINT('',(-0.9,1.05,0.76));
#1698=VERTEX_POINT('',#1697);
#1699=CARTESIAN_POINT('',(-1.2,1.35,0.76));
#1700=VERTEX_POINT('',#1699);
#1701=CARTESIAN_POINT('',(-0.9,1.35,0.76));
#1702=VERTEX_POINT('',#1701);
#1703=VECTOR('',#34,0.3);
#1704=CARTESIAN_POINT('',(-1.2,1.05,0.75));
#1705=LINE('',#1704,#1703);
#1706=EDGE_CURVE('',#1688,#1692,#1705,.T.);
#1707=ORIENTED_EDGE('',*,*,#1706,.T.);
#1708=VECTOR('',#16,0.3);
#1709=CARTESIAN_POINT('',(-1.2,1.35,0.75));
#1710=LINE('',#1709,#1708);
#1711=EDGE_CURVE('',#1692,#1694,#1710,.T.);
#1712=ORIENTED_EDGE('',*,*,#1711,.T.);
#1713=VECTOR('',#34,0.3);
#1714=CARTESIAN_POINT('',(-0.9,1.05,0.75));
#1715=LINE('',#1714,#1713);
#1716=EDGE_CURVE('',#1690,#1694,#1715,.T.);
#1717=ORIENTED_EDGE('',*,*,#1716,.F.);
#1718=VECTOR('',#16,0.3);
#1719=CARTESIAN_POINT('',(-1.2,1.05,0.75));
#1720=LINE('',#1719,#1718);
#1721=EDGE_CURVE('',#1688,#1690,#1720,.T.);
#1722=ORIENTED_EDGE('',*,*,#1721,.F.);
#1723=EDGE_LOOP('',(#1707,#1712,#1717,#1722));
#1724=FACE_OUTER_BOUND('',#1723,.T.);
#1725=CARTESIAN_POINT('',(-1.2,1.05,0.75));
#1726=AXIS2_PLACEMENT_3D('',#1725,#58,#16);
#1727=PLANE('',#1726);
#1728=ADVANCED_FACE('',(#1724),#1727,.T.);
#1729=VECTOR('',#16,0.3);
#1730=CARTESIAN_POINT('',(-1.2,1.05,0.76));
#1731=LINE('',#1730,#1729);
#1732=EDGE_CURVE('',#1696,#1698,#1731,.T.);
#1733=ORIENTED_EDGE('',*,*,#1732,.T.);
#1734=VECTOR('',#34,0.3);
#1735=CARTESIAN_POINT('',(-0.9,1.05,0.76));
#1736=LINE('',#1735,#1734);
#1737=EDGE_CURVE('',#1698,#1702,#1736,.T.);
#1738=ORIENTED_EDGE('',*,*,#1737,.T.);
#1739=VECTOR('',#16,0.3);
#1740=CARTESIAN_POINT('',(-1.2,1.35,0.76));
#1741=LINE('',#1740,#1739);
#1742=EDGE_CURVE('',#1700,#1702,#1741,.T.);
#1743=ORIENTED_EDGE('',*,*,#1742,.F.);
#1744=VECTOR('',#34,0.3);
#1745=CARTESIAN_POINT('',(-1.2,1.05,0.76));
#1746=LINE('',#1745,#1744);
#1747=EDGE_CURVE('',#1696,#1700,#1746,.T.);
#1748=ORIENTED_EDGE('',*,*,#1747,.F.);
#1749=EDGE_LOOP('',(#1733,#1738,#1743,#1748));
#1750=FACE_OUTER_BOUND('',#1749,.T.);
#1751=CARTESIAN_POINT('',(-1.2,1.05,0.76));
#1752=AXIS2_PLACEMENT_3D('',#1751,#15,#16);
#1753=PLANE('',#1752);
#1754=ADVANCED_FACE('',(#1750),#1753,.T.);
#1755=ORIENTED_EDGE('',*,*,#1721,.T.);
#1756=VECTOR('',#15,0.01);
#1757=CARTESIAN_POINT('',(-0.9,1.05,0.75));
#1758=LINE('',#1757,#1756);
#1759=EDGE_CURVE('',#1690,#1698,#1758,.T.);
#1760=ORIENTED_EDGE('',*,*,#1759,.T.);
#1761=ORIENTED_EDGE('',*,*,#1732,.F.);
#1762=VECTOR('',#15,0.01);
#1763=CARTESIAN_POINT('',(-1.2,1.05,0.75));
#1764=LINE('',#1763,#1762);
#1765=EDGE_CURVE('',#1688,#1696,#1764,.T.);
#1766=ORIENTED_EDGE('',*,*,#1765,.F.);
#1767=EDGE_LOOP('',(#1755,#1760,#1761,#1766));
#1768=FACE_OUTER_BOUND('',#1767,.T.);
#1769=CARTESIAN_POINT('',(-1.2,1.05,0.75));
#1770=AXIS2_PLACEMENT_3D('',#1769,#103,#16);
#1771=PLANE('',#1770);
#1772=ADVANCED_FACE('',(#1768),#1771,.T.);
#1773=VECTOR('',#15,0.01);
#1774=CARTESIAN_POINT('',(-1.2,1.35,0.75));
#1775=LINE('',#1774,#1773);
#1776=EDGE_CURVE('',#1692,#1700,#1775,.T.);
#1777=ORIENTED_EDGE('',*,*,#1776,.T.);
#1778=ORIENTED_EDGE('',*,*,#1742,.T.);
#1779=VECTOR('',#15,0.01);
#1780=CARTESIAN_POINT('',(-0.9,1.35,0.75));
#1781=LINE('',#1780,#1779);
#1782=EDGE_CURVE('',#1694,#1702,#1781,.T.);
#1783=ORIENTED_EDGE('',*,*,#1782,.F.);
#1784=ORIENTED_EDGE('',*,*,#1711,.F.);
#1785=EDGE_LOOP('',(#1777,#1778,#1783,#1784));
#1786=FACE_OUTER_BOUND('',#1785,.T.);
#1787=CARTESIAN_POINT('',(-1.2,1.35,0.75));
#1788=AXIS2_PLACEMENT_3D('',#1787,#34,#16);
#1789=PLANE('',#1788);
#1790=ADVANCED_FACE('',(#1786),#1789,.T.);
#1791=ORIENTED_EDGE('',*,*,#1765,.T.);
#1792=ORIENTED_EDGE('',*,*,#1747,.T.);
#1793=ORIENTED_EDGE('',*,*,#1776,.F.);
#1794=ORIENTED_EDGE('',*,*,#1706,.F.);
#1795=EDGE_LOOP('',(#1791,#1792,#1793,#1794));
#1796=FACE_OUTER_BOUND('',#1795,.T.);
#1797=CARTESIAN_POINT('',(-1.2,1.05,0.75));
#1798=AXIS2_PLACEMENT_3D('',#1797,#132,#34);
#1799=PLANE('',#1798);
#1800=ADVANCED_FACE('',(#1796),#1799,.T.);
#1801=ORIENTED_EDGE('',*,*,#1716,.T.);
#1802=ORIENTED_EDGE('',*,*,#1782,.T.);
#1803=ORIENTED_EDGE('',*,*,#1737,.F.);
#1804=ORIENTED_EDGE('',*,*,#1759,.F.);
#1805=EDGE_LOOP('',(#1801,#1802,#1803,#1804));
#1806=FACE_OUTER_BOUND('',#1805,.T.);
#1807=CARTESIAN_POINT('',(-0.9,1.05,0.75));
#1808=AXIS2_PLACEMENT_3D('',#1807,#16,#34);
#1809=PLANE('',#1808);
#1810=ADVANCED_FACE('',(#1806),#1809,.T.);
#1811=CLOSED_SHELL('',(#1728,#1754,#1772,#1790,#1800,#1810));
#1812=MANIFOLD_SOLID_BREP('Pin1_mark',#1811);
#1813=COLOUR_RGB('',0.95,0.95,0.95);
#1814=FILL_AREA_STYLE_COLOUR('',#1813);
#1815=FILL_AREA_STYLE('',(#1814));
#1816=SURFACE_STYLE_FILL_AREA(#1815);
#1817=SURFACE_SIDE_STYLE('',(#1816));
#1818=SURFACE_STYLE_USAGE(.BOTH.,#1817);
#1819=PRESENTATION_STYLE_ASSIGNMENT((#1818));
#1820=STYLED_ITEM('color',(#1819),#1812);
#1821=ADVANCED_BREP_SHAPE_REPRESENTATION('',(#17,#147,#281,#415,#542,#669,#796,#923,#1050,#1177,#1304,#1431,#1558,#1685,#1812),#13);
#1822=SHAPE_DEFINITION_REPRESENTATION(#8,#1821);
#1823=MECHANICAL_DESIGN_GEOMETRIC_PRESENTATION_REPRESENTATION('',(#155,#289,#416,#543,#670,#797,#924,#1051,#1178,#1305,#1432,#1559,#1686,#1820),#13);
ENDSEC;
END-ISO-10303-21;
