ISO-10303-21;
HEADER;
FILE_DESCRIPTION(('Korchip_DCL_H-Type_D19.0mm simplified model'),'2;1');
FILE_NAME('Korchip_DCL_H-Type_D19.0mm.step','2026-09-23T00:00:00',('gopo'),(''),'step_boxes.py','','');
FILE_SCHEMA(('AUTOMOTIVE_DESIGN { 1 0 10303 214 1 1 1 1 }'));
ENDSEC;
DATA;
#1=APPLICATION_CONTEXT('core data for automotive mechanical design processes');
#2=APPLICATION_PROTOCOL_DEFINITION('international standard','automotive_design',2000,#1);
#3=PRODUCT_CONTEXT('',#1,'mechanical');
#4=PRODUCT('Korchip_DCL_H-Type_D19.0mm','Korchip_DCL_H-Type_D19.0mm','',(#3));
#5=PRODUCT_DEFINITION_FORMATION('','',#4);
#6=PRODUCT_DEFINITION_CONTEXT('part definition',#1,'design');
#7=PRODUCT_DEFINITION('design','',#5,#6);
#8=PRODUCT_DEFINITION_SHAPE('','',#7);
#9=( LENGTH_UNIT() NAMED_UNIT(*) SI_UNIT(.MILLI.,.METRE.) );
#10=( NAMED_UNIT(*) PLANE_ANGLE_UNIT() SI_UNIT($,.RADIAN.) );
#11=( NAMED_UNIT(*) SI_UNIT($,.STERADIAN.) SOLID_ANGLE_UNIT() );
#12=UNCERTAINTY_MEASURE_WITH_UNIT(LENGTH_MEASURE(1.E-07),#9,'distance_accuracy_value','confusion accuracy');
#13=( GEOMETRIC_REPRESENTATION_CONTEXT(3) GLOBAL_UNCERTAINTY_ASSIGNED_CONTEXT((#12)) GLOBAL_UNIT_ASSIGNED_CONTEXT((#9,#10,#11)) REPRESENTATION_CONTEXT('Context #1','3D Context with UNIT and UNCERTAINTY') );
#14=CARTESIAN_POINT('',(0.,0.,0.));
#15=DIRECTION('',(0.,0.,1.));
#16=DIRECTION('',(1.,0.,0.));
#17=AXIS2_PLACEMENT_3D('',#14,#15,#16);
#18=CARTESIAN_POINT('',(-15.7,7.6,0.));
#19=VERTEX_POINT('',#18);
#20=CARTESIAN_POINT('',(-4.3,7.6,0.));
#21=VERTEX_POINT('',#20);
#22=CARTESIAN_POINT('',(-15.7,9.5,0.));
#23=VERTEX_POINT('',#22);
#24=CARTESIAN_POINT('',(-4.3,9.5,0.));
#25=VERTEX_POINT('',#24);
#26=CARTESIAN_POINT('',(-15.7,7.6,6.5));
#27=VERTEX_POINT('',#26);
#28=CARTESIAN_POINT('',(-4.3,7.6,6.5));
#29=VERTEX_POINT('',#28);
#30=CARTESIAN_POINT('',(-15.7,9.5,6.5));
#31=VERTEX_POINT('',#30);
#32=CARTESIAN_POINT('',(-4.3,9.5,6.5));
#33=VERTEX_POINT('',#32);
#34=DIRECTION('',(0.,1.,0.));
#35=VECTOR('',#34,1.9);
#36=CARTESIAN_POINT('',(-15.7,7.6,0.));
#37=LINE('',#36,#35);
#38=EDGE_CURVE('',#19,#23,#37,.T.);
#39=ORIENTED_EDGE('',*,*,#38,.T.);
#40=VECTOR('',#16,11.4);
#41=CARTESIAN_POINT('',(-15.7,9.5,0.));
#42=LINE('',#41,#40);
#43=EDGE_CURVE('',#23,#25,#42,.T.);
#44=ORIENTED_EDGE('',*,*,#43,.T.);
#45=VECTOR('',#34,1.9);
#46=CARTESIAN_POINT('',(-4.3,7.6,0.));
#47=LINE('',#46,#45);
#48=EDGE_CURVE('',#21,#25,#47,.T.);
#49=ORIENTED_EDGE('',*,*,#48,.F.);
#50=VECTOR('',#16,11.4);
#51=CARTESIAN_POINT('',(-15.7,7.6,0.));
#52=LINE('',#51,#50);
#53=EDGE_CURVE('',#19,#21,#52,.T.);
#54=ORIENTED_EDGE('',*,*,#53,.F.);
#55=EDGE_LOOP('',(#39,#44,#49,#54));
#56=FACE_OUTER_BOUND('',#55,.T.);
#57=CARTESIAN_POINT('',(-15.7,7.6,0.));
#58=DIRECTION('',(0.,0.,-1.));
#59=AXIS2_PLACEMENT_3D('',#57,#58,#16);
#60=PLANE('',#59);
#61=ADVANCED_FACE('',(#56),#60,.T.);
#62=VECTOR('',#16,11.4);
#63=CARTESIAN_POINT('',(-15.7,7.6,6.5));
#64=LINE('',#63,#62);
#65=EDGE_CURVE('',#27,#29,#64,.T.);
#66=ORIENTED_EDGE('',*,*,#65,.T.);
#67=VECTOR('',#34,1.9);
#68=CARTESIAN_POINT('',(-4.3,7.6,6.5));
#69=LINE('',#68,#67);
#70=EDGE_CURVE('',#29,#33,#69,.T.);
#71=ORIENTED_EDGE('',*,*,#70,.T.);
#72=VECTOR('',#16,11.4);
#73=CARTESIAN_POINT('',(-15.7,9.5,6.5));
#74=LINE('',#73,#72);
#75=EDGE_CURVE('',#31,#33,#74,.T.);
#76=ORIENTED_EDGE('',*,*,#75,.F.);
#77=VECTOR('',#34,1.9);
#78=CARTESIAN_POINT('',(-15.7,7.6,6.5));
#79=LINE('',#78,#77);
#80=EDGE_CURVE('',#27,#31,#79,.T.);
#81=ORIENTED_EDGE('',*,*,#80,.F.);
#82=EDGE_LOOP('',(#66,#71,#76,#81));
#83=FACE_OUTER_BOUND('',#82,.T.);
#84=CARTESIAN_POINT('',(-15.7,7.6,6.5));
#85=AXIS2_PLACEMENT_3D('',#84,#15,#16);
#86=PLANE('',#85);
#87=ADVANCED_FACE('',(#83),#86,.T.);
#88=ORIENTED_EDGE('',*,*,#53,.T.);
#89=VECTOR('',#15,6.5);
#90=CARTESIAN_POINT('',(-4.3,7.6,0.));
#91=LINE('',#90,#89);
#92=EDGE_CURVE('',#21,#29,#91,.T.);
#93=ORIENTED_EDGE('',*,*,#92,.T.);
#94=ORIENTED_EDGE('',*,*,#65,.F.);
#95=VECTOR('',#15,6.5);
#96=CARTESIAN_POINT('',(-15.7,7.6,0.));
#97=LINE('',#96,#95);
#98=EDGE_CURVE('',#19,#27,#97,.T.);
#99=ORIENTED_EDGE('',*,*,#98,.F.);
#100=EDGE_LOOP('',(#88,#93,#94,#99));
#101=FACE_OUTER_BOUND('',#100,.T.);
#102=CARTESIAN_POINT('',(-15.7,7.6,0.));
#103=DIRECTION('',(0.,-1.,0.));
#104=AXIS2_PLACEMENT_3D('',#102,#103,#16);
#105=PLANE('',#104);
#106=ADVANCED_FACE('',(#101),#105,.T.);
#107=VECTOR('',#15,6.5);
#108=CARTESIAN_POINT('',(-15.7,9.5,0.));
#109=LINE('',#108,#107);
#110=EDGE_CURVE('',#23,#31,#109,.T.);
#111=ORIENTED_EDGE('',*,*,#110,.T.);
#112=ORIENTED_EDGE('',*,*,#75,.T.);
#113=VECTOR('',#15,6.5);
#114=CARTESIAN_POINT('',(-4.3,9.5,0.));
#115=LINE('',#114,#113);
#116=EDGE_CURVE('',#25,#33,#115,.T.);
#117=ORIENTED_EDGE('',*,*,#116,.F.);
#118=ORIENTED_EDGE('',*,*,#43,.F.);
#119=EDGE_LOOP('',(#111,#112,#117,#118));
#120=FACE_OUTER_BOUND('',#119,.T.);
#121=CARTESIAN_POINT('',(-15.7,9.5,0.));
#122=AXIS2_PLACEMENT_3D('',#121,#34,#16);
#123=PLANE('',#122);
#124=ADVANCED_FACE('',(#120),#123,.T.);
#125=ORIENTED_EDGE('',*,*,#98,.T.);
#126=ORIENTED_EDGE('',*,*,#80,.T.);
#127=ORIENTED_EDGE('',*,*,#110,.F.);
#128=ORIENTED_EDGE('',*,*,#38,.F.);
#129=EDGE_LOOP('',(#125,#126,#127,#128));
#130=FACE_OUTER_BOUND('',#129,.T.);
#131=CARTESIAN_POINT('',(-15.7,7.6,0.));
#132=DIRECTION('',(-1.,0.,0.));
#133=AXIS2_PLACEMENT_3D('',#131,#132,#34);
#134=PLANE('',#133);
#135=ADVANCED_FACE('',(#130),#134,.T.);
#136=ORIENTED_EDGE('',*,*,#48,.T.);
#137=ORIENTED_EDGE('',*,*,#116,.T.);
#138=ORIENTED_EDGE('',*,*,#70,.F.);
#139=ORIENTED_EDGE('',*,*,#92,.F.);
#140=EDGE_LOOP('',(#136,#137,#138,#139));
#141=FACE_OUTER_BOUND('',#140,.T.);
#142=CARTESIAN_POINT('',(-4.3,7.6,0.));
#143=AXIS2_PLACEMENT_3D('',#142,#16,#34);
#144=PLANE('',#143);
#145=ADVANCED_FACE('',(#141),#144,.T.);
#146=CLOSED_SHELL('',(#61,#87,#106,#124,#135,#145));
#147=MANIFOLD_SOLID_BREP('Coin_0',#146);
#148=COLOUR_RGB('',0.85,0.72,0.3);
#149=FILL_AREA_STYLE_COLOUR('',#148);
#150=FILL_AREA_STYLE('',(#149));
#151=SURFACE_STYLE_FILL_AREA(#150);
#152=SURFACE_SIDE_STYLE('',(#151));
#153=SURFACE_STYLE_USAGE(.BOTH.,#152);
#154=PRESENTATION_STYLE_ASSIGNMENT((#153));
#155=STYLED_ITEM('color',(#154),#147);
#156=CARTESIAN_POINT('',(-17.6,5.7,0.));
#157=VERTEX_POINT('',#156);
#158=CARTESIAN_POINT('',(-2.4,5.7,0.));
#159=VERTEX_POINT('',#158);
#160=CARTESIAN_POINT('',(-17.6,7.6,0.));
#161=VERTEX_POINT('',#160);
#162=CARTESIAN_POINT('',(-2.4,7.6,0.));
#163=VERTEX_POINT('',#162);
#164=CARTESIAN_POINT('',(-17.6,5.7,6.5));
#165=VERTEX_POINT('',#164);
#166=CARTESIAN_POINT('',(-2.4,5.7,6.5));
#167=VERTEX_POINT('',#166);
#168=CARTESIAN_POINT('',(-17.6,7.6,6.5));
#169=VERTEX_POINT('',#168);
#170=CARTESIAN_POINT('',(-2.4,7.6,6.5));
#171=VERTEX_POINT('',#170);
#172=VECTOR('',#34,1.9);
#173=CARTESIAN_POINT('',(-17.6,5.7,0.));
#174=LINE('',#173,#172);
#175=EDGE_CURVE('',#157,#161,#174,.T.);
#176=ORIENTED_EDGE('',*,*,#175,.T.);
#177=VECTOR('',#16,15.2);
#178=CARTESIAN_POINT('',(-17.6,7.6,0.));
#179=LINE('',#178,#177);
#180=EDGE_CURVE('',#161,#163,#179,.T.);
#181=ORIENTED_EDGE('',*,*,#180,.T.);
#182=VECTOR('',#34,1.9);
#183=CARTESIAN_POINT('',(-2.4,5.7,0.));
#184=LINE('',#183,#182);
#185=EDGE_CURVE('',#159,#163,#184,.T.);
#186=ORIENTED_EDGE('',*,*,#185,.F.);
#187=VECTOR('',#16,15.2);
#188=CARTESIAN_POINT('',(-17.6,5.7,0.));
#189=LINE('',#188,#187);
#190=EDGE_CURVE('',#157,#159,#189,.T.);
#191=ORIENTED_EDGE('',*,*,#190,.F.);
#192=EDGE_LOOP('',(#176,#181,#186,#191));
#193=FACE_OUTER_BOUND('',#192,.T.);
#194=CARTESIAN_POINT('',(-17.6,5.7,0.));
#195=AXIS2_PLACEMENT_3D('',#194,#58,#16);
#196=PLANE('',#195);
#197=ADVANCED_FACE('',(#193),#196,.T.);
#198=VECTOR('',#16,15.2);
#199=CARTESIAN_POINT('',(-17.6,5.7,6.5));
#200=LINE('',#199,#198);
#201=EDGE_CURVE('',#165,#167,#200,.T.);
#202=ORIENTED_EDGE('',*,*,#201,.T.);
#203=VECTOR('',#34,1.9);
#204=CARTESIAN_POINT('',(-2.4,5.7,6.5));
#205=LINE('',#204,#203);
#206=EDGE_CURVE('',#167,#171,#205,.T.);
#207=ORIENTED_EDGE('',*,*,#206,.T.);
#208=VECTOR('',#16,15.2);
#209=CARTESIAN_POINT('',(-17.6,7.6,6.5));
#210=LINE('',#209,#208);
#211=EDGE_CURVE('',#169,#171,#210,.T.);
#212=ORIENTED_EDGE('',*,*,#211,.F.);
#213=VECTOR('',#34,1.9);
#214=CARTESIAN_POINT('',(-17.6,5.7,6.5));
#215=LINE('',#214,#213);
#216=EDGE_CURVE('',#165,#169,#215,.T.);
#217=ORIENTED_EDGE('',*,*,#216,.F.);
#218=EDGE_LOOP('',(#202,#207,#212,#217));
#219=FACE_OUTER_BOUND('',#218,.T.);
#220=CARTESIAN_POINT('',(-17.6,5.7,6.5));
#221=AXIS2_PLACEMENT_3D('',#220,#15,#16);
#222=PLANE('',#221);
#223=ADVANCED_FACE('',(#219),#222,.T.);
#224=ORIENTED_EDGE('',*,*,#190,.T.);
#225=VECTOR('',#15,6.5);
#226=CARTESIAN_POINT('',(-2.4,5.7,0.));
#227=LINE('',#226,#225);
#228=EDGE_CURVE('',#159,#167,#227,.T.);
#229=ORIENTED_EDGE('',*,*,#228,.T.);
#230=ORIENTED_EDGE('',*,*,#201,.F.);
#231=VECTOR('',#15,6.5);
#232=CARTESIAN_POINT('',(-17.6,5.7,0.));
#233=LINE('',#232,#231);
#234=EDGE_CURVE('',#157,#165,#233,.T.);
#235=ORIENTED_EDGE('',*,*,#234,.F.);
#236=EDGE_LOOP('',(#224,#229,#230,#235));
#237=FACE_OUTER_BOUND('',#236,.T.);
#238=CARTESIAN_POINT('',(-17.6,5.7,0.));
#239=AXIS2_PLACEMENT_3D('',#238,#103,#16);
#240=PLANE('',#239);
#241=ADVANCED_FACE('',(#237),#240,.T.);
#242=VECTOR('',#15,6.5);
#243=CARTESIAN_POINT('',(-17.6,7.6,0.));
#244=LINE('',#243,#242);
#245=EDGE_CURVE('',#161,#169,#244,.T.);
#246=ORIENTED_EDGE('',*,*,#245,.T.);
#247=ORIENTED_EDGE('',*,*,#211,.T.);
#248=VECTOR('',#15,6.5);
#249=CARTESIAN_POINT('',(-2.4,7.6,0.));
#250=LINE('',#249,#248);
#251=EDGE_CURVE('',#163,#171,#250,.T.);
#252=ORIENTED_EDGE('',*,*,#251,.F.);
#253=ORIENTED_EDGE('',*,*,#180,.F.);
#254=EDGE_LOOP('',(#246,#247,#252,#253));
#255=FACE_OUTER_BOUND('',#254,.T.);
#256=CARTESIAN_POINT('',(-17.6,7.6,0.));
#257=AXIS2_PLACEMENT_3D('',#256,#34,#16);
#258=PLANE('',#257);
#259=ADVANCED_FACE('',(#255),#258,.T.);
#260=ORIENTED_EDGE('',*,*,#234,.T.);
#261=ORIENTED_EDGE('',*,*,#216,.T.);
#262=ORIENTED_EDGE('',*,*,#245,.F.);
#263=ORIENTED_EDGE('',*,*,#175,.F.);
#264=EDGE_LOOP('',(#260,#261,#262,#263));
#265=FACE_OUTER_BOUND('',#264,.T.);
#266=CARTESIAN_POINT('',(-17.6,5.7,0.));
#267=AXIS2_PLACEMENT_3D('',#266,#132,#34);
#268=PLANE('',#267);
#269=ADVANCED_FACE('',(#265),#268,.T.);
#270=ORIENTED_EDGE('',*,*,#185,.T.);
#271=ORIENTED_EDGE('',*,*,#251,.T.);
#272=ORIENTED_EDGE('',*,*,#206,.F.);
#273=ORIENTED_EDGE('',*,*,#228,.F.);
#274=EDGE_LOOP('',(#270,#271,#272,#273));
#275=FACE_OUTER_BOUND('',#274,.T.);
#276=CARTESIAN_POINT('',(-2.4,5.7,0.));
#277=AXIS2_PLACEMENT_3D('',#276,#16,#34);
#278=PLANE('',#277);
#279=ADVANCED_FACE('',(#275),#278,.T.);
#280=CLOSED_SHELL('',(#197,#223,#241,#259,#269,#279));
#281=MANIFOLD_SOLID_BREP('Coin_1',#280);
#282=STYLED_ITEM('color',(#154),#281);
#283=CARTESIAN_POINT('',(-18.7069,3.8,0.));
#284=VERTEX_POINT('',#283);
#285=CARTESIAN_POINT('',(-1.2931,3.8,0.));
#286=VERTEX_POINT('',#285);
#287=CARTESIAN_POINT('',(-18.7069,5.7,0.));
#288=VERTEX_POINT('',#287);
#289=CARTESIAN_POINT('',(-1.2931,5.7,0.));
#290=VERTEX_POINT('',#289);
#291=CARTESIAN_POINT('',(-18.7069,3.8,6.5));
#292=VERTEX_POINT('',#291);
#293=CARTESIAN_POINT('',(-1.2931,3.8,6.5));
#294=VERTEX_POINT('',#293);
#295=CARTESIAN_POINT('',(-18.7069,5.7,6.5));
#296=VERTEX_POINT('',#295);
#297=CARTESIAN_POINT('',(-1.2931,5.7,6.5));
#298=VERTEX_POINT('',#297);
#299=VECTOR('',#34,1.9);
#300=CARTESIAN_POINT('',(-18.7069,3.8,0.));
#301=LINE('',#300,#299);
#302=EDGE_CURVE('',#284,#288,#301,.T.);
#303=ORIENTED_EDGE('',*,*,#302,.T.);
#304=VECTOR('',#16,17.4138);
#305=CARTESIAN_POINT('',(-18.7069,5.7,0.));
#306=LINE('',#305,#304);
#307=EDGE_CURVE('',#288,#290,#306,.T.);
#308=ORIENTED_EDGE('',*,*,#307,.T.);
#309=VECTOR('',#34,1.9);
#310=CARTESIAN_POINT('',(-1.2931,3.8,0.));
#311=LINE('',#310,#309);
#312=EDGE_CURVE('',#286,#290,#311,.T.);
#313=ORIENTED_EDGE('',*,*,#312,.F.);
#314=VECTOR('',#16,17.4138);
#315=CARTESIAN_POINT('',(-18.7069,3.8,0.));
#316=LINE('',#315,#314);
#317=EDGE_CURVE('',#284,#286,#316,.T.);
#318=ORIENTED_EDGE('',*,*,#317,.F.);
#319=EDGE_LOOP('',(#303,#308,#313,#318));
#320=FACE_OUTER_BOUND('',#319,.T.);
#321=CARTESIAN_POINT('',(-18.7069,3.8,0.));
#322=AXIS2_PLACEMENT_3D('',#321,#58,#16);
#323=PLANE('',#322);
#324=ADVANCED_FACE('',(#320),#323,.T.);
#325=VECTOR('',#16,17.4138);
#326=CARTESIAN_POINT('',(-18.7069,3.8,6.5));
#327=LINE('',#326,#325);
#328=EDGE_CURVE('',#292,#294,#327,.T.);
#329=ORIENTED_EDGE('',*,*,#328,.T.);
#330=VECTOR('',#34,1.9);
#331=CARTESIAN_POINT('',(-1.2931,3.8,6.5));
#332=LINE('',#331,#330);
#333=EDGE_CURVE('',#294,#298,#332,.T.);
#334=ORIENTED_EDGE('',*,*,#333,.T.);
#335=VECTOR('',#16,17.4138);
#336=CARTESIAN_POINT('',(-18.7069,5.7,6.5));
#337=LINE('',#336,#335);
#338=EDGE_CURVE('',#296,#298,#337,.T.);
#339=ORIENTED_EDGE('',*,*,#338,.F.);
#340=VECTOR('',#34,1.9);
#341=CARTESIAN_POINT('',(-18.7069,3.8,6.5));
#342=LINE('',#341,#340);
#343=EDGE_CURVE('',#292,#296,#342,.T.);
#344=ORIENTED_EDGE('',*,*,#343,.F.);
#345=EDGE_LOOP('',(#329,#334,#339,#344));
#346=FACE_OUTER_BOUND('',#345,.T.);
#347=CARTESIAN_POINT('',(-18.7069,3.8,6.5));
#348=AXIS2_PLACEMENT_3D('',#347,#15,#16);
#349=PLANE('',#348);
#350=ADVANCED_FACE('',(#346),#349,.T.);
#351=ORIENTED_EDGE('',*,*,#317,.T.);
#352=VECTOR('',#15,6.5);
#353=CARTESIAN_POINT('',(-1.2931,3.8,0.));
#354=LINE('',#353,#352);
#355=EDGE_CURVE('',#286,#294,#354,.T.);
#356=ORIENTED_EDGE('',*,*,#355,.T.);
#357=ORIENTED_EDGE('',*,*,#328,.F.);
#358=VECTOR('',#15,6.5);
#359=CARTESIAN_POINT('',(-18.7069,3.8,0.));
#360=LINE('',#359,#358);
#361=EDGE_CURVE('',#284,#292,#360,.T.);
#362=ORIENTED_EDGE('',*,*,#361,.F.);
#363=EDGE_LOOP('',(#351,#356,#357,#362));
#364=FACE_OUTER_BOUND('',#363,.T.);
#365=CARTESIAN_POINT('',(-18.7069,3.8,0.));
#366=AXIS2_PLACEMENT_3D('',#365,#103,#16);
#367=PLANE('',#366);
#368=ADVANCED_FACE('',(#364),#367,.T.);
#369=VECTOR('',#15,6.5);
#370=CARTESIAN_POINT('',(-18.7069,5.7,0.));
#371=LINE('',#370,#369);
#372=EDGE_CURVE('',#288,#296,#371,.T.);
#373=ORIENTED_EDGE('',*,*,#372,.T.);
#374=ORIENTED_EDGE('',*,*,#338,.T.);
#375=VECTOR('',#15,6.5);
#376=CARTESIAN_POINT('',(-1.2931,5.7,0.));
#377=LINE('',#376,#375);
#378=EDGE_CURVE('',#290,#298,#377,.T.);
#379=ORIENTED_EDGE('',*,*,#378,.F.);
#380=ORIENTED_EDGE('',*,*,#307,.F.);
#381=EDGE_LOOP('',(#373,#374,#379,#380));
#382=FACE_OUTER_BOUND('',#381,.T.);
#383=CARTESIAN_POINT('',(-18.7069,5.7,0.));
#384=AXIS2_PLACEMENT_3D('',#383,#34,#16);
#385=PLANE('',#384);
#386=ADVANCED_FACE('',(#382),#385,.T.);
#387=ORIENTED_EDGE('',*,*,#361,.T.);
#388=ORIENTED_EDGE('',*,*,#343,.T.);
#389=ORIENTED_EDGE('',*,*,#372,.F.);
#390=ORIENTED_EDGE('',*,*,#302,.F.);
#391=EDGE_LOOP('',(#387,#388,#389,#390));
#392=FACE_OUTER_BOUND('',#391,.T.);
#393=CARTESIAN_POINT('',(-18.7069,3.8,0.));
#394=AXIS2_PLACEMENT_3D('',#393,#132,#34);
#395=PLANE('',#394);
#396=ADVANCED_FACE('',(#392),#395,.T.);
#397=ORIENTED_EDGE('',*,*,#312,.T.);
#398=ORIENTED_EDGE('',*,*,#378,.T.);
#399=ORIENTED_EDGE('',*,*,#333,.F.);
#400=ORIENTED_EDGE('',*,*,#355,.F.);
#401=EDGE_LOOP('',(#397,#398,#399,#400));
#402=FACE_OUTER_BOUND('',#401,.T.);
#403=CARTESIAN_POINT('',(-1.2931,3.8,0.));
#404=AXIS2_PLACEMENT_3D('',#403,#16,#34);
#405=PLANE('',#404);
#406=ADVANCED_FACE('',(#402),#405,.T.);
#407=CLOSED_SHELL('',(#324,#350,#368,#386,#396,#406));
#408=MANIFOLD_SOLID_BREP('Coin_2',#407);
#409=STYLED_ITEM('color',(#154),#408);
#410=CARTESIAN_POINT('',(-19.3081,1.9,0.));
#411=VERTEX_POINT('',#410);
#412=CARTESIAN_POINT('',(-0.6919,1.9,0.));
#413=VERTEX_POINT('',#412);
#414=CARTESIAN_POINT('',(-19.3081,3.8,0.));
#415=VERTEX_POINT('',#414);
#416=CARTESIAN_POINT('',(-0.6919,3.8,0.));
#417=VERTEX_POINT('',#416);
#418=CARTESIAN_POINT('',(-19.3081,1.9,6.5));
#419=VERTEX_POINT('',#418);
#420=CARTESIAN_POINT('',(-0.6919,1.9,6.5));
#421=VERTEX_POINT('',#420);
#422=CARTESIAN_POINT('',(-19.3081,3.8,6.5));
#423=VERTEX_POINT('',#422);
#424=CARTESIAN_POINT('',(-0.6919,3.8,6.5));
#425=VERTEX_POINT('',#424);
#426=VECTOR('',#34,1.9);
#427=CARTESIAN_POINT('',(-19.3081,1.9,0.));
#428=LINE('',#427,#426);
#429=EDGE_CURVE('',#411,#415,#428,.T.);
#430=ORIENTED_EDGE('',*,*,#429,.T.);
#431=VECTOR('',#16,18.6161);
#432=CARTESIAN_POINT('',(-19.3081,3.8,0.));
#433=LINE('',#432,#431);
#434=EDGE_CURVE('',#415,#417,#433,.T.);
#435=ORIENTED_EDGE('',*,*,#434,.T.);
#436=VECTOR('',#34,1.9);
#437=CARTESIAN_POINT('',(-0.6919,1.9,0.));
#438=LINE('',#437,#436);
#439=EDGE_CURVE('',#413,#417,#438,.T.);
#440=ORIENTED_EDGE('',*,*,#439,.F.);
#441=VECTOR('',#16,18.6161);
#442=CARTESIAN_POINT('',(-19.3081,1.9,0.));
#443=LINE('',#442,#441);
#444=EDGE_CURVE('',#411,#413,#443,.T.);
#445=ORIENTED_EDGE('',*,*,#444,.F.);
#446=EDGE_LOOP('',(#430,#435,#440,#445));
#447=FACE_OUTER_BOUND('',#446,.T.);
#448=CARTESIAN_POINT('',(-19.3081,1.9,0.));
#449=AXIS2_PLACEMENT_3D('',#448,#58,#16);
#450=PLANE('',#449);
#451=ADVANCED_FACE('',(#447),#450,.T.);
#452=VECTOR('',#16,18.6161);
#453=CARTESIAN_POINT('',(-19.3081,1.9,6.5));
#454=LINE('',#453,#452);
#455=EDGE_CURVE('',#419,#421,#454,.T.);
#456=ORIENTED_EDGE('',*,*,#455,.T.);
#457=VECTOR('',#34,1.9);
#458=CARTESIAN_POINT('',(-0.6919,1.9,6.5));
#459=LINE('',#458,#457);
#460=EDGE_CURVE('',#421,#425,#459,.T.);
#461=ORIENTED_EDGE('',*,*,#460,.T.);
#462=VECTOR('',#16,18.6161);
#463=CARTESIAN_POINT('',(-19.3081,3.8,6.5));
#464=LINE('',#463,#462);
#465=EDGE_CURVE('',#423,#425,#464,.T.);
#466=ORIENTED_EDGE('',*,*,#465,.F.);
#467=VECTOR('',#34,1.9);
#468=CARTESIAN_POINT('',(-19.3081,1.9,6.5));
#469=LINE('',#468,#467);
#470=EDGE_CURVE('',#419,#423,#469,.T.);
#471=ORIENTED_EDGE('',*,*,#470,.F.);
#472=EDGE_LOOP('',(#456,#461,#466,#471));
#473=FACE_OUTER_BOUND('',#472,.T.);
#474=CARTESIAN_POINT('',(-19.3081,1.9,6.5));
#475=AXIS2_PLACEMENT_3D('',#474,#15,#16);
#476=PLANE('',#475);
#477=ADVANCED_FACE('',(#473),#476,.T.);
#478=ORIENTED_EDGE('',*,*,#444,.T.);
#479=VECTOR('',#15,6.5);
#480=CARTESIAN_POINT('',(-0.6919,1.9,0.));
#481=LINE('',#480,#479);
#482=EDGE_CURVE('',#413,#421,#481,.T.);
#483=ORIENTED_EDGE('',*,*,#482,.T.);
#484=ORIENTED_EDGE('',*,*,#455,.F.);
#485=VECTOR('',#15,6.5);
#486=CARTESIAN_POINT('',(-19.3081,1.9,0.));
#487=LINE('',#486,#485);
#488=EDGE_CURVE('',#411,#419,#487,.T.);
#489=ORIENTED_EDGE('',*,*,#488,.F.);
#490=EDGE_LOOP('',(#478,#483,#484,#489));
#491=FACE_OUTER_BOUND('',#490,.T.);
#492=CARTESIAN_POINT('',(-19.3081,1.9,0.));
#493=AXIS2_PLACEMENT_3D('',#492,#103,#16);
#494=PLANE('',#493);
#495=ADVANCED_FACE('',(#491),#494,.T.);
#496=VECTOR('',#15,6.5);
#497=CARTESIAN_POINT('',(-19.3081,3.8,0.));
#498=LINE('',#497,#496);
#499=EDGE_CURVE('',#415,#423,#498,.T.);
#500=ORIENTED_EDGE('',*,*,#499,.T.);
#501=ORIENTED_EDGE('',*,*,#465,.T.);
#502=VECTOR('',#15,6.5);
#503=CARTESIAN_POINT('',(-0.6919,3.8,0.));
#504=LINE('',#503,#502);
#505=EDGE_CURVE('',#417,#425,#504,.T.);
#506=ORIENTED_EDGE('',*,*,#505,.F.);
#507=ORIENTED_EDGE('',*,*,#434,.F.);
#508=EDGE_LOOP('',(#500,#501,#506,#507));
#509=FACE_OUTER_BOUND('',#508,.T.);
#510=CARTESIAN_POINT('',(-19.3081,3.8,0.));
#511=AXIS2_PLACEMENT_3D('',#510,#34,#16);
#512=PLANE('',#511);
#513=ADVANCED_FACE('',(#509),#512,.T.);
#514=ORIENTED_EDGE('',*,*,#488,.T.);
#515=ORIENTED_EDGE('',*,*,#470,.T.);
#516=ORIENTED_EDGE('',*,*,#499,.F.);
#517=ORIENTED_EDGE('',*,*,#429,.F.);
#518=EDGE_LOOP('',(#514,#515,#516,#517));
#519=FACE_OUTER_BOUND('',#518,.T.);
#520=CARTESIAN_POINT('',(-19.3081,1.9,0.));
#521=AXIS2_PLACEMENT_3D('',#520,#132,#34);
#522=PLANE('',#521);
#523=ADVANCED_FACE('',(#519),#522,.T.);
#524=ORIENTED_EDGE('',*,*,#439,.T.);
#525=ORIENTED_EDGE('',*,*,#505,.T.);
#526=ORIENTED_EDGE('',*,*,#460,.F.);
#527=ORIENTED_EDGE('',*,*,#482,.F.);
#528=EDGE_LOOP('',(#524,#525,#526,#527));
#529=FACE_OUTER_BOUND('',#528,.T.);
#530=CARTESIAN_POINT('',(-0.6919,1.9,0.));
#531=AXIS2_PLACEMENT_3D('',#530,#16,#34);
#532=PLANE('',#531);
#533=ADVANCED_FACE('',(#529),#532,.T.);
#534=CLOSED_SHELL('',(#451,#477,#495,#513,#523,#533));
#535=MANIFOLD_SOLID_BREP('Coin_3',#534);
#536=STYLED_ITEM('color',(#154),#535);
#537=CARTESIAN_POINT('',(-19.5,-0.,0.));
#538=VERTEX_POINT('',#537);
#539=CARTESIAN_POINT('',(-0.5,-0.,0.));
#540=VERTEX_POINT('',#539);
#541=CARTESIAN_POINT('',(-19.5,1.9,0.));
#542=VERTEX_POINT('',#541);
#543=CARTESIAN_POINT('',(-0.5,1.9,0.));
#544=VERTEX_POINT('',#543);
#545=CARTESIAN_POINT('',(-19.5,-0.,6.5));
#546=VERTEX_POINT('',#545);
#547=CARTESIAN_POINT('',(-0.5,-0.,6.5));
#548=VERTEX_POINT('',#547);
#549=CARTESIAN_POINT('',(-19.5,1.9,6.5));
#550=VERTEX_POINT('',#549);
#551=CARTESIAN_POINT('',(-0.5,1.9,6.5));
#552=VERTEX_POINT('',#551);
#553=VECTOR('',#34,1.9);
#554=CARTESIAN_POINT('',(-19.5,-0.,0.));
#555=LINE('',#554,#553);
#556=EDGE_CURVE('',#538,#542,#555,.T.);
#557=ORIENTED_EDGE('',*,*,#556,.T.);
#558=VECTOR('',#16,19.);
#559=CARTESIAN_POINT('',(-19.5,1.9,0.));
#560=LINE('',#559,#558);
#561=EDGE_CURVE('',#542,#544,#560,.T.);
#562=ORIENTED_EDGE('',*,*,#561,.T.);
#563=VECTOR('',#34,1.9);
#564=CARTESIAN_POINT('',(-0.5,-0.,0.));
#565=LINE('',#564,#563);
#566=EDGE_CURVE('',#540,#544,#565,.T.);
#567=ORIENTED_EDGE('',*,*,#566,.F.);
#568=VECTOR('',#16,19.);
#569=CARTESIAN_POINT('',(-19.5,-0.,0.));
#570=LINE('',#569,#568);
#571=EDGE_CURVE('',#538,#540,#570,.T.);
#572=ORIENTED_EDGE('',*,*,#571,.F.);
#573=EDGE_LOOP('',(#557,#562,#567,#572));
#574=FACE_OUTER_BOUND('',#573,.T.);
#575=CARTESIAN_POINT('',(-19.5,-0.,0.));
#576=AXIS2_PLACEMENT_3D('',#575,#58,#16);
#577=PLANE('',#576);
#578=ADVANCED_FACE('',(#574),#577,.T.);
#579=VECTOR('',#16,19.);
#580=CARTESIAN_POINT('',(-19.5,-0.,6.5));
#581=LINE('',#580,#579);
#582=EDGE_CURVE('',#546,#548,#581,.T.);
#583=ORIENTED_EDGE('',*,*,#582,.T.);
#584=VECTOR('',#34,1.9);
#585=CARTESIAN_POINT('',(-0.5,-0.,6.5));
#586=LINE('',#585,#584);
#587=EDGE_CURVE('',#548,#552,#586,.T.);
#588=ORIENTED_EDGE('',*,*,#587,.T.);
#589=VECTOR('',#16,19.);
#590=CARTESIAN_POINT('',(-19.5,1.9,6.5));
#591=LINE('',#590,#589);
#592=EDGE_CURVE('',#550,#552,#591,.T.);
#593=ORIENTED_EDGE('',*,*,#592,.F.);
#594=VECTOR('',#34,1.9);
#595=CARTESIAN_POINT('',(-19.5,-0.,6.5));
#596=LINE('',#595,#594);
#597=EDGE_CURVE('',#546,#550,#596,.T.);
#598=ORIENTED_EDGE('',*,*,#597,.F.);
#599=EDGE_LOOP('',(#583,#588,#593,#598));
#600=FACE_OUTER_BOUND('',#599,.T.);
#601=CARTESIAN_POINT('',(-19.5,-0.,6.5));
#602=AXIS2_PLACEMENT_3D('',#601,#15,#16);
#603=PLANE('',#602);
#604=ADVANCED_FACE('',(#600),#603,.T.);
#605=ORIENTED_EDGE('',*,*,#571,.T.);
#606=VECTOR('',#15,6.5);
#607=CARTESIAN_POINT('',(-0.5,-0.,0.));
#608=LINE('',#607,#606);
#609=EDGE_CURVE('',#540,#548,#608,.T.);
#610=ORIENTED_EDGE('',*,*,#609,.T.);
#611=ORIENTED_EDGE('',*,*,#582,.F.);
#612=VECTOR('',#15,6.5);
#613=CARTESIAN_POINT('',(-19.5,-0.,0.));
#614=LINE('',#613,#612);
#615=EDGE_CURVE('',#538,#546,#614,.T.);
#616=ORIENTED_EDGE('',*,*,#615,.F.);
#617=EDGE_LOOP('',(#605,#610,#611,#616));
#618=FACE_OUTER_BOUND('',#617,.T.);
#619=CARTESIAN_POINT('',(-19.5,-0.,0.));
#620=AXIS2_PLACEMENT_3D('',#619,#103,#16);
#621=PLANE('',#620);
#622=ADVANCED_FACE('',(#618),#621,.T.);
#623=VECTOR('',#15,6.5);
#624=CARTESIAN_POINT('',(-19.5,1.9,0.));
#625=LINE('',#624,#623);
#626=EDGE_CURVE('',#542,#550,#625,.T.);
#627=ORIENTED_EDGE('',*,*,#626,.T.);
#628=ORIENTED_EDGE('',*,*,#592,.T.);
#629=VECTOR('',#15,6.5);
#630=CARTESIAN_POINT('',(-0.5,1.9,0.));
#631=LINE('',#630,#629);
#632=EDGE_CURVE('',#544,#552,#631,.T.);
#633=ORIENTED_EDGE('',*,*,#632,.F.);
#634=ORIENTED_EDGE('',*,*,#561,.F.);
#635=EDGE_LOOP('',(#627,#628,#633,#634));
#636=FACE_OUTER_BOUND('',#635,.T.);
#637=CARTESIAN_POINT('',(-19.5,1.9,0.));
#638=AXIS2_PLACEMENT_3D('',#637,#34,#16);
#639=PLANE('',#638);
#640=ADVANCED_FACE('',(#636),#639,.T.);
#641=ORIENTED_EDGE('',*,*,#615,.T.);
#642=ORIENTED_EDGE('',*,*,#597,.T.);
#643=ORIENTED_EDGE('',*,*,#626,.F.);
#644=ORIENTED_EDGE('',*,*,#556,.F.);
#645=EDGE_LOOP('',(#641,#642,#643,#644));
#646=FACE_OUTER_BOUND('',#645,.T.);
#647=CARTESIAN_POINT('',(-19.5,-0.,0.));
#648=AXIS2_PLACEMENT_3D('',#647,#132,#34);
#649=PLANE('',#648);
#650=ADVANCED_FACE('',(#646),#649,.T.);
#651=ORIENTED_EDGE('',*,*,#566,.T.);
#652=ORIENTED_EDGE('',*,*,#632,.T.);
#653=ORIENTED_EDGE('',*,*,#587,.F.);
#654=ORIENTED_EDGE('',*,*,#609,.F.);
#655=EDGE_LOOP('',(#651,#652,#653,#654));
#656=FACE_OUTER_BOUND('',#655,.T.);
#657=CARTESIAN_POINT('',(-0.5,-0.,0.));
#658=AXIS2_PLACEMENT_3D('',#657,#16,#34);
#659=PLANE('',#658);
#660=ADVANCED_FACE('',(#656),#659,.T.);
#661=CLOSED_SHELL('',(#578,#604,#622,#640,#650,#660));
#662=MANIFOLD_SOLID_BREP('Coin_4',#661);
#663=STYLED_ITEM('color',(#154),#662);
#664=CARTESIAN_POINT('',(-19.5,-1.9,0.));
#665=VERTEX_POINT('',#664);
#666=CARTESIAN_POINT('',(-0.5,-1.9,0.));
#667=VERTEX_POINT('',#666);
#668=CARTESIAN_POINT('',(-19.5,-0.,0.));
#669=VERTEX_POINT('',#668);
#670=CARTESIAN_POINT('',(-0.5,-0.,0.));
#671=VERTEX_POINT('',#670);
#672=CARTESIAN_POINT('',(-19.5,-1.9,6.5));
#673=VERTEX_POINT('',#672);
#674=CARTESIAN_POINT('',(-0.5,-1.9,6.5));
#675=VERTEX_POINT('',#674);
#676=CARTESIAN_POINT('',(-19.5,-0.,6.5));
#677=VERTEX_POINT('',#676);
#678=CARTESIAN_POINT('',(-0.5,-0.,6.5));
#679=VERTEX_POINT('',#678);
#680=VECTOR('',#34,1.9);
#681=CARTESIAN_POINT('',(-19.5,-1.9,0.));
#682=LINE('',#681,#680);
#683=EDGE_CURVE('',#665,#669,#682,.T.);
#684=ORIENTED_EDGE('',*,*,#683,.T.);
#685=VECTOR('',#16,19.);
#686=CARTESIAN_POINT('',(-19.5,-0.,0.));
#687=LINE('',#686,#685);
#688=EDGE_CURVE('',#669,#671,#687,.T.);
#689=ORIENTED_EDGE('',*,*,#688,.T.);
#690=VECTOR('',#34,1.9);
#691=CARTESIAN_POINT('',(-0.5,-1.9,0.));
#692=LINE('',#691,#690);
#693=EDGE_CURVE('',#667,#671,#692,.T.);
#694=ORIENTED_EDGE('',*,*,#693,.F.);
#695=VECTOR('',#16,19.);
#696=CARTESIAN_POINT('',(-19.5,-1.9,0.));
#697=LINE('',#696,#695);
#698=EDGE_CURVE('',#665,#667,#697,.T.);
#699=ORIENTED_EDGE('',*,*,#698,.F.);
#700=EDGE_LOOP('',(#684,#689,#694,#699));
#701=FACE_OUTER_BOUND('',#700,.T.);
#702=CARTESIAN_POINT('',(-19.5,-1.9,0.));
#703=AXIS2_PLACEMENT_3D('',#702,#58,#16);
#704=PLANE('',#703);
#705=ADVANCED_FACE('',(#701),#704,.T.);
#706=VECTOR('',#16,19.);
#707=CARTESIAN_POINT('',(-19.5,-1.9,6.5));
#708=LINE('',#707,#706);
#709=EDGE_CURVE('',#673,#675,#708,.T.);
#710=ORIENTED_EDGE('',*,*,#709,.T.);
#711=VECTOR('',#34,1.9);
#712=CARTESIAN_POINT('',(-0.5,-1.9,6.5));
#713=LINE('',#712,#711);
#714=EDGE_CURVE('',#675,#679,#713,.T.);
#715=ORIENTED_EDGE('',*,*,#714,.T.);
#716=VECTOR('',#16,19.);
#717=CARTESIAN_POINT('',(-19.5,-0.,6.5));
#718=LINE('',#717,#716);
#719=EDGE_CURVE('',#677,#679,#718,.T.);
#720=ORIENTED_EDGE('',*,*,#719,.F.);
#721=VECTOR('',#34,1.9);
#722=CARTESIAN_POINT('',(-19.5,-1.9,6.5));
#723=LINE('',#722,#721);
#724=EDGE_CURVE('',#673,#677,#723,.T.);
#725=ORIENTED_EDGE('',*,*,#724,.F.);
#726=EDGE_LOOP('',(#710,#715,#720,#725));
#727=FACE_OUTER_BOUND('',#726,.T.);
#728=CARTESIAN_POINT('',(-19.5,-1.9,6.5));
#729=AXIS2_PLACEMENT_3D('',#728,#15,#16);
#730=PLANE('',#729);
#731=ADVANCED_FACE('',(#727),#730,.T.);
#732=ORIENTED_EDGE('',*,*,#698,.T.);
#733=VECTOR('',#15,6.5);
#734=CARTESIAN_POINT('',(-0.5,-1.9,0.));
#735=LINE('',#734,#733);
#736=EDGE_CURVE('',#667,#675,#735,.T.);
#737=ORIENTED_EDGE('',*,*,#736,.T.);
#738=ORIENTED_EDGE('',*,*,#709,.F.);
#739=VECTOR('',#15,6.5);
#740=CARTESIAN_POINT('',(-19.5,-1.9,0.));
#741=LINE('',#740,#739);
#742=EDGE_CURVE('',#665,#673,#741,.T.);
#743=ORIENTED_EDGE('',*,*,#742,.F.);
#744=EDGE_LOOP('',(#732,#737,#738,#743));
#745=FACE_OUTER_BOUND('',#744,.T.);
#746=CARTESIAN_POINT('',(-19.5,-1.9,0.));
#747=AXIS2_PLACEMENT_3D('',#746,#103,#16);
#748=PLANE('',#747);
#749=ADVANCED_FACE('',(#745),#748,.T.);
#750=VECTOR('',#15,6.5);
#751=CARTESIAN_POINT('',(-19.5,-0.,0.));
#752=LINE('',#751,#750);
#753=EDGE_CURVE('',#669,#677,#752,.T.);
#754=ORIENTED_EDGE('',*,*,#753,.T.);
#755=ORIENTED_EDGE('',*,*,#719,.T.);
#756=VECTOR('',#15,6.5);
#757=CARTESIAN_POINT('',(-0.5,-0.,0.));
#758=LINE('',#757,#756);
#759=EDGE_CURVE('',#671,#679,#758,.T.);
#760=ORIENTED_EDGE('',*,*,#759,.F.);
#761=ORIENTED_EDGE('',*,*,#688,.F.);
#762=EDGE_LOOP('',(#754,#755,#760,#761));
#763=FACE_OUTER_BOUND('',#762,.T.);
#764=CARTESIAN_POINT('',(-19.5,-0.,0.));
#765=AXIS2_PLACEMENT_3D('',#764,#34,#16);
#766=PLANE('',#765);
#767=ADVANCED_FACE('',(#763),#766,.T.);
#768=ORIENTED_EDGE('',*,*,#742,.T.);
#769=ORIENTED_EDGE('',*,*,#724,.T.);
#770=ORIENTED_EDGE('',*,*,#753,.F.);
#771=ORIENTED_EDGE('',*,*,#683,.F.);
#772=EDGE_LOOP('',(#768,#769,#770,#771));
#773=FACE_OUTER_BOUND('',#772,.T.);
#774=CARTESIAN_POINT('',(-19.5,-1.9,0.));
#775=AXIS2_PLACEMENT_3D('',#774,#132,#34);
#776=PLANE('',#775);
#777=ADVANCED_FACE('',(#773),#776,.T.);
#778=ORIENTED_EDGE('',*,*,#693,.T.);
#779=ORIENTED_EDGE('',*,*,#759,.T.);
#780=ORIENTED_EDGE('',*,*,#714,.F.);
#781=ORIENTED_EDGE('',*,*,#736,.F.);
#782=EDGE_LOOP('',(#778,#779,#780,#781));
#783=FACE_OUTER_BOUND('',#782,.T.);
#784=CARTESIAN_POINT('',(-0.5,-1.9,0.));
#785=AXIS2_PLACEMENT_3D('',#784,#16,#34);
#786=PLANE('',#785);
#787=ADVANCED_FACE('',(#783),#786,.T.);
#788=CLOSED_SHELL('',(#705,#731,#749,#767,#777,#787));
#789=MANIFOLD_SOLID_BREP('Coin_5',#788);
#790=STYLED_ITEM('color',(#154),#789);
#791=CARTESIAN_POINT('',(-19.3081,-3.8,0.));
#792=VERTEX_POINT('',#791);
#793=CARTESIAN_POINT('',(-0.6919,-3.8,0.));
#794=VERTEX_POINT('',#793);
#795=CARTESIAN_POINT('',(-19.3081,-1.9,0.));
#796=VERTEX_POINT('',#795);
#797=CARTESIAN_POINT('',(-0.6919,-1.9,0.));
#798=VERTEX_POINT('',#797);
#799=CARTESIAN_POINT('',(-19.3081,-3.8,6.5));
#800=VERTEX_POINT('',#799);
#801=CARTESIAN_POINT('',(-0.6919,-3.8,6.5));
#802=VERTEX_POINT('',#801);
#803=CARTESIAN_POINT('',(-19.3081,-1.9,6.5));
#804=VERTEX_POINT('',#803);
#805=CARTESIAN_POINT('',(-0.6919,-1.9,6.5));
#806=VERTEX_POINT('',#805);
#807=VECTOR('',#34,1.9);
#808=CARTESIAN_POINT('',(-19.3081,-3.8,0.));
#809=LINE('',#808,#807);
#810=EDGE_CURVE('',#792,#796,#809,.T.);
#811=ORIENTED_EDGE('',*,*,#810,.T.);
#812=VECTOR('',#16,18.6161);
#813=CARTESIAN_POINT('',(-19.3081,-1.9,0.));
#814=LINE('',#813,#812);
#815=EDGE_CURVE('',#796,#798,#814,.T.);
#816=ORIENTED_EDGE('',*,*,#815,.T.);
#817=VECTOR('',#34,1.9);
#818=CARTESIAN_POINT('',(-0.6919,-3.8,0.));
#819=LINE('',#818,#817);
#820=EDGE_CURVE('',#794,#798,#819,.T.);
#821=ORIENTED_EDGE('',*,*,#820,.F.);
#822=VECTOR('',#16,18.6161);
#823=CARTESIAN_POINT('',(-19.3081,-3.8,0.));
#824=LINE('',#823,#822);
#825=EDGE_CURVE('',#792,#794,#824,.T.);
#826=ORIENTED_EDGE('',*,*,#825,.F.);
#827=EDGE_LOOP('',(#811,#816,#821,#826));
#828=FACE_OUTER_BOUND('',#827,.T.);
#829=CARTESIAN_POINT('',(-19.3081,-3.8,0.));
#830=AXIS2_PLACEMENT_3D('',#829,#58,#16);
#831=PLANE('',#830);
#832=ADVANCED_FACE('',(#828),#831,.T.);
#833=VECTOR('',#16,18.6161);
#834=CARTESIAN_POINT('',(-19.3081,-3.8,6.5));
#835=LINE('',#834,#833);
#836=EDGE_CURVE('',#800,#802,#835,.T.);
#837=ORIENTED_EDGE('',*,*,#836,.T.);
#838=VECTOR('',#34,1.9);
#839=CARTESIAN_POINT('',(-0.6919,-3.8,6.5));
#840=LINE('',#839,#838);
#841=EDGE_CURVE('',#802,#806,#840,.T.);
#842=ORIENTED_EDGE('',*,*,#841,.T.);
#843=VECTOR('',#16,18.6161);
#844=CARTESIAN_POINT('',(-19.3081,-1.9,6.5));
#845=LINE('',#844,#843);
#846=EDGE_CURVE('',#804,#806,#845,.T.);
#847=ORIENTED_EDGE('',*,*,#846,.F.);
#848=VECTOR('',#34,1.9);
#849=CARTESIAN_POINT('',(-19.3081,-3.8,6.5));
#850=LINE('',#849,#848);
#851=EDGE_CURVE('',#800,#804,#850,.T.);
#852=ORIENTED_EDGE('',*,*,#851,.F.);
#853=EDGE_LOOP('',(#837,#842,#847,#852));
#854=FACE_OUTER_BOUND('',#853,.T.);
#855=CARTESIAN_POINT('',(-19.3081,-3.8,6.5));
#856=AXIS2_PLACEMENT_3D('',#855,#15,#16);
#857=PLANE('',#856);
#858=ADVANCED_FACE('',(#854),#857,.T.);
#859=ORIENTED_EDGE('',*,*,#825,.T.);
#860=VECTOR('',#15,6.5);
#861=CARTESIAN_POINT('',(-0.6919,-3.8,0.));
#862=LINE('',#861,#860);
#863=EDGE_CURVE('',#794,#802,#862,.T.);
#864=ORIENTED_EDGE('',*,*,#863,.T.);
#865=ORIENTED_EDGE('',*,*,#836,.F.);
#866=VECTOR('',#15,6.5);
#867=CARTESIAN_POINT('',(-19.3081,-3.8,0.));
#868=LINE('',#867,#866);
#869=EDGE_CURVE('',#792,#800,#868,.T.);
#870=ORIENTED_EDGE('',*,*,#869,.F.);
#871=EDGE_LOOP('',(#859,#864,#865,#870));
#872=FACE_OUTER_BOUND('',#871,.T.);
#873=CARTESIAN_POINT('',(-19.3081,-3.8,0.));
#874=AXIS2_PLACEMENT_3D('',#873,#103,#16);
#875=PLANE('',#874);
#876=ADVANCED_FACE('',(#872),#875,.T.);
#877=VECTOR('',#15,6.5);
#878=CARTESIAN_POINT('',(-19.3081,-1.9,0.));
#879=LINE('',#878,#877);
#880=EDGE_CURVE('',#796,#804,#879,.T.);
#881=ORIENTED_EDGE('',*,*,#880,.T.);
#882=ORIENTED_EDGE('',*,*,#846,.T.);
#883=VECTOR('',#15,6.5);
#884=CARTESIAN_POINT('',(-0.6919,-1.9,0.));
#885=LINE('',#884,#883);
#886=EDGE_CURVE('',#798,#806,#885,.T.);
#887=ORIENTED_EDGE('',*,*,#886,.F.);
#888=ORIENTED_EDGE('',*,*,#815,.F.);
#889=EDGE_LOOP('',(#881,#882,#887,#888));
#890=FACE_OUTER_BOUND('',#889,.T.);
#891=CARTESIAN_POINT('',(-19.3081,-1.9,0.));
#892=AXIS2_PLACEMENT_3D('',#891,#34,#16);
#893=PLANE('',#892);
#894=ADVANCED_FACE('',(#890),#893,.T.);
#895=ORIENTED_EDGE('',*,*,#869,.T.);
#896=ORIENTED_EDGE('',*,*,#851,.T.);
#897=ORIENTED_EDGE('',*,*,#880,.F.);
#898=ORIENTED_EDGE('',*,*,#810,.F.);
#899=EDGE_LOOP('',(#895,#896,#897,#898));
#900=FACE_OUTER_BOUND('',#899,.T.);
#901=CARTESIAN_POINT('',(-19.3081,-3.8,0.));
#902=AXIS2_PLACEMENT_3D('',#901,#132,#34);
#903=PLANE('',#902);
#904=ADVANCED_FACE('',(#900),#903,.T.);
#905=ORIENTED_EDGE('',*,*,#820,.T.);
#906=ORIENTED_EDGE('',*,*,#886,.T.);
#907=ORIENTED_EDGE('',*,*,#841,.F.);
#908=ORIENTED_EDGE('',*,*,#863,.F.);
#909=EDGE_LOOP('',(#905,#906,#907,#908));
#910=FACE_OUTER_BOUND('',#909,.T.);
#911=CARTESIAN_POINT('',(-0.6919,-3.8,0.));
#912=AXIS2_PLACEMENT_3D('',#911,#16,#34);
#913=PLANE('',#912);
#914=ADVANCED_FACE('',(#910),#913,.T.);
#915=CLOSED_SHELL('',(#832,#858,#876,#894,#904,#914));
#916=MANIFOLD_SOLID_BREP('Coin_6',#915);
#917=STYLED_ITEM('color',(#154),#916);
#918=CARTESIAN_POINT('',(-18.7069,-5.7,0.));
#919=VERTEX_POINT('',#918);
#920=CARTESIAN_POINT('',(-1.2931,-5.7,0.));
#921=VERTEX_POINT('',#920);
#922=CARTESIAN_POINT('',(-18.7069,-3.8,0.));
#923=VERTEX_POINT('',#922);
#924=CARTESIAN_POINT('',(-1.2931,-3.8,0.));
#925=VERTEX_POINT('',#924);
#926=CARTESIAN_POINT('',(-18.7069,-5.7,6.5));
#927=VERTEX_POINT('',#926);
#928=CARTESIAN_POINT('',(-1.2931,-5.7,6.5));
#929=VERTEX_POINT('',#928);
#930=CARTESIAN_POINT('',(-18.7069,-3.8,6.5));
#931=VERTEX_POINT('',#930);
#932=CARTESIAN_POINT('',(-1.2931,-3.8,6.5));
#933=VERTEX_POINT('',#932);
#934=VECTOR('',#34,1.9);
#935=CARTESIAN_POINT('',(-18.7069,-5.7,0.));
#936=LINE('',#935,#934);
#937=EDGE_CURVE('',#919,#923,#936,.T.);
#938=ORIENTED_EDGE('',*,*,#937,.T.);
#939=VECTOR('',#16,17.4138);
#940=CARTESIAN_POINT('',(-18.7069,-3.8,0.));
#941=LINE('',#940,#939);
#942=EDGE_CURVE('',#923,#925,#941,.T.);
#943=ORIENTED_EDGE('',*,*,#942,.T.);
#944=VECTOR('',#34,1.9);
#945=CARTESIAN_POINT('',(-1.2931,-5.7,0.));
#946=LINE('',#945,#944);
#947=EDGE_CURVE('',#921,#925,#946,.T.);
#948=ORIENTED_EDGE('',*,*,#947,.F.);
#949=VECTOR('',#16,17.4138);
#950=CARTESIAN_POINT('',(-18.7069,-5.7,0.));
#951=LINE('',#950,#949);
#952=EDGE_CURVE('',#919,#921,#951,.T.);
#953=ORIENTED_EDGE('',*,*,#952,.F.);
#954=EDGE_LOOP('',(#938,#943,#948,#953));
#955=FACE_OUTER_BOUND('',#954,.T.);
#956=CARTESIAN_POINT('',(-18.7069,-5.7,0.));
#957=AXIS2_PLACEMENT_3D('',#956,#58,#16);
#958=PLANE('',#957);
#959=ADVANCED_FACE('',(#955),#958,.T.);
#960=VECTOR('',#16,17.4138);
#961=CARTESIAN_POINT('',(-18.7069,-5.7,6.5));
#962=LINE('',#961,#960);
#963=EDGE_CURVE('',#927,#929,#962,.T.);
#964=ORIENTED_EDGE('',*,*,#963,.T.);
#965=VECTOR('',#34,1.9);
#966=CARTESIAN_POINT('',(-1.2931,-5.7,6.5));
#967=LINE('',#966,#965);
#968=EDGE_CURVE('',#929,#933,#967,.T.);
#969=ORIENTED_EDGE('',*,*,#968,.T.);
#970=VECTOR('',#16,17.4138);
#971=CARTESIAN_POINT('',(-18.7069,-3.8,6.5));
#972=LINE('',#971,#970);
#973=EDGE_CURVE('',#931,#933,#972,.T.);
#974=ORIENTED_EDGE('',*,*,#973,.F.);
#975=VECTOR('',#34,1.9);
#976=CARTESIAN_POINT('',(-18.7069,-5.7,6.5));
#977=LINE('',#976,#975);
#978=EDGE_CURVE('',#927,#931,#977,.T.);
#979=ORIENTED_EDGE('',*,*,#978,.F.);
#980=EDGE_LOOP('',(#964,#969,#974,#979));
#981=FACE_OUTER_BOUND('',#980,.T.);
#982=CARTESIAN_POINT('',(-18.7069,-5.7,6.5));
#983=AXIS2_PLACEMENT_3D('',#982,#15,#16);
#984=PLANE('',#983);
#985=ADVANCED_FACE('',(#981),#984,.T.);
#986=ORIENTED_EDGE('',*,*,#952,.T.);
#987=VECTOR('',#15,6.5);
#988=CARTESIAN_POINT('',(-1.2931,-5.7,0.));
#989=LINE('',#988,#987);
#990=EDGE_CURVE('',#921,#929,#989,.T.);
#991=ORIENTED_EDGE('',*,*,#990,.T.);
#992=ORIENTED_EDGE('',*,*,#963,.F.);
#993=VECTOR('',#15,6.5);
#994=CARTESIAN_POINT('',(-18.7069,-5.7,0.));
#995=LINE('',#994,#993);
#996=EDGE_CURVE('',#919,#927,#995,.T.);
#997=ORIENTED_EDGE('',*,*,#996,.F.);
#998=EDGE_LOOP('',(#986,#991,#992,#997));
#999=FACE_OUTER_BOUND('',#998,.T.);
#1000=CARTESIAN_POINT('',(-18.7069,-5.7,0.));
#1001=AXIS2_PLACEMENT_3D('',#1000,#103,#16);
#1002=PLANE('',#1001);
#1003=ADVANCED_FACE('',(#999),#1002,.T.);
#1004=VECTOR('',#15,6.5);
#1005=CARTESIAN_POINT('',(-18.7069,-3.8,0.));
#1006=LINE('',#1005,#1004);
#1007=EDGE_CURVE('',#923,#931,#1006,.T.);
#1008=ORIENTED_EDGE('',*,*,#1007,.T.);
#1009=ORIENTED_EDGE('',*,*,#973,.T.);
#1010=VECTOR('',#15,6.5);
#1011=CARTESIAN_POINT('',(-1.2931,-3.8,0.));
#1012=LINE('',#1011,#1010);
#1013=EDGE_CURVE('',#925,#933,#1012,.T.);
#1014=ORIENTED_EDGE('',*,*,#1013,.F.);
#1015=ORIENTED_EDGE('',*,*,#942,.F.);
#1016=EDGE_LOOP('',(#1008,#1009,#1014,#1015));
#1017=FACE_OUTER_BOUND('',#1016,.T.);
#1018=CARTESIAN_POINT('',(-18.7069,-3.8,0.));
#1019=AXIS2_PLACEMENT_3D('',#1018,#34,#16);
#1020=PLANE('',#1019);
#1021=ADVANCED_FACE('',(#1017),#1020,.T.);
#1022=ORIENTED_EDGE('',*,*,#996,.T.);
#1023=ORIENTED_EDGE('',*,*,#978,.T.);
#1024=ORIENTED_EDGE('',*,*,#1007,.F.);
#1025=ORIENTED_EDGE('',*,*,#937,.F.);
#1026=EDGE_LOOP('',(#1022,#1023,#1024,#1025));
#1027=FACE_OUTER_BOUND('',#1026,.T.);
#1028=CARTESIAN_POINT('',(-18.7069,-5.7,0.));
#1029=AXIS2_PLACEMENT_3D('',#1028,#132,#34);
#1030=PLANE('',#1029);
#1031=ADVANCED_FACE('',(#1027),#1030,.T.);
#1032=ORIENTED_EDGE('',*,*,#947,.T.);
#1033=ORIENTED_EDGE('',*,*,#1013,.T.);
#1034=ORIENTED_EDGE('',*,*,#968,.F.);
#1035=ORIENTED_EDGE('',*,*,#990,.F.);
#1036=EDGE_LOOP('',(#1032,#1033,#1034,#1035));
#1037=FACE_OUTER_BOUND('',#1036,.T.);
#1038=CARTESIAN_POINT('',(-1.2931,-5.7,0.));
#1039=AXIS2_PLACEMENT_3D('',#1038,#16,#34);
#1040=PLANE('',#1039);
#1041=ADVANCED_FACE('',(#1037),#1040,.T.);
#1042=CLOSED_SHELL('',(#959,#985,#1003,#1021,#1031,#1041));
#1043=MANIFOLD_SOLID_BREP('Coin_7',#1042);
#1044=STYLED_ITEM('color',(#154),#1043);
#1045=CARTESIAN_POINT('',(-17.6,-7.6,0.));
#1046=VERTEX_POINT('',#1045);
#1047=CARTESIAN_POINT('',(-2.4,-7.6,0.));
#1048=VERTEX_POINT('',#1047);
#1049=CARTESIAN_POINT('',(-17.6,-5.7,0.));
#1050=VERTEX_POINT('',#1049);
#1051=CARTESIAN_POINT('',(-2.4,-5.7,0.));
#1052=VERTEX_POINT('',#1051);
#1053=CARTESIAN_POINT('',(-17.6,-7.6,6.5));
#1054=VERTEX_POINT('',#1053);
#1055=CARTESIAN_POINT('',(-2.4,-7.6,6.5));
#1056=VERTEX_POINT('',#1055);
#1057=CARTESIAN_POINT('',(-17.6,-5.7,6.5));
#1058=VERTEX_POINT('',#1057);
#1059=CARTESIAN_POINT('',(-2.4,-5.7,6.5));
#1060=VERTEX_POINT('',#1059);
#1061=VECTOR('',#34,1.9);
#1062=CARTESIAN_POINT('',(-17.6,-7.6,0.));
#1063=LINE('',#1062,#1061);
#1064=EDGE_CURVE('',#1046,#1050,#1063,.T.);
#1065=ORIENTED_EDGE('',*,*,#1064,.T.);
#1066=VECTOR('',#16,15.2);
#1067=CARTESIAN_POINT('',(-17.6,-5.7,0.));
#1068=LINE('',#1067,#1066);
#1069=EDGE_CURVE('',#1050,#1052,#1068,.T.);
#1070=ORIENTED_EDGE('',*,*,#1069,.T.);
#1071=VECTOR('',#34,1.9);
#1072=CARTESIAN_POINT('',(-2.4,-7.6,0.));
#1073=LINE('',#1072,#1071);
#1074=EDGE_CURVE('',#1048,#1052,#1073,.T.);
#1075=ORIENTED_EDGE('',*,*,#1074,.F.);
#1076=VECTOR('',#16,15.2);
#1077=CARTESIAN_POINT('',(-17.6,-7.6,0.));
#1078=LINE('',#1077,#1076);
#1079=EDGE_CURVE('',#1046,#1048,#1078,.T.);
#1080=ORIENTED_EDGE('',*,*,#1079,.F.);
#1081=EDGE_LOOP('',(#1065,#1070,#1075,#1080));
#1082=FACE_OUTER_BOUND('',#1081,.T.);
#1083=CARTESIAN_POINT('',(-17.6,-7.6,0.));
#1084=AXIS2_PLACEMENT_3D('',#1083,#58,#16);
#1085=PLANE('',#1084);
#1086=ADVANCED_FACE('',(#1082),#1085,.T.);
#1087=VECTOR('',#16,15.2);
#1088=CARTESIAN_POINT('',(-17.6,-7.6,6.5));
#1089=LINE('',#1088,#1087);
#1090=EDGE_CURVE('',#1054,#1056,#1089,.T.);
#1091=ORIENTED_EDGE('',*,*,#1090,.T.);
#1092=VECTOR('',#34,1.9);
#1093=CARTESIAN_POINT('',(-2.4,-7.6,6.5));
#1094=LINE('',#1093,#1092);
#1095=EDGE_CURVE('',#1056,#1060,#1094,.T.);
#1096=ORIENTED_EDGE('',*,*,#1095,.T.);
#1097=VECTOR('',#16,15.2);
#1098=CARTESIAN_POINT('',(-17.6,-5.7,6.5));
#1099=LINE('',#1098,#1097);
#1100=EDGE_CURVE('',#1058,#1060,#1099,.T.);
#1101=ORIENTED_EDGE('',*,*,#1100,.F.);
#1102=VECTOR('',#34,1.9);
#1103=CARTESIAN_POINT('',(-17.6,-7.6,6.5));
#1104=LINE('',#1103,#1102);
#1105=EDGE_CURVE('',#1054,#1058,#1104,.T.);
#1106=ORIENTED_EDGE('',*,*,#1105,.F.);
#1107=EDGE_LOOP('',(#1091,#1096,#1101,#1106));
#1108=FACE_OUTER_BOUND('',#1107,.T.);
#1109=CARTESIAN_POINT('',(-17.6,-7.6,6.5));
#1110=AXIS2_PLACEMENT_3D('',#1109,#15,#16);
#1111=PLANE('',#1110);
#1112=ADVANCED_FACE('',(#1108),#1111,.T.);
#1113=ORIENTED_EDGE('',*,*,#1079,.T.);
#1114=VECTOR('',#15,6.5);
#1115=CARTESIAN_POINT('',(-2.4,-7.6,0.));
#1116=LINE('',#1115,#1114);
#1117=EDGE_CURVE('',#1048,#1056,#1116,.T.);
#1118=ORIENTED_EDGE('',*,*,#1117,.T.);
#1119=ORIENTED_EDGE('',*,*,#1090,.F.);
#1120=VECTOR('',#15,6.5);
#1121=CARTESIAN_POINT('',(-17.6,-7.6,0.));
#1122=LINE('',#1121,#1120);
#1123=EDGE_CURVE('',#1046,#1054,#1122,.T.);
#1124=ORIENTED_EDGE('',*,*,#1123,.F.);
#1125=EDGE_LOOP('',(#1113,#1118,#1119,#1124));
#1126=FACE_OUTER_BOUND('',#1125,.T.);
#1127=CARTESIAN_POINT('',(-17.6,-7.6,0.));
#1128=AXIS2_PLACEMENT_3D('',#1127,#103,#16);
#1129=PLANE('',#1128);
#1130=ADVANCED_FACE('',(#1126),#1129,.T.);
#1131=VECTOR('',#15,6.5);
#1132=CARTESIAN_POINT('',(-17.6,-5.7,0.));
#1133=LINE('',#1132,#1131);
#1134=EDGE_CURVE('',#1050,#1058,#1133,.T.);
#1135=ORIENTED_EDGE('',*,*,#1134,.T.);
#1136=ORIENTED_EDGE('',*,*,#1100,.T.);
#1137=VECTOR('',#15,6.5);
#1138=CARTESIAN_POINT('',(-2.4,-5.7,0.));
#1139=LINE('',#1138,#1137);
#1140=EDGE_CURVE('',#1052,#1060,#1139,.T.);
#1141=ORIENTED_EDGE('',*,*,#1140,.F.);
#1142=ORIENTED_EDGE('',*,*,#1069,.F.);
#1143=EDGE_LOOP('',(#1135,#1136,#1141,#1142));
#1144=FACE_OUTER_BOUND('',#1143,.T.);
#1145=CARTESIAN_POINT('',(-17.6,-5.7,0.));
#1146=AXIS2_PLACEMENT_3D('',#1145,#34,#16);
#1147=PLANE('',#1146);
#1148=ADVANCED_FACE('',(#1144),#1147,.T.);
#1149=ORIENTED_EDGE('',*,*,#1123,.T.);
#1150=ORIENTED_EDGE('',*,*,#1105,.T.);
#1151=ORIENTED_EDGE('',*,*,#1134,.F.);
#1152=ORIENTED_EDGE('',*,*,#1064,.F.);
#1153=EDGE_LOOP('',(#1149,#1150,#1151,#1152));
#1154=FACE_OUTER_BOUND('',#1153,.T.);
#1155=CARTESIAN_POINT('',(-17.6,-7.6,0.));
#1156=AXIS2_PLACEMENT_3D('',#1155,#132,#34);
#1157=PLANE('',#1156);
#1158=ADVANCED_FACE('',(#1154),#1157,.T.);
#1159=ORIENTED_EDGE('',*,*,#1074,.T.);
#1160=ORIENTED_EDGE('',*,*,#1140,.T.);
#1161=ORIENTED_EDGE('',*,*,#1095,.F.);
#1162=ORIENTED_EDGE('',*,*,#1117,.F.);
#1163=EDGE_LOOP('',(#1159,#1160,#1161,#1162));
#1164=FACE_OUTER_BOUND('',#1163,.T.);
#1165=CARTESIAN_POINT('',(-2.4,-7.6,0.));
#1166=AXIS2_PLACEMENT_3D('',#1165,#16,#34);
#1167=PLANE('',#1166);
#1168=ADVANCED_FACE('',(#1164),#1167,.T.);
#1169=CLOSED_SHELL('',(#1086,#1112,#1130,#1148,#1158,#1168));
#1170=MANIFOLD_SOLID_BREP('Coin_8',#1169);
#1171=STYLED_ITEM('color',(#154),#1170);
#1172=CARTESIAN_POINT('',(-15.7,-9.5,0.));
#1173=VERTEX_POINT('',#1172);
#1174=CARTESIAN_POINT('',(-4.3,-9.5,0.));
#1175=VERTEX_POINT('',#1174);
#1176=CARTESIAN_POINT('',(-15.7,-7.6,0.));
#1177=VERTEX_POINT('',#1176);
#1178=CARTESIAN_POINT('',(-4.3,-7.6,0.));
#1179=VERTEX_POINT('',#1178);
#1180=CARTESIAN_POINT('',(-15.7,-9.5,6.5));
#1181=VERTEX_POINT('',#1180);
#1182=CARTESIAN_POINT('',(-4.3,-9.5,6.5));
#1183=VERTEX_POINT('',#1182);
#1184=CARTESIAN_POINT('',(-15.7,-7.6,6.5));
#1185=VERTEX_POINT('',#1184);
#1186=CARTESIAN_POINT('',(-4.3,-7.6,6.5));
#1187=VERTEX_POINT('',#1186);
#1188=VECTOR('',#34,1.9);
#1189=CARTESIAN_POINT('',(-15.7,-9.5,0.));
#1190=LINE('',#1189,#1188);
#1191=EDGE_CURVE('',#1173,#1177,#1190,.T.);
#1192=ORIENTED_EDGE('',*,*,#1191,.T.);
#1193=VECTOR('',#16,11.4);
#1194=CARTESIAN_POINT('',(-15.7,-7.6,0.));
#1195=LINE('',#1194,#1193);
#1196=EDGE_CURVE('',#1177,#1179,#1195,.T.);
#1197=ORIENTED_EDGE('',*,*,#1196,.T.);
#1198=VECTOR('',#34,1.9);
#1199=CARTESIAN_POINT('',(-4.3,-9.5,0.));
#1200=LINE('',#1199,#1198);
#1201=EDGE_CURVE('',#1175,#1179,#1200,.T.);
#1202=ORIENTED_EDGE('',*,*,#1201,.F.);
#1203=VECTOR('',#16,11.4);
#1204=CARTESIAN_POINT('',(-15.7,-9.5,0.));
#1205=LINE('',#1204,#1203);
#1206=EDGE_CURVE('',#1173,#1175,#1205,.T.);
#1207=ORIENTED_EDGE('',*,*,#1206,.F.);
#1208=EDGE_LOOP('',(#1192,#1197,#1202,#1207));
#1209=FACE_OUTER_BOUND('',#1208,.T.);
#1210=CARTESIAN_POINT('',(-15.7,-9.5,0.));
#1211=AXIS2_PLACEMENT_3D('',#1210,#58,#16);
#1212=PLANE('',#1211);
#1213=ADVANCED_FACE('',(#1209),#1212,.T.);
#1214=VECTOR('',#16,11.4);
#1215=CARTESIAN_POINT('',(-15.7,-9.5,6.5));
#1216=LINE('',#1215,#1214);
#1217=EDGE_CURVE('',#1181,#1183,#1216,.T.);
#1218=ORIENTED_EDGE('',*,*,#1217,.T.);
#1219=VECTOR('',#34,1.9);
#1220=CARTESIAN_POINT('',(-4.3,-9.5,6.5));
#1221=LINE('',#1220,#1219);
#1222=EDGE_CURVE('',#1183,#1187,#1221,.T.);
#1223=ORIENTED_EDGE('',*,*,#1222,.T.);
#1224=VECTOR('',#16,11.4);
#1225=CARTESIAN_POINT('',(-15.7,-7.6,6.5));
#1226=LINE('',#1225,#1224);
#1227=EDGE_CURVE('',#1185,#1187,#1226,.T.);
#1228=ORIENTED_EDGE('',*,*,#1227,.F.);
#1229=VECTOR('',#34,1.9);
#1230=CARTESIAN_POINT('',(-15.7,-9.5,6.5));
#1231=LINE('',#1230,#1229);
#1232=EDGE_CURVE('',#1181,#1185,#1231,.T.);
#1233=ORIENTED_EDGE('',*,*,#1232,.F.);
#1234=EDGE_LOOP('',(#1218,#1223,#1228,#1233));
#1235=FACE_OUTER_BOUND('',#1234,.T.);
#1236=CARTESIAN_POINT('',(-15.7,-9.5,6.5));
#1237=AXIS2_PLACEMENT_3D('',#1236,#15,#16);
#1238=PLANE('',#1237);
#1239=ADVANCED_FACE('',(#1235),#1238,.T.);
#1240=ORIENTED_EDGE('',*,*,#1206,.T.);
#1241=VECTOR('',#15,6.5);
#1242=CARTESIAN_POINT('',(-4.3,-9.5,0.));
#1243=LINE('',#1242,#1241);
#1244=EDGE_CURVE('',#1175,#1183,#1243,.T.);
#1245=ORIENTED_EDGE('',*,*,#1244,.T.);
#1246=ORIENTED_EDGE('',*,*,#1217,.F.);
#1247=VECTOR('',#15,6.5);
#1248=CARTESIAN_POINT('',(-15.7,-9.5,0.));
#1249=LINE('',#1248,#1247);
#1250=EDGE_CURVE('',#1173,#1181,#1249,.T.);
#1251=ORIENTED_EDGE('',*,*,#1250,.F.);
#1252=EDGE_LOOP('',(#1240,#1245,#1246,#1251));
#1253=FACE_OUTER_BOUND('',#1252,.T.);
#1254=CARTESIAN_POINT('',(-15.7,-9.5,0.));
#1255=AXIS2_PLACEMENT_3D('',#1254,#103,#16);
#1256=PLANE('',#1255);
#1257=ADVANCED_FACE('',(#1253),#1256,.T.);
#1258=VECTOR('',#15,6.5);
#1259=CARTESIAN_POINT('',(-15.7,-7.6,0.));
#1260=LINE('',#1259,#1258);
#1261=EDGE_CURVE('',#1177,#1185,#1260,.T.);
#1262=ORIENTED_EDGE('',*,*,#1261,.T.);
#1263=ORIENTED_EDGE('',*,*,#1227,.T.);
#1264=VECTOR('',#15,6.5);
#1265=CARTESIAN_POINT('',(-4.3,-7.6,0.));
#1266=LINE('',#1265,#1264);
#1267=EDGE_CURVE('',#1179,#1187,#1266,.T.);
#1268=ORIENTED_EDGE('',*,*,#1267,.F.);
#1269=ORIENTED_EDGE('',*,*,#1196,.F.);
#1270=EDGE_LOOP('',(#1262,#1263,#1268,#1269));
#1271=FACE_OUTER_BOUND('',#1270,.T.);
#1272=CARTESIAN_POINT('',(-15.7,-7.6,0.));
#1273=AXIS2_PLACEMENT_3D('',#1272,#34,#16);
#1274=PLANE('',#1273);
#1275=ADVANCED_FACE('',(#1271),#1274,.T.);
#1276=ORIENTED_EDGE('',*,*,#1250,.T.);
#1277=ORIENTED_EDGE('',*,*,#1232,.T.);
#1278=ORIENTED_EDGE('',*,*,#1261,.F.);
#1279=ORIENTED_EDGE('',*,*,#1191,.F.);
#1280=EDGE_LOOP('',(#1276,#1277,#1278,#1279));
#1281=FACE_OUTER_BOUND('',#1280,.T.);
#1282=CARTESIAN_POINT('',(-15.7,-9.5,0.));
#1283=AXIS2_PLACEMENT_3D('',#1282,#132,#34);
#1284=PLANE('',#1283);
#1285=ADVANCED_FACE('',(#1281),#1284,.T.);
#1286=ORIENTED_EDGE('',*,*,#1201,.T.);
#1287=ORIENTED_EDGE('',*,*,#1267,.T.);
#1288=ORIENTED_EDGE('',*,*,#1222,.F.);
#1289=ORIENTED_EDGE('',*,*,#1244,.F.);
#1290=EDGE_LOOP('',(#1286,#1287,#1288,#1289));
#1291=FACE_OUTER_BOUND('',#1290,.T.);
#1292=CARTESIAN_POINT('',(-4.3,-9.5,0.));
#1293=AXIS2_PLACEMENT_3D('',#1292,#16,#34);
#1294=PLANE('',#1293);
#1295=ADVANCED_FACE('',(#1291),#1294,.T.);
#1296=CLOSED_SHELL('',(#1213,#1239,#1257,#1275,#1285,#1295));
#1297=MANIFOLD_SOLID_BREP('Coin_9',#1296);
#1298=STYLED_ITEM('color',(#154),#1297);
#1299=CARTESIAN_POINT('',(-1.5,-0.5,0.5));
#1300=VERTEX_POINT('',#1299);
#1301=CARTESIAN_POINT('',(0.1,-0.5,0.5));
#1302=VERTEX_POINT('',#1301);
#1303=CARTESIAN_POINT('',(-1.5,0.5,0.5));
#1304=VERTEX_POINT('',#1303);
#1305=CARTESIAN_POINT('',(0.1,0.5,0.5));
#1306=VERTEX_POINT('',#1305);
#1307=CARTESIAN_POINT('',(-1.5,-0.5,0.7));
#1308=VERTEX_POINT('',#1307);
#1309=CARTESIAN_POINT('',(0.1,-0.5,0.7));
#1310=VERTEX_POINT('',#1309);
#1311=CARTESIAN_POINT('',(-1.5,0.5,0.7));
#1312=VERTEX_POINT('',#1311);
#1313=CARTESIAN_POINT('',(0.1,0.5,0.7));
#1314=VERTEX_POINT('',#1313);
#1315=VECTOR('',#34,1.);
#1316=CARTESIAN_POINT('',(-1.5,-0.5,0.5));
#1317=LINE('',#1316,#1315);
#1318=EDGE_CURVE('',#1300,#1304,#1317,.T.);
#1319=ORIENTED_EDGE('',*,*,#1318,.T.);
#1320=VECTOR('',#16,1.6);
#1321=CARTESIAN_POINT('',(-1.5,0.5,0.5));
#1322=LINE('',#1321,#1320);
#1323=EDGE_CURVE('',#1304,#1306,#1322,.T.);
#1324=ORIENTED_EDGE('',*,*,#1323,.T.);
#1325=VECTOR('',#34,1.);
#1326=CARTESIAN_POINT('',(0.1,-0.5,0.5));
#1327=LINE('',#1326,#1325);
#1328=EDGE_CURVE('',#1302,#1306,#1327,.T.);
#1329=ORIENTED_EDGE('',*,*,#1328,.F.);
#1330=VECTOR('',#16,1.6);
#1331=CARTESIAN_POINT('',(-1.5,-0.5,0.5));
#1332=LINE('',#1331,#1330);
#1333=EDGE_CURVE('',#1300,#1302,#1332,.T.);
#1334=ORIENTED_EDGE('',*,*,#1333,.F.);
#1335=EDGE_LOOP('',(#1319,#1324,#1329,#1334));
#1336=FACE_OUTER_BOUND('',#1335,.T.);
#1337=CARTESIAN_POINT('',(-1.5,-0.5,0.5));
#1338=AXIS2_PLACEMENT_3D('',#1337,#58,#16);
#1339=PLANE('',#1338);
#1340=ADVANCED_FACE('',(#1336),#1339,.T.);
#1341=VECTOR('',#16,1.6);
#1342=CARTESIAN_POINT('',(-1.5,-0.5,0.7));
#1343=LINE('',#1342,#1341);
#1344=EDGE_CURVE('',#1308,#1310,#1343,.T.);
#1345=ORIENTED_EDGE('',*,*,#1344,.T.);
#1346=VECTOR('',#34,1.);
#1347=CARTESIAN_POINT('',(0.1,-0.5,0.7));
#1348=LINE('',#1347,#1346);
#1349=EDGE_CURVE('',#1310,#1314,#1348,.T.);
#1350=ORIENTED_EDGE('',*,*,#1349,.T.);
#1351=VECTOR('',#16,1.6);
#1352=CARTESIAN_POINT('',(-1.5,0.5,0.7));
#1353=LINE('',#1352,#1351);
#1354=EDGE_CURVE('',#1312,#1314,#1353,.T.);
#1355=ORIENTED_EDGE('',*,*,#1354,.F.);
#1356=VECTOR('',#34,1.);
#1357=CARTESIAN_POINT('',(-1.5,-0.5,0.7));
#1358=LINE('',#1357,#1356);
#1359=EDGE_CURVE('',#1308,#1312,#1358,.T.);
#1360=ORIENTED_EDGE('',*,*,#1359,.F.);
#1361=EDGE_LOOP('',(#1345,#1350,#1355,#1360));
#1362=FACE_OUTER_BOUND('',#1361,.T.);
#1363=CARTESIAN_POINT('',(-1.5,-0.5,0.7));
#1364=AXIS2_PLACEMENT_3D('',#1363,#15,#16);
#1365=PLANE('',#1364);
#1366=ADVANCED_FACE('',(#1362),#1365,.T.);
#1367=ORIENTED_EDGE('',*,*,#1333,.T.);
#1368=VECTOR('',#15,0.2);
#1369=CARTESIAN_POINT('',(0.1,-0.5,0.5));
#1370=LINE('',#1369,#1368);
#1371=EDGE_CURVE('',#1302,#1310,#1370,.T.);
#1372=ORIENTED_EDGE('',*,*,#1371,.T.);
#1373=ORIENTED_EDGE('',*,*,#1344,.F.);
#1374=VECTOR('',#15,0.2);
#1375=CARTESIAN_POINT('',(-1.5,-0.5,0.5));
#1376=LINE('',#1375,#1374);
#1377=EDGE_CURVE('',#1300,#1308,#1376,.T.);
#1378=ORIENTED_EDGE('',*,*,#1377,.F.);
#1379=EDGE_LOOP('',(#1367,#1372,#1373,#1378));
#1380=FACE_OUTER_BOUND('',#1379,.T.);
#1381=CARTESIAN_POINT('',(-1.5,-0.5,0.5));
#1382=AXIS2_PLACEMENT_3D('',#1381,#103,#16);
#1383=PLANE('',#1382);
#1384=ADVANCED_FACE('',(#1380),#1383,.T.);
#1385=VECTOR('',#15,0.2);
#1386=CARTESIAN_POINT('',(-1.5,0.5,0.5));
#1387=LINE('',#1386,#1385);
#1388=EDGE_CURVE('',#1304,#1312,#1387,.T.);
#1389=ORIENTED_EDGE('',*,*,#1388,.T.);
#1390=ORIENTED_EDGE('',*,*,#1354,.T.);
#1391=VECTOR('',#15,0.2);
#1392=CARTESIAN_POINT('',(0.1,0.5,0.5));
#1393=LINE('',#1392,#1391);
#1394=EDGE_CURVE('',#1306,#1314,#1393,.T.);
#1395=ORIENTED_EDGE('',*,*,#1394,.F.);
#1396=ORIENTED_EDGE('',*,*,#1323,.F.);
#1397=EDGE_LOOP('',(#1389,#1390,#1395,#1396));
#1398=FACE_OUTER_BOUND('',#1397,.T.);
#1399=CARTESIAN_POINT('',(-1.5,0.5,0.5));
#1400=AXIS2_PLACEMENT_3D('',#1399,#34,#16);
#1401=PLANE('',#1400);
#1402=ADVANCED_FACE('',(#1398),#1401,.T.);
#1403=ORIENTED_EDGE('',*,*,#1377,.T.);
#1404=ORIENTED_EDGE('',*,*,#1359,.T.);
#1405=ORIENTED_EDGE('',*,*,#1388,.F.);
#1406=ORIENTED_EDGE('',*,*,#1318,.F.);
#1407=EDGE_LOOP('',(#1403,#1404,#1405,#1406));
#1408=FACE_OUTER_BOUND('',#1407,.T.);
#1409=CARTESIAN_POINT('',(-1.5,-0.5,0.5));
#1410=AXIS2_PLACEMENT_3D('',#1409,#132,#34);
#1411=PLANE('',#1410);
#1412=ADVANCED_FACE('',(#1408),#1411,.T.);
#1413=ORIENTED_EDGE('',*,*,#1328,.T.);
#1414=ORIENTED_EDGE('',*,*,#1394,.T.);
#1415=ORIENTED_EDGE('',*,*,#1349,.F.);
#1416=ORIENTED_EDGE('',*,*,#1371,.F.);
#1417=EDGE_LOOP('',(#1413,#1414,#1415,#1416));
#1418=FACE_OUTER_BOUND('',#1417,.T.);
#1419=CARTESIAN_POINT('',(0.1,-0.5,0.5));
#1420=AXIS2_PLACEMENT_3D('',#1419,#16,#34);
#1421=PLANE('',#1420);
#1422=ADVANCED_FACE('',(#1418),#1421,.T.);
#1423=CLOSED_SHELL('',(#1340,#1366,#1384,#1402,#1412,#1422));
#1424=MANIFOLD_SOLID_BREP('Lead_pos_h',#1423);
#1425=COLOUR_RGB('',0.78,0.78,0.8);
#1426=FILL_AREA_STYLE_COLOUR('',#1425);
#1427=FILL_AREA_STYLE('',(#1426));
#1428=SURFACE_STYLE_FILL_AREA(#1427);
#1429=SURFACE_SIDE_STYLE('',(#1428));
#1430=SURFACE_STYLE_USAGE(.BOTH.,#1429);
#1431=PRESENTATION_STYLE_ASSIGNMENT((#1430));
#1432=STYLED_ITEM('color',(#1431),#1424);
#1433=CARTESIAN_POINT('',(-0.1,-0.5,-3.5));
#1434=VERTEX_POINT('',#1433);
#1435=CARTESIAN_POINT('',(0.1,-0.5,-3.5));
#1436=VERTEX_POINT('',#1435);
#1437=CARTESIAN_POINT('',(-0.1,0.5,-3.5));
#1438=VERTEX_POINT('',#1437);
#1439=CARTESIAN_POINT('',(0.1,0.5,-3.5));
#1440=VERTEX_POINT('',#1439);
#1441=CARTESIAN_POINT('',(-0.1,-0.5,0.7));
#1442=VERTEX_POINT('',#1441);
#1443=CARTESIAN_POINT('',(0.1,-0.5,0.7));
#1444=VERTEX_POINT('',#1443);
#1445=CARTESIAN_POINT('',(-0.1,0.5,0.7));
#1446=VERTEX_POINT('',#1445);
#1447=CARTESIAN_POINT('',(0.1,0.5,0.7));
#1448=VERTEX_POINT('',#1447);
#1449=VECTOR('',#34,1.);
#1450=CARTESIAN_POINT('',(-0.1,-0.5,-3.5));
#1451=LINE('',#1450,#1449);
#1452=EDGE_CURVE('',#1434,#1438,#1451,.T.);
#1453=ORIENTED_EDGE('',*,*,#1452,.T.);
#1454=VECTOR('',#16,0.2);
#1455=CARTESIAN_POINT('',(-0.1,0.5,-3.5));
#1456=LINE('',#1455,#1454);
#1457=EDGE_CURVE('',#1438,#1440,#1456,.T.);
#1458=ORIENTED_EDGE('',*,*,#1457,.T.);
#1459=VECTOR('',#34,1.);
#1460=CARTESIAN_POINT('',(0.1,-0.5,-3.5));
#1461=LINE('',#1460,#1459);
#1462=EDGE_CURVE('',#1436,#1440,#1461,.T.);
#1463=ORIENTED_EDGE('',*,*,#1462,.F.);
#1464=VECTOR('',#16,0.2);
#1465=CARTESIAN_POINT('',(-0.1,-0.5,-3.5));
#1466=LINE('',#1465,#1464);
#1467=EDGE_CURVE('',#1434,#1436,#1466,.T.);
#1468=ORIENTED_EDGE('',*,*,#1467,.F.);
#1469=EDGE_LOOP('',(#1453,#1458,#1463,#1468));
#1470=FACE_OUTER_BOUND('',#1469,.T.);
#1471=CARTESIAN_POINT('',(-0.1,-0.5,-3.5));
#1472=AXIS2_PLACEMENT_3D('',#1471,#58,#16);
#1473=PLANE('',#1472);
#1474=ADVANCED_FACE('',(#1470),#1473,.T.);
#1475=VECTOR('',#16,0.2);
#1476=CARTESIAN_POINT('',(-0.1,-0.5,0.7));
#1477=LINE('',#1476,#1475);
#1478=EDGE_CURVE('',#1442,#1444,#1477,.T.);
#1479=ORIENTED_EDGE('',*,*,#1478,.T.);
#1480=VECTOR('',#34,1.);
#1481=CARTESIAN_POINT('',(0.1,-0.5,0.7));
#1482=LINE('',#1481,#1480);
#1483=EDGE_CURVE('',#1444,#1448,#1482,.T.);
#1484=ORIENTED_EDGE('',*,*,#1483,.T.);
#1485=VECTOR('',#16,0.2);
#1486=CARTESIAN_POINT('',(-0.1,0.5,0.7));
#1487=LINE('',#1486,#1485);
#1488=EDGE_CURVE('',#1446,#1448,#1487,.T.);
#1489=ORIENTED_EDGE('',*,*,#1488,.F.);
#1490=VECTOR('',#34,1.);
#1491=CARTESIAN_POINT('',(-0.1,-0.5,0.7));
#1492=LINE('',#1491,#1490);
#1493=EDGE_CURVE('',#1442,#1446,#1492,.T.);
#1494=ORIENTED_EDGE('',*,*,#1493,.F.);
#1495=EDGE_LOOP('',(#1479,#1484,#1489,#1494));
#1496=FACE_OUTER_BOUND('',#1495,.T.);
#1497=CARTESIAN_POINT('',(-0.1,-0.5,0.7));
#1498=AXIS2_PLACEMENT_3D('',#1497,#15,#16);
#1499=PLANE('',#1498);
#1500=ADVANCED_FACE('',(#1496),#1499,.T.);
#1501=ORIENTED_EDGE('',*,*,#1467,.T.);
#1502=VECTOR('',#15,4.2);
#1503=CARTESIAN_POINT('',(0.1,-0.5,-3.5));
#1504=LINE('',#1503,#1502);
#1505=EDGE_CURVE('',#1436,#1444,#1504,.T.);
#1506=ORIENTED_EDGE('',*,*,#1505,.T.);
#1507=ORIENTED_EDGE('',*,*,#1478,.F.);
#1508=VECTOR('',#15,4.2);
#1509=CARTESIAN_POINT('',(-0.1,-0.5,-3.5));
#1510=LINE('',#1509,#1508);
#1511=EDGE_CURVE('',#1434,#1442,#1510,.T.);
#1512=ORIENTED_EDGE('',*,*,#1511,.F.);
#1513=EDGE_LOOP('',(#1501,#1506,#1507,#1512));
#1514=FACE_OUTER_BOUND('',#1513,.T.);
#1515=CARTESIAN_POINT('',(-0.1,-0.5,-3.5));
#1516=AXIS2_PLACEMENT_3D('',#1515,#103,#16);
#1517=PLANE('',#1516);
#1518=ADVANCED_FACE('',(#1514),#1517,.T.);
#1519=VECTOR('',#15,4.2);
#1520=CARTESIAN_POINT('',(-0.1,0.5,-3.5));
#1521=LINE('',#1520,#1519);
#1522=EDGE_CURVE('',#1438,#1446,#1521,.T.);
#1523=ORIENTED_EDGE('',*,*,#1522,.T.);
#1524=ORIENTED_EDGE('',*,*,#1488,.T.);
#1525=VECTOR('',#15,4.2);
#1526=CARTESIAN_POINT('',(0.1,0.5,-3.5));
#1527=LINE('',#1526,#1525);
#1528=EDGE_CURVE('',#1440,#1448,#1527,.T.);
#1529=ORIENTED_EDGE('',*,*,#1528,.F.);
#1530=ORIENTED_EDGE('',*,*,#1457,.F.);
#1531=EDGE_LOOP('',(#1523,#1524,#1529,#1530));
#1532=FACE_OUTER_BOUND('',#1531,.T.);
#1533=CARTESIAN_POINT('',(-0.1,0.5,-3.5));
#1534=AXIS2_PLACEMENT_3D('',#1533,#34,#16);
#1535=PLANE('',#1534);
#1536=ADVANCED_FACE('',(#1532),#1535,.T.);
#1537=ORIENTED_EDGE('',*,*,#1511,.T.);
#1538=ORIENTED_EDGE('',*,*,#1493,.T.);
#1539=ORIENTED_EDGE('',*,*,#1522,.F.);
#1540=ORIENTED_EDGE('',*,*,#1452,.F.);
#1541=EDGE_LOOP('',(#1537,#1538,#1539,#1540));
#1542=FACE_OUTER_BOUND('',#1541,.T.);
#1543=CARTESIAN_POINT('',(-0.1,-0.5,-3.5));
#1544=AXIS2_PLACEMENT_3D('',#1543,#132,#34);
#1545=PLANE('',#1544);
#1546=ADVANCED_FACE('',(#1542),#1545,.T.);
#1547=ORIENTED_EDGE('',*,*,#1462,.T.);
#1548=ORIENTED_EDGE('',*,*,#1528,.T.);
#1549=ORIENTED_EDGE('',*,*,#1483,.F.);
#1550=ORIENTED_EDGE('',*,*,#1505,.F.);
#1551=EDGE_LOOP('',(#1547,#1548,#1549,#1550));
#1552=FACE_OUTER_BOUND('',#1551,.T.);
#1553=CARTESIAN_POINT('',(0.1,-0.5,-3.5));
#1554=AXIS2_PLACEMENT_3D('',#1553,#16,#34);
#1555=PLANE('',#1554);
#1556=ADVANCED_FACE('',(#1552),#1555,.T.);
#1557=CLOSED_SHELL('',(#1474,#1500,#1518,#1536,#1546,#1556));
#1558=MANIFOLD_SOLID_BREP('Lead_pos_v',#1557);
#1559=STYLED_ITEM('color',(#1431),#1558);
#1560=CARTESIAN_POINT('',(-20.1,-0.5,0.5));
#1561=VERTEX_POINT('',#1560);
#1562=CARTESIAN_POINT('',(-18.5,-0.5,0.5));
#1563=VERTEX_POINT('',#1562);
#1564=CARTESIAN_POINT('',(-20.1,0.5,0.5));
#1565=VERTEX_POINT('',#1564);
#1566=CARTESIAN_POINT('',(-18.5,0.5,0.5));
#1567=VERTEX_POINT('',#1566);
#1568=CARTESIAN_POINT('',(-20.1,-0.5,0.7));
#1569=VERTEX_POINT('',#1568);
#1570=CARTESIAN_POINT('',(-18.5,-0.5,0.7));
#1571=VERTEX_POINT('',#1570);
#1572=CARTESIAN_POINT('',(-20.1,0.5,0.7));
#1573=VERTEX_POINT('',#1572);
#1574=CARTESIAN_POINT('',(-18.5,0.5,0.7));
#1575=VERTEX_POINT('',#1574);
#1576=VECTOR('',#34,1.);
#1577=CARTESIAN_POINT('',(-20.1,-0.5,0.5));
#1578=LINE('',#1577,#1576);
#1579=EDGE_CURVE('',#1561,#1565,#1578,.T.);
#1580=ORIENTED_EDGE('',*,*,#1579,.T.);
#1581=VECTOR('',#16,1.6);
#1582=CARTESIAN_POINT('',(-20.1,0.5,0.5));
#1583=LINE('',#1582,#1581);
#1584=EDGE_CURVE('',#1565,#1567,#1583,.T.);
#1585=ORIENTED_EDGE('',*,*,#1584,.T.);
#1586=VECTOR('',#34,1.);
#1587=CARTESIAN_POINT('',(-18.5,-0.5,0.5));
#1588=LINE('',#1587,#1586);
#1589=EDGE_CURVE('',#1563,#1567,#1588,.T.);
#1590=ORIENTED_EDGE('',*,*,#1589,.F.);
#1591=VECTOR('',#16,1.6);
#1592=CARTESIAN_POINT('',(-20.1,-0.5,0.5));
#1593=LINE('',#1592,#1591);
#1594=EDGE_CURVE('',#1561,#1563,#1593,.T.);
#1595=ORIENTED_EDGE('',*,*,#1594,.F.);
#1596=EDGE_LOOP('',(#1580,#1585,#1590,#1595));
#1597=FACE_OUTER_BOUND('',#1596,.T.);
#1598=CARTESIAN_POINT('',(-20.1,-0.5,0.5));
#1599=AXIS2_PLACEMENT_3D('',#1598,#58,#16);
#1600=PLANE('',#1599);
#1601=ADVANCED_FACE('',(#1597),#1600,.T.);
#1602=VECTOR('',#16,1.6);
#1603=CARTESIAN_POINT('',(-20.1,-0.5,0.7));
#1604=LINE('',#1603,#1602);
#1605=EDGE_CURVE('',#1569,#1571,#1604,.T.);
#1606=ORIENTED_EDGE('',*,*,#1605,.T.);
#1607=VECTOR('',#34,1.);
#1608=CARTESIAN_POINT('',(-18.5,-0.5,0.7));
#1609=LINE('',#1608,#1607);
#1610=EDGE_CURVE('',#1571,#1575,#1609,.T.);
#1611=ORIENTED_EDGE('',*,*,#1610,.T.);
#1612=VECTOR('',#16,1.6);
#1613=CARTESIAN_POINT('',(-20.1,0.5,0.7));
#1614=LINE('',#1613,#1612);
#1615=EDGE_CURVE('',#1573,#1575,#1614,.T.);
#1616=ORIENTED_EDGE('',*,*,#1615,.F.);
#1617=VECTOR('',#34,1.);
#1618=CARTESIAN_POINT('',(-20.1,-0.5,0.7));
#1619=LINE('',#1618,#1617);
#1620=EDGE_CURVE('',#1569,#1573,#1619,.T.);
#1621=ORIENTED_EDGE('',*,*,#1620,.F.);
#1622=EDGE_LOOP('',(#1606,#1611,#1616,#1621));
#1623=FACE_OUTER_BOUND('',#1622,.T.);
#1624=CARTESIAN_POINT('',(-20.1,-0.5,0.7));
#1625=AXIS2_PLACEMENT_3D('',#1624,#15,#16);
#1626=PLANE('',#1625);
#1627=ADVANCED_FACE('',(#1623),#1626,.T.);
#1628=ORIENTED_EDGE('',*,*,#1594,.T.);
#1629=VECTOR('',#15,0.2);
#1630=CARTESIAN_POINT('',(-18.5,-0.5,0.5));
#1631=LINE('',#1630,#1629);
#1632=EDGE_CURVE('',#1563,#1571,#1631,.T.);
#1633=ORIENTED_EDGE('',*,*,#1632,.T.);
#1634=ORIENTED_EDGE('',*,*,#1605,.F.);
#1635=VECTOR('',#15,0.2);
#1636=CARTESIAN_POINT('',(-20.1,-0.5,0.5));
#1637=LINE('',#1636,#1635);
#1638=EDGE_CURVE('',#1561,#1569,#1637,.T.);
#1639=ORIENTED_EDGE('',*,*,#1638,.F.);
#1640=EDGE_LOOP('',(#1628,#1633,#1634,#1639));
#1641=FACE_OUTER_BOUND('',#1640,.T.);
#1642=CARTESIAN_POINT('',(-20.1,-0.5,0.5));
#1643=AXIS2_PLACEMENT_3D('',#1642,#103,#16);
#1644=PLANE('',#1643);
#1645=ADVANCED_FACE('',(#1641),#1644,.T.);
#1646=VECTOR('',#15,0.2);
#1647=CARTESIAN_POINT('',(-20.1,0.5,0.5));
#1648=LINE('',#1647,#1646);
#1649=EDGE_CURVE('',#1565,#1573,#1648,.T.);
#1650=ORIENTED_EDGE('',*,*,#1649,.T.);
#1651=ORIENTED_EDGE('',*,*,#1615,.T.);
#1652=VECTOR('',#15,0.2);
#1653=CARTESIAN_POINT('',(-18.5,0.5,0.5));
#1654=LINE('',#1653,#1652);
#1655=EDGE_CURVE('',#1567,#1575,#1654,.T.);
#1656=ORIENTED_EDGE('',*,*,#1655,.F.);
#1657=ORIENTED_EDGE('',*,*,#1584,.F.);
#1658=EDGE_LOOP('',(#1650,#1651,#1656,#1657));
#1659=FACE_OUTER_BOUND('',#1658,.T.);
#1660=CARTESIAN_POINT('',(-20.1,0.5,0.5));
#1661=AXIS2_PLACEMENT_3D('',#1660,#34,#16);
#1662=PLANE('',#1661);
#1663=ADVANCED_FACE('',(#1659),#1662,.T.);
#1664=ORIENTED_EDGE('',*,*,#1638,.T.);
#1665=ORIENTED_EDGE('',*,*,#1620,.T.);
#1666=ORIENTED_EDGE('',*,*,#1649,.F.);
#1667=ORIENTED_EDGE('',*,*,#1579,.F.);
#1668=EDGE_LOOP('',(#1664,#1665,#1666,#1667));
#1669=FACE_OUTER_BOUND('',#1668,.T.);
#1670=CARTESIAN_POINT('',(-20.1,-0.5,0.5));
#1671=AXIS2_PLACEMENT_3D('',#1670,#132,#34);
#1672=PLANE('',#1671);
#1673=ADVANCED_FACE('',(#1669),#1672,.T.);
#1674=ORIENTED_EDGE('',*,*,#1589,.T.);
#1675=ORIENTED_EDGE('',*,*,#1655,.T.);
#1676=ORIENTED_EDGE('',*,*,#1610,.F.);
#1677=ORIENTED_EDGE('',*,*,#1632,.F.);
#1678=EDGE_LOOP('',(#1674,#1675,#1676,#1677));
#1679=FACE_OUTER_BOUND('',#1678,.T.);
#1680=CARTESIAN_POINT('',(-18.5,-0.5,0.5));
#1681=AXIS2_PLACEMENT_3D('',#1680,#16,#34);
#1682=PLANE('',#1681);
#1683=ADVANCED_FACE('',(#1679),#1682,.T.);
#1684=CLOSED_SHELL('',(#1601,#1627,#1645,#1663,#1673,#1683));
#1685=MANIFOLD_SOLID_BREP('Lead_neg_h',#1684);
#1686=STYLED_ITEM('color',(#1431),#1685);
#1687=CARTESIAN_POINT('',(-20.1,-0.5,-3.5));
#1688=VERTEX_POINT('',#1687);
#1689=CARTESIAN_POINT('',(-19.9,-0.5,-3.5));
#1690=VERTEX_POINT('',#1689);
#1691=CARTESIAN_POINT('',(-20.1,0.5,-3.5));
#1692=VERTEX_POINT('',#1691);
#1693=CARTESIAN_POINT('',(-19.9,0.5,-3.5));
#1694=VERTEX_POINT('',#1693);
#1695=CARTESIAN_POINT('',(-20.1,-0.5,0.7));
#1696=VERTEX_POINT('',#1695);
#1697=CARTESIAN_POINT('',(-19.9,-0.5,0.7));
#1698=VERTEX_POINT('',#1697);
#1699=CARTESIAN_POINT('',(-20.1,0.5,0.7));
#1700=VERTEX_POINT('',#1699);
#1701=CARTESIAN_POINT('',(-19.9,0.5,0.7));
#1702=VERTEX_POINT('',#1701);
#1703=VECTOR('',#34,1.);
#1704=CARTESIAN_POINT('',(-20.1,-0.5,-3.5));
#1705=LINE('',#1704,#1703);
#1706=EDGE_CURVE('',#1688,#1692,#1705,.T.);
#1707=ORIENTED_EDGE('',*,*,#1706,.T.);
#1708=VECTOR('',#16,0.2);
#1709=CARTESIAN_POINT('',(-20.1,0.5,-3.5));
#1710=LINE('',#1709,#1708);
#1711=EDGE_CURVE('',#1692,#1694,#1710,.T.);
#1712=ORIENTED_EDGE('',*,*,#1711,.T.);
#1713=VECTOR('',#34,1.);
#1714=CARTESIAN_POINT('',(-19.9,-0.5,-3.5));
#1715=LINE('',#1714,#1713);
#1716=EDGE_CURVE('',#1690,#1694,#1715,.T.);
#1717=ORIENTED_EDGE('',*,*,#1716,.F.);
#1718=VECTOR('',#16,0.2);
#1719=CARTESIAN_POINT('',(-20.1,-0.5,-3.5));
#1720=LINE('',#1719,#1718);
#1721=EDGE_CURVE('',#1688,#1690,#1720,.T.);
#1722=ORIENTED_EDGE('',*,*,#1721,.F.);
#1723=EDGE_LOOP('',(#1707,#1712,#1717,#1722));
#1724=FACE_OUTER_BOUND('',#1723,.T.);
#1725=CARTESIAN_POINT('',(-20.1,-0.5,-3.5));
#1726=AXIS2_PLACEMENT_3D('',#1725,#58,#16);
#1727=PLANE('',#1726);
#1728=ADVANCED_FACE('',(#1724),#1727,.T.);
#1729=VECTOR('',#16,0.2);
#1730=CARTESIAN_POINT('',(-20.1,-0.5,0.7));
#1731=LINE('',#1730,#1729);
#1732=EDGE_CURVE('',#1696,#1698,#1731,.T.);
#1733=ORIENTED_EDGE('',*,*,#1732,.T.);
#1734=VECTOR('',#34,1.);
#1735=CARTESIAN_POINT('',(-19.9,-0.5,0.7));
#1736=LINE('',#1735,#1734);
#1737=EDGE_CURVE('',#1698,#1702,#1736,.T.);
#1738=ORIENTED_EDGE('',*,*,#1737,.T.);
#1739=VECTOR('',#16,0.2);
#1740=CARTESIAN_POINT('',(-20.1,0.5,0.7));
#1741=LINE('',#1740,#1739);
#1742=EDGE_CURVE('',#1700,#1702,#1741,.T.);
#1743=ORIENTED_EDGE('',*,*,#1742,.F.);
#1744=VECTOR('',#34,1.);
#1745=CARTESIAN_POINT('',(-20.1,-0.5,0.7));
#1746=LINE('',#1745,#1744);
#1747=EDGE_CURVE('',#1696,#1700,#1746,.T.);
#1748=ORIENTED_EDGE('',*,*,#1747,.F.);
#1749=EDGE_LOOP('',(#1733,#1738,#1743,#1748));
#1750=FACE_OUTER_BOUND('',#1749,.T.);
#1751=CARTESIAN_POINT('',(-20.1,-0.5,0.7));
#1752=AXIS2_PLACEMENT_3D('',#1751,#15,#16);
#1753=PLANE('',#1752);
#1754=ADVANCED_FACE('',(#1750),#1753,.T.);
#1755=ORIENTED_EDGE('',*,*,#1721,.T.);
#1756=VECTOR('',#15,4.2);
#1757=CARTESIAN_POINT('',(-19.9,-0.5,-3.5));
#1758=LINE('',#1757,#1756);
#1759=EDGE_CURVE('',#1690,#1698,#1758,.T.);
#1760=ORIENTED_EDGE('',*,*,#1759,.T.);
#1761=ORIENTED_EDGE('',*,*,#1732,.F.);
#1762=VECTOR('',#15,4.2);
#1763=CARTESIAN_POINT('',(-20.1,-0.5,-3.5));
#1764=LINE('',#1763,#1762);
#1765=EDGE_CURVE('',#1688,#1696,#1764,.T.);
#1766=ORIENTED_EDGE('',*,*,#1765,.F.);
#1767=EDGE_LOOP('',(#1755,#1760,#1761,#1766));
#1768=FACE_OUTER_BOUND('',#1767,.T.);
#1769=CARTESIAN_POINT('',(-20.1,-0.5,-3.5));
#1770=AXIS2_PLACEMENT_3D('',#1769,#103,#16);
#1771=PLANE('',#1770);
#1772=ADVANCED_FACE('',(#1768),#1771,.T.);
#1773=VECTOR('',#15,4.2);
#1774=CARTESIAN_POINT('',(-20.1,0.5,-3.5));
#1775=LINE('',#1774,#1773);
#1776=EDGE_CURVE('',#1692,#1700,#1775,.T.);
#1777=ORIENTED_EDGE('',*,*,#1776,.T.);
#1778=ORIENTED_EDGE('',*,*,#1742,.T.);
#1779=VECTOR('',#15,4.2);
#1780=CARTESIAN_POINT('',(-19.9,0.5,-3.5));
#1781=LINE('',#1780,#1779);
#1782=EDGE_CURVE('',#1694,#1702,#1781,.T.);
#1783=ORIENTED_EDGE('',*,*,#1782,.F.);
#1784=ORIENTED_EDGE('',*,*,#1711,.F.);
#1785=EDGE_LOOP('',(#1777,#1778,#1783,#1784));
#1786=FACE_OUTER_BOUND('',#1785,.T.);
#1787=CARTESIAN_POINT('',(-20.1,0.5,-3.5));
#1788=AXIS2_PLACEMENT_3D('',#1787,#34,#16);
#1789=PLANE('',#1788);
#1790=ADVANCED_FACE('',(#1786),#1789,.T.);
#1791=ORIENTED_EDGE('',*,*,#1765,.T.);
#1792=ORIENTED_EDGE('',*,*,#1747,.T.);
#1793=ORIENTED_EDGE('',*,*,#1776,.F.);
#1794=ORIENTED_EDGE('',*,*,#1706,.F.);
#1795=EDGE_LOOP('',(#1791,#1792,#1793,#1794));
#1796=FACE_OUTER_BOUND('',#1795,.T.);
#1797=CARTESIAN_POINT('',(-20.1,-0.5,-3.5));
#1798=AXIS2_PLACEMENT_3D('',#1797,#132,#34);
#1799=PLANE('',#1798);
#1800=ADVANCED_FACE('',(#1796),#1799,.T.);
#1801=ORIENTED_EDGE('',*,*,#1716,.T.);
#1802=ORIENTED_EDGE('',*,*,#1782,.T.);
#1803=ORIENTED_EDGE('',*,*,#1737,.F.);
#1804=ORIENTED_EDGE('',*,*,#1759,.F.);
#1805=EDGE_LOOP('',(#1801,#1802,#1803,#1804));
#1806=FACE_OUTER_BOUND('',#1805,.T.);
#1807=CARTESIAN_POINT('',(-19.9,-0.5,-3.5));
#1808=AXIS2_PLACEMENT_3D('',#1807,#16,#34);
#1809=PLANE('',#1808);
#1810=ADVANCED_FACE('',(#1806),#1809,.T.);
#1811=CLOSED_SHELL('',(#1728,#1754,#1772,#1790,#1800,#1810));
#1812=MANIFOLD_SOLID_BREP('Lead_neg_v',#1811);
#1813=STYLED_ITEM('color',(#1431),#1812);
#1814=ADVANCED_BREP_SHAPE_REPRESENTATION('',(#17,#147,#281,#408,#535,#662,#789,#916,#1043,#1170,#1297,#1424,#1558,#1685,#1812),#13);
#1815=SHAPE_DEFINITION_REPRESENTATION(#8,#1814);
#1816=MECHANICAL_DESIGN_GEOMETRIC_PRESENTATION_REPRESENTATION('',(#155,#282,#409,#536,#663,#790,#917,#1044,#1171,#1298,#1432,#1559,#1686,#1813),#13);
ENDSEC;
END-ISO-10303-21;
