ISO-10303-21;
HEADER;
FILE_DESCRIPTION(('KiCad electronic assembly'),'2;1');
FILE_NAME('R3.step','2026-09-28T09:08:08',('Pcbnew'),('Kicad'),
  'Open CASCADE STEP processor 7.9','KiCad to STEP converter','Unknown'
  );
FILE_SCHEMA(('AUTOMOTIVE_DESIGN { 1 0 10303 214 1 1 1 1 }'));
ENDSEC;
DATA;
#1 = APPLICATION_PROTOCOL_DEFINITION('international standard',
  'automotive_design',2000,#2);
#2 = APPLICATION_CONTEXT(
  'core data for automotive mechanical design processes');
#3 = SHAPE_DEFINITION_REPRESENTATION(#4,#10);
#4 = PRODUCT_DEFINITION_SHAPE('','',#5);
#5 = PRODUCT_DEFINITION('design','',#6,#9);
#6 = PRODUCT_DEFINITION_FORMATION('','',#7);
#7 = PRODUCT('R3 1','R3 1','',(#8));
#8 = PRODUCT_CONTEXT('',#2,'mechanical');
#9 = PRODUCT_DEFINITION_CONTEXT('part definition',#2,'design');
#10 = SHAPE_REPRESENTATION('',(#11,#15),#19);
#11 = AXIS2_PLACEMENT_3D('',#12,#13,#14);
#12 = CARTESIAN_POINT('',(0.,0.,0.));
#13 = DIRECTION('',(0.,0.,1.));
#14 = DIRECTION('',(1.,0.,-0.));
#15 = AXIS2_PLACEMENT_3D('',#16,#17,#18);
#16 = CARTESIAN_POINT('',(78.5,-82.3,1.595));
#17 = DIRECTION('',(-0.,0.,1.));
#18 = DIRECTION('',(1.110223024625E-16,-1.,0.));
#19 = ( GEOMETRIC_REPRESENTATION_CONTEXT(3) 
GLOBAL_UNCERTAINTY_ASSIGNED_CONTEXT((#23)) GLOBAL_UNIT_ASSIGNED_CONTEXT(
(#20,#21,#22)) REPRESENTATION_CONTEXT('Context #1',
  '3D Context with UNIT and UNCERTAINTY') );
#20 = ( LENGTH_UNIT() NAMED_UNIT(*) SI_UNIT(.MILLI.,.METRE.) );
#21 = ( NAMED_UNIT(*) PLANE_ANGLE_UNIT() SI_UNIT($,.RADIAN.) );
#22 = ( NAMED_UNIT(*) SI_UNIT($,.STERADIAN.) SOLID_ANGLE_UNIT() );
#23 = UNCERTAINTY_MEASURE_WITH_UNIT(LENGTH_MEASURE(1.E-07),#20,
  'distance_accuracy_value','confusion accuracy');
#24 = PRODUCT_RELATED_PRODUCT_CATEGORY('part',$,(#7));
#25 = SHAPE_DEFINITION_REPRESENTATION(#26,#32);
#26 = PRODUCT_DEFINITION_SHAPE('','',#27);
#27 = PRODUCT_DEFINITION('design','',#28,#31);
#28 = PRODUCT_DEFINITION_FORMATION('','',#29);
#29 = PRODUCT('R_0402_1005Metric','R_0402_1005Metric','',(#30));
#30 = PRODUCT_CONTEXT('',#2,'mechanical');
#31 = PRODUCT_DEFINITION_CONTEXT('part definition',#2,'design');
#32 = SHAPE_REPRESENTATION('',(#11,#33),#37);
#33 = AXIS2_PLACEMENT_3D('',#34,#35,#36);
#34 = CARTESIAN_POINT('',(0.,0.,0.));
#35 = DIRECTION('',(0.,0.,1.));
#36 = DIRECTION('',(1.,0.,-0.));
#37 = ( GEOMETRIC_REPRESENTATION_CONTEXT(3) 
GLOBAL_UNCERTAINTY_ASSIGNED_CONTEXT((#41)) GLOBAL_UNIT_ASSIGNED_CONTEXT(
(#38,#39,#40)) REPRESENTATION_CONTEXT('Context #1',
  '3D Context with UNIT and UNCERTAINTY') );
#38 = ( LENGTH_UNIT() NAMED_UNIT(*) SI_UNIT(.MILLI.,.METRE.) );
#39 = ( NAMED_UNIT(*) PLANE_ANGLE_UNIT() SI_UNIT($,.RADIAN.) );
#40 = ( NAMED_UNIT(*) SI_UNIT($,.STERADIAN.) SOLID_ANGLE_UNIT() );
#41 = UNCERTAINTY_MEASURE_WITH_UNIT(LENGTH_MEASURE(1.E-07),#38,
  'distance_accuracy_value','confusion accuracy');
#42 = CONTEXT_DEPENDENT_SHAPE_REPRESENTATION(#43,#45);
#43 = ( REPRESENTATION_RELATIONSHIP('','',#32,#10) 
REPRESENTATION_RELATIONSHIP_WITH_TRANSFORMATION(#44) 
SHAPE_REPRESENTATION_RELATIONSHIP() );
#44 = ITEM_DEFINED_TRANSFORMATION('','',#11,#15);
#45 = PRODUCT_DEFINITION_SHAPE('Placement','Placement of an item',#46);
#46 = NEXT_ASSEMBLY_USAGE_OCCURRENCE('2','R3','',#5,#27,$);
#47 = PRODUCT_RELATED_PRODUCT_CATEGORY('part',$,(#29));
#48 = SHAPE_DEFINITION_REPRESENTATION(#49,#55);
#49 = PRODUCT_DEFINITION_SHAPE('','',#50);
#50 = PRODUCT_DEFINITION('design','',#51,#54);
#51 = PRODUCT_DEFINITION_FORMATION('','',#52);
#52 = PRODUCT('R_0402_1005Metric','R_0402_1005Metric','',(#53));
#53 = PRODUCT_CONTEXT('',#2,'mechanical');
#54 = PRODUCT_DEFINITION_CONTEXT('part definition',#2,'design');
#55 = ADVANCED_BREP_SHAPE_REPRESENTATION('',(#11,#56),#846);
#56 = MANIFOLD_SOLID_BREP('',#57);
#57 = CLOSED_SHELL('',(#58,#98,#181,#206,#231,#298,#315,#332,#381,#398,
    #415,#464,#481,#550,#581,#605,#674,#698,#715,#732,#749,#766,#783,
    #800,#817,#834));
#58 = ADVANCED_FACE('',(#59),#93,.F.);
#59 = FACE_BOUND('',#60,.F.);
#60 = EDGE_LOOP('',(#61,#71,#79,#87));
#61 = ORIENTED_EDGE('',*,*,#62,.F.);
#62 = EDGE_CURVE('',#63,#65,#67,.T.);
#63 = VERTEX_POINT('',#64);
#64 = CARTESIAN_POINT('',(-0.5,-0.25,3.5E-02));
#65 = VERTEX_POINT('',#66);
#66 = CARTESIAN_POINT('',(-0.5,-0.25,0.315));
#67 = LINE('',#68,#69);
#68 = CARTESIAN_POINT('',(-0.5,-0.25,0.));
#69 = VECTOR('',#70,1.);
#70 = DIRECTION('',(0.,0.,1.));
#71 = ORIENTED_EDGE('',*,*,#72,.T.);
#72 = EDGE_CURVE('',#63,#73,#75,.T.);
#73 = VERTEX_POINT('',#74);
#74 = CARTESIAN_POINT('',(-0.5,0.25,3.5E-02));
#75 = LINE('',#76,#77);
#76 = CARTESIAN_POINT('',(-0.5,-0.25,3.5E-02));
#77 = VECTOR('',#78,1.);
#78 = DIRECTION('',(0.,1.,0.));
#79 = ORIENTED_EDGE('',*,*,#80,.T.);
#80 = EDGE_CURVE('',#73,#81,#83,.T.);
#81 = VERTEX_POINT('',#82);
#82 = CARTESIAN_POINT('',(-0.5,0.25,0.315));
#83 = LINE('',#84,#85);
#84 = CARTESIAN_POINT('',(-0.5,0.25,0.));
#85 = VECTOR('',#86,1.);
#86 = DIRECTION('',(0.,0.,1.));
#87 = ORIENTED_EDGE('',*,*,#88,.F.);
#88 = EDGE_CURVE('',#65,#81,#89,.T.);
#89 = LINE('',#90,#91);
#90 = CARTESIAN_POINT('',(-0.5,-0.25,0.315));
#91 = VECTOR('',#92,1.);
#92 = DIRECTION('',(0.,1.,0.));
#93 = PLANE('',#94);
#94 = AXIS2_PLACEMENT_3D('',#95,#96,#97);
#95 = CARTESIAN_POINT('',(-0.5,-0.25,0.));
#96 = DIRECTION('',(1.,0.,0.));
#97 = DIRECTION('',(0.,0.,1.));
#98 = ADVANCED_FACE('',(#99),#176,.F.);
#99 = FACE_BOUND('',#100,.F.);
#100 = EDGE_LOOP('',(#101,#111,#118,#119,#128,#136,#145,#153,#161,#169)
  );
#101 = ORIENTED_EDGE('',*,*,#102,.F.);
#102 = EDGE_CURVE('',#103,#105,#107,.T.);
#103 = VERTEX_POINT('',#104);
#104 = CARTESIAN_POINT('',(-0.465,-0.25,-2.775557561563E-17));
#105 = VERTEX_POINT('',#106);
#106 = CARTESIAN_POINT('',(-0.335,-0.25,-2.775557561563E-17));
#107 = LINE('',#108,#109);
#108 = CARTESIAN_POINT('',(-0.5,-0.25,0.));
#109 = VECTOR('',#110,1.);
#110 = DIRECTION('',(1.,0.,0.));
#111 = ORIENTED_EDGE('',*,*,#112,.F.);
#112 = EDGE_CURVE('',#63,#103,#113,.T.);
#113 = CIRCLE('',#114,3.5E-02);
#114 = AXIS2_PLACEMENT_3D('',#115,#116,#117);
#115 = CARTESIAN_POINT('',(-0.465,-0.25,3.5E-02));
#116 = DIRECTION('',(0.,-1.,0.));
#117 = DIRECTION('',(0.,0.,1.));
#118 = ORIENTED_EDGE('',*,*,#62,.T.);
#119 = ORIENTED_EDGE('',*,*,#120,.T.);
#120 = EDGE_CURVE('',#65,#121,#123,.T.);
#121 = VERTEX_POINT('',#122);
#122 = CARTESIAN_POINT('',(-0.465,-0.25,0.35));
#123 = CIRCLE('',#124,3.5E-02);
#124 = AXIS2_PLACEMENT_3D('',#125,#126,#127);
#125 = CARTESIAN_POINT('',(-0.465,-0.25,0.315));
#126 = DIRECTION('',(0.,1.,0.));
#127 = DIRECTION('',(0.,-0.,1.));
#128 = ORIENTED_EDGE('',*,*,#129,.T.);
#129 = EDGE_CURVE('',#121,#130,#132,.T.);
#130 = VERTEX_POINT('',#131);
#131 = CARTESIAN_POINT('',(-0.335,-0.25,0.35));
#132 = LINE('',#133,#134);
#133 = CARTESIAN_POINT('',(-0.5,-0.25,0.35));
#134 = VECTOR('',#135,1.);
#135 = DIRECTION('',(1.,0.,0.));
#136 = ORIENTED_EDGE('',*,*,#137,.F.);
#137 = EDGE_CURVE('',#138,#130,#140,.T.);
#138 = VERTEX_POINT('',#139);
#139 = CARTESIAN_POINT('',(-0.3,-0.25,0.315));
#140 = CIRCLE('',#141,3.5E-02);
#141 = AXIS2_PLACEMENT_3D('',#142,#143,#144);
#142 = CARTESIAN_POINT('',(-0.335,-0.25,0.315));
#143 = DIRECTION('',(0.,-1.,0.));
#144 = DIRECTION('',(0.,0.,1.));
#145 = ORIENTED_EDGE('',*,*,#146,.F.);
#146 = EDGE_CURVE('',#147,#138,#149,.T.);
#147 = VERTEX_POINT('',#148);
#148 = CARTESIAN_POINT('',(-0.465,-0.25,0.315));
#149 = LINE('',#150,#151);
#150 = CARTESIAN_POINT('',(-0.465,-0.25,0.315));
#151 = VECTOR('',#152,1.);
#152 = DIRECTION('',(1.,0.,0.));
#153 = ORIENTED_EDGE('',*,*,#154,.F.);
#154 = EDGE_CURVE('',#155,#147,#157,.T.);
#155 = VERTEX_POINT('',#156);
#156 = CARTESIAN_POINT('',(-0.465,-0.25,3.5E-02));
#157 = LINE('',#158,#159);
#158 = CARTESIAN_POINT('',(-0.465,-0.25,3.5E-02));
#159 = VECTOR('',#160,1.);
#160 = DIRECTION('',(0.,0.,1.));
#161 = ORIENTED_EDGE('',*,*,#162,.T.);
#162 = EDGE_CURVE('',#155,#163,#165,.T.);
#163 = VERTEX_POINT('',#164);
#164 = CARTESIAN_POINT('',(-0.3,-0.25,3.5E-02));
#165 = LINE('',#166,#167);
#166 = CARTESIAN_POINT('',(-0.465,-0.25,3.5E-02));
#167 = VECTOR('',#168,1.);
#168 = DIRECTION('',(1.,0.,0.));
#169 = ORIENTED_EDGE('',*,*,#170,.T.);
#170 = EDGE_CURVE('',#163,#105,#171,.T.);
#171 = CIRCLE('',#172,3.5E-02);
#172 = AXIS2_PLACEMENT_3D('',#173,#174,#175);
#173 = CARTESIAN_POINT('',(-0.335,-0.25,3.5E-02));
#174 = DIRECTION('',(0.,1.,0.));
#175 = DIRECTION('',(0.,-0.,1.));
#176 = PLANE('',#177);
#177 = AXIS2_PLACEMENT_3D('',#178,#179,#180);
#178 = CARTESIAN_POINT('',(-0.5,-0.25,0.));
#179 = DIRECTION('',(0.,1.,0.));
#180 = DIRECTION('',(0.,-0.,1.));
#181 = ADVANCED_FACE('',(#182),#201,.T.);
#182 = FACE_BOUND('',#183,.T.);
#183 = EDGE_LOOP('',(#184,#185,#194,#200));
#184 = ORIENTED_EDGE('',*,*,#72,.T.);
#185 = ORIENTED_EDGE('',*,*,#186,.T.);
#186 = EDGE_CURVE('',#73,#187,#189,.T.);
#187 = VERTEX_POINT('',#188);
#188 = CARTESIAN_POINT('',(-0.465,0.25,-2.775557561563E-17));
#189 = CIRCLE('',#190,3.5E-02);
#190 = AXIS2_PLACEMENT_3D('',#191,#192,#193);
#191 = CARTESIAN_POINT('',(-0.465,0.25,3.5E-02));
#192 = DIRECTION('',(0.,-1.,0.));
#193 = DIRECTION('',(0.,0.,1.));
#194 = ORIENTED_EDGE('',*,*,#195,.F.);
#195 = EDGE_CURVE('',#103,#187,#196,.T.);
#196 = LINE('',#197,#198);
#197 = CARTESIAN_POINT('',(-0.465,-0.25,-2.775557561563E-17));
#198 = VECTOR('',#199,1.);
#199 = DIRECTION('',(0.,1.,0.));
#200 = ORIENTED_EDGE('',*,*,#112,.F.);
#201 = CYLINDRICAL_SURFACE('',#202,3.5E-02);
#202 = AXIS2_PLACEMENT_3D('',#203,#204,#205);
#203 = CARTESIAN_POINT('',(-0.465,-0.25,3.5E-02));
#204 = DIRECTION('',(0.,1.,0.));
#205 = DIRECTION('',(-1.,0.,0.));
#206 = ADVANCED_FACE('',(#207),#226,.T.);
#207 = FACE_BOUND('',#208,.T.);
#208 = EDGE_LOOP('',(#209,#210,#218,#225));
#209 = ORIENTED_EDGE('',*,*,#120,.T.);
#210 = ORIENTED_EDGE('',*,*,#211,.T.);
#211 = EDGE_CURVE('',#121,#212,#214,.T.);
#212 = VERTEX_POINT('',#213);
#213 = CARTESIAN_POINT('',(-0.465,0.25,0.35));
#214 = LINE('',#215,#216);
#215 = CARTESIAN_POINT('',(-0.465,-0.25,0.35));
#216 = VECTOR('',#217,1.);
#217 = DIRECTION('',(0.,1.,0.));
#218 = ORIENTED_EDGE('',*,*,#219,.F.);
#219 = EDGE_CURVE('',#81,#212,#220,.T.);
#220 = CIRCLE('',#221,3.5E-02);
#221 = AXIS2_PLACEMENT_3D('',#222,#223,#224);
#222 = CARTESIAN_POINT('',(-0.465,0.25,0.315));
#223 = DIRECTION('',(0.,1.,0.));
#224 = DIRECTION('',(0.,-0.,1.));
#225 = ORIENTED_EDGE('',*,*,#88,.F.);
#226 = CYLINDRICAL_SURFACE('',#227,3.5E-02);
#227 = AXIS2_PLACEMENT_3D('',#228,#229,#230);
#228 = CARTESIAN_POINT('',(-0.465,-0.25,0.315));
#229 = DIRECTION('',(0.,1.,0.));
#230 = DIRECTION('',(-1.,0.,0.));
#231 = ADVANCED_FACE('',(#232),#293,.T.);
#232 = FACE_BOUND('',#233,.T.);
#233 = EDGE_LOOP('',(#234,#242,#243,#244,#245,#253,#262,#270,#278,#286)
  );
#234 = ORIENTED_EDGE('',*,*,#235,.F.);
#235 = EDGE_CURVE('',#187,#236,#238,.T.);
#236 = VERTEX_POINT('',#237);
#237 = CARTESIAN_POINT('',(-0.335,0.25,-2.775557561563E-17));
#238 = LINE('',#239,#240);
#239 = CARTESIAN_POINT('',(-0.5,0.25,0.));
#240 = VECTOR('',#241,1.);
#241 = DIRECTION('',(1.,0.,0.));
#242 = ORIENTED_EDGE('',*,*,#186,.F.);
#243 = ORIENTED_EDGE('',*,*,#80,.T.);
#244 = ORIENTED_EDGE('',*,*,#219,.T.);
#245 = ORIENTED_EDGE('',*,*,#246,.T.);
#246 = EDGE_CURVE('',#212,#247,#249,.T.);
#247 = VERTEX_POINT('',#248);
#248 = CARTESIAN_POINT('',(-0.335,0.25,0.35));
#249 = LINE('',#250,#251);
#250 = CARTESIAN_POINT('',(-0.5,0.25,0.35));
#251 = VECTOR('',#252,1.);
#252 = DIRECTION('',(1.,0.,0.));
#253 = ORIENTED_EDGE('',*,*,#254,.F.);
#254 = EDGE_CURVE('',#255,#247,#257,.T.);
#255 = VERTEX_POINT('',#256);
#256 = CARTESIAN_POINT('',(-0.3,0.25,0.315));
#257 = CIRCLE('',#258,3.5E-02);
#258 = AXIS2_PLACEMENT_3D('',#259,#260,#261);
#259 = CARTESIAN_POINT('',(-0.335,0.25,0.315));
#260 = DIRECTION('',(0.,-1.,0.));
#261 = DIRECTION('',(0.,0.,1.));
#262 = ORIENTED_EDGE('',*,*,#263,.F.);
#263 = EDGE_CURVE('',#264,#255,#266,.T.);
#264 = VERTEX_POINT('',#265);
#265 = CARTESIAN_POINT('',(-0.465,0.25,0.315));
#266 = LINE('',#267,#268);
#267 = CARTESIAN_POINT('',(-0.465,0.25,0.315));
#268 = VECTOR('',#269,1.);
#269 = DIRECTION('',(1.,0.,0.));
#270 = ORIENTED_EDGE('',*,*,#271,.F.);
#271 = EDGE_CURVE('',#272,#264,#274,.T.);
#272 = VERTEX_POINT('',#273);
#273 = CARTESIAN_POINT('',(-0.465,0.25,3.5E-02));
#274 = LINE('',#275,#276);
#275 = CARTESIAN_POINT('',(-0.465,0.25,3.5E-02));
#276 = VECTOR('',#277,1.);
#277 = DIRECTION('',(0.,0.,1.));
#278 = ORIENTED_EDGE('',*,*,#279,.T.);
#279 = EDGE_CURVE('',#272,#280,#282,.T.);
#280 = VERTEX_POINT('',#281);
#281 = CARTESIAN_POINT('',(-0.3,0.25,3.5E-02));
#282 = LINE('',#283,#284);
#283 = CARTESIAN_POINT('',(-0.465,0.25,3.5E-02));
#284 = VECTOR('',#285,1.);
#285 = DIRECTION('',(1.,0.,0.));
#286 = ORIENTED_EDGE('',*,*,#287,.T.);
#287 = EDGE_CURVE('',#280,#236,#288,.T.);
#288 = CIRCLE('',#289,3.5E-02);
#289 = AXIS2_PLACEMENT_3D('',#290,#291,#292);
#290 = CARTESIAN_POINT('',(-0.335,0.25,3.5E-02));
#291 = DIRECTION('',(0.,1.,0.));
#292 = DIRECTION('',(0.,-0.,1.));
#293 = PLANE('',#294);
#294 = AXIS2_PLACEMENT_3D('',#295,#296,#297);
#295 = CARTESIAN_POINT('',(-0.5,0.25,0.));
#296 = DIRECTION('',(0.,1.,0.));
#297 = DIRECTION('',(0.,-0.,1.));
#298 = ADVANCED_FACE('',(#299),#310,.F.);
#299 = FACE_BOUND('',#300,.F.);
#300 = EDGE_LOOP('',(#301,#302,#303,#304));
#301 = ORIENTED_EDGE('',*,*,#235,.F.);
#302 = ORIENTED_EDGE('',*,*,#195,.F.);
#303 = ORIENTED_EDGE('',*,*,#102,.T.);
#304 = ORIENTED_EDGE('',*,*,#305,.T.);
#305 = EDGE_CURVE('',#105,#236,#306,.T.);
#306 = LINE('',#307,#308);
#307 = CARTESIAN_POINT('',(-0.335,-0.25,-2.775557561563E-17));
#308 = VECTOR('',#309,1.);
#309 = DIRECTION('',(0.,1.,0.));
#310 = PLANE('',#311);
#311 = AXIS2_PLACEMENT_3D('',#312,#313,#314);
#312 = CARTESIAN_POINT('',(-0.5,-0.25,0.));
#313 = DIRECTION('',(0.,0.,1.));
#314 = DIRECTION('',(1.,0.,-0.));
#315 = ADVANCED_FACE('',(#316),#327,.T.);
#316 = FACE_BOUND('',#317,.T.);
#317 = EDGE_LOOP('',(#318,#319,#320,#321));
#318 = ORIENTED_EDGE('',*,*,#170,.T.);
#319 = ORIENTED_EDGE('',*,*,#305,.T.);
#320 = ORIENTED_EDGE('',*,*,#287,.F.);
#321 = ORIENTED_EDGE('',*,*,#322,.F.);
#322 = EDGE_CURVE('',#163,#280,#323,.T.);
#323 = LINE('',#324,#325);
#324 = CARTESIAN_POINT('',(-0.3,-0.25,3.5E-02));
#325 = VECTOR('',#326,1.);
#326 = DIRECTION('',(0.,1.,0.));
#327 = CYLINDRICAL_SURFACE('',#328,3.5E-02);
#328 = AXIS2_PLACEMENT_3D('',#329,#330,#331);
#329 = CARTESIAN_POINT('',(-0.335,-0.25,3.5E-02));
#330 = DIRECTION('',(0.,1.,0.));
#331 = DIRECTION('',(1.,0.,0.));
#332 = ADVANCED_FACE('',(#333),#376,.F.);
#333 = FACE_BOUND('',#334,.F.);
#334 = EDGE_LOOP('',(#335,#336,#337,#338,#346,#354,#362,#370));
#335 = ORIENTED_EDGE('',*,*,#162,.F.);
#336 = ORIENTED_EDGE('',*,*,#154,.T.);
#337 = ORIENTED_EDGE('',*,*,#146,.T.);
#338 = ORIENTED_EDGE('',*,*,#339,.T.);
#339 = EDGE_CURVE('',#138,#340,#342,.T.);
#340 = VERTEX_POINT('',#341);
#341 = CARTESIAN_POINT('',(0.3,-0.25,0.315));
#342 = LINE('',#343,#344);
#343 = CARTESIAN_POINT('',(-0.3,-0.25,0.315));
#344 = VECTOR('',#345,1.);
#345 = DIRECTION('',(1.,0.,0.));
#346 = ORIENTED_EDGE('',*,*,#347,.T.);
#347 = EDGE_CURVE('',#340,#348,#350,.T.);
#348 = VERTEX_POINT('',#349);
#349 = CARTESIAN_POINT('',(0.465,-0.25,0.315));
#350 = LINE('',#351,#352);
#351 = CARTESIAN_POINT('',(-0.465,-0.25,0.315));
#352 = VECTOR('',#353,1.);
#353 = DIRECTION('',(1.,0.,0.));
#354 = ORIENTED_EDGE('',*,*,#355,.F.);
#355 = EDGE_CURVE('',#356,#348,#358,.T.);
#356 = VERTEX_POINT('',#357);
#357 = CARTESIAN_POINT('',(0.465,-0.25,3.5E-02));
#358 = LINE('',#359,#360);
#359 = CARTESIAN_POINT('',(0.465,-0.25,3.5E-02));
#360 = VECTOR('',#361,1.);
#361 = DIRECTION('',(0.,0.,1.));
#362 = ORIENTED_EDGE('',*,*,#363,.F.);
#363 = EDGE_CURVE('',#364,#356,#366,.T.);
#364 = VERTEX_POINT('',#365);
#365 = CARTESIAN_POINT('',(0.3,-0.25,3.5E-02));
#366 = LINE('',#367,#368);
#367 = CARTESIAN_POINT('',(-0.465,-0.25,3.5E-02));
#368 = VECTOR('',#369,1.);
#369 = DIRECTION('',(1.,0.,0.));
#370 = ORIENTED_EDGE('',*,*,#371,.F.);
#371 = EDGE_CURVE('',#163,#364,#372,.T.);
#372 = LINE('',#373,#374);
#373 = CARTESIAN_POINT('',(-0.465,-0.25,3.5E-02));
#374 = VECTOR('',#375,1.);
#375 = DIRECTION('',(1.,0.,0.));
#376 = PLANE('',#377);
#377 = AXIS2_PLACEMENT_3D('',#378,#379,#380);
#378 = CARTESIAN_POINT('',(-0.465,-0.25,3.5E-02));
#379 = DIRECTION('',(0.,1.,0.));
#380 = DIRECTION('',(0.,-0.,1.));
#381 = ADVANCED_FACE('',(#382),#393,.T.);
#382 = FACE_BOUND('',#383,.T.);
#383 = EDGE_LOOP('',(#384,#385,#386,#387));
#384 = ORIENTED_EDGE('',*,*,#246,.F.);
#385 = ORIENTED_EDGE('',*,*,#211,.F.);
#386 = ORIENTED_EDGE('',*,*,#129,.T.);
#387 = ORIENTED_EDGE('',*,*,#388,.T.);
#388 = EDGE_CURVE('',#130,#247,#389,.T.);
#389 = LINE('',#390,#391);
#390 = CARTESIAN_POINT('',(-0.335,-0.25,0.35));
#391 = VECTOR('',#392,1.);
#392 = DIRECTION('',(0.,1.,0.));
#393 = PLANE('',#394);
#394 = AXIS2_PLACEMENT_3D('',#395,#396,#397);
#395 = CARTESIAN_POINT('',(-0.5,-0.25,0.35));
#396 = DIRECTION('',(0.,0.,1.));
#397 = DIRECTION('',(1.,0.,-0.));
#398 = ADVANCED_FACE('',(#399),#410,.T.);
#399 = FACE_BOUND('',#400,.T.);
#400 = EDGE_LOOP('',(#401,#407,#408,#409));
#401 = ORIENTED_EDGE('',*,*,#402,.T.);
#402 = EDGE_CURVE('',#138,#255,#403,.T.);
#403 = LINE('',#404,#405);
#404 = CARTESIAN_POINT('',(-0.3,-0.25,0.315));
#405 = VECTOR('',#406,1.);
#406 = DIRECTION('',(0.,1.,0.));
#407 = ORIENTED_EDGE('',*,*,#254,.T.);
#408 = ORIENTED_EDGE('',*,*,#388,.F.);
#409 = ORIENTED_EDGE('',*,*,#137,.F.);
#410 = CYLINDRICAL_SURFACE('',#411,3.5E-02);
#411 = AXIS2_PLACEMENT_3D('',#412,#413,#414);
#412 = CARTESIAN_POINT('',(-0.335,-0.25,0.315));
#413 = DIRECTION('',(0.,1.,0.));
#414 = DIRECTION('',(1.,0.,0.));
#415 = ADVANCED_FACE('',(#416),#459,.T.);
#416 = FACE_BOUND('',#417,.T.);
#417 = EDGE_LOOP('',(#418,#419,#420,#421,#429,#437,#445,#453));
#418 = ORIENTED_EDGE('',*,*,#279,.F.);
#419 = ORIENTED_EDGE('',*,*,#271,.T.);
#420 = ORIENTED_EDGE('',*,*,#263,.T.);
#421 = ORIENTED_EDGE('',*,*,#422,.T.);
#422 = EDGE_CURVE('',#255,#423,#425,.T.);
#423 = VERTEX_POINT('',#424);
#424 = CARTESIAN_POINT('',(0.3,0.25,0.315));
#425 = LINE('',#426,#427);
#426 = CARTESIAN_POINT('',(-0.3,0.25,0.315));
#427 = VECTOR('',#428,1.);
#428 = DIRECTION('',(1.,0.,0.));
#429 = ORIENTED_EDGE('',*,*,#430,.T.);
#430 = EDGE_CURVE('',#423,#431,#433,.T.);
#431 = VERTEX_POINT('',#432);
#432 = CARTESIAN_POINT('',(0.465,0.25,0.315));
#433 = LINE('',#434,#435);
#434 = CARTESIAN_POINT('',(-0.465,0.25,0.315));
#435 = VECTOR('',#436,1.);
#436 = DIRECTION('',(1.,0.,0.));
#437 = ORIENTED_EDGE('',*,*,#438,.F.);
#438 = EDGE_CURVE('',#439,#431,#441,.T.);
#439 = VERTEX_POINT('',#440);
#440 = CARTESIAN_POINT('',(0.465,0.25,3.5E-02));
#441 = LINE('',#442,#443);
#442 = CARTESIAN_POINT('',(0.465,0.25,3.5E-02));
#443 = VECTOR('',#444,1.);
#444 = DIRECTION('',(0.,0.,1.));
#445 = ORIENTED_EDGE('',*,*,#446,.F.);
#446 = EDGE_CURVE('',#447,#439,#449,.T.);
#447 = VERTEX_POINT('',#448);
#448 = CARTESIAN_POINT('',(0.3,0.25,3.5E-02));
#449 = LINE('',#450,#451);
#450 = CARTESIAN_POINT('',(-0.465,0.25,3.5E-02));
#451 = VECTOR('',#452,1.);
#452 = DIRECTION('',(1.,0.,0.));
#453 = ORIENTED_EDGE('',*,*,#454,.F.);
#454 = EDGE_CURVE('',#280,#447,#455,.T.);
#455 = LINE('',#456,#457);
#456 = CARTESIAN_POINT('',(-0.465,0.25,3.5E-02));
#457 = VECTOR('',#458,1.);
#458 = DIRECTION('',(1.,0.,0.));
#459 = PLANE('',#460);
#460 = AXIS2_PLACEMENT_3D('',#461,#462,#463);
#461 = CARTESIAN_POINT('',(-0.465,0.25,3.5E-02));
#462 = DIRECTION('',(0.,1.,0.));
#463 = DIRECTION('',(0.,-0.,1.));
#464 = ADVANCED_FACE('',(#465),#476,.F.);
#465 = FACE_BOUND('',#466,.F.);
#466 = EDGE_LOOP('',(#467,#468,#469,#475));
#467 = ORIENTED_EDGE('',*,*,#322,.F.);
#468 = ORIENTED_EDGE('',*,*,#371,.T.);
#469 = ORIENTED_EDGE('',*,*,#470,.T.);
#470 = EDGE_CURVE('',#364,#447,#471,.T.);
#471 = LINE('',#472,#473);
#472 = CARTESIAN_POINT('',(0.3,-0.25,3.5E-02));
#473 = VECTOR('',#474,1.);
#474 = DIRECTION('',(0.,1.,0.));
#475 = ORIENTED_EDGE('',*,*,#454,.F.);
#476 = PLANE('',#477);
#477 = AXIS2_PLACEMENT_3D('',#478,#479,#480);
#478 = CARTESIAN_POINT('',(-0.465,-0.25,3.5E-02));
#479 = DIRECTION('',(0.,0.,1.));
#480 = DIRECTION('',(1.,0.,-0.));
#481 = ADVANCED_FACE('',(#482),#545,.F.);
#482 = FACE_BOUND('',#483,.F.);
#483 = EDGE_LOOP('',(#484,#494,#501,#502,#503,#504,#513,#521,#530,#538)
  );
#484 = ORIENTED_EDGE('',*,*,#485,.F.);
#485 = EDGE_CURVE('',#486,#488,#490,.T.);
#486 = VERTEX_POINT('',#487);
#487 = CARTESIAN_POINT('',(0.335,-0.25,-2.775557561563E-17));
#488 = VERTEX_POINT('',#489);
#489 = CARTESIAN_POINT('',(0.465,-0.25,-2.775557561563E-17));
#490 = LINE('',#491,#492);
#491 = CARTESIAN_POINT('',(0.3,-0.25,0.));
#492 = VECTOR('',#493,1.);
#493 = DIRECTION('',(1.,0.,0.));
#494 = ORIENTED_EDGE('',*,*,#495,.F.);
#495 = EDGE_CURVE('',#364,#486,#496,.T.);
#496 = CIRCLE('',#497,3.5E-02);
#497 = AXIS2_PLACEMENT_3D('',#498,#499,#500);
#498 = CARTESIAN_POINT('',(0.335,-0.25,3.5E-02));
#499 = DIRECTION('',(0.,-1.,0.));
#500 = DIRECTION('',(0.,0.,1.));
#501 = ORIENTED_EDGE('',*,*,#363,.T.);
#502 = ORIENTED_EDGE('',*,*,#355,.T.);
#503 = ORIENTED_EDGE('',*,*,#347,.F.);
#504 = ORIENTED_EDGE('',*,*,#505,.T.);
#505 = EDGE_CURVE('',#340,#506,#508,.T.);
#506 = VERTEX_POINT('',#507);
#507 = CARTESIAN_POINT('',(0.335,-0.25,0.35));
#508 = CIRCLE('',#509,3.5E-02);
#509 = AXIS2_PLACEMENT_3D('',#510,#511,#512);
#510 = CARTESIAN_POINT('',(0.335,-0.25,0.315));
#511 = DIRECTION('',(0.,1.,0.));
#512 = DIRECTION('',(0.,-0.,1.));
#513 = ORIENTED_EDGE('',*,*,#514,.T.);
#514 = EDGE_CURVE('',#506,#515,#517,.T.);
#515 = VERTEX_POINT('',#516);
#516 = CARTESIAN_POINT('',(0.465,-0.25,0.35));
#517 = LINE('',#518,#519);
#518 = CARTESIAN_POINT('',(0.3,-0.25,0.35));
#519 = VECTOR('',#520,1.);
#520 = DIRECTION('',(1.,0.,0.));
#521 = ORIENTED_EDGE('',*,*,#522,.F.);
#522 = EDGE_CURVE('',#523,#515,#525,.T.);
#523 = VERTEX_POINT('',#524);
#524 = CARTESIAN_POINT('',(0.5,-0.25,0.315));
#525 = CIRCLE('',#526,3.5E-02);
#526 = AXIS2_PLACEMENT_3D('',#527,#528,#529);
#527 = CARTESIAN_POINT('',(0.465,-0.25,0.315));
#528 = DIRECTION('',(0.,-1.,0.));
#529 = DIRECTION('',(0.,0.,1.));
#530 = ORIENTED_EDGE('',*,*,#531,.F.);
#531 = EDGE_CURVE('',#532,#523,#534,.T.);
#532 = VERTEX_POINT('',#533);
#533 = CARTESIAN_POINT('',(0.5,-0.25,3.5E-02));
#534 = LINE('',#535,#536);
#535 = CARTESIAN_POINT('',(0.5,-0.25,0.));
#536 = VECTOR('',#537,1.);
#537 = DIRECTION('',(0.,0.,1.));
#538 = ORIENTED_EDGE('',*,*,#539,.T.);
#539 = EDGE_CURVE('',#532,#488,#540,.T.);
#540 = CIRCLE('',#541,3.5E-02);
#541 = AXIS2_PLACEMENT_3D('',#542,#543,#544);
#542 = CARTESIAN_POINT('',(0.465,-0.25,3.5E-02));
#543 = DIRECTION('',(0.,1.,0.));
#544 = DIRECTION('',(0.,-0.,1.));
#545 = PLANE('',#546);
#546 = AXIS2_PLACEMENT_3D('',#547,#548,#549);
#547 = CARTESIAN_POINT('',(0.3,-0.25,0.));
#548 = DIRECTION('',(0.,1.,0.));
#549 = DIRECTION('',(0.,-0.,1.));
#550 = ADVANCED_FACE('',(#551),#576,.F.);
#551 = FACE_BOUND('',#552,.F.);
#552 = EDGE_LOOP('',(#553,#554,#562,#570));
#553 = ORIENTED_EDGE('',*,*,#339,.F.);
#554 = ORIENTED_EDGE('',*,*,#555,.T.);
#555 = EDGE_CURVE('',#138,#556,#558,.T.);
#556 = VERTEX_POINT('',#557);
#557 = CARTESIAN_POINT('',(-0.3,-0.25,0.35));
#558 = LINE('',#559,#560);
#559 = CARTESIAN_POINT('',(-0.3,-0.25,0.315));
#560 = VECTOR('',#561,1.);
#561 = DIRECTION('',(0.,0.,1.));
#562 = ORIENTED_EDGE('',*,*,#563,.T.);
#563 = EDGE_CURVE('',#556,#564,#566,.T.);
#564 = VERTEX_POINT('',#565);
#565 = CARTESIAN_POINT('',(0.3,-0.25,0.35));
#566 = LINE('',#567,#568);
#567 = CARTESIAN_POINT('',(-0.3,-0.25,0.35));
#568 = VECTOR('',#569,1.);
#569 = DIRECTION('',(1.,0.,0.));
#570 = ORIENTED_EDGE('',*,*,#571,.F.);
#571 = EDGE_CURVE('',#340,#564,#572,.T.);
#572 = LINE('',#573,#574);
#573 = CARTESIAN_POINT('',(0.3,-0.25,0.315));
#574 = VECTOR('',#575,1.);
#575 = DIRECTION('',(0.,0.,1.));
#576 = PLANE('',#577);
#577 = AXIS2_PLACEMENT_3D('',#578,#579,#580);
#578 = CARTESIAN_POINT('',(-0.3,-0.25,0.315));
#579 = DIRECTION('',(0.,1.,0.));
#580 = DIRECTION('',(0.,-0.,1.));
#581 = ADVANCED_FACE('',(#582),#600,.F.);
#582 = FACE_BOUND('',#583,.F.);
#583 = EDGE_LOOP('',(#584,#585,#586,#594));
#584 = ORIENTED_EDGE('',*,*,#555,.F.);
#585 = ORIENTED_EDGE('',*,*,#402,.T.);
#586 = ORIENTED_EDGE('',*,*,#587,.T.);
#587 = EDGE_CURVE('',#255,#588,#590,.T.);
#588 = VERTEX_POINT('',#589);
#589 = CARTESIAN_POINT('',(-0.3,0.25,0.35));
#590 = LINE('',#591,#592);
#591 = CARTESIAN_POINT('',(-0.3,0.25,0.315));
#592 = VECTOR('',#593,1.);
#593 = DIRECTION('',(0.,0.,1.));
#594 = ORIENTED_EDGE('',*,*,#595,.F.);
#595 = EDGE_CURVE('',#556,#588,#596,.T.);
#596 = LINE('',#597,#598);
#597 = CARTESIAN_POINT('',(-0.3,-0.25,0.35));
#598 = VECTOR('',#599,1.);
#599 = DIRECTION('',(0.,1.,0.));
#600 = PLANE('',#601);
#601 = AXIS2_PLACEMENT_3D('',#602,#603,#604);
#602 = CARTESIAN_POINT('',(-0.3,-0.25,0.315));
#603 = DIRECTION('',(1.,0.,0.));
#604 = DIRECTION('',(0.,0.,1.));
#605 = ADVANCED_FACE('',(#606),#669,.T.);
#606 = FACE_BOUND('',#607,.T.);
#607 = EDGE_LOOP('',(#608,#618,#625,#626,#627,#628,#637,#645,#654,#662)
  );
#608 = ORIENTED_EDGE('',*,*,#609,.F.);
#609 = EDGE_CURVE('',#610,#612,#614,.T.);
#610 = VERTEX_POINT('',#611);
#611 = CARTESIAN_POINT('',(0.335,0.25,-2.775557561563E-17));
#612 = VERTEX_POINT('',#613);
#613 = CARTESIAN_POINT('',(0.465,0.25,-2.775557561563E-17));
#614 = LINE('',#615,#616);
#615 = CARTESIAN_POINT('',(0.3,0.25,0.));
#616 = VECTOR('',#617,1.);
#617 = DIRECTION('',(1.,0.,0.));
#618 = ORIENTED_EDGE('',*,*,#619,.F.);
#619 = EDGE_CURVE('',#447,#610,#620,.T.);
#620 = CIRCLE('',#621,3.5E-02);
#621 = AXIS2_PLACEMENT_3D('',#622,#623,#624);
#622 = CARTESIAN_POINT('',(0.335,0.25,3.5E-02));
#623 = DIRECTION('',(0.,-1.,0.));
#624 = DIRECTION('',(0.,0.,1.));
#625 = ORIENTED_EDGE('',*,*,#446,.T.);
#626 = ORIENTED_EDGE('',*,*,#438,.T.);
#627 = ORIENTED_EDGE('',*,*,#430,.F.);
#628 = ORIENTED_EDGE('',*,*,#629,.T.);
#629 = EDGE_CURVE('',#423,#630,#632,.T.);
#630 = VERTEX_POINT('',#631);
#631 = CARTESIAN_POINT('',(0.335,0.25,0.35));
#632 = CIRCLE('',#633,3.5E-02);
#633 = AXIS2_PLACEMENT_3D('',#634,#635,#636);
#634 = CARTESIAN_POINT('',(0.335,0.25,0.315));
#635 = DIRECTION('',(0.,1.,0.));
#636 = DIRECTION('',(0.,-0.,1.));
#637 = ORIENTED_EDGE('',*,*,#638,.T.);
#638 = EDGE_CURVE('',#630,#639,#641,.T.);
#639 = VERTEX_POINT('',#640);
#640 = CARTESIAN_POINT('',(0.465,0.25,0.35));
#641 = LINE('',#642,#643);
#642 = CARTESIAN_POINT('',(0.3,0.25,0.35));
#643 = VECTOR('',#644,1.);
#644 = DIRECTION('',(1.,0.,0.));
#645 = ORIENTED_EDGE('',*,*,#646,.F.);
#646 = EDGE_CURVE('',#647,#639,#649,.T.);
#647 = VERTEX_POINT('',#648);
#648 = CARTESIAN_POINT('',(0.5,0.25,0.315));
#649 = CIRCLE('',#650,3.5E-02);
#650 = AXIS2_PLACEMENT_3D('',#651,#652,#653);
#651 = CARTESIAN_POINT('',(0.465,0.25,0.315));
#652 = DIRECTION('',(0.,-1.,0.));
#653 = DIRECTION('',(0.,0.,1.));
#654 = ORIENTED_EDGE('',*,*,#655,.F.);
#655 = EDGE_CURVE('',#656,#647,#658,.T.);
#656 = VERTEX_POINT('',#657);
#657 = CARTESIAN_POINT('',(0.5,0.25,3.5E-02));
#658 = LINE('',#659,#660);
#659 = CARTESIAN_POINT('',(0.5,0.25,0.));
#660 = VECTOR('',#661,1.);
#661 = DIRECTION('',(0.,0.,1.));
#662 = ORIENTED_EDGE('',*,*,#663,.T.);
#663 = EDGE_CURVE('',#656,#612,#664,.T.);
#664 = CIRCLE('',#665,3.5E-02);
#665 = AXIS2_PLACEMENT_3D('',#666,#667,#668);
#666 = CARTESIAN_POINT('',(0.465,0.25,3.5E-02));
#667 = DIRECTION('',(0.,1.,0.));
#668 = DIRECTION('',(0.,-0.,1.));
#669 = PLANE('',#670);
#670 = AXIS2_PLACEMENT_3D('',#671,#672,#673);
#671 = CARTESIAN_POINT('',(0.3,0.25,0.));
#672 = DIRECTION('',(0.,1.,0.));
#673 = DIRECTION('',(0.,-0.,1.));
#674 = ADVANCED_FACE('',(#675),#693,.T.);
#675 = FACE_BOUND('',#676,.T.);
#676 = EDGE_LOOP('',(#677,#678,#679,#687));
#677 = ORIENTED_EDGE('',*,*,#422,.F.);
#678 = ORIENTED_EDGE('',*,*,#587,.T.);
#679 = ORIENTED_EDGE('',*,*,#680,.T.);
#680 = EDGE_CURVE('',#588,#681,#683,.T.);
#681 = VERTEX_POINT('',#682);
#682 = CARTESIAN_POINT('',(0.3,0.25,0.35));
#683 = LINE('',#684,#685);
#684 = CARTESIAN_POINT('',(-0.3,0.25,0.35));
#685 = VECTOR('',#686,1.);
#686 = DIRECTION('',(1.,0.,0.));
#687 = ORIENTED_EDGE('',*,*,#688,.F.);
#688 = EDGE_CURVE('',#423,#681,#689,.T.);
#689 = LINE('',#690,#691);
#690 = CARTESIAN_POINT('',(0.3,0.25,0.315));
#691 = VECTOR('',#692,1.);
#692 = DIRECTION('',(0.,0.,1.));
#693 = PLANE('',#694);
#694 = AXIS2_PLACEMENT_3D('',#695,#696,#697);
#695 = CARTESIAN_POINT('',(-0.3,0.25,0.315));
#696 = DIRECTION('',(0.,1.,0.));
#697 = DIRECTION('',(0.,-0.,1.));
#698 = ADVANCED_FACE('',(#699),#710,.T.);
#699 = FACE_BOUND('',#700,.T.);
#700 = EDGE_LOOP('',(#701,#702,#703,#709));
#701 = ORIENTED_EDGE('',*,*,#470,.T.);
#702 = ORIENTED_EDGE('',*,*,#619,.T.);
#703 = ORIENTED_EDGE('',*,*,#704,.F.);
#704 = EDGE_CURVE('',#486,#610,#705,.T.);
#705 = LINE('',#706,#707);
#706 = CARTESIAN_POINT('',(0.335,-0.25,-2.775557561563E-17));
#707 = VECTOR('',#708,1.);
#708 = DIRECTION('',(0.,1.,0.));
#709 = ORIENTED_EDGE('',*,*,#495,.F.);
#710 = CYLINDRICAL_SURFACE('',#711,3.5E-02);
#711 = AXIS2_PLACEMENT_3D('',#712,#713,#714);
#712 = CARTESIAN_POINT('',(0.335,-0.25,3.5E-02));
#713 = DIRECTION('',(0.,1.,0.));
#714 = DIRECTION('',(-1.,0.,0.));
#715 = ADVANCED_FACE('',(#716),#727,.F.);
#716 = FACE_BOUND('',#717,.F.);
#717 = EDGE_LOOP('',(#718,#719,#720,#721));
#718 = ORIENTED_EDGE('',*,*,#609,.F.);
#719 = ORIENTED_EDGE('',*,*,#704,.F.);
#720 = ORIENTED_EDGE('',*,*,#485,.T.);
#721 = ORIENTED_EDGE('',*,*,#722,.T.);
#722 = EDGE_CURVE('',#488,#612,#723,.T.);
#723 = LINE('',#724,#725);
#724 = CARTESIAN_POINT('',(0.465,-0.25,-2.775557561563E-17));
#725 = VECTOR('',#726,1.);
#726 = DIRECTION('',(0.,1.,0.));
#727 = PLANE('',#728);
#728 = AXIS2_PLACEMENT_3D('',#729,#730,#731);
#729 = CARTESIAN_POINT('',(0.3,-0.25,0.));
#730 = DIRECTION('',(0.,0.,1.));
#731 = DIRECTION('',(1.,0.,-0.));
#732 = ADVANCED_FACE('',(#733),#744,.T.);
#733 = FACE_BOUND('',#734,.T.);
#734 = EDGE_LOOP('',(#735,#736,#737,#738));
#735 = ORIENTED_EDGE('',*,*,#539,.T.);
#736 = ORIENTED_EDGE('',*,*,#722,.T.);
#737 = ORIENTED_EDGE('',*,*,#663,.F.);
#738 = ORIENTED_EDGE('',*,*,#739,.F.);
#739 = EDGE_CURVE('',#532,#656,#740,.T.);
#740 = LINE('',#741,#742);
#741 = CARTESIAN_POINT('',(0.5,-0.25,3.5E-02));
#742 = VECTOR('',#743,1.);
#743 = DIRECTION('',(0.,1.,0.));
#744 = CYLINDRICAL_SURFACE('',#745,3.5E-02);
#745 = AXIS2_PLACEMENT_3D('',#746,#747,#748);
#746 = CARTESIAN_POINT('',(0.465,-0.25,3.5E-02));
#747 = DIRECTION('',(0.,1.,0.));
#748 = DIRECTION('',(1.,0.,0.));
#749 = ADVANCED_FACE('',(#750),#761,.T.);
#750 = FACE_BOUND('',#751,.T.);
#751 = EDGE_LOOP('',(#752,#753,#754,#755));
#752 = ORIENTED_EDGE('',*,*,#531,.F.);
#753 = ORIENTED_EDGE('',*,*,#739,.T.);
#754 = ORIENTED_EDGE('',*,*,#655,.T.);
#755 = ORIENTED_EDGE('',*,*,#756,.F.);
#756 = EDGE_CURVE('',#523,#647,#757,.T.);
#757 = LINE('',#758,#759);
#758 = CARTESIAN_POINT('',(0.5,-0.25,0.315));
#759 = VECTOR('',#760,1.);
#760 = DIRECTION('',(0.,1.,0.));
#761 = PLANE('',#762);
#762 = AXIS2_PLACEMENT_3D('',#763,#764,#765);
#763 = CARTESIAN_POINT('',(0.5,-0.25,0.));
#764 = DIRECTION('',(1.,0.,0.));
#765 = DIRECTION('',(0.,0.,1.));
#766 = ADVANCED_FACE('',(#767),#778,.T.);
#767 = FACE_BOUND('',#768,.T.);
#768 = EDGE_LOOP('',(#769,#770,#771,#777));
#769 = ORIENTED_EDGE('',*,*,#756,.T.);
#770 = ORIENTED_EDGE('',*,*,#646,.T.);
#771 = ORIENTED_EDGE('',*,*,#772,.F.);
#772 = EDGE_CURVE('',#515,#639,#773,.T.);
#773 = LINE('',#774,#775);
#774 = CARTESIAN_POINT('',(0.465,-0.25,0.35));
#775 = VECTOR('',#776,1.);
#776 = DIRECTION('',(0.,1.,0.));
#777 = ORIENTED_EDGE('',*,*,#522,.F.);
#778 = CYLINDRICAL_SURFACE('',#779,3.5E-02);
#779 = AXIS2_PLACEMENT_3D('',#780,#781,#782);
#780 = CARTESIAN_POINT('',(0.465,-0.25,0.315));
#781 = DIRECTION('',(0.,1.,0.));
#782 = DIRECTION('',(1.,0.,0.));
#783 = ADVANCED_FACE('',(#784),#795,.T.);
#784 = FACE_BOUND('',#785,.T.);
#785 = EDGE_LOOP('',(#786,#787,#793,#794));
#786 = ORIENTED_EDGE('',*,*,#638,.F.);
#787 = ORIENTED_EDGE('',*,*,#788,.F.);
#788 = EDGE_CURVE('',#506,#630,#789,.T.);
#789 = LINE('',#790,#791);
#790 = CARTESIAN_POINT('',(0.335,-0.25,0.35));
#791 = VECTOR('',#792,1.);
#792 = DIRECTION('',(0.,1.,0.));
#793 = ORIENTED_EDGE('',*,*,#514,.T.);
#794 = ORIENTED_EDGE('',*,*,#772,.T.);
#795 = PLANE('',#796);
#796 = AXIS2_PLACEMENT_3D('',#797,#798,#799);
#797 = CARTESIAN_POINT('',(0.3,-0.25,0.35));
#798 = DIRECTION('',(0.,0.,1.));
#799 = DIRECTION('',(1.,0.,-0.));
#800 = ADVANCED_FACE('',(#801),#812,.T.);
#801 = FACE_BOUND('',#802,.T.);
#802 = EDGE_LOOP('',(#803,#804,#805,#806));
#803 = ORIENTED_EDGE('',*,*,#505,.T.);
#804 = ORIENTED_EDGE('',*,*,#788,.T.);
#805 = ORIENTED_EDGE('',*,*,#629,.F.);
#806 = ORIENTED_EDGE('',*,*,#807,.F.);
#807 = EDGE_CURVE('',#340,#423,#808,.T.);
#808 = LINE('',#809,#810);
#809 = CARTESIAN_POINT('',(0.3,-0.25,0.315));
#810 = VECTOR('',#811,1.);
#811 = DIRECTION('',(0.,1.,0.));
#812 = CYLINDRICAL_SURFACE('',#813,3.5E-02);
#813 = AXIS2_PLACEMENT_3D('',#814,#815,#816);
#814 = CARTESIAN_POINT('',(0.335,-0.25,0.315));
#815 = DIRECTION('',(0.,1.,0.));
#816 = DIRECTION('',(-1.,0.,0.));
#817 = ADVANCED_FACE('',(#818),#829,.T.);
#818 = FACE_BOUND('',#819,.T.);
#819 = EDGE_LOOP('',(#820,#821,#822,#823));
#820 = ORIENTED_EDGE('',*,*,#571,.F.);
#821 = ORIENTED_EDGE('',*,*,#807,.T.);
#822 = ORIENTED_EDGE('',*,*,#688,.T.);
#823 = ORIENTED_EDGE('',*,*,#824,.F.);
#824 = EDGE_CURVE('',#564,#681,#825,.T.);
#825 = LINE('',#826,#827);
#826 = CARTESIAN_POINT('',(0.3,-0.25,0.35));
#827 = VECTOR('',#828,1.);
#828 = DIRECTION('',(0.,1.,0.));
#829 = PLANE('',#830);
#830 = AXIS2_PLACEMENT_3D('',#831,#832,#833);
#831 = CARTESIAN_POINT('',(0.3,-0.25,0.315));
#832 = DIRECTION('',(1.,0.,0.));
#833 = DIRECTION('',(0.,0.,1.));
#834 = ADVANCED_FACE('',(#835),#841,.T.);
#835 = FACE_BOUND('',#836,.T.);
#836 = EDGE_LOOP('',(#837,#838,#839,#840));
#837 = ORIENTED_EDGE('',*,*,#595,.F.);
#838 = ORIENTED_EDGE('',*,*,#563,.T.);
#839 = ORIENTED_EDGE('',*,*,#824,.T.);
#840 = ORIENTED_EDGE('',*,*,#680,.F.);
#841 = PLANE('',#842);
#842 = AXIS2_PLACEMENT_3D('',#843,#844,#845);
#843 = CARTESIAN_POINT('',(-0.3,-0.25,0.35));
#844 = DIRECTION('',(0.,0.,1.));
#845 = DIRECTION('',(1.,0.,-0.));
#846 = ( GEOMETRIC_REPRESENTATION_CONTEXT(3) 
GLOBAL_UNCERTAINTY_ASSIGNED_CONTEXT((#850)) GLOBAL_UNIT_ASSIGNED_CONTEXT
((#847,#848,#849)) REPRESENTATION_CONTEXT('Context #1',
  '3D Context with UNIT and UNCERTAINTY') );
#847 = ( LENGTH_UNIT() NAMED_UNIT(*) SI_UNIT(.MILLI.,.METRE.) );
#848 = ( NAMED_UNIT(*) PLANE_ANGLE_UNIT() SI_UNIT($,.RADIAN.) );
#849 = ( NAMED_UNIT(*) SI_UNIT($,.STERADIAN.) SOLID_ANGLE_UNIT() );
#850 = UNCERTAINTY_MEASURE_WITH_UNIT(LENGTH_MEASURE(1.E-07),#847,
  'distance_accuracy_value','confusion accuracy');
#851 = CONTEXT_DEPENDENT_SHAPE_REPRESENTATION(#852,#854);
#852 = ( REPRESENTATION_RELATIONSHIP('','',#55,#32) 
REPRESENTATION_RELATIONSHIP_WITH_TRANSFORMATION(#853) 
SHAPE_REPRESENTATION_RELATIONSHIP() );
#853 = ITEM_DEFINED_TRANSFORMATION('','',#11,#33);
#854 = PRODUCT_DEFINITION_SHAPE('Placement','Placement of an item',#855
  );
#855 = NEXT_ASSEMBLY_USAGE_OCCURRENCE('1','=>[0:1:1:3]','',#27,#50,$);
#856 = PRODUCT_RELATED_PRODUCT_CATEGORY('part',$,(#52));
#857 = MECHANICAL_DESIGN_GEOMETRIC_PRESENTATION_REPRESENTATION('',(#858,
    #866,#873,#880,#887,#894,#901,#908,#916,#923,#930,#937,#944,#951,
    #959,#966,#973,#980,#987,#994,#1001,#1008,#1015,#1022,#1029,#1036),
  #846);
#858 = STYLED_ITEM('color',(#859),#58);
#859 = PRESENTATION_STYLE_ASSIGNMENT((#860));
#860 = SURFACE_STYLE_USAGE(.BOTH.,#861);
#861 = SURFACE_SIDE_STYLE('',(#862));
#862 = SURFACE_STYLE_FILL_AREA(#863);
#863 = FILL_AREA_STYLE('',(#864));
#864 = FILL_AREA_STYLE_COLOUR('',#865);
#865 = COLOUR_RGB('',0.823999987314,0.819999987296,0.781000009244);
#866 = STYLED_ITEM('color',(#867),#98);
#867 = PRESENTATION_STYLE_ASSIGNMENT((#868));
#868 = SURFACE_STYLE_USAGE(.BOTH.,#869);
#869 = SURFACE_SIDE_STYLE('',(#870));
#870 = SURFACE_STYLE_FILL_AREA(#871);
#871 = FILL_AREA_STYLE('',(#872));
#872 = FILL_AREA_STYLE_COLOUR('',#865);
#873 = STYLED_ITEM('color',(#874),#181);
#874 = PRESENTATION_STYLE_ASSIGNMENT((#875));
#875 = SURFACE_STYLE_USAGE(.BOTH.,#876);
#876 = SURFACE_SIDE_STYLE('',(#877));
#877 = SURFACE_STYLE_FILL_AREA(#878);
#878 = FILL_AREA_STYLE('',(#879));
#879 = FILL_AREA_STYLE_COLOUR('',#865);
#880 = STYLED_ITEM('color',(#881),#206);
#881 = PRESENTATION_STYLE_ASSIGNMENT((#882));
#882 = SURFACE_STYLE_USAGE(.BOTH.,#883);
#883 = SURFACE_SIDE_STYLE('',(#884));
#884 = SURFACE_STYLE_FILL_AREA(#885);
#885 = FILL_AREA_STYLE('',(#886));
#886 = FILL_AREA_STYLE_COLOUR('',#865);
#887 = STYLED_ITEM('color',(#888),#231);
#888 = PRESENTATION_STYLE_ASSIGNMENT((#889));
#889 = SURFACE_STYLE_USAGE(.BOTH.,#890);
#890 = SURFACE_SIDE_STYLE('',(#891));
#891 = SURFACE_STYLE_FILL_AREA(#892);
#892 = FILL_AREA_STYLE('',(#893));
#893 = FILL_AREA_STYLE_COLOUR('',#865);
#894 = STYLED_ITEM('color',(#895),#298);
#895 = PRESENTATION_STYLE_ASSIGNMENT((#896));
#896 = SURFACE_STYLE_USAGE(.BOTH.,#897);
#897 = SURFACE_SIDE_STYLE('',(#898));
#898 = SURFACE_STYLE_FILL_AREA(#899);
#899 = FILL_AREA_STYLE('',(#900));
#900 = FILL_AREA_STYLE_COLOUR('',#865);
#901 = STYLED_ITEM('color',(#902),#315);
#902 = PRESENTATION_STYLE_ASSIGNMENT((#903));
#903 = SURFACE_STYLE_USAGE(.BOTH.,#904);
#904 = SURFACE_SIDE_STYLE('',(#905));
#905 = SURFACE_STYLE_FILL_AREA(#906);
#906 = FILL_AREA_STYLE('',(#907));
#907 = FILL_AREA_STYLE_COLOUR('',#865);
#908 = STYLED_ITEM('color',(#909),#332);
#909 = PRESENTATION_STYLE_ASSIGNMENT((#910));
#910 = SURFACE_STYLE_USAGE(.BOTH.,#911);
#911 = SURFACE_SIDE_STYLE('',(#912));
#912 = SURFACE_STYLE_FILL_AREA(#913);
#913 = FILL_AREA_STYLE('',(#914));
#914 = FILL_AREA_STYLE_COLOUR('',#915);
#915 = COLOUR_RGB('',0.894999966383,0.890999961016,0.813000030345);
#916 = STYLED_ITEM('color',(#917),#381);
#917 = PRESENTATION_STYLE_ASSIGNMENT((#918));
#918 = SURFACE_STYLE_USAGE(.BOTH.,#919);
#919 = SURFACE_SIDE_STYLE('',(#920));
#920 = SURFACE_STYLE_FILL_AREA(#921);
#921 = FILL_AREA_STYLE('',(#922));
#922 = FILL_AREA_STYLE_COLOUR('',#865);
#923 = STYLED_ITEM('color',(#924),#398);
#924 = PRESENTATION_STYLE_ASSIGNMENT((#925));
#925 = SURFACE_STYLE_USAGE(.BOTH.,#926);
#926 = SURFACE_SIDE_STYLE('',(#927));
#927 = SURFACE_STYLE_FILL_AREA(#928);
#928 = FILL_AREA_STYLE('',(#929));
#929 = FILL_AREA_STYLE_COLOUR('',#865);
#930 = STYLED_ITEM('color',(#931),#415);
#931 = PRESENTATION_STYLE_ASSIGNMENT((#932));
#932 = SURFACE_STYLE_USAGE(.BOTH.,#933);
#933 = SURFACE_SIDE_STYLE('',(#934));
#934 = SURFACE_STYLE_FILL_AREA(#935);
#935 = FILL_AREA_STYLE('',(#936));
#936 = FILL_AREA_STYLE_COLOUR('',#915);
#937 = STYLED_ITEM('color',(#938),#464);
#938 = PRESENTATION_STYLE_ASSIGNMENT((#939));
#939 = SURFACE_STYLE_USAGE(.BOTH.,#940);
#940 = SURFACE_SIDE_STYLE('',(#941));
#941 = SURFACE_STYLE_FILL_AREA(#942);
#942 = FILL_AREA_STYLE('',(#943));
#943 = FILL_AREA_STYLE_COLOUR('',#915);
#944 = STYLED_ITEM('color',(#945),#481);
#945 = PRESENTATION_STYLE_ASSIGNMENT((#946));
#946 = SURFACE_STYLE_USAGE(.BOTH.,#947);
#947 = SURFACE_SIDE_STYLE('',(#948));
#948 = SURFACE_STYLE_FILL_AREA(#949);
#949 = FILL_AREA_STYLE('',(#950));
#950 = FILL_AREA_STYLE_COLOUR('',#865);
#951 = STYLED_ITEM('color',(#952),#550);
#952 = PRESENTATION_STYLE_ASSIGNMENT((#953));
#953 = SURFACE_STYLE_USAGE(.BOTH.,#954);
#954 = SURFACE_SIDE_STYLE('',(#955));
#955 = SURFACE_STYLE_FILL_AREA(#956);
#956 = FILL_AREA_STYLE('',(#957));
#957 = FILL_AREA_STYLE_COLOUR('',#958);
#958 = COLOUR_RGB('',8.200000279077E-02,8.600000121357E-02,
  9.399999706163E-02);
#959 = STYLED_ITEM('color',(#960),#581);
#960 = PRESENTATION_STYLE_ASSIGNMENT((#961));
#961 = SURFACE_STYLE_USAGE(.BOTH.,#962);
#962 = SURFACE_SIDE_STYLE('',(#963));
#963 = SURFACE_STYLE_FILL_AREA(#964);
#964 = FILL_AREA_STYLE('',(#965));
#965 = FILL_AREA_STYLE_COLOUR('',#958);
#966 = STYLED_ITEM('color',(#967),#605);
#967 = PRESENTATION_STYLE_ASSIGNMENT((#968));
#968 = SURFACE_STYLE_USAGE(.BOTH.,#969);
#969 = SURFACE_SIDE_STYLE('',(#970));
#970 = SURFACE_STYLE_FILL_AREA(#971);
#971 = FILL_AREA_STYLE('',(#972));
#972 = FILL_AREA_STYLE_COLOUR('',#865);
#973 = STYLED_ITEM('color',(#974),#674);
#974 = PRESENTATION_STYLE_ASSIGNMENT((#975));
#975 = SURFACE_STYLE_USAGE(.BOTH.,#976);
#976 = SURFACE_SIDE_STYLE('',(#977));
#977 = SURFACE_STYLE_FILL_AREA(#978);
#978 = FILL_AREA_STYLE('',(#979));
#979 = FILL_AREA_STYLE_COLOUR('',#958);
#980 = STYLED_ITEM('color',(#981),#698);
#981 = PRESENTATION_STYLE_ASSIGNMENT((#982));
#982 = SURFACE_STYLE_USAGE(.BOTH.,#983);
#983 = SURFACE_SIDE_STYLE('',(#984));
#984 = SURFACE_STYLE_FILL_AREA(#985);
#985 = FILL_AREA_STYLE('',(#986));
#986 = FILL_AREA_STYLE_COLOUR('',#865);
#987 = STYLED_ITEM('color',(#988),#715);
#988 = PRESENTATION_STYLE_ASSIGNMENT((#989));
#989 = SURFACE_STYLE_USAGE(.BOTH.,#990);
#990 = SURFACE_SIDE_STYLE('',(#991));
#991 = SURFACE_STYLE_FILL_AREA(#992);
#992 = FILL_AREA_STYLE('',(#993));
#993 = FILL_AREA_STYLE_COLOUR('',#865);
#994 = STYLED_ITEM('color',(#995),#732);
#995 = PRESENTATION_STYLE_ASSIGNMENT((#996));
#996 = SURFACE_STYLE_USAGE(.BOTH.,#997);
#997 = SURFACE_SIDE_STYLE('',(#998));
#998 = SURFACE_STYLE_FILL_AREA(#999);
#999 = FILL_AREA_STYLE('',(#1000));
#1000 = FILL_AREA_STYLE_COLOUR('',#865);
#1001 = STYLED_ITEM('color',(#1002),#749);
#1002 = PRESENTATION_STYLE_ASSIGNMENT((#1003));
#1003 = SURFACE_STYLE_USAGE(.BOTH.,#1004);
#1004 = SURFACE_SIDE_STYLE('',(#1005));
#1005 = SURFACE_STYLE_FILL_AREA(#1006);
#1006 = FILL_AREA_STYLE('',(#1007));
#1007 = FILL_AREA_STYLE_COLOUR('',#865);
#1008 = STYLED_ITEM('color',(#1009),#766);
#1009 = PRESENTATION_STYLE_ASSIGNMENT((#1010));
#1010 = SURFACE_STYLE_USAGE(.BOTH.,#1011);
#1011 = SURFACE_SIDE_STYLE('',(#1012));
#1012 = SURFACE_STYLE_FILL_AREA(#1013);
#1013 = FILL_AREA_STYLE('',(#1014));
#1014 = FILL_AREA_STYLE_COLOUR('',#865);
#1015 = STYLED_ITEM('color',(#1016),#783);
#1016 = PRESENTATION_STYLE_ASSIGNMENT((#1017));
#1017 = SURFACE_STYLE_USAGE(.BOTH.,#1018);
#1018 = SURFACE_SIDE_STYLE('',(#1019));
#1019 = SURFACE_STYLE_FILL_AREA(#1020);
#1020 = FILL_AREA_STYLE('',(#1021));
#1021 = FILL_AREA_STYLE_COLOUR('',#865);
#1022 = STYLED_ITEM('color',(#1023),#800);
#1023 = PRESENTATION_STYLE_ASSIGNMENT((#1024));
#1024 = SURFACE_STYLE_USAGE(.BOTH.,#1025);
#1025 = SURFACE_SIDE_STYLE('',(#1026));
#1026 = SURFACE_STYLE_FILL_AREA(#1027);
#1027 = FILL_AREA_STYLE('',(#1028));
#1028 = FILL_AREA_STYLE_COLOUR('',#865);
#1029 = STYLED_ITEM('color',(#1030),#817);
#1030 = PRESENTATION_STYLE_ASSIGNMENT((#1031));
#1031 = SURFACE_STYLE_USAGE(.BOTH.,#1032);
#1032 = SURFACE_SIDE_STYLE('',(#1033));
#1033 = SURFACE_STYLE_FILL_AREA(#1034);
#1034 = FILL_AREA_STYLE('',(#1035));
#1035 = FILL_AREA_STYLE_COLOUR('',#958);
#1036 = STYLED_ITEM('color',(#1037),#834);
#1037 = PRESENTATION_STYLE_ASSIGNMENT((#1038));
#1038 = SURFACE_STYLE_USAGE(.BOTH.,#1039);
#1039 = SURFACE_SIDE_STYLE('',(#1040));
#1040 = SURFACE_STYLE_FILL_AREA(#1041);
#1041 = FILL_AREA_STYLE('',(#1042));
#1042 = FILL_AREA_STYLE_COLOUR('',#958);
ENDSEC;
END-ISO-10303-21;
